<?xml version="1.0" encoding="utf-8" standalone="no"?>
<!DOCTYPE svg PUBLIC "-//W3C//DTD SVG 1.1//EN"
  "http://www.w3.org/Graphics/SVG/1.1/DTD/svg11.dtd">
<svg xmlns:xlink="http://www.w3.org/1999/xlink" width="392.14375pt" height="304.189125pt" viewBox="0 0 392.14375 304.189125" xmlns="http://www.w3.org/2000/svg" version="1.1">
 <metadata>
  <rdf:RDF xmlns:dc="http://purl.org/dc/elements/1.1/" xmlns:cc="http://creativecommons.org/ns#" xmlns:rdf="http://www.w3.org/1999/02/22-rdf-syntax-ns#">
   <cc:Work>
    <dc:type rdf:resource="http://purl.org/dc/dcmitype/StillImage"/>
    <dc:date>2022-02-07T15:53:42.214495</dc:date>
    <dc:format>image/svg+xml</dc:format>
    <dc:creator>
     <cc:Agent>
      <dc:title>Matplotlib v3.5.1, https://matplotlib.org/</dc:title>
     </cc:Agent>
    </dc:creator>
   </cc:Work>
  </rdf:RDF>
 </metadata>
 <defs>
  <style type="text/css">*{stroke-linejoin: round; stroke-linecap: butt}</style>
 </defs>
 <g id="figure_1">
  <g id="patch_1">
   <path d="M 0 304.189125 
L 392.14375 304.189125 
L 392.14375 0 
L 0 0 
L 0 304.189125 
z
" style="fill: none"/>
  </g>
  <g id="axes_1">
   <g id="patch_2">
    <path d="M 50.14375 266.632875 
L 384.94375 266.632875 
L 384.94375 49.192875 
L 50.14375 49.192875 
z
" style="fill: #ffffff"/>
   </g>
   <g id="matplotlib.axis_1">
    <g id="xtick_1">
     <g id="line2d_1">
      <defs>
       <path id="m777be19c01" d="M 0 0 
L 0 3.5 
" style="stroke: #000000; stroke-width: 0.8"/>
      </defs>
      <g>
       <use xlink:href="#m777be19c01" x="65.361932" y="266.632875" style="stroke: #000000; stroke-width: 0.8"/>
      </g>
     </g>
     <g id="text_1">
      <!-- 50 -->
      <g transform="translate(58.999432 281.231312)scale(0.1 -0.1)">
       <defs>
        <path id="DejaVuSans-35" d="M 691 4666 
L 3169 4666 
L 3169 4134 
L 1269 4134 
L 1269 2991 
Q 1406 3038 1543 3061 
Q 1681 3084 1819 3084 
Q 2600 3084 3056 2656 
Q 3513 2228 3513 1497 
Q 3513 744 3044 326 
Q 2575 -91 1722 -91 
Q 1428 -91 1123 -41 
Q 819 9 494 109 
L 494 744 
Q 775 591 1075 516 
Q 1375 441 1709 441 
Q 2250 441 2565 725 
Q 2881 1009 2881 1497 
Q 2881 1984 2565 2268 
Q 2250 2553 1709 2553 
Q 1456 2553 1204 2497 
Q 953 2441 691 2322 
L 691 4666 
z
" transform="scale(0.015625)"/>
        <path id="DejaVuSans-30" d="M 2034 4250 
Q 1547 4250 1301 3770 
Q 1056 3291 1056 2328 
Q 1056 1369 1301 889 
Q 1547 409 2034 409 
Q 2525 409 2770 889 
Q 3016 1369 3016 2328 
Q 3016 3291 2770 3770 
Q 2525 4250 2034 4250 
z
M 2034 4750 
Q 2819 4750 3233 4129 
Q 3647 3509 3647 2328 
Q 3647 1150 3233 529 
Q 2819 -91 2034 -91 
Q 1250 -91 836 529 
Q 422 1150 422 2328 
Q 422 3509 836 4129 
Q 1250 4750 2034 4750 
z
" transform="scale(0.015625)"/>
       </defs>
       <use xlink:href="#DejaVuSans-35"/>
       <use xlink:href="#DejaVuSans-30" x="63.623047"/>
      </g>
     </g>
    </g>
    <g id="xtick_2">
     <g id="line2d_2">
      <g>
       <use xlink:href="#m777be19c01" x="103.407386" y="266.632875" style="stroke: #000000; stroke-width: 0.8"/>
      </g>
     </g>
     <g id="text_2">
      <!-- 75 -->
      <g transform="translate(97.044886 281.231312)scale(0.1 -0.1)">
       <defs>
        <path id="DejaVuSans-37" d="M 525 4666 
L 3525 4666 
L 3525 4397 
L 1831 0 
L 1172 0 
L 2766 4134 
L 525 4134 
L 525 4666 
z
" transform="scale(0.015625)"/>
       </defs>
       <use xlink:href="#DejaVuSans-37"/>
       <use xlink:href="#DejaVuSans-35" x="63.623047"/>
      </g>
     </g>
    </g>
    <g id="xtick_3">
     <g id="line2d_3">
      <g>
       <use xlink:href="#m777be19c01" x="141.452841" y="266.632875" style="stroke: #000000; stroke-width: 0.8"/>
      </g>
     </g>
     <g id="text_3">
      <!-- 100 -->
      <g transform="translate(131.909091 281.231312)scale(0.1 -0.1)">
       <defs>
        <path id="DejaVuSans-31" d="M 794 531 
L 1825 531 
L 1825 4091 
L 703 3866 
L 703 4441 
L 1819 4666 
L 2450 4666 
L 2450 531 
L 3481 531 
L 3481 0 
L 794 0 
L 794 531 
z
" transform="scale(0.015625)"/>
       </defs>
       <use xlink:href="#DejaVuSans-31"/>
       <use xlink:href="#DejaVuSans-30" x="63.623047"/>
       <use xlink:href="#DejaVuSans-30" x="127.246094"/>
      </g>
     </g>
    </g>
    <g id="xtick_4">
     <g id="line2d_4">
      <g>
       <use xlink:href="#m777be19c01" x="179.498295" y="266.632875" style="stroke: #000000; stroke-width: 0.8"/>
      </g>
     </g>
     <g id="text_4">
      <!-- 125 -->
      <g transform="translate(169.954545 281.231312)scale(0.1 -0.1)">
       <defs>
        <path id="DejaVuSans-32" d="M 1228 531 
L 3431 531 
L 3431 0 
L 469 0 
L 469 531 
Q 828 903 1448 1529 
Q 2069 2156 2228 2338 
Q 2531 2678 2651 2914 
Q 2772 3150 2772 3378 
Q 2772 3750 2511 3984 
Q 2250 4219 1831 4219 
Q 1534 4219 1204 4116 
Q 875 4013 500 3803 
L 500 4441 
Q 881 4594 1212 4672 
Q 1544 4750 1819 4750 
Q 2544 4750 2975 4387 
Q 3406 4025 3406 3419 
Q 3406 3131 3298 2873 
Q 3191 2616 2906 2266 
Q 2828 2175 2409 1742 
Q 1991 1309 1228 531 
z
" transform="scale(0.015625)"/>
       </defs>
       <use xlink:href="#DejaVuSans-31"/>
       <use xlink:href="#DejaVuSans-32" x="63.623047"/>
       <use xlink:href="#DejaVuSans-35" x="127.246094"/>
      </g>
     </g>
    </g>
    <g id="xtick_5">
     <g id="line2d_5">
      <g>
       <use xlink:href="#m777be19c01" x="217.54375" y="266.632875" style="stroke: #000000; stroke-width: 0.8"/>
      </g>
     </g>
     <g id="text_5">
      <!-- 150 -->
      <g transform="translate(208 281.231312)scale(0.1 -0.1)">
       <use xlink:href="#DejaVuSans-31"/>
       <use xlink:href="#DejaVuSans-35" x="63.623047"/>
       <use xlink:href="#DejaVuSans-30" x="127.246094"/>
      </g>
     </g>
    </g>
    <g id="xtick_6">
     <g id="line2d_6">
      <g>
       <use xlink:href="#m777be19c01" x="255.589205" y="266.632875" style="stroke: #000000; stroke-width: 0.8"/>
      </g>
     </g>
     <g id="text_6">
      <!-- 175 -->
      <g transform="translate(246.045455 281.231312)scale(0.1 -0.1)">
       <use xlink:href="#DejaVuSans-31"/>
       <use xlink:href="#DejaVuSans-37" x="63.623047"/>
       <use xlink:href="#DejaVuSans-35" x="127.246094"/>
      </g>
     </g>
    </g>
    <g id="xtick_7">
     <g id="line2d_7">
      <g>
       <use xlink:href="#m777be19c01" x="293.634659" y="266.632875" style="stroke: #000000; stroke-width: 0.8"/>
      </g>
     </g>
     <g id="text_7">
      <!-- 200 -->
      <g transform="translate(284.090909 281.231312)scale(0.1 -0.1)">
       <use xlink:href="#DejaVuSans-32"/>
       <use xlink:href="#DejaVuSans-30" x="63.623047"/>
       <use xlink:href="#DejaVuSans-30" x="127.246094"/>
      </g>
     </g>
    </g>
    <g id="xtick_8">
     <g id="line2d_8">
      <g>
       <use xlink:href="#m777be19c01" x="331.680114" y="266.632875" style="stroke: #000000; stroke-width: 0.8"/>
      </g>
     </g>
     <g id="text_8">
      <!-- 225 -->
      <g transform="translate(322.136364 281.231312)scale(0.1 -0.1)">
       <use xlink:href="#DejaVuSans-32"/>
       <use xlink:href="#DejaVuSans-32" x="63.623047"/>
       <use xlink:href="#DejaVuSans-35" x="127.246094"/>
      </g>
     </g>
    </g>
    <g id="xtick_9">
     <g id="line2d_9">
      <g>
       <use xlink:href="#m777be19c01" x="369.725568" y="266.632875" style="stroke: #000000; stroke-width: 0.8"/>
      </g>
     </g>
     <g id="text_9">
      <!-- 250 -->
      <g transform="translate(360.181818 281.231312)scale(0.1 -0.1)">
       <use xlink:href="#DejaVuSans-32"/>
       <use xlink:href="#DejaVuSans-35" x="63.623047"/>
       <use xlink:href="#DejaVuSans-30" x="127.246094"/>
      </g>
     </g>
    </g>
    <g id="text_10">
     <!-- Units -->
     <g transform="translate(204.761719 294.909437)scale(0.1 -0.1)">
      <defs>
       <path id="DejaVuSans-55" d="M 556 4666 
L 1191 4666 
L 1191 1831 
Q 1191 1081 1462 751 
Q 1734 422 2344 422 
Q 2950 422 3222 751 
Q 3494 1081 3494 1831 
L 3494 4666 
L 4128 4666 
L 4128 1753 
Q 4128 841 3676 375 
Q 3225 -91 2344 -91 
Q 1459 -91 1007 375 
Q 556 841 556 1753 
L 556 4666 
z
" transform="scale(0.015625)"/>
       <path id="DejaVuSans-6e" d="M 3513 2113 
L 3513 0 
L 2938 0 
L 2938 2094 
Q 2938 2591 2744 2837 
Q 2550 3084 2163 3084 
Q 1697 3084 1428 2787 
Q 1159 2491 1159 1978 
L 1159 0 
L 581 0 
L 581 3500 
L 1159 3500 
L 1159 2956 
Q 1366 3272 1645 3428 
Q 1925 3584 2291 3584 
Q 2894 3584 3203 3211 
Q 3513 2838 3513 2113 
z
" transform="scale(0.015625)"/>
       <path id="DejaVuSans-69" d="M 603 3500 
L 1178 3500 
L 1178 0 
L 603 0 
L 603 3500 
z
M 603 4863 
L 1178 4863 
L 1178 4134 
L 603 4134 
L 603 4863 
z
" transform="scale(0.015625)"/>
       <path id="DejaVuSans-74" d="M 1172 4494 
L 1172 3500 
L 2356 3500 
L 2356 3053 
L 1172 3053 
L 1172 1153 
Q 1172 725 1289 603 
Q 1406 481 1766 481 
L 2356 481 
L 2356 0 
L 1766 0 
Q 1100 0 847 248 
Q 594 497 594 1153 
L 594 3053 
L 172 3053 
L 172 3500 
L 594 3500 
L 594 4494 
L 1172 4494 
z
" transform="scale(0.015625)"/>
       <path id="DejaVuSans-73" d="M 2834 3397 
L 2834 2853 
Q 2591 2978 2328 3040 
Q 2066 3103 1784 3103 
Q 1356 3103 1142 2972 
Q 928 2841 928 2578 
Q 928 2378 1081 2264 
Q 1234 2150 1697 2047 
L 1894 2003 
Q 2506 1872 2764 1633 
Q 3022 1394 3022 966 
Q 3022 478 2636 193 
Q 2250 -91 1575 -91 
Q 1294 -91 989 -36 
Q 684 19 347 128 
L 347 722 
Q 666 556 975 473 
Q 1284 391 1588 391 
Q 1994 391 2212 530 
Q 2431 669 2431 922 
Q 2431 1156 2273 1281 
Q 2116 1406 1581 1522 
L 1381 1569 
Q 847 1681 609 1914 
Q 372 2147 372 2553 
Q 372 3047 722 3315 
Q 1072 3584 1716 3584 
Q 2034 3584 2315 3537 
Q 2597 3491 2834 3397 
z
" transform="scale(0.015625)"/>
      </defs>
      <use xlink:href="#DejaVuSans-55"/>
      <use xlink:href="#DejaVuSans-6e" x="73.193359"/>
      <use xlink:href="#DejaVuSans-69" x="136.572266"/>
      <use xlink:href="#DejaVuSans-74" x="164.355469"/>
      <use xlink:href="#DejaVuSans-73" x="203.564453"/>
     </g>
    </g>
   </g>
   <g id="matplotlib.axis_2">
    <g id="ytick_1">
     <g id="line2d_10">
      <path d="M 50.14375 166.642243 
L 384.94375 166.642243 
" clip-path="url(#pdb96d0b44e)" style="fill: none; stroke-dasharray: 2.96,1.28; stroke-dashoffset: 0; stroke: #808080; stroke-width: 0.8"/>
     </g>
     <g id="line2d_11">
      <defs>
       <path id="mb1ffa71928" d="M 0 0 
L -3.5 0 
" style="stroke: #000000; stroke-width: 0.8"/>
      </defs>
      <g>
       <use xlink:href="#mb1ffa71928" x="50.14375" y="166.642243" style="stroke: #000000; stroke-width: 0.8"/>
      </g>
     </g>
     <g id="text_11">
      <!-- 0.95 -->
      <g transform="translate(20.878125 170.441461)scale(0.1 -0.1)">
       <defs>
        <path id="DejaVuSans-2e" d="M 684 794 
L 1344 794 
L 1344 0 
L 684 0 
L 684 794 
z
" transform="scale(0.015625)"/>
        <path id="DejaVuSans-39" d="M 703 97 
L 703 672 
Q 941 559 1184 500 
Q 1428 441 1663 441 
Q 2288 441 2617 861 
Q 2947 1281 2994 2138 
Q 2813 1869 2534 1725 
Q 2256 1581 1919 1581 
Q 1219 1581 811 2004 
Q 403 2428 403 3163 
Q 403 3881 828 4315 
Q 1253 4750 1959 4750 
Q 2769 4750 3195 4129 
Q 3622 3509 3622 2328 
Q 3622 1225 3098 567 
Q 2575 -91 1691 -91 
Q 1453 -91 1209 -44 
Q 966 3 703 97 
z
M 1959 2075 
Q 2384 2075 2632 2365 
Q 2881 2656 2881 3163 
Q 2881 3666 2632 3958 
Q 2384 4250 1959 4250 
Q 1534 4250 1286 3958 
Q 1038 3666 1038 3163 
Q 1038 2656 1286 2365 
Q 1534 2075 1959 2075 
z
" transform="scale(0.015625)"/>
       </defs>
       <use xlink:href="#DejaVuSans-30"/>
       <use xlink:href="#DejaVuSans-2e" x="63.623047"/>
       <use xlink:href="#DejaVuSans-39" x="95.410156"/>
       <use xlink:href="#DejaVuSans-35" x="159.033203"/>
      </g>
     </g>
    </g>
    <g id="ytick_2">
     <g id="line2d_12">
      <path d="M 50.14375 49.192875 
L 384.94375 49.192875 
" clip-path="url(#pdb96d0b44e)" style="fill: none; stroke-dasharray: 2.96,1.28; stroke-dashoffset: 0; stroke: #808080; stroke-width: 0.8"/>
     </g>
     <g id="line2d_13">
      <g>
       <use xlink:href="#mb1ffa71928" x="50.14375" y="49.192875" style="stroke: #000000; stroke-width: 0.8"/>
      </g>
     </g>
     <g id="text_12">
      <!-- 1.00 -->
      <g transform="translate(20.878125 52.992094)scale(0.1 -0.1)">
       <use xlink:href="#DejaVuSans-31"/>
       <use xlink:href="#DejaVuSans-2e" x="63.623047"/>
       <use xlink:href="#DejaVuSans-30" x="95.410156"/>
       <use xlink:href="#DejaVuSans-30" x="159.033203"/>
      </g>
     </g>
    </g>
    <g id="ytick_3">
     <g id="line2d_14">
      <defs>
       <path id="ma11b3a1423" d="M 0 0 
L -2 0 
" style="stroke: #000000; stroke-width: 0.6"/>
      </defs>
      <g>
       <use xlink:href="#ma11b3a1423" x="50.14375" y="260.601737" style="stroke: #000000; stroke-width: 0.6"/>
      </g>
     </g>
    </g>
    <g id="ytick_4">
     <g id="line2d_15">
      <g>
       <use xlink:href="#ma11b3a1423" x="50.14375" y="237.111863" style="stroke: #000000; stroke-width: 0.6"/>
      </g>
     </g>
    </g>
    <g id="ytick_5">
     <g id="line2d_16">
      <g>
       <use xlink:href="#ma11b3a1423" x="50.14375" y="213.62199" style="stroke: #000000; stroke-width: 0.6"/>
      </g>
     </g>
    </g>
    <g id="ytick_6">
     <g id="line2d_17">
      <g>
       <use xlink:href="#ma11b3a1423" x="50.14375" y="190.132116" style="stroke: #000000; stroke-width: 0.6"/>
      </g>
     </g>
    </g>
    <g id="ytick_7">
     <g id="line2d_18">
      <g>
       <use xlink:href="#ma11b3a1423" x="50.14375" y="143.152369" style="stroke: #000000; stroke-width: 0.6"/>
      </g>
     </g>
    </g>
    <g id="ytick_8">
     <g id="line2d_19">
      <g>
       <use xlink:href="#ma11b3a1423" x="50.14375" y="119.662496" style="stroke: #000000; stroke-width: 0.6"/>
      </g>
     </g>
    </g>
    <g id="ytick_9">
     <g id="line2d_20">
      <g>
       <use xlink:href="#ma11b3a1423" x="50.14375" y="96.172622" style="stroke: #000000; stroke-width: 0.6"/>
      </g>
     </g>
    </g>
    <g id="ytick_10">
     <g id="line2d_21">
      <g>
       <use xlink:href="#ma11b3a1423" x="50.14375" y="72.682749" style="stroke: #000000; stroke-width: 0.6"/>
      </g>
     </g>
    </g>
    <g id="text_13">
     <!-- Accuracy -->
     <g transform="translate(14.798438 180.741)rotate(-90)scale(0.1 -0.1)">
      <defs>
       <path id="DejaVuSans-41" d="M 2188 4044 
L 1331 1722 
L 3047 1722 
L 2188 4044 
z
M 1831 4666 
L 2547 4666 
L 4325 0 
L 3669 0 
L 3244 1197 
L 1141 1197 
L 716 0 
L 50 0 
L 1831 4666 
z
" transform="scale(0.015625)"/>
       <path id="DejaVuSans-63" d="M 3122 3366 
L 3122 2828 
Q 2878 2963 2633 3030 
Q 2388 3097 2138 3097 
Q 1578 3097 1268 2742 
Q 959 2388 959 1747 
Q 959 1106 1268 751 
Q 1578 397 2138 397 
Q 2388 397 2633 464 
Q 2878 531 3122 666 
L 3122 134 
Q 2881 22 2623 -34 
Q 2366 -91 2075 -91 
Q 1284 -91 818 406 
Q 353 903 353 1747 
Q 353 2603 823 3093 
Q 1294 3584 2113 3584 
Q 2378 3584 2631 3529 
Q 2884 3475 3122 3366 
z
" transform="scale(0.015625)"/>
       <path id="DejaVuSans-75" d="M 544 1381 
L 544 3500 
L 1119 3500 
L 1119 1403 
Q 1119 906 1312 657 
Q 1506 409 1894 409 
Q 2359 409 2629 706 
Q 2900 1003 2900 1516 
L 2900 3500 
L 3475 3500 
L 3475 0 
L 2900 0 
L 2900 538 
Q 2691 219 2414 64 
Q 2138 -91 1772 -91 
Q 1169 -91 856 284 
Q 544 659 544 1381 
z
M 1991 3584 
L 1991 3584 
z
" transform="scale(0.015625)"/>
       <path id="DejaVuSans-72" d="M 2631 2963 
Q 2534 3019 2420 3045 
Q 2306 3072 2169 3072 
Q 1681 3072 1420 2755 
Q 1159 2438 1159 1844 
L 1159 0 
L 581 0 
L 581 3500 
L 1159 3500 
L 1159 2956 
Q 1341 3275 1631 3429 
Q 1922 3584 2338 3584 
Q 2397 3584 2469 3576 
Q 2541 3569 2628 3553 
L 2631 2963 
z
" transform="scale(0.015625)"/>
       <path id="DejaVuSans-61" d="M 2194 1759 
Q 1497 1759 1228 1600 
Q 959 1441 959 1056 
Q 959 750 1161 570 
Q 1363 391 1709 391 
Q 2188 391 2477 730 
Q 2766 1069 2766 1631 
L 2766 1759 
L 2194 1759 
z
M 3341 1997 
L 3341 0 
L 2766 0 
L 2766 531 
Q 2569 213 2275 61 
Q 1981 -91 1556 -91 
Q 1019 -91 701 211 
Q 384 513 384 1019 
Q 384 1609 779 1909 
Q 1175 2209 1959 2209 
L 2766 2209 
L 2766 2266 
Q 2766 2663 2505 2880 
Q 2244 3097 1772 3097 
Q 1472 3097 1187 3025 
Q 903 2953 641 2809 
L 641 3341 
Q 956 3463 1253 3523 
Q 1550 3584 1831 3584 
Q 2591 3584 2966 3190 
Q 3341 2797 3341 1997 
z
" transform="scale(0.015625)"/>
       <path id="DejaVuSans-79" d="M 2059 -325 
Q 1816 -950 1584 -1140 
Q 1353 -1331 966 -1331 
L 506 -1331 
L 506 -850 
L 844 -850 
Q 1081 -850 1212 -737 
Q 1344 -625 1503 -206 
L 1606 56 
L 191 3500 
L 800 3500 
L 1894 763 
L 2988 3500 
L 3597 3500 
L 2059 -325 
z
" transform="scale(0.015625)"/>
      </defs>
      <use xlink:href="#DejaVuSans-41"/>
      <use xlink:href="#DejaVuSans-63" x="66.658203"/>
      <use xlink:href="#DejaVuSans-63" x="121.638672"/>
      <use xlink:href="#DejaVuSans-75" x="176.619141"/>
      <use xlink:href="#DejaVuSans-72" x="239.998047"/>
      <use xlink:href="#DejaVuSans-61" x="281.111328"/>
      <use xlink:href="#DejaVuSans-63" x="342.390625"/>
      <use xlink:href="#DejaVuSans-79" x="397.371094"/>
     </g>
    </g>
   </g>
   <g id="LineCollection_1">
    <path d="M 65.361932 233.302697 
L 65.361932 125.376259 
" clip-path="url(#pdb96d0b44e)" style="fill: none; stroke: #1f77b4; stroke-width: 1.5"/>
    <path d="M 103.407386 176.165229 
L 103.407386 144.422035 
" clip-path="url(#pdb96d0b44e)" style="fill: none; stroke: #1f77b4; stroke-width: 1.5"/>
    <path d="M 141.452841 201.559643 
L 141.452841 144.422035 
" clip-path="url(#pdb96d0b44e)" style="fill: none; stroke: #1f77b4; stroke-width: 1.5"/>
    <path d="M 217.54375 239.651336 
L 217.54375 131.724898 
" clip-path="url(#pdb96d0b44e)" style="fill: none; stroke: #1f77b4; stroke-width: 1.5"/>
    <path d="M 369.725568 157.119313 
L 369.725568 125.376259 
" clip-path="url(#pdb96d0b44e)" style="fill: none; stroke: #1f77b4; stroke-width: 1.5"/>
   </g>
   <g id="line2d_22">
    <defs>
     <path id="m5428d15d3f" d="M 5 0 
L -5 -0 
" style="stroke: #1f77b4"/>
    </defs>
    <g clip-path="url(#pdb96d0b44e)">
     <use xlink:href="#m5428d15d3f" x="65.361932" y="233.302697" style="fill: #1f77b4; stroke: #1f77b4"/>
     <use xlink:href="#m5428d15d3f" x="103.407386" y="176.165229" style="fill: #1f77b4; stroke: #1f77b4"/>
     <use xlink:href="#m5428d15d3f" x="141.452841" y="201.559643" style="fill: #1f77b4; stroke: #1f77b4"/>
     <use xlink:href="#m5428d15d3f" x="217.54375" y="239.651336" style="fill: #1f77b4; stroke: #1f77b4"/>
     <use xlink:href="#m5428d15d3f" x="369.725568" y="157.119313" style="fill: #1f77b4; stroke: #1f77b4"/>
    </g>
   </g>
   <g id="line2d_23">
    <g clip-path="url(#pdb96d0b44e)">
     <use xlink:href="#m5428d15d3f" x="65.361932" y="125.376259" style="fill: #1f77b4; stroke: #1f77b4"/>
     <use xlink:href="#m5428d15d3f" x="103.407386" y="144.422035" style="fill: #1f77b4; stroke: #1f77b4"/>
     <use xlink:href="#m5428d15d3f" x="141.452841" y="144.422035" style="fill: #1f77b4; stroke: #1f77b4"/>
     <use xlink:href="#m5428d15d3f" x="217.54375" y="131.724898" style="fill: #1f77b4; stroke: #1f77b4"/>
     <use xlink:href="#m5428d15d3f" x="369.725568" y="125.376259" style="fill: #1f77b4; stroke: #1f77b4"/>
    </g>
   </g>
   <g id="LineCollection_2">
    <path d="M 65.361932 163.467951 
L 65.361932 119.027621 
" clip-path="url(#pdb96d0b44e)" style="fill: none; stroke: #ff7f0e; stroke-width: 1.5"/>
    <path d="M 103.407386 138.073537 
L 103.407386 112.678982 
" clip-path="url(#pdb96d0b44e)" style="fill: none; stroke: #ff7f0e; stroke-width: 1.5"/>
    <path d="M 141.452841 157.119313 
L 141.452841 119.027621 
" clip-path="url(#pdb96d0b44e)" style="fill: none; stroke: #ff7f0e; stroke-width: 1.5"/>
    <path d="M 217.54375 144.422035 
L 217.54375 112.678982 
" clip-path="url(#pdb96d0b44e)" style="fill: none; stroke: #ff7f0e; stroke-width: 1.5"/>
    <path d="M 369.725568 144.422035 
L 369.725568 99.981844 
" clip-path="url(#pdb96d0b44e)" style="fill: none; stroke: #ff7f0e; stroke-width: 1.5"/>
   </g>
   <g id="line2d_24">
    <defs>
     <path id="mafbb10ea72" d="M 5 0 
L -5 -0 
" style="stroke: #ff7f0e"/>
    </defs>
    <g clip-path="url(#pdb96d0b44e)">
     <use xlink:href="#mafbb10ea72" x="65.361932" y="163.467951" style="fill: #ff7f0e; stroke: #ff7f0e"/>
     <use xlink:href="#mafbb10ea72" x="103.407386" y="138.073537" style="fill: #ff7f0e; stroke: #ff7f0e"/>
     <use xlink:href="#mafbb10ea72" x="141.452841" y="157.119313" style="fill: #ff7f0e; stroke: #ff7f0e"/>
     <use xlink:href="#mafbb10ea72" x="217.54375" y="144.422035" style="fill: #ff7f0e; stroke: #ff7f0e"/>
     <use xlink:href="#mafbb10ea72" x="369.725568" y="144.422035" style="fill: #ff7f0e; stroke: #ff7f0e"/>
    </g>
   </g>
   <g id="line2d_25">
    <g clip-path="url(#pdb96d0b44e)">
     <use xlink:href="#mafbb10ea72" x="65.361932" y="119.027621" style="fill: #ff7f0e; stroke: #ff7f0e"/>
     <use xlink:href="#mafbb10ea72" x="103.407386" y="112.678982" style="fill: #ff7f0e; stroke: #ff7f0e"/>
     <use xlink:href="#mafbb10ea72" x="141.452841" y="119.027621" style="fill: #ff7f0e; stroke: #ff7f0e"/>
     <use xlink:href="#mafbb10ea72" x="217.54375" y="112.678982" style="fill: #ff7f0e; stroke: #ff7f0e"/>
     <use xlink:href="#mafbb10ea72" x="369.725568" y="99.981844" style="fill: #ff7f0e; stroke: #ff7f0e"/>
    </g>
   </g>
   <g id="LineCollection_3">
    <path d="M 65.361932 144.422035 
L 65.361932 119.027621 
" clip-path="url(#pdb96d0b44e)" style="fill: none; stroke: #2ca02c; stroke-width: 1.5"/>
    <path d="M 103.407386 144.422035 
L 103.407386 119.027621 
" clip-path="url(#pdb96d0b44e)" style="fill: none; stroke: #2ca02c; stroke-width: 1.5"/>
    <path d="M 141.452841 195.211005 
L 141.452841 125.376259 
" clip-path="url(#pdb96d0b44e)" style="fill: none; stroke: #2ca02c; stroke-width: 1.5"/>
    <path d="M 217.54375 144.422035 
L 217.54375 99.981844 
" clip-path="url(#pdb96d0b44e)" style="fill: none; stroke: #2ca02c; stroke-width: 1.5"/>
    <path d="M 369.725568 144.422035 
L 369.725568 125.376259 
" clip-path="url(#pdb96d0b44e)" style="fill: none; stroke: #2ca02c; stroke-width: 1.5"/>
   </g>
   <g id="line2d_26">
    <defs>
     <path id="mb295774786" d="M 5 0 
L -5 -0 
" style="stroke: #2ca02c"/>
    </defs>
    <g clip-path="url(#pdb96d0b44e)">
     <use xlink:href="#mb295774786" x="65.361932" y="144.422035" style="fill: #2ca02c; stroke: #2ca02c"/>
     <use xlink:href="#mb295774786" x="103.407386" y="144.422035" style="fill: #2ca02c; stroke: #2ca02c"/>
     <use xlink:href="#mb295774786" x="141.452841" y="195.211005" style="fill: #2ca02c; stroke: #2ca02c"/>
     <use xlink:href="#mb295774786" x="217.54375" y="144.422035" style="fill: #2ca02c; stroke: #2ca02c"/>
     <use xlink:href="#mb295774786" x="369.725568" y="144.422035" style="fill: #2ca02c; stroke: #2ca02c"/>
    </g>
   </g>
   <g id="line2d_27">
    <g clip-path="url(#pdb96d0b44e)">
     <use xlink:href="#mb295774786" x="65.361932" y="119.027621" style="fill: #2ca02c; stroke: #2ca02c"/>
     <use xlink:href="#mb295774786" x="103.407386" y="119.027621" style="fill: #2ca02c; stroke: #2ca02c"/>
     <use xlink:href="#mb295774786" x="141.452841" y="125.376259" style="fill: #2ca02c; stroke: #2ca02c"/>
     <use xlink:href="#mb295774786" x="217.54375" y="99.981844" style="fill: #2ca02c; stroke: #2ca02c"/>
     <use xlink:href="#mb295774786" x="369.725568" y="125.376259" style="fill: #2ca02c; stroke: #2ca02c"/>
    </g>
   </g>
   <g id="LineCollection_4">
    <path d="M 65.361932 207.908282 
L 65.361932 138.073537 
" clip-path="url(#pdb96d0b44e)" style="fill: none; stroke: #d62728; stroke-width: 1.5"/>
    <path d="M 103.407386 258.697112 
L 103.407386 150.770674 
" clip-path="url(#pdb96d0b44e)" style="fill: none; stroke: #d62728; stroke-width: 1.5"/>
    <path d="M 141.452841 176.165229 
L 141.452841 125.376259 
" clip-path="url(#pdb96d0b44e)" style="fill: none; stroke: #d62728; stroke-width: 1.5"/>
    <path d="M 217.54375 176.165229 
L 217.54375 138.073537 
" clip-path="url(#pdb96d0b44e)" style="fill: none; stroke: #d62728; stroke-width: 1.5"/>
    <path d="M 369.725568 220.60542 
L 369.725568 176.165229 
" clip-path="url(#pdb96d0b44e)" style="fill: none; stroke: #d62728; stroke-width: 1.5"/>
   </g>
   <g id="line2d_28">
    <defs>
     <path id="m525ecea186" d="M 5 0 
L -5 -0 
" style="stroke: #d62728"/>
    </defs>
    <g clip-path="url(#pdb96d0b44e)">
     <use xlink:href="#m525ecea186" x="65.361932" y="207.908282" style="fill: #d62728; stroke: #d62728"/>
     <use xlink:href="#m525ecea186" x="103.407386" y="258.697112" style="fill: #d62728; stroke: #d62728"/>
     <use xlink:href="#m525ecea186" x="141.452841" y="176.165229" style="fill: #d62728; stroke: #d62728"/>
     <use xlink:href="#m525ecea186" x="217.54375" y="176.165229" style="fill: #d62728; stroke: #d62728"/>
     <use xlink:href="#m525ecea186" x="369.725568" y="220.60542" style="fill: #d62728; stroke: #d62728"/>
    </g>
   </g>
   <g id="line2d_29">
    <g clip-path="url(#pdb96d0b44e)">
     <use xlink:href="#m525ecea186" x="65.361932" y="138.073537" style="fill: #d62728; stroke: #d62728"/>
     <use xlink:href="#m525ecea186" x="103.407386" y="150.770674" style="fill: #d62728; stroke: #d62728"/>
     <use xlink:href="#m525ecea186" x="141.452841" y="125.376259" style="fill: #d62728; stroke: #d62728"/>
     <use xlink:href="#m525ecea186" x="217.54375" y="138.073537" style="fill: #d62728; stroke: #d62728"/>
     <use xlink:href="#m525ecea186" x="369.725568" y="176.165229" style="fill: #d62728; stroke: #d62728"/>
    </g>
   </g>
   <g id="line2d_30">
    <path d="M 65.361932 184.418361 
L 103.407386 161.56336 
L 141.452841 160.293618 
L 217.54375 167.911984 
L 369.725568 141.882664 
" clip-path="url(#pdb96d0b44e)" style="fill: none; stroke: #1f77b4; stroke-width: 1.5; stroke-linecap: square"/>
    <defs>
     <path id="m7190500dc7" d="M 0 1.5 
C 0.397805 1.5 0.77937 1.341951 1.06066 1.06066 
C 1.341951 0.77937 1.5 0.397805 1.5 0 
C 1.5 -0.397805 1.341951 -0.77937 1.06066 -1.06066 
C 0.77937 -1.341951 0.397805 -1.5 0 -1.5 
C -0.397805 -1.5 -0.77937 -1.341951 -1.06066 -1.06066 
C -1.341951 -0.77937 -1.5 -0.397805 -1.5 0 
C -1.5 0.397805 -1.341951 0.77937 -1.06066 1.06066 
C -0.77937 1.341951 -0.397805 1.5 0 1.5 
z
" style="stroke: #1f77b4"/>
    </defs>
    <g clip-path="url(#pdb96d0b44e)">
     <use xlink:href="#m7190500dc7" x="65.361932" y="184.418361" style="fill: #1f77b4; stroke: #1f77b4"/>
     <use xlink:href="#m7190500dc7" x="103.407386" y="161.56336" style="fill: #1f77b4; stroke: #1f77b4"/>
     <use xlink:href="#m7190500dc7" x="141.452841" y="160.293618" style="fill: #1f77b4; stroke: #1f77b4"/>
     <use xlink:href="#m7190500dc7" x="217.54375" y="167.911984" style="fill: #1f77b4; stroke: #1f77b4"/>
     <use xlink:href="#m7190500dc7" x="369.725568" y="141.882664" style="fill: #1f77b4; stroke: #1f77b4"/>
    </g>
   </g>
   <g id="line2d_31">
    <path d="M 65.361932 137.438617 
L 103.407386 129.820306 
L 141.452841 134.264325 
L 217.54375 129.820292 
L 369.725568 127.915701 
" clip-path="url(#pdb96d0b44e)" style="fill: none; stroke: #ff7f0e; stroke-width: 1.5; stroke-linecap: square"/>
    <defs>
     <path id="m713ad9a586" d="M 0 1.5 
C 0.397805 1.5 0.77937 1.341951 1.06066 1.06066 
C 1.341951 0.77937 1.5 0.397805 1.5 0 
C 1.5 -0.397805 1.341951 -0.77937 1.06066 -1.06066 
C 0.77937 -1.341951 0.397805 -1.5 0 -1.5 
C -0.397805 -1.5 -0.77937 -1.341951 -1.06066 -1.06066 
C -1.341951 -0.77937 -1.5 -0.397805 -1.5 0 
C -1.5 0.397805 -1.341951 0.77937 -1.06066 1.06066 
C -0.77937 1.341951 -0.397805 1.5 0 1.5 
z
" style="stroke: #ff7f0e"/>
    </defs>
    <g clip-path="url(#pdb96d0b44e)">
     <use xlink:href="#m713ad9a586" x="65.361932" y="137.438617" style="fill: #ff7f0e; stroke: #ff7f0e"/>
     <use xlink:href="#m713ad9a586" x="103.407386" y="129.820306" style="fill: #ff7f0e; stroke: #ff7f0e"/>
     <use xlink:href="#m713ad9a586" x="141.452841" y="134.264325" style="fill: #ff7f0e; stroke: #ff7f0e"/>
     <use xlink:href="#m713ad9a586" x="217.54375" y="129.820292" style="fill: #ff7f0e; stroke: #ff7f0e"/>
     <use xlink:href="#m713ad9a586" x="369.725568" y="127.915701" style="fill: #ff7f0e; stroke: #ff7f0e"/>
    </g>
   </g>
   <g id="line2d_32">
    <path d="M 65.361932 132.994598 
L 103.407386 129.820292 
L 141.452841 150.770702 
L 217.54375 131.724884 
L 369.725568 131.724884 
" clip-path="url(#pdb96d0b44e)" style="fill: none; stroke: #2ca02c; stroke-width: 1.5; stroke-linecap: square"/>
    <defs>
     <path id="mbbada89215" d="M 0 1.5 
C 0.397805 1.5 0.77937 1.341951 1.06066 1.06066 
C 1.341951 0.77937 1.5 0.397805 1.5 0 
C 1.5 -0.397805 1.341951 -0.77937 1.06066 -1.06066 
C 0.77937 -1.341951 0.397805 -1.5 0 -1.5 
C -0.397805 -1.5 -0.77937 -1.341951 -1.06066 -1.06066 
C -1.341951 -0.77937 -1.5 -0.397805 -1.5 0 
C -1.5 0.397805 -1.341951 0.77937 -1.06066 1.06066 
C -0.77937 1.341951 -0.397805 1.5 0 1.5 
z
" style="stroke: #2ca02c"/>
    </defs>
    <g clip-path="url(#pdb96d0b44e)">
     <use xlink:href="#mbbada89215" x="65.361932" y="132.994598" style="fill: #2ca02c; stroke: #2ca02c"/>
     <use xlink:href="#mbbada89215" x="103.407386" y="129.820292" style="fill: #2ca02c; stroke: #2ca02c"/>
     <use xlink:href="#mbbada89215" x="141.452841" y="150.770702" style="fill: #2ca02c; stroke: #2ca02c"/>
     <use xlink:href="#mbbada89215" x="217.54375" y="131.724884" style="fill: #2ca02c; stroke: #2ca02c"/>
     <use xlink:href="#mbbada89215" x="369.725568" y="131.724884" style="fill: #2ca02c; stroke: #2ca02c"/>
    </g>
   </g>
   <g id="line2d_33">
    <path d="M 65.361932 169.816562 
L 103.407386 181.244042 
L 141.452841 154.579899 
L 217.54375 157.119327 
L 369.725568 201.559629 
" clip-path="url(#pdb96d0b44e)" style="fill: none; stroke: #d62728; stroke-width: 1.5; stroke-linecap: square"/>
    <defs>
     <path id="mbe18dc4c58" d="M 0 1.5 
C 0.397805 1.5 0.77937 1.341951 1.06066 1.06066 
C 1.341951 0.77937 1.5 0.397805 1.5 0 
C 1.5 -0.397805 1.341951 -0.77937 1.06066 -1.06066 
C 0.77937 -1.341951 0.397805 -1.5 0 -1.5 
C -0.397805 -1.5 -0.77937 -1.341951 -1.06066 -1.06066 
C -1.341951 -0.77937 -1.5 -0.397805 -1.5 0 
C -1.5 0.397805 -1.341951 0.77937 -1.06066 1.06066 
C -0.77937 1.341951 -0.397805 1.5 0 1.5 
z
" style="stroke: #d62728"/>
    </defs>
    <g clip-path="url(#pdb96d0b44e)">
     <use xlink:href="#mbe18dc4c58" x="65.361932" y="169.816562" style="fill: #d62728; stroke: #d62728"/>
     <use xlink:href="#mbe18dc4c58" x="103.407386" y="181.244042" style="fill: #d62728; stroke: #d62728"/>
     <use xlink:href="#mbe18dc4c58" x="141.452841" y="154.579899" style="fill: #d62728; stroke: #d62728"/>
     <use xlink:href="#mbe18dc4c58" x="217.54375" y="157.119327" style="fill: #d62728; stroke: #d62728"/>
     <use xlink:href="#mbe18dc4c58" x="369.725568" y="201.559629" style="fill: #d62728; stroke: #d62728"/>
    </g>
   </g>
   <g id="patch_3">
    <path d="M 50.14375 266.632875 
L 50.14375 49.192875 
" style="fill: none; stroke: #000000; stroke-width: 0.8; stroke-linejoin: miter; stroke-linecap: square"/>
   </g>
   <g id="patch_4">
    <path d="M 384.94375 266.632875 
L 384.94375 49.192875 
" style="fill: none; stroke: #000000; stroke-width: 0.8; stroke-linejoin: miter; stroke-linecap: square"/>
   </g>
   <g id="patch_5">
    <path d="M 50.14375 266.632875 
L 384.94375 266.632875 
" style="fill: none; stroke: #000000; stroke-width: 0.8; stroke-linejoin: miter; stroke-linecap: square"/>
   </g>
   <g id="patch_6">
    <path d="M 50.14375 49.192875 
L 384.94375 49.192875 
" style="fill: none; stroke: #000000; stroke-width: 0.8; stroke-linejoin: miter; stroke-linecap: square"/>
   </g>
   <g id="text_14">
    <!-- Dataset: "JapaneseVowels" -->
    <g transform="translate(136.653438 16.318125)scale(0.12 -0.12)">
     <defs>
      <path id="DejaVuSans-44" d="M 1259 4147 
L 1259 519 
L 2022 519 
Q 2988 519 3436 956 
Q 3884 1394 3884 2338 
Q 3884 3275 3436 3711 
Q 2988 4147 2022 4147 
L 1259 4147 
z
M 628 4666 
L 1925 4666 
Q 3281 4666 3915 4102 
Q 4550 3538 4550 2338 
Q 4550 1131 3912 565 
Q 3275 0 1925 0 
L 628 0 
L 628 4666 
z
" transform="scale(0.015625)"/>
      <path id="DejaVuSans-65" d="M 3597 1894 
L 3597 1613 
L 953 1613 
Q 991 1019 1311 708 
Q 1631 397 2203 397 
Q 2534 397 2845 478 
Q 3156 559 3463 722 
L 3463 178 
Q 3153 47 2828 -22 
Q 2503 -91 2169 -91 
Q 1331 -91 842 396 
Q 353 884 353 1716 
Q 353 2575 817 3079 
Q 1281 3584 2069 3584 
Q 2775 3584 3186 3129 
Q 3597 2675 3597 1894 
z
M 3022 2063 
Q 3016 2534 2758 2815 
Q 2500 3097 2075 3097 
Q 1594 3097 1305 2825 
Q 1016 2553 972 2059 
L 3022 2063 
z
" transform="scale(0.015625)"/>
      <path id="DejaVuSans-3a" d="M 750 794 
L 1409 794 
L 1409 0 
L 750 0 
L 750 794 
z
M 750 3309 
L 1409 3309 
L 1409 2516 
L 750 2516 
L 750 3309 
z
" transform="scale(0.015625)"/>
      <path id="DejaVuSans-20" transform="scale(0.015625)"/>
      <path id="DejaVuSans-22" d="M 1147 4666 
L 1147 2931 
L 616 2931 
L 616 4666 
L 1147 4666 
z
M 2328 4666 
L 2328 2931 
L 1797 2931 
L 1797 4666 
L 2328 4666 
z
" transform="scale(0.015625)"/>
      <path id="DejaVuSans-4a" d="M 628 4666 
L 1259 4666 
L 1259 325 
Q 1259 -519 939 -900 
Q 619 -1281 -91 -1281 
L -331 -1281 
L -331 -750 
L -134 -750 
Q 284 -750 456 -515 
Q 628 -281 628 325 
L 628 4666 
z
" transform="scale(0.015625)"/>
      <path id="DejaVuSans-70" d="M 1159 525 
L 1159 -1331 
L 581 -1331 
L 581 3500 
L 1159 3500 
L 1159 2969 
Q 1341 3281 1617 3432 
Q 1894 3584 2278 3584 
Q 2916 3584 3314 3078 
Q 3713 2572 3713 1747 
Q 3713 922 3314 415 
Q 2916 -91 2278 -91 
Q 1894 -91 1617 61 
Q 1341 213 1159 525 
z
M 3116 1747 
Q 3116 2381 2855 2742 
Q 2594 3103 2138 3103 
Q 1681 3103 1420 2742 
Q 1159 2381 1159 1747 
Q 1159 1113 1420 752 
Q 1681 391 2138 391 
Q 2594 391 2855 752 
Q 3116 1113 3116 1747 
z
" transform="scale(0.015625)"/>
      <path id="DejaVuSans-56" d="M 1831 0 
L 50 4666 
L 709 4666 
L 2188 738 
L 3669 4666 
L 4325 4666 
L 2547 0 
L 1831 0 
z
" transform="scale(0.015625)"/>
      <path id="DejaVuSans-6f" d="M 1959 3097 
Q 1497 3097 1228 2736 
Q 959 2375 959 1747 
Q 959 1119 1226 758 
Q 1494 397 1959 397 
Q 2419 397 2687 759 
Q 2956 1122 2956 1747 
Q 2956 2369 2687 2733 
Q 2419 3097 1959 3097 
z
M 1959 3584 
Q 2709 3584 3137 3096 
Q 3566 2609 3566 1747 
Q 3566 888 3137 398 
Q 2709 -91 1959 -91 
Q 1206 -91 779 398 
Q 353 888 353 1747 
Q 353 2609 779 3096 
Q 1206 3584 1959 3584 
z
" transform="scale(0.015625)"/>
      <path id="DejaVuSans-77" d="M 269 3500 
L 844 3500 
L 1563 769 
L 2278 3500 
L 2956 3500 
L 3675 769 
L 4391 3500 
L 4966 3500 
L 4050 0 
L 3372 0 
L 2619 2869 
L 1863 0 
L 1184 0 
L 269 3500 
z
" transform="scale(0.015625)"/>
      <path id="DejaVuSans-6c" d="M 603 4863 
L 1178 4863 
L 1178 0 
L 603 0 
L 603 4863 
z
" transform="scale(0.015625)"/>
     </defs>
     <use xlink:href="#DejaVuSans-44"/>
     <use xlink:href="#DejaVuSans-61" x="77.001953"/>
     <use xlink:href="#DejaVuSans-74" x="138.28125"/>
     <use xlink:href="#DejaVuSans-61" x="177.490234"/>
     <use xlink:href="#DejaVuSans-73" x="238.769531"/>
     <use xlink:href="#DejaVuSans-65" x="290.869141"/>
     <use xlink:href="#DejaVuSans-74" x="352.392578"/>
     <use xlink:href="#DejaVuSans-3a" x="391.601562"/>
     <use xlink:href="#DejaVuSans-20" x="425.292969"/>
     <use xlink:href="#DejaVuSans-22" x="457.080078"/>
     <use xlink:href="#DejaVuSans-4a" x="503.076172"/>
     <use xlink:href="#DejaVuSans-61" x="532.568359"/>
     <use xlink:href="#DejaVuSans-70" x="593.847656"/>
     <use xlink:href="#DejaVuSans-61" x="657.324219"/>
     <use xlink:href="#DejaVuSans-6e" x="718.603516"/>
     <use xlink:href="#DejaVuSans-65" x="781.982422"/>
     <use xlink:href="#DejaVuSans-73" x="843.505859"/>
     <use xlink:href="#DejaVuSans-65" x="895.605469"/>
     <use xlink:href="#DejaVuSans-56" x="957.128906"/>
     <use xlink:href="#DejaVuSans-6f" x="1017.787109"/>
     <use xlink:href="#DejaVuSans-77" x="1078.96875"/>
     <use xlink:href="#DejaVuSans-65" x="1160.755859"/>
     <use xlink:href="#DejaVuSans-6c" x="1222.279297"/>
     <use xlink:href="#DejaVuSans-73" x="1250.0625"/>
     <use xlink:href="#DejaVuSans-22" x="1302.162109"/>
    </g>
    <!-- Exp. Class: "Multiple S.R." -->
    <g transform="translate(140.03125 29.7555)scale(0.12 -0.12)">
     <defs>
      <path id="DejaVuSans-45" d="M 628 4666 
L 3578 4666 
L 3578 4134 
L 1259 4134 
L 1259 2753 
L 3481 2753 
L 3481 2222 
L 1259 2222 
L 1259 531 
L 3634 531 
L 3634 0 
L 628 0 
L 628 4666 
z
" transform="scale(0.015625)"/>
      <path id="DejaVuSans-78" d="M 3513 3500 
L 2247 1797 
L 3578 0 
L 2900 0 
L 1881 1375 
L 863 0 
L 184 0 
L 1544 1831 
L 300 3500 
L 978 3500 
L 1906 2253 
L 2834 3500 
L 3513 3500 
z
" transform="scale(0.015625)"/>
      <path id="DejaVuSans-43" d="M 4122 4306 
L 4122 3641 
Q 3803 3938 3442 4084 
Q 3081 4231 2675 4231 
Q 1875 4231 1450 3742 
Q 1025 3253 1025 2328 
Q 1025 1406 1450 917 
Q 1875 428 2675 428 
Q 3081 428 3442 575 
Q 3803 722 4122 1019 
L 4122 359 
Q 3791 134 3420 21 
Q 3050 -91 2638 -91 
Q 1578 -91 968 557 
Q 359 1206 359 2328 
Q 359 3453 968 4101 
Q 1578 4750 2638 4750 
Q 3056 4750 3426 4639 
Q 3797 4528 4122 4306 
z
" transform="scale(0.015625)"/>
      <path id="DejaVuSans-4d" d="M 628 4666 
L 1569 4666 
L 2759 1491 
L 3956 4666 
L 4897 4666 
L 4897 0 
L 4281 0 
L 4281 4097 
L 3078 897 
L 2444 897 
L 1241 4097 
L 1241 0 
L 628 0 
L 628 4666 
z
" transform="scale(0.015625)"/>
      <path id="DejaVuSans-53" d="M 3425 4513 
L 3425 3897 
Q 3066 4069 2747 4153 
Q 2428 4238 2131 4238 
Q 1616 4238 1336 4038 
Q 1056 3838 1056 3469 
Q 1056 3159 1242 3001 
Q 1428 2844 1947 2747 
L 2328 2669 
Q 3034 2534 3370 2195 
Q 3706 1856 3706 1288 
Q 3706 609 3251 259 
Q 2797 -91 1919 -91 
Q 1588 -91 1214 -16 
Q 841 59 441 206 
L 441 856 
Q 825 641 1194 531 
Q 1563 422 1919 422 
Q 2459 422 2753 634 
Q 3047 847 3047 1241 
Q 3047 1584 2836 1778 
Q 2625 1972 2144 2069 
L 1759 2144 
Q 1053 2284 737 2584 
Q 422 2884 422 3419 
Q 422 4038 858 4394 
Q 1294 4750 2059 4750 
Q 2388 4750 2728 4690 
Q 3069 4631 3425 4513 
z
" transform="scale(0.015625)"/>
      <path id="DejaVuSans-52" d="M 2841 2188 
Q 3044 2119 3236 1894 
Q 3428 1669 3622 1275 
L 4263 0 
L 3584 0 
L 2988 1197 
Q 2756 1666 2539 1819 
Q 2322 1972 1947 1972 
L 1259 1972 
L 1259 0 
L 628 0 
L 628 4666 
L 2053 4666 
Q 2853 4666 3247 4331 
Q 3641 3997 3641 3322 
Q 3641 2881 3436 2590 
Q 3231 2300 2841 2188 
z
M 1259 4147 
L 1259 2491 
L 2053 2491 
Q 2509 2491 2742 2702 
Q 2975 2913 2975 3322 
Q 2975 3731 2742 3939 
Q 2509 4147 2053 4147 
L 1259 4147 
z
" transform="scale(0.015625)"/>
     </defs>
     <use xlink:href="#DejaVuSans-45"/>
     <use xlink:href="#DejaVuSans-78" x="63.183594"/>
     <use xlink:href="#DejaVuSans-70" x="122.363281"/>
     <use xlink:href="#DejaVuSans-2e" x="185.839844"/>
     <use xlink:href="#DejaVuSans-20" x="217.626953"/>
     <use xlink:href="#DejaVuSans-43" x="249.414062"/>
     <use xlink:href="#DejaVuSans-6c" x="319.238281"/>
     <use xlink:href="#DejaVuSans-61" x="347.021484"/>
     <use xlink:href="#DejaVuSans-73" x="408.300781"/>
     <use xlink:href="#DejaVuSans-73" x="460.400391"/>
     <use xlink:href="#DejaVuSans-3a" x="512.5"/>
     <use xlink:href="#DejaVuSans-20" x="546.191406"/>
     <use xlink:href="#DejaVuSans-22" x="577.978516"/>
     <use xlink:href="#DejaVuSans-4d" x="623.974609"/>
     <use xlink:href="#DejaVuSans-75" x="710.253906"/>
     <use xlink:href="#DejaVuSans-6c" x="773.632812"/>
     <use xlink:href="#DejaVuSans-74" x="801.416016"/>
     <use xlink:href="#DejaVuSans-69" x="840.625"/>
     <use xlink:href="#DejaVuSans-70" x="868.408203"/>
     <use xlink:href="#DejaVuSans-6c" x="931.884766"/>
     <use xlink:href="#DejaVuSans-65" x="959.667969"/>
     <use xlink:href="#DejaVuSans-20" x="1021.191406"/>
     <use xlink:href="#DejaVuSans-53" x="1052.978516"/>
     <use xlink:href="#DejaVuSans-2e" x="1116.455078"/>
     <use xlink:href="#DejaVuSans-52" x="1148.242188"/>
     <use xlink:href="#DejaVuSans-2e" x="1214.099609"/>
     <use xlink:href="#DejaVuSans-22" x="1245.886719"/>
    </g>
    <!-- hp: units -->
    <g transform="translate(191.254375 43.192875)scale(0.12 -0.12)">
     <defs>
      <path id="DejaVuSans-68" d="M 3513 2113 
L 3513 0 
L 2938 0 
L 2938 2094 
Q 2938 2591 2744 2837 
Q 2550 3084 2163 3084 
Q 1697 3084 1428 2787 
Q 1159 2491 1159 1978 
L 1159 0 
L 581 0 
L 581 4863 
L 1159 4863 
L 1159 2956 
Q 1366 3272 1645 3428 
Q 1925 3584 2291 3584 
Q 2894 3584 3203 3211 
Q 3513 2838 3513 2113 
z
" transform="scale(0.015625)"/>
     </defs>
     <use xlink:href="#DejaVuSans-68"/>
     <use xlink:href="#DejaVuSans-70" x="63.378906"/>
     <use xlink:href="#DejaVuSans-3a" x="126.855469"/>
     <use xlink:href="#DejaVuSans-20" x="160.546875"/>
     <use xlink:href="#DejaVuSans-75" x="192.333984"/>
     <use xlink:href="#DejaVuSans-6e" x="255.712891"/>
     <use xlink:href="#DejaVuSans-69" x="319.091797"/>
     <use xlink:href="#DejaVuSans-74" x="346.875"/>
     <use xlink:href="#DejaVuSans-73" x="386.083984"/>
    </g>
   </g>
   <g id="legend_1">
    <g id="patch_7">
     <path d="M 319.432813 261.632875 
L 377.94375 261.632875 
Q 379.94375 261.632875 379.94375 259.632875 
L 379.94375 201.920375 
Q 379.94375 199.920375 377.94375 199.920375 
L 319.432813 199.920375 
Q 317.432813 199.920375 317.432813 201.920375 
L 317.432813 259.632875 
Q 317.432813 261.632875 319.432813 261.632875 
z
" style="fill: #ffffff; opacity: 0.8; stroke: #cccccc; stroke-linejoin: miter"/>
    </g>
    <g id="LineCollection_5">
     <path d="M 331.432813 213.018812 
L 331.432813 203.018812 
" style="fill: none; stroke: #1f77b4; stroke-width: 1.5"/>
    </g>
    <g id="line2d_34">
     <g>
      <use xlink:href="#m5428d15d3f" x="331.432813" y="213.018812" style="fill: #1f77b4; stroke: #1f77b4"/>
     </g>
    </g>
    <g id="line2d_35">
     <g>
      <use xlink:href="#m5428d15d3f" x="331.432813" y="203.018812" style="fill: #1f77b4; stroke: #1f77b4"/>
     </g>
    </g>
    <g id="line2d_36">
     <path d="M 321.432813 208.018812 
L 341.432813 208.018812 
" style="fill: none; stroke: #1f77b4; stroke-width: 1.5; stroke-linecap: square"/>
    </g>
    <g id="line2d_37">
     <g>
      <use xlink:href="#m7190500dc7" x="331.432813" y="208.018812" style="fill: #1f77b4; stroke: #1f77b4"/>
     </g>
    </g>
    <g id="text_15">
     <!-- ESN1 -->
     <g transform="translate(349.432813 211.518812)scale(0.1 -0.1)">
      <defs>
       <path id="DejaVuSans-4e" d="M 628 4666 
L 1478 4666 
L 3547 763 
L 3547 4666 
L 4159 4666 
L 4159 0 
L 3309 0 
L 1241 3903 
L 1241 0 
L 628 0 
L 628 4666 
z
" transform="scale(0.015625)"/>
      </defs>
      <use xlink:href="#DejaVuSans-45"/>
      <use xlink:href="#DejaVuSans-53" x="63.183594"/>
      <use xlink:href="#DejaVuSans-4e" x="126.660156"/>
      <use xlink:href="#DejaVuSans-31" x="201.464844"/>
     </g>
    </g>
    <g id="LineCollection_6">
     <path d="M 331.432813 227.696937 
L 331.432813 217.696937 
" style="fill: none; stroke: #ff7f0e; stroke-width: 1.5"/>
    </g>
    <g id="line2d_38">
     <g>
      <use xlink:href="#mafbb10ea72" x="331.432813" y="227.696937" style="fill: #ff7f0e; stroke: #ff7f0e"/>
     </g>
    </g>
    <g id="line2d_39">
     <g>
      <use xlink:href="#mafbb10ea72" x="331.432813" y="217.696937" style="fill: #ff7f0e; stroke: #ff7f0e"/>
     </g>
    </g>
    <g id="line2d_40">
     <path d="M 321.432813 222.696937 
L 341.432813 222.696937 
" style="fill: none; stroke: #ff7f0e; stroke-width: 1.5; stroke-linecap: square"/>
    </g>
    <g id="line2d_41">
     <g>
      <use xlink:href="#m713ad9a586" x="331.432813" y="222.696937" style="fill: #ff7f0e; stroke: #ff7f0e"/>
     </g>
    </g>
    <g id="text_16">
     <!-- ESN2 -->
     <g transform="translate(349.432813 226.196937)scale(0.1 -0.1)">
      <use xlink:href="#DejaVuSans-45"/>
      <use xlink:href="#DejaVuSans-53" x="63.183594"/>
      <use xlink:href="#DejaVuSans-4e" x="126.660156"/>
      <use xlink:href="#DejaVuSans-32" x="201.464844"/>
     </g>
    </g>
    <g id="LineCollection_7">
     <path d="M 331.432813 242.375062 
L 331.432813 232.375062 
" style="fill: none; stroke: #2ca02c; stroke-width: 1.5"/>
    </g>
    <g id="line2d_42">
     <g>
      <use xlink:href="#mb295774786" x="331.432813" y="242.375062" style="fill: #2ca02c; stroke: #2ca02c"/>
     </g>
    </g>
    <g id="line2d_43">
     <g>
      <use xlink:href="#mb295774786" x="331.432813" y="232.375062" style="fill: #2ca02c; stroke: #2ca02c"/>
     </g>
    </g>
    <g id="line2d_44">
     <path d="M 321.432813 237.375062 
L 341.432813 237.375062 
" style="fill: none; stroke: #2ca02c; stroke-width: 1.5; stroke-linecap: square"/>
    </g>
    <g id="line2d_45">
     <g>
      <use xlink:href="#mbbada89215" x="331.432813" y="237.375062" style="fill: #2ca02c; stroke: #2ca02c"/>
     </g>
    </g>
    <g id="text_17">
     <!-- ESN3 -->
     <g transform="translate(349.432813 240.875062)scale(0.1 -0.1)">
      <defs>
       <path id="DejaVuSans-33" d="M 2597 2516 
Q 3050 2419 3304 2112 
Q 3559 1806 3559 1356 
Q 3559 666 3084 287 
Q 2609 -91 1734 -91 
Q 1441 -91 1130 -33 
Q 819 25 488 141 
L 488 750 
Q 750 597 1062 519 
Q 1375 441 1716 441 
Q 2309 441 2620 675 
Q 2931 909 2931 1356 
Q 2931 1769 2642 2001 
Q 2353 2234 1838 2234 
L 1294 2234 
L 1294 2753 
L 1863 2753 
Q 2328 2753 2575 2939 
Q 2822 3125 2822 3475 
Q 2822 3834 2567 4026 
Q 2313 4219 1838 4219 
Q 1578 4219 1281 4162 
Q 984 4106 628 3988 
L 628 4550 
Q 988 4650 1302 4700 
Q 1616 4750 1894 4750 
Q 2613 4750 3031 4423 
Q 3450 4097 3450 3541 
Q 3450 3153 3228 2886 
Q 3006 2619 2597 2516 
z
" transform="scale(0.015625)"/>
      </defs>
      <use xlink:href="#DejaVuSans-45"/>
      <use xlink:href="#DejaVuSans-53" x="63.183594"/>
      <use xlink:href="#DejaVuSans-4e" x="126.660156"/>
      <use xlink:href="#DejaVuSans-33" x="201.464844"/>
     </g>
    </g>
    <g id="LineCollection_8">
     <path d="M 331.432813 257.053187 
L 331.432813 247.053187 
" style="fill: none; stroke: #d62728; stroke-width: 1.5"/>
    </g>
    <g id="line2d_46">
     <g>
      <use xlink:href="#m525ecea186" x="331.432813" y="257.053187" style="fill: #d62728; stroke: #d62728"/>
     </g>
    </g>
    <g id="line2d_47">
     <g>
      <use xlink:href="#m525ecea186" x="331.432813" y="247.053187" style="fill: #d62728; stroke: #d62728"/>
     </g>
    </g>
    <g id="line2d_48">
     <path d="M 321.432813 252.053187 
L 341.432813 252.053187 
" style="fill: none; stroke: #d62728; stroke-width: 1.5; stroke-linecap: square"/>
    </g>
    <g id="line2d_49">
     <g>
      <use xlink:href="#mbe18dc4c58" x="331.432813" y="252.053187" style="fill: #d62728; stroke: #d62728"/>
     </g>
    </g>
    <g id="text_18">
     <!-- ESN4 -->
     <g transform="translate(349.432813 255.553187)scale(0.1 -0.1)">
      <defs>
       <path id="DejaVuSans-34" d="M 2419 4116 
L 825 1625 
L 2419 1625 
L 2419 4116 
z
M 2253 4666 
L 3047 4666 
L 3047 1625 
L 3713 1625 
L 3713 1100 
L 3047 1100 
L 3047 0 
L 2419 0 
L 2419 1100 
L 313 1100 
L 313 1709 
L 2253 4666 
z
" transform="scale(0.015625)"/>
      </defs>
      <use xlink:href="#DejaVuSans-45"/>
      <use xlink:href="#DejaVuSans-53" x="63.183594"/>
      <use xlink:href="#DejaVuSans-4e" x="126.660156"/>
      <use xlink:href="#DejaVuSans-34" x="201.464844"/>
     </g>
    </g>
   </g>
  </g>
 </g>
 <defs>
  <clipPath id="pdb96d0b44e">
   <rect x="50.14375" y="49.192875" width="334.8" height="217.44"/>
  </clipPath>
 </defs>
</svg>
