<?xml version="1.0" encoding="utf-8" standalone="no"?>
<!DOCTYPE svg PUBLIC "-//W3C//DTD SVG 1.1//EN"
  "http://www.w3.org/Graphics/SVG/1.1/DTD/svg11.dtd">
<svg xmlns:xlink="http://www.w3.org/1999/xlink" width="432pt" height="288pt" viewBox="0 0 432 288" xmlns="http://www.w3.org/2000/svg" version="1.1">
 <metadata>
  <rdf:RDF xmlns:dc="http://purl.org/dc/elements/1.1/" xmlns:cc="http://creativecommons.org/ns#" xmlns:rdf="http://www.w3.org/1999/02/22-rdf-syntax-ns#">
   <cc:Work>
    <dc:type rdf:resource="http://purl.org/dc/dcmitype/StillImage"/>
    <dc:date>2022-01-05T23:22:55.518159</dc:date>
    <dc:format>image/svg+xml</dc:format>
    <dc:creator>
     <cc:Agent>
      <dc:title>Matplotlib v3.5.1, https://matplotlib.org/</dc:title>
     </cc:Agent>
    </dc:creator>
   </cc:Work>
  </rdf:RDF>
 </metadata>
 <defs>
  <style type="text/css">*{stroke-linejoin: round; stroke-linecap: butt}</style>
 </defs>
 <g id="figure_1">
  <g id="patch_1">
   <path d="M 0 288 
L 432 288 
L 432 0 
L 0 0 
L 0 288 
z
" style="fill: none"/>
  </g>
  <g id="axes_1">
   <g id="patch_2">
    <path d="M 54 252 
L 388.8 252 
L 388.8 34.56 
L 54 34.56 
z
" style="fill: #ffffff"/>
   </g>
   <g id="patch_3">
    <path d="M 69.218182 252 
L 77.284356 252 
L 77.284356 95.847108 
L 69.218182 95.847108 
z
" clip-path="url(#pfc7909d8a8)" style="fill: #1f77b4"/>
   </g>
   <g id="patch_4">
    <path d="M 122.992676 252 
L 131.05885 252 
L 131.05885 76.259851 
L 122.992676 76.259851 
z
" clip-path="url(#pfc7909d8a8)" style="fill: #1f77b4"/>
   </g>
   <g id="patch_5">
    <path d="M 176.76717 252 
L 184.833344 252 
L 184.833344 69.513346 
L 176.76717 69.513346 
z
" clip-path="url(#pfc7909d8a8)" style="fill: #1f77b4"/>
   </g>
   <g id="patch_6">
    <path d="M 230.541664 252 
L 238.607838 252 
L 238.607838 64.12977 
L 230.541664 64.12977 
z
" clip-path="url(#pfc7909d8a8)" style="fill: #1f77b4"/>
   </g>
   <g id="patch_7">
    <path d="M 284.316158 252 
L 292.382332 252 
L 292.382332 60.926882 
L 284.316158 60.926882 
z
" clip-path="url(#pfc7909d8a8)" style="fill: #1f77b4"/>
   </g>
   <g id="patch_8">
    <path d="M 338.090652 252 
L 346.156826 252 
L 346.156826 57.977111 
L 338.090652 57.977111 
z
" clip-path="url(#pfc7909d8a8)" style="fill: #1f77b4"/>
   </g>
   <g id="patch_9">
    <path d="M 78.359846 252 
L 86.42602 252 
L 86.42602 69.746991 
L 78.359846 69.746991 
z
" clip-path="url(#pfc7909d8a8)" style="fill: #ff7f0e"/>
   </g>
   <g id="patch_10">
    <path d="M 132.13434 252 
L 140.200514 252 
L 140.200514 66.768015 
L 132.13434 66.768015 
z
" clip-path="url(#pfc7909d8a8)" style="fill: #ff7f0e"/>
   </g>
   <g id="patch_11">
    <path d="M 185.908834 252 
L 193.975008 252 
L 193.975008 56.283185 
L 185.908834 56.283185 
z
" clip-path="url(#pfc7909d8a8)" style="fill: #ff7f0e"/>
   </g>
   <g id="patch_12">
    <path d="M 239.683328 252 
L 247.749502 252 
L 247.749502 52.330686 
L 239.683328 52.330686 
z
" clip-path="url(#pfc7909d8a8)" style="fill: #ff7f0e"/>
   </g>
   <g id="patch_13">
    <path d="M 293.457822 252 
L 301.523996 252 
L 301.523996 51.0359 
L 293.457822 51.0359 
z
" clip-path="url(#pfc7909d8a8)" style="fill: #ff7f0e"/>
   </g>
   <g id="patch_14">
    <path d="M 347.232316 252 
L 355.29849 252 
L 355.29849 49.127802 
L 347.232316 49.127802 
z
" clip-path="url(#pfc7909d8a8)" style="fill: #ff7f0e"/>
   </g>
   <g id="patch_15">
    <path d="M 87.50151 252 
L 95.567684 252 
L 95.567684 71.27542 
L 87.50151 71.27542 
z
" clip-path="url(#pfc7909d8a8)" style="fill: #2ca02c"/>
   </g>
   <g id="patch_16">
    <path d="M 141.276004 252 
L 149.342178 252 
L 149.342178 60.60562 
L 141.276004 60.60562 
z
" clip-path="url(#pfc7909d8a8)" style="fill: #2ca02c"/>
   </g>
   <g id="patch_17">
    <path d="M 195.050498 252 
L 203.116672 252 
L 203.116672 56.477889 
L 195.050498 56.477889 
z
" clip-path="url(#pfc7909d8a8)" style="fill: #2ca02c"/>
   </g>
   <g id="patch_18">
    <path d="M 248.824992 252 
L 256.891166 252 
L 256.891166 56.49736 
L 248.824992 56.49736 
z
" clip-path="url(#pfc7909d8a8)" style="fill: #2ca02c"/>
   </g>
   <g id="patch_19">
    <path d="M 302.599486 252 
L 310.66566 252 
L 310.66566 50.967756 
L 302.599486 50.967756 
z
" clip-path="url(#pfc7909d8a8)" style="fill: #2ca02c"/>
   </g>
   <g id="patch_20">
    <path d="M 356.37398 252 
L 364.440154 252 
L 364.440154 51.16246 
L 356.37398 51.16246 
z
" clip-path="url(#pfc7909d8a8)" style="fill: #2ca02c"/>
   </g>
   <g id="patch_21">
    <path d="M 96.643174 252 
L 104.709348 252 
L 104.709348 68.520354 
L 96.643174 68.520354 
z
" clip-path="url(#pfc7909d8a8)" style="fill: #d62728"/>
   </g>
   <g id="patch_22">
    <path d="M 150.417668 252 
L 158.483842 252 
L 158.483842 58.230228 
L 150.417668 58.230228 
z
" clip-path="url(#pfc7909d8a8)" style="fill: #d62728"/>
   </g>
   <g id="patch_23">
    <path d="M 204.192162 252 
L 212.258336 252 
L 212.258336 53.898056 
L 204.192162 53.898056 
z
" clip-path="url(#pfc7909d8a8)" style="fill: #d62728"/>
   </g>
   <g id="patch_24">
    <path d="M 257.966656 252 
L 266.03283 252 
L 266.03283 52.019159 
L 257.966656 52.019159 
z
" clip-path="url(#pfc7909d8a8)" style="fill: #d62728"/>
   </g>
   <g id="patch_25">
    <path d="M 311.74115 252 
L 319.807324 252 
L 319.807324 47.871958 
L 311.74115 47.871958 
z
" clip-path="url(#pfc7909d8a8)" style="fill: #d62728"/>
   </g>
   <g id="patch_26">
    <path d="M 365.515644 252 
L 373.581818 252 
L 373.581818 46.460349 
L 365.515644 46.460349 
z
" clip-path="url(#pfc7909d8a8)" style="fill: #d62728"/>
   </g>
   <g id="matplotlib.axis_1">
    <g id="xtick_1">
     <g id="line2d_1">
      <defs>
       <path id="medacfbcdc8" d="M 0 0 
L 0 3.5 
" style="stroke: #000000; stroke-width: 0.8"/>
      </defs>
      <g>
       <use xlink:href="#medacfbcdc8" x="77.822101" y="252" style="stroke: #000000; stroke-width: 0.8"/>
      </g>
     </g>
     <g id="text_1">
      <!-- Units 75 -->
      <g transform="translate(65.112409 293.694636)rotate(-45)scale(0.1 -0.1)">
       <defs>
        <path id="DejaVuSans-55" d="M 556 4666 
L 1191 4666 
L 1191 1831 
Q 1191 1081 1462 751 
Q 1734 422 2344 422 
Q 2950 422 3222 751 
Q 3494 1081 3494 1831 
L 3494 4666 
L 4128 4666 
L 4128 1753 
Q 4128 841 3676 375 
Q 3225 -91 2344 -91 
Q 1459 -91 1007 375 
Q 556 841 556 1753 
L 556 4666 
z
" transform="scale(0.015625)"/>
        <path id="DejaVuSans-6e" d="M 3513 2113 
L 3513 0 
L 2938 0 
L 2938 2094 
Q 2938 2591 2744 2837 
Q 2550 3084 2163 3084 
Q 1697 3084 1428 2787 
Q 1159 2491 1159 1978 
L 1159 0 
L 581 0 
L 581 3500 
L 1159 3500 
L 1159 2956 
Q 1366 3272 1645 3428 
Q 1925 3584 2291 3584 
Q 2894 3584 3203 3211 
Q 3513 2838 3513 2113 
z
" transform="scale(0.015625)"/>
        <path id="DejaVuSans-69" d="M 603 3500 
L 1178 3500 
L 1178 0 
L 603 0 
L 603 3500 
z
M 603 4863 
L 1178 4863 
L 1178 4134 
L 603 4134 
L 603 4863 
z
" transform="scale(0.015625)"/>
        <path id="DejaVuSans-74" d="M 1172 4494 
L 1172 3500 
L 2356 3500 
L 2356 3053 
L 1172 3053 
L 1172 1153 
Q 1172 725 1289 603 
Q 1406 481 1766 481 
L 2356 481 
L 2356 0 
L 1766 0 
Q 1100 0 847 248 
Q 594 497 594 1153 
L 594 3053 
L 172 3053 
L 172 3500 
L 594 3500 
L 594 4494 
L 1172 4494 
z
" transform="scale(0.015625)"/>
        <path id="DejaVuSans-73" d="M 2834 3397 
L 2834 2853 
Q 2591 2978 2328 3040 
Q 2066 3103 1784 3103 
Q 1356 3103 1142 2972 
Q 928 2841 928 2578 
Q 928 2378 1081 2264 
Q 1234 2150 1697 2047 
L 1894 2003 
Q 2506 1872 2764 1633 
Q 3022 1394 3022 966 
Q 3022 478 2636 193 
Q 2250 -91 1575 -91 
Q 1294 -91 989 -36 
Q 684 19 347 128 
L 347 722 
Q 666 556 975 473 
Q 1284 391 1588 391 
Q 1994 391 2212 530 
Q 2431 669 2431 922 
Q 2431 1156 2273 1281 
Q 2116 1406 1581 1522 
L 1381 1569 
Q 847 1681 609 1914 
Q 372 2147 372 2553 
Q 372 3047 722 3315 
Q 1072 3584 1716 3584 
Q 2034 3584 2315 3537 
Q 2597 3491 2834 3397 
z
" transform="scale(0.015625)"/>
        <path id="DejaVuSans-20" transform="scale(0.015625)"/>
        <path id="DejaVuSans-37" d="M 525 4666 
L 3525 4666 
L 3525 4397 
L 1831 0 
L 1172 0 
L 2766 4134 
L 525 4134 
L 525 4666 
z
" transform="scale(0.015625)"/>
        <path id="DejaVuSans-35" d="M 691 4666 
L 3169 4666 
L 3169 4134 
L 1269 4134 
L 1269 2991 
Q 1406 3038 1543 3061 
Q 1681 3084 1819 3084 
Q 2600 3084 3056 2656 
Q 3513 2228 3513 1497 
Q 3513 744 3044 326 
Q 2575 -91 1722 -91 
Q 1428 -91 1123 -41 
Q 819 9 494 109 
L 494 744 
Q 775 591 1075 516 
Q 1375 441 1709 441 
Q 2250 441 2565 725 
Q 2881 1009 2881 1497 
Q 2881 1984 2565 2268 
Q 2250 2553 1709 2553 
Q 1456 2553 1204 2497 
Q 953 2441 691 2322 
L 691 4666 
z
" transform="scale(0.015625)"/>
       </defs>
       <use xlink:href="#DejaVuSans-55"/>
       <use xlink:href="#DejaVuSans-6e" x="73.193359"/>
       <use xlink:href="#DejaVuSans-69" x="136.572266"/>
       <use xlink:href="#DejaVuSans-74" x="164.355469"/>
       <use xlink:href="#DejaVuSans-73" x="203.564453"/>
       <use xlink:href="#DejaVuSans-20" x="255.664062"/>
       <use xlink:href="#DejaVuSans-37" x="287.451172"/>
       <use xlink:href="#DejaVuSans-35" x="351.074219"/>
      </g>
     </g>
    </g>
    <g id="xtick_2">
     <g id="line2d_2">
      <g>
       <use xlink:href="#medacfbcdc8" x="131.596595" y="252" style="stroke: #000000; stroke-width: 0.8"/>
      </g>
     </g>
     <g id="text_2">
      <!-- Units 50 -->
      <g transform="translate(118.886903 293.694636)rotate(-45)scale(0.1 -0.1)">
       <defs>
        <path id="DejaVuSans-30" d="M 2034 4250 
Q 1547 4250 1301 3770 
Q 1056 3291 1056 2328 
Q 1056 1369 1301 889 
Q 1547 409 2034 409 
Q 2525 409 2770 889 
Q 3016 1369 3016 2328 
Q 3016 3291 2770 3770 
Q 2525 4250 2034 4250 
z
M 2034 4750 
Q 2819 4750 3233 4129 
Q 3647 3509 3647 2328 
Q 3647 1150 3233 529 
Q 2819 -91 2034 -91 
Q 1250 -91 836 529 
Q 422 1150 422 2328 
Q 422 3509 836 4129 
Q 1250 4750 2034 4750 
z
" transform="scale(0.015625)"/>
       </defs>
       <use xlink:href="#DejaVuSans-55"/>
       <use xlink:href="#DejaVuSans-6e" x="73.193359"/>
       <use xlink:href="#DejaVuSans-69" x="136.572266"/>
       <use xlink:href="#DejaVuSans-74" x="164.355469"/>
       <use xlink:href="#DejaVuSans-73" x="203.564453"/>
       <use xlink:href="#DejaVuSans-20" x="255.664062"/>
       <use xlink:href="#DejaVuSans-35" x="287.451172"/>
       <use xlink:href="#DejaVuSans-30" x="351.074219"/>
      </g>
     </g>
    </g>
    <g id="xtick_3">
     <g id="line2d_3">
      <g>
       <use xlink:href="#medacfbcdc8" x="185.371089" y="252" style="stroke: #000000; stroke-width: 0.8"/>
      </g>
     </g>
     <g id="text_3">
      <!-- Units 168 -->
      <g transform="translate(170.411914 298.193603)rotate(-45)scale(0.1 -0.1)">
       <defs>
        <path id="DejaVuSans-31" d="M 794 531 
L 1825 531 
L 1825 4091 
L 703 3866 
L 703 4441 
L 1819 4666 
L 2450 4666 
L 2450 531 
L 3481 531 
L 3481 0 
L 794 0 
L 794 531 
z
" transform="scale(0.015625)"/>
        <path id="DejaVuSans-36" d="M 2113 2584 
Q 1688 2584 1439 2293 
Q 1191 2003 1191 1497 
Q 1191 994 1439 701 
Q 1688 409 2113 409 
Q 2538 409 2786 701 
Q 3034 994 3034 1497 
Q 3034 2003 2786 2293 
Q 2538 2584 2113 2584 
z
M 3366 4563 
L 3366 3988 
Q 3128 4100 2886 4159 
Q 2644 4219 2406 4219 
Q 1781 4219 1451 3797 
Q 1122 3375 1075 2522 
Q 1259 2794 1537 2939 
Q 1816 3084 2150 3084 
Q 2853 3084 3261 2657 
Q 3669 2231 3669 1497 
Q 3669 778 3244 343 
Q 2819 -91 2113 -91 
Q 1303 -91 875 529 
Q 447 1150 447 2328 
Q 447 3434 972 4092 
Q 1497 4750 2381 4750 
Q 2619 4750 2861 4703 
Q 3103 4656 3366 4563 
z
" transform="scale(0.015625)"/>
        <path id="DejaVuSans-38" d="M 2034 2216 
Q 1584 2216 1326 1975 
Q 1069 1734 1069 1313 
Q 1069 891 1326 650 
Q 1584 409 2034 409 
Q 2484 409 2743 651 
Q 3003 894 3003 1313 
Q 3003 1734 2745 1975 
Q 2488 2216 2034 2216 
z
M 1403 2484 
Q 997 2584 770 2862 
Q 544 3141 544 3541 
Q 544 4100 942 4425 
Q 1341 4750 2034 4750 
Q 2731 4750 3128 4425 
Q 3525 4100 3525 3541 
Q 3525 3141 3298 2862 
Q 3072 2584 2669 2484 
Q 3125 2378 3379 2068 
Q 3634 1759 3634 1313 
Q 3634 634 3220 271 
Q 2806 -91 2034 -91 
Q 1263 -91 848 271 
Q 434 634 434 1313 
Q 434 1759 690 2068 
Q 947 2378 1403 2484 
z
M 1172 3481 
Q 1172 3119 1398 2916 
Q 1625 2713 2034 2713 
Q 2441 2713 2670 2916 
Q 2900 3119 2900 3481 
Q 2900 3844 2670 4047 
Q 2441 4250 2034 4250 
Q 1625 4250 1398 4047 
Q 1172 3844 1172 3481 
z
" transform="scale(0.015625)"/>
       </defs>
       <use xlink:href="#DejaVuSans-55"/>
       <use xlink:href="#DejaVuSans-6e" x="73.193359"/>
       <use xlink:href="#DejaVuSans-69" x="136.572266"/>
       <use xlink:href="#DejaVuSans-74" x="164.355469"/>
       <use xlink:href="#DejaVuSans-73" x="203.564453"/>
       <use xlink:href="#DejaVuSans-20" x="255.664062"/>
       <use xlink:href="#DejaVuSans-31" x="287.451172"/>
       <use xlink:href="#DejaVuSans-36" x="351.074219"/>
       <use xlink:href="#DejaVuSans-38" x="414.697266"/>
      </g>
     </g>
    </g>
    <g id="xtick_4">
     <g id="line2d_4">
      <g>
       <use xlink:href="#medacfbcdc8" x="239.145583" y="252" style="stroke: #000000; stroke-width: 0.8"/>
      </g>
     </g>
     <g id="text_4">
      <!-- Units 112 -->
      <g transform="translate(224.186408 298.193603)rotate(-45)scale(0.1 -0.1)">
       <defs>
        <path id="DejaVuSans-32" d="M 1228 531 
L 3431 531 
L 3431 0 
L 469 0 
L 469 531 
Q 828 903 1448 1529 
Q 2069 2156 2228 2338 
Q 2531 2678 2651 2914 
Q 2772 3150 2772 3378 
Q 2772 3750 2511 3984 
Q 2250 4219 1831 4219 
Q 1534 4219 1204 4116 
Q 875 4013 500 3803 
L 500 4441 
Q 881 4594 1212 4672 
Q 1544 4750 1819 4750 
Q 2544 4750 2975 4387 
Q 3406 4025 3406 3419 
Q 3406 3131 3298 2873 
Q 3191 2616 2906 2266 
Q 2828 2175 2409 1742 
Q 1991 1309 1228 531 
z
" transform="scale(0.015625)"/>
       </defs>
       <use xlink:href="#DejaVuSans-55"/>
       <use xlink:href="#DejaVuSans-6e" x="73.193359"/>
       <use xlink:href="#DejaVuSans-69" x="136.572266"/>
       <use xlink:href="#DejaVuSans-74" x="164.355469"/>
       <use xlink:href="#DejaVuSans-73" x="203.564453"/>
       <use xlink:href="#DejaVuSans-20" x="255.664062"/>
       <use xlink:href="#DejaVuSans-31" x="287.451172"/>
       <use xlink:href="#DejaVuSans-31" x="351.074219"/>
       <use xlink:href="#DejaVuSans-32" x="414.697266"/>
      </g>
     </g>
    </g>
    <g id="xtick_5">
     <g id="line2d_5">
      <g>
       <use xlink:href="#medacfbcdc8" x="292.920077" y="252" style="stroke: #000000; stroke-width: 0.8"/>
      </g>
     </g>
     <g id="text_5">
      <!-- Units 379 -->
      <g transform="translate(277.960902 298.193603)rotate(-45)scale(0.1 -0.1)">
       <defs>
        <path id="DejaVuSans-33" d="M 2597 2516 
Q 3050 2419 3304 2112 
Q 3559 1806 3559 1356 
Q 3559 666 3084 287 
Q 2609 -91 1734 -91 
Q 1441 -91 1130 -33 
Q 819 25 488 141 
L 488 750 
Q 750 597 1062 519 
Q 1375 441 1716 441 
Q 2309 441 2620 675 
Q 2931 909 2931 1356 
Q 2931 1769 2642 2001 
Q 2353 2234 1838 2234 
L 1294 2234 
L 1294 2753 
L 1863 2753 
Q 2328 2753 2575 2939 
Q 2822 3125 2822 3475 
Q 2822 3834 2567 4026 
Q 2313 4219 1838 4219 
Q 1578 4219 1281 4162 
Q 984 4106 628 3988 
L 628 4550 
Q 988 4650 1302 4700 
Q 1616 4750 1894 4750 
Q 2613 4750 3031 4423 
Q 3450 4097 3450 3541 
Q 3450 3153 3228 2886 
Q 3006 2619 2597 2516 
z
" transform="scale(0.015625)"/>
        <path id="DejaVuSans-39" d="M 703 97 
L 703 672 
Q 941 559 1184 500 
Q 1428 441 1663 441 
Q 2288 441 2617 861 
Q 2947 1281 2994 2138 
Q 2813 1869 2534 1725 
Q 2256 1581 1919 1581 
Q 1219 1581 811 2004 
Q 403 2428 403 3163 
Q 403 3881 828 4315 
Q 1253 4750 1959 4750 
Q 2769 4750 3195 4129 
Q 3622 3509 3622 2328 
Q 3622 1225 3098 567 
Q 2575 -91 1691 -91 
Q 1453 -91 1209 -44 
Q 966 3 703 97 
z
M 1959 2075 
Q 2384 2075 2632 2365 
Q 2881 2656 2881 3163 
Q 2881 3666 2632 3958 
Q 2384 4250 1959 4250 
Q 1534 4250 1286 3958 
Q 1038 3666 1038 3163 
Q 1038 2656 1286 2365 
Q 1534 2075 1959 2075 
z
" transform="scale(0.015625)"/>
       </defs>
       <use xlink:href="#DejaVuSans-55"/>
       <use xlink:href="#DejaVuSans-6e" x="73.193359"/>
       <use xlink:href="#DejaVuSans-69" x="136.572266"/>
       <use xlink:href="#DejaVuSans-74" x="164.355469"/>
       <use xlink:href="#DejaVuSans-73" x="203.564453"/>
       <use xlink:href="#DejaVuSans-20" x="255.664062"/>
       <use xlink:href="#DejaVuSans-33" x="287.451172"/>
       <use xlink:href="#DejaVuSans-37" x="351.074219"/>
       <use xlink:href="#DejaVuSans-39" x="414.697266"/>
      </g>
     </g>
    </g>
    <g id="xtick_6">
     <g id="line2d_6">
      <g>
       <use xlink:href="#medacfbcdc8" x="346.694571" y="252" style="stroke: #000000; stroke-width: 0.8"/>
      </g>
     </g>
     <g id="text_6">
      <!-- Units 253 -->
      <g transform="translate(331.735396 298.193603)rotate(-45)scale(0.1 -0.1)">
       <use xlink:href="#DejaVuSans-55"/>
       <use xlink:href="#DejaVuSans-6e" x="73.193359"/>
       <use xlink:href="#DejaVuSans-69" x="136.572266"/>
       <use xlink:href="#DejaVuSans-74" x="164.355469"/>
       <use xlink:href="#DejaVuSans-73" x="203.564453"/>
       <use xlink:href="#DejaVuSans-20" x="255.664062"/>
       <use xlink:href="#DejaVuSans-32" x="287.451172"/>
       <use xlink:href="#DejaVuSans-35" x="351.074219"/>
       <use xlink:href="#DejaVuSans-33" x="414.697266"/>
      </g>
     </g>
    </g>
   </g>
   <g id="matplotlib.axis_2">
    <g id="ytick_1">
     <g id="line2d_7">
      <defs>
       <path id="m0bbff82a3b" d="M 0 0 
L -3.5 0 
" style="stroke: #000000; stroke-width: 0.8"/>
      </defs>
      <g>
       <use xlink:href="#m0bbff82a3b" x="54" y="252" style="stroke: #000000; stroke-width: 0.8"/>
      </g>
     </g>
     <g id="text_7">
      <!-- 0.0 -->
      <g transform="translate(31.096875 255.799219)scale(0.1 -0.1)">
       <defs>
        <path id="DejaVuSans-2e" d="M 684 794 
L 1344 794 
L 1344 0 
L 684 0 
L 684 794 
z
" transform="scale(0.015625)"/>
       </defs>
       <use xlink:href="#DejaVuSans-30"/>
       <use xlink:href="#DejaVuSans-2e" x="63.623047"/>
       <use xlink:href="#DejaVuSans-30" x="95.410156"/>
      </g>
     </g>
    </g>
    <g id="ytick_2">
     <g id="line2d_8">
      <g>
       <use xlink:href="#m0bbff82a3b" x="54" y="230.592256" style="stroke: #000000; stroke-width: 0.8"/>
      </g>
     </g>
     <g id="text_8">
      <!-- 0.1 -->
      <g transform="translate(31.096875 234.391475)scale(0.1 -0.1)">
       <use xlink:href="#DejaVuSans-30"/>
       <use xlink:href="#DejaVuSans-2e" x="63.623047"/>
       <use xlink:href="#DejaVuSans-31" x="95.410156"/>
      </g>
     </g>
    </g>
    <g id="ytick_3">
     <g id="line2d_9">
      <g>
       <use xlink:href="#m0bbff82a3b" x="54" y="209.184513" style="stroke: #000000; stroke-width: 0.8"/>
      </g>
     </g>
     <g id="text_9">
      <!-- 0.2 -->
      <g transform="translate(31.096875 212.983732)scale(0.1 -0.1)">
       <use xlink:href="#DejaVuSans-30"/>
       <use xlink:href="#DejaVuSans-2e" x="63.623047"/>
       <use xlink:href="#DejaVuSans-32" x="95.410156"/>
      </g>
     </g>
    </g>
    <g id="ytick_4">
     <g id="line2d_10">
      <g>
       <use xlink:href="#m0bbff82a3b" x="54" y="187.776769" style="stroke: #000000; stroke-width: 0.8"/>
      </g>
     </g>
     <g id="text_10">
      <!-- 0.3 -->
      <g transform="translate(31.096875 191.575988)scale(0.1 -0.1)">
       <use xlink:href="#DejaVuSans-30"/>
       <use xlink:href="#DejaVuSans-2e" x="63.623047"/>
       <use xlink:href="#DejaVuSans-33" x="95.410156"/>
      </g>
     </g>
    </g>
    <g id="ytick_5">
     <g id="line2d_11">
      <g>
       <use xlink:href="#m0bbff82a3b" x="54" y="166.369026" style="stroke: #000000; stroke-width: 0.8"/>
      </g>
     </g>
     <g id="text_11">
      <!-- 0.4 -->
      <g transform="translate(31.096875 170.168244)scale(0.1 -0.1)">
       <defs>
        <path id="DejaVuSans-34" d="M 2419 4116 
L 825 1625 
L 2419 1625 
L 2419 4116 
z
M 2253 4666 
L 3047 4666 
L 3047 1625 
L 3713 1625 
L 3713 1100 
L 3047 1100 
L 3047 0 
L 2419 0 
L 2419 1100 
L 313 1100 
L 313 1709 
L 2253 4666 
z
" transform="scale(0.015625)"/>
       </defs>
       <use xlink:href="#DejaVuSans-30"/>
       <use xlink:href="#DejaVuSans-2e" x="63.623047"/>
       <use xlink:href="#DejaVuSans-34" x="95.410156"/>
      </g>
     </g>
    </g>
    <g id="ytick_6">
     <g id="line2d_12">
      <g>
       <use xlink:href="#m0bbff82a3b" x="54" y="144.961282" style="stroke: #000000; stroke-width: 0.8"/>
      </g>
     </g>
     <g id="text_12">
      <!-- 0.5 -->
      <g transform="translate(31.096875 148.760501)scale(0.1 -0.1)">
       <use xlink:href="#DejaVuSans-30"/>
       <use xlink:href="#DejaVuSans-2e" x="63.623047"/>
       <use xlink:href="#DejaVuSans-35" x="95.410156"/>
      </g>
     </g>
    </g>
    <g id="ytick_7">
     <g id="line2d_13">
      <g>
       <use xlink:href="#m0bbff82a3b" x="54" y="123.553538" style="stroke: #000000; stroke-width: 0.8"/>
      </g>
     </g>
     <g id="text_13">
      <!-- 0.6 -->
      <g transform="translate(31.096875 127.352757)scale(0.1 -0.1)">
       <use xlink:href="#DejaVuSans-30"/>
       <use xlink:href="#DejaVuSans-2e" x="63.623047"/>
       <use xlink:href="#DejaVuSans-36" x="95.410156"/>
      </g>
     </g>
    </g>
    <g id="ytick_8">
     <g id="line2d_14">
      <g>
       <use xlink:href="#m0bbff82a3b" x="54" y="102.145795" style="stroke: #000000; stroke-width: 0.8"/>
      </g>
     </g>
     <g id="text_14">
      <!-- 0.7 -->
      <g transform="translate(31.096875 105.945014)scale(0.1 -0.1)">
       <use xlink:href="#DejaVuSans-30"/>
       <use xlink:href="#DejaVuSans-2e" x="63.623047"/>
       <use xlink:href="#DejaVuSans-37" x="95.410156"/>
      </g>
     </g>
    </g>
    <g id="ytick_9">
     <g id="line2d_15">
      <g>
       <use xlink:href="#m0bbff82a3b" x="54" y="80.738051" style="stroke: #000000; stroke-width: 0.8"/>
      </g>
     </g>
     <g id="text_15">
      <!-- 0.8 -->
      <g transform="translate(31.096875 84.53727)scale(0.1 -0.1)">
       <use xlink:href="#DejaVuSans-30"/>
       <use xlink:href="#DejaVuSans-2e" x="63.623047"/>
       <use xlink:href="#DejaVuSans-38" x="95.410156"/>
      </g>
     </g>
    </g>
    <g id="ytick_10">
     <g id="line2d_16">
      <g>
       <use xlink:href="#m0bbff82a3b" x="54" y="59.330308" style="stroke: #000000; stroke-width: 0.8"/>
      </g>
     </g>
     <g id="text_16">
      <!-- 0.9 -->
      <g transform="translate(31.096875 63.129526)scale(0.1 -0.1)">
       <use xlink:href="#DejaVuSans-30"/>
       <use xlink:href="#DejaVuSans-2e" x="63.623047"/>
       <use xlink:href="#DejaVuSans-39" x="95.410156"/>
      </g>
     </g>
    </g>
    <g id="ytick_11">
     <g id="line2d_17">
      <g>
       <use xlink:href="#m0bbff82a3b" x="54" y="37.922564" style="stroke: #000000; stroke-width: 0.8"/>
      </g>
     </g>
     <g id="text_17">
      <!-- 1.0 -->
      <g transform="translate(31.096875 41.721783)scale(0.1 -0.1)">
       <use xlink:href="#DejaVuSans-31"/>
       <use xlink:href="#DejaVuSans-2e" x="63.623047"/>
       <use xlink:href="#DejaVuSans-30" x="95.410156"/>
      </g>
     </g>
    </g>
    <g id="ytick_12">
     <g id="line2d_18">
      <defs>
       <path id="m9b3b55a269" d="M 0 0 
L -2 0 
" style="stroke: #000000; stroke-width: 0.6"/>
      </defs>
      <g>
       <use xlink:href="#m9b3b55a269" x="54" y="241.296128" style="stroke: #000000; stroke-width: 0.6"/>
      </g>
     </g>
    </g>
    <g id="ytick_13">
     <g id="line2d_19">
      <g>
       <use xlink:href="#m9b3b55a269" x="54" y="219.888385" style="stroke: #000000; stroke-width: 0.6"/>
      </g>
     </g>
    </g>
    <g id="ytick_14">
     <g id="line2d_20">
      <g>
       <use xlink:href="#m9b3b55a269" x="54" y="198.480641" style="stroke: #000000; stroke-width: 0.6"/>
      </g>
     </g>
    </g>
    <g id="ytick_15">
     <g id="line2d_21">
      <g>
       <use xlink:href="#m9b3b55a269" x="54" y="177.072897" style="stroke: #000000; stroke-width: 0.6"/>
      </g>
     </g>
    </g>
    <g id="ytick_16">
     <g id="line2d_22">
      <g>
       <use xlink:href="#m9b3b55a269" x="54" y="155.665154" style="stroke: #000000; stroke-width: 0.6"/>
      </g>
     </g>
    </g>
    <g id="ytick_17">
     <g id="line2d_23">
      <g>
       <use xlink:href="#m9b3b55a269" x="54" y="134.25741" style="stroke: #000000; stroke-width: 0.6"/>
      </g>
     </g>
    </g>
    <g id="ytick_18">
     <g id="line2d_24">
      <g>
       <use xlink:href="#m9b3b55a269" x="54" y="112.849667" style="stroke: #000000; stroke-width: 0.6"/>
      </g>
     </g>
    </g>
    <g id="ytick_19">
     <g id="line2d_25">
      <g>
       <use xlink:href="#m9b3b55a269" x="54" y="91.441923" style="stroke: #000000; stroke-width: 0.6"/>
      </g>
     </g>
    </g>
    <g id="ytick_20">
     <g id="line2d_26">
      <g>
       <use xlink:href="#m9b3b55a269" x="54" y="70.034179" style="stroke: #000000; stroke-width: 0.6"/>
      </g>
     </g>
    </g>
    <g id="ytick_21">
     <g id="line2d_27">
      <g>
       <use xlink:href="#m9b3b55a269" x="54" y="48.626436" style="stroke: #000000; stroke-width: 0.6"/>
      </g>
     </g>
    </g>
    <g id="text_18">
     <!-- Accuracy -->
     <g transform="translate(25.017187 166.108125)rotate(-90)scale(0.1 -0.1)">
      <defs>
       <path id="DejaVuSans-41" d="M 2188 4044 
L 1331 1722 
L 3047 1722 
L 2188 4044 
z
M 1831 4666 
L 2547 4666 
L 4325 0 
L 3669 0 
L 3244 1197 
L 1141 1197 
L 716 0 
L 50 0 
L 1831 4666 
z
" transform="scale(0.015625)"/>
       <path id="DejaVuSans-63" d="M 3122 3366 
L 3122 2828 
Q 2878 2963 2633 3030 
Q 2388 3097 2138 3097 
Q 1578 3097 1268 2742 
Q 959 2388 959 1747 
Q 959 1106 1268 751 
Q 1578 397 2138 397 
Q 2388 397 2633 464 
Q 2878 531 3122 666 
L 3122 134 
Q 2881 22 2623 -34 
Q 2366 -91 2075 -91 
Q 1284 -91 818 406 
Q 353 903 353 1747 
Q 353 2603 823 3093 
Q 1294 3584 2113 3584 
Q 2378 3584 2631 3529 
Q 2884 3475 3122 3366 
z
" transform="scale(0.015625)"/>
       <path id="DejaVuSans-75" d="M 544 1381 
L 544 3500 
L 1119 3500 
L 1119 1403 
Q 1119 906 1312 657 
Q 1506 409 1894 409 
Q 2359 409 2629 706 
Q 2900 1003 2900 1516 
L 2900 3500 
L 3475 3500 
L 3475 0 
L 2900 0 
L 2900 538 
Q 2691 219 2414 64 
Q 2138 -91 1772 -91 
Q 1169 -91 856 284 
Q 544 659 544 1381 
z
M 1991 3584 
L 1991 3584 
z
" transform="scale(0.015625)"/>
       <path id="DejaVuSans-72" d="M 2631 2963 
Q 2534 3019 2420 3045 
Q 2306 3072 2169 3072 
Q 1681 3072 1420 2755 
Q 1159 2438 1159 1844 
L 1159 0 
L 581 0 
L 581 3500 
L 1159 3500 
L 1159 2956 
Q 1341 3275 1631 3429 
Q 1922 3584 2338 3584 
Q 2397 3584 2469 3576 
Q 2541 3569 2628 3553 
L 2631 2963 
z
" transform="scale(0.015625)"/>
       <path id="DejaVuSans-61" d="M 2194 1759 
Q 1497 1759 1228 1600 
Q 959 1441 959 1056 
Q 959 750 1161 570 
Q 1363 391 1709 391 
Q 2188 391 2477 730 
Q 2766 1069 2766 1631 
L 2766 1759 
L 2194 1759 
z
M 3341 1997 
L 3341 0 
L 2766 0 
L 2766 531 
Q 2569 213 2275 61 
Q 1981 -91 1556 -91 
Q 1019 -91 701 211 
Q 384 513 384 1019 
Q 384 1609 779 1909 
Q 1175 2209 1959 2209 
L 2766 2209 
L 2766 2266 
Q 2766 2663 2505 2880 
Q 2244 3097 1772 3097 
Q 1472 3097 1187 3025 
Q 903 2953 641 2809 
L 641 3341 
Q 956 3463 1253 3523 
Q 1550 3584 1831 3584 
Q 2591 3584 2966 3190 
Q 3341 2797 3341 1997 
z
" transform="scale(0.015625)"/>
       <path id="DejaVuSans-79" d="M 2059 -325 
Q 1816 -950 1584 -1140 
Q 1353 -1331 966 -1331 
L 506 -1331 
L 506 -850 
L 844 -850 
Q 1081 -850 1212 -737 
Q 1344 -625 1503 -206 
L 1606 56 
L 191 3500 
L 800 3500 
L 1894 763 
L 2988 3500 
L 3597 3500 
L 2059 -325 
z
" transform="scale(0.015625)"/>
      </defs>
      <use xlink:href="#DejaVuSans-41"/>
      <use xlink:href="#DejaVuSans-63" x="66.658203"/>
      <use xlink:href="#DejaVuSans-63" x="121.638672"/>
      <use xlink:href="#DejaVuSans-75" x="176.619141"/>
      <use xlink:href="#DejaVuSans-72" x="239.998047"/>
      <use xlink:href="#DejaVuSans-61" x="281.111328"/>
      <use xlink:href="#DejaVuSans-63" x="342.390625"/>
      <use xlink:href="#DejaVuSans-79" x="397.371094"/>
     </g>
    </g>
   </g>
   <g id="LineCollection_1">
    <path d="M 73.251269 99.196365 
L 73.251269 92.497852 
" clip-path="url(#pfc7909d8a8)" style="fill: none; stroke: #000000; stroke-width: 1.5"/>
    <path d="M 127.025763 79.829584 
L 127.025763 72.690118 
" clip-path="url(#pfc7909d8a8)" style="fill: none; stroke: #000000; stroke-width: 1.5"/>
    <path d="M 180.800257 71.956963 
L 180.800257 67.06973 
" clip-path="url(#pfc7909d8a8)" style="fill: none; stroke: #000000; stroke-width: 1.5"/>
    <path d="M 234.574751 65.659035 
L 234.574751 62.600504 
" clip-path="url(#pfc7909d8a8)" style="fill: none; stroke: #000000; stroke-width: 1.5"/>
    <path d="M 288.349245 62.658028 
L 288.349245 59.195736 
" clip-path="url(#pfc7909d8a8)" style="fill: none; stroke: #000000; stroke-width: 1.5"/>
    <path d="M 342.123739 59.962236 
L 342.123739 55.991986 
" clip-path="url(#pfc7909d8a8)" style="fill: none; stroke: #000000; stroke-width: 1.5"/>
   </g>
   <g id="line2d_28">
    <defs>
     <path id="m4c26819475" d="M 3 0 
L -3 -0 
" style="stroke: #000000"/>
    </defs>
    <g clip-path="url(#pfc7909d8a8)">
     <use xlink:href="#m4c26819475" x="73.251269" y="99.196365" style="stroke: #000000"/>
     <use xlink:href="#m4c26819475" x="127.025763" y="79.829584" style="stroke: #000000"/>
     <use xlink:href="#m4c26819475" x="180.800257" y="71.956963" style="stroke: #000000"/>
     <use xlink:href="#m4c26819475" x="234.574751" y="65.659035" style="stroke: #000000"/>
     <use xlink:href="#m4c26819475" x="288.349245" y="62.658028" style="stroke: #000000"/>
     <use xlink:href="#m4c26819475" x="342.123739" y="59.962236" style="stroke: #000000"/>
    </g>
   </g>
   <g id="line2d_29">
    <g clip-path="url(#pfc7909d8a8)">
     <use xlink:href="#m4c26819475" x="73.251269" y="92.497852" style="stroke: #000000"/>
     <use xlink:href="#m4c26819475" x="127.025763" y="72.690118" style="stroke: #000000"/>
     <use xlink:href="#m4c26819475" x="180.800257" y="67.06973" style="stroke: #000000"/>
     <use xlink:href="#m4c26819475" x="234.574751" y="62.600504" style="stroke: #000000"/>
     <use xlink:href="#m4c26819475" x="288.349245" y="59.195736" style="stroke: #000000"/>
     <use xlink:href="#m4c26819475" x="342.123739" y="55.991986" style="stroke: #000000"/>
    </g>
   </g>
   <g id="LineCollection_2">
    <path d="M 82.392933 72.956204 
L 82.392933 66.537779 
" clip-path="url(#pfc7909d8a8)" style="fill: none; stroke: #000000; stroke-width: 1.5"/>
    <path d="M 136.167427 70.035062 
L 136.167427 63.500968 
" clip-path="url(#pfc7909d8a8)" style="fill: none; stroke: #000000; stroke-width: 1.5"/>
    <path d="M 189.941921 60.225937 
L 189.941921 52.340434 
" clip-path="url(#pfc7909d8a8)" style="fill: none; stroke: #000000; stroke-width: 1.5"/>
    <path d="M 243.716415 53.653386 
L 243.716415 51.007986 
" clip-path="url(#pfc7909d8a8)" style="fill: none; stroke: #000000; stroke-width: 1.5"/>
    <path d="M 297.490909 51.926073 
L 297.490909 50.145726 
" clip-path="url(#pfc7909d8a8)" style="fill: none; stroke: #000000; stroke-width: 1.5"/>
    <path d="M 351.265403 50.893315 
L 351.265403 47.362289 
" clip-path="url(#pfc7909d8a8)" style="fill: none; stroke: #000000; stroke-width: 1.5"/>
   </g>
   <g id="line2d_30">
    <g clip-path="url(#pfc7909d8a8)">
     <use xlink:href="#m4c26819475" x="82.392933" y="72.956204" style="stroke: #000000"/>
     <use xlink:href="#m4c26819475" x="136.167427" y="70.035062" style="stroke: #000000"/>
     <use xlink:href="#m4c26819475" x="189.941921" y="60.225937" style="stroke: #000000"/>
     <use xlink:href="#m4c26819475" x="243.716415" y="53.653386" style="stroke: #000000"/>
     <use xlink:href="#m4c26819475" x="297.490909" y="51.926073" style="stroke: #000000"/>
     <use xlink:href="#m4c26819475" x="351.265403" y="50.893315" style="stroke: #000000"/>
    </g>
   </g>
   <g id="line2d_31">
    <g clip-path="url(#pfc7909d8a8)">
     <use xlink:href="#m4c26819475" x="82.392933" y="66.537779" style="stroke: #000000"/>
     <use xlink:href="#m4c26819475" x="136.167427" y="63.500968" style="stroke: #000000"/>
     <use xlink:href="#m4c26819475" x="189.941921" y="52.340434" style="stroke: #000000"/>
     <use xlink:href="#m4c26819475" x="243.716415" y="51.007986" style="stroke: #000000"/>
     <use xlink:href="#m4c26819475" x="297.490909" y="50.145726" style="stroke: #000000"/>
     <use xlink:href="#m4c26819475" x="351.265403" y="47.362289" style="stroke: #000000"/>
    </g>
   </g>
   <g id="LineCollection_3">
    <path d="M 91.534597 75.663443 
L 91.534597 66.887396 
" clip-path="url(#pfc7909d8a8)" style="fill: none; stroke: #000000; stroke-width: 1.5"/>
    <path d="M 145.309091 63.55621 
L 145.309091 57.655029 
" clip-path="url(#pfc7909d8a8)" style="fill: none; stroke: #000000; stroke-width: 1.5"/>
    <path d="M 199.083585 59.227016 
L 199.083585 53.728763 
" clip-path="url(#pfc7909d8a8)" style="fill: none; stroke: #000000; stroke-width: 1.5"/>
    <path d="M 252.858079 58.920158 
L 252.858079 54.074562 
" clip-path="url(#pfc7909d8a8)" style="fill: none; stroke: #000000; stroke-width: 1.5"/>
    <path d="M 306.632573 52.722257 
L 306.632573 49.213255 
" clip-path="url(#pfc7909d8a8)" style="fill: none; stroke: #000000; stroke-width: 1.5"/>
    <path d="M 360.407067 53.630293 
L 360.407067 48.694626 
" clip-path="url(#pfc7909d8a8)" style="fill: none; stroke: #000000; stroke-width: 1.5"/>
   </g>
   <g id="line2d_32">
    <g clip-path="url(#pfc7909d8a8)">
     <use xlink:href="#m4c26819475" x="91.534597" y="75.663443" style="stroke: #000000"/>
     <use xlink:href="#m4c26819475" x="145.309091" y="63.55621" style="stroke: #000000"/>
     <use xlink:href="#m4c26819475" x="199.083585" y="59.227016" style="stroke: #000000"/>
     <use xlink:href="#m4c26819475" x="252.858079" y="58.920158" style="stroke: #000000"/>
     <use xlink:href="#m4c26819475" x="306.632573" y="52.722257" style="stroke: #000000"/>
     <use xlink:href="#m4c26819475" x="360.407067" y="53.630293" style="stroke: #000000"/>
    </g>
   </g>
   <g id="line2d_33">
    <g clip-path="url(#pfc7909d8a8)">
     <use xlink:href="#m4c26819475" x="91.534597" y="66.887396" style="stroke: #000000"/>
     <use xlink:href="#m4c26819475" x="145.309091" y="57.655029" style="stroke: #000000"/>
     <use xlink:href="#m4c26819475" x="199.083585" y="53.728763" style="stroke: #000000"/>
     <use xlink:href="#m4c26819475" x="252.858079" y="54.074562" style="stroke: #000000"/>
     <use xlink:href="#m4c26819475" x="306.632573" y="49.213255" style="stroke: #000000"/>
     <use xlink:href="#m4c26819475" x="360.407067" y="48.694626" style="stroke: #000000"/>
    </g>
   </g>
   <g id="LineCollection_4">
    <path d="M 100.676261 72.926666 
L 100.676261 64.114042 
" clip-path="url(#pfc7909d8a8)" style="fill: none; stroke: #000000; stroke-width: 1.5"/>
    <path d="M 154.450755 60.614541 
L 154.450755 55.845915 
" clip-path="url(#pfc7909d8a8)" style="fill: none; stroke: #000000; stroke-width: 1.5"/>
    <path d="M 208.225249 56.548273 
L 208.225249 51.24784 
" clip-path="url(#pfc7909d8a8)" style="fill: none; stroke: #000000; stroke-width: 1.5"/>
    <path d="M 261.999743 54.526162 
L 261.999743 49.512156 
" clip-path="url(#pfc7909d8a8)" style="fill: none; stroke: #000000; stroke-width: 1.5"/>
    <path d="M 315.774237 49.236139 
L 315.774237 46.507778 
" clip-path="url(#pfc7909d8a8)" style="fill: none; stroke: #000000; stroke-width: 1.5"/>
    <path d="M 369.548731 48.006412 
L 369.548731 44.914286 
" clip-path="url(#pfc7909d8a8)" style="fill: none; stroke: #000000; stroke-width: 1.5"/>
   </g>
   <g id="line2d_34">
    <g clip-path="url(#pfc7909d8a8)">
     <use xlink:href="#m4c26819475" x="100.676261" y="72.926666" style="stroke: #000000"/>
     <use xlink:href="#m4c26819475" x="154.450755" y="60.614541" style="stroke: #000000"/>
     <use xlink:href="#m4c26819475" x="208.225249" y="56.548273" style="stroke: #000000"/>
     <use xlink:href="#m4c26819475" x="261.999743" y="54.526162" style="stroke: #000000"/>
     <use xlink:href="#m4c26819475" x="315.774237" y="49.236139" style="stroke: #000000"/>
     <use xlink:href="#m4c26819475" x="369.548731" y="48.006412" style="stroke: #000000"/>
    </g>
   </g>
   <g id="line2d_35">
    <g clip-path="url(#pfc7909d8a8)">
     <use xlink:href="#m4c26819475" x="100.676261" y="64.114042" style="stroke: #000000"/>
     <use xlink:href="#m4c26819475" x="154.450755" y="55.845915" style="stroke: #000000"/>
     <use xlink:href="#m4c26819475" x="208.225249" y="51.24784" style="stroke: #000000"/>
     <use xlink:href="#m4c26819475" x="261.999743" y="49.512156" style="stroke: #000000"/>
     <use xlink:href="#m4c26819475" x="315.774237" y="46.507778" style="stroke: #000000"/>
     <use xlink:href="#m4c26819475" x="369.548731" y="44.914286" style="stroke: #000000"/>
    </g>
   </g>
   <g id="patch_27">
    <path d="M 54 252 
L 54 34.56 
" style="fill: none; stroke: #000000; stroke-width: 0.8; stroke-linejoin: miter; stroke-linecap: square"/>
   </g>
   <g id="patch_28">
    <path d="M 388.8 252 
L 388.8 34.56 
" style="fill: none; stroke: #000000; stroke-width: 0.8; stroke-linejoin: miter; stroke-linecap: square"/>
   </g>
   <g id="patch_29">
    <path d="M 54 252 
L 388.8 252 
" style="fill: none; stroke: #000000; stroke-width: 0.8; stroke-linejoin: miter; stroke-linecap: square"/>
   </g>
   <g id="patch_30">
    <path d="M 54 34.56 
L 388.8 34.56 
" style="fill: none; stroke: #000000; stroke-width: 0.8; stroke-linejoin: miter; stroke-linecap: square"/>
   </g>
   <g id="text_19">
    <!-- SpokenArabicDigits dataset -->
    <g transform="translate(138.504375 28.56)scale(0.12 -0.12)">
     <defs>
      <path id="DejaVuSans-53" d="M 3425 4513 
L 3425 3897 
Q 3066 4069 2747 4153 
Q 2428 4238 2131 4238 
Q 1616 4238 1336 4038 
Q 1056 3838 1056 3469 
Q 1056 3159 1242 3001 
Q 1428 2844 1947 2747 
L 2328 2669 
Q 3034 2534 3370 2195 
Q 3706 1856 3706 1288 
Q 3706 609 3251 259 
Q 2797 -91 1919 -91 
Q 1588 -91 1214 -16 
Q 841 59 441 206 
L 441 856 
Q 825 641 1194 531 
Q 1563 422 1919 422 
Q 2459 422 2753 634 
Q 3047 847 3047 1241 
Q 3047 1584 2836 1778 
Q 2625 1972 2144 2069 
L 1759 2144 
Q 1053 2284 737 2584 
Q 422 2884 422 3419 
Q 422 4038 858 4394 
Q 1294 4750 2059 4750 
Q 2388 4750 2728 4690 
Q 3069 4631 3425 4513 
z
" transform="scale(0.015625)"/>
      <path id="DejaVuSans-70" d="M 1159 525 
L 1159 -1331 
L 581 -1331 
L 581 3500 
L 1159 3500 
L 1159 2969 
Q 1341 3281 1617 3432 
Q 1894 3584 2278 3584 
Q 2916 3584 3314 3078 
Q 3713 2572 3713 1747 
Q 3713 922 3314 415 
Q 2916 -91 2278 -91 
Q 1894 -91 1617 61 
Q 1341 213 1159 525 
z
M 3116 1747 
Q 3116 2381 2855 2742 
Q 2594 3103 2138 3103 
Q 1681 3103 1420 2742 
Q 1159 2381 1159 1747 
Q 1159 1113 1420 752 
Q 1681 391 2138 391 
Q 2594 391 2855 752 
Q 3116 1113 3116 1747 
z
" transform="scale(0.015625)"/>
      <path id="DejaVuSans-6f" d="M 1959 3097 
Q 1497 3097 1228 2736 
Q 959 2375 959 1747 
Q 959 1119 1226 758 
Q 1494 397 1959 397 
Q 2419 397 2687 759 
Q 2956 1122 2956 1747 
Q 2956 2369 2687 2733 
Q 2419 3097 1959 3097 
z
M 1959 3584 
Q 2709 3584 3137 3096 
Q 3566 2609 3566 1747 
Q 3566 888 3137 398 
Q 2709 -91 1959 -91 
Q 1206 -91 779 398 
Q 353 888 353 1747 
Q 353 2609 779 3096 
Q 1206 3584 1959 3584 
z
" transform="scale(0.015625)"/>
      <path id="DejaVuSans-6b" d="M 581 4863 
L 1159 4863 
L 1159 1991 
L 2875 3500 
L 3609 3500 
L 1753 1863 
L 3688 0 
L 2938 0 
L 1159 1709 
L 1159 0 
L 581 0 
L 581 4863 
z
" transform="scale(0.015625)"/>
      <path id="DejaVuSans-65" d="M 3597 1894 
L 3597 1613 
L 953 1613 
Q 991 1019 1311 708 
Q 1631 397 2203 397 
Q 2534 397 2845 478 
Q 3156 559 3463 722 
L 3463 178 
Q 3153 47 2828 -22 
Q 2503 -91 2169 -91 
Q 1331 -91 842 396 
Q 353 884 353 1716 
Q 353 2575 817 3079 
Q 1281 3584 2069 3584 
Q 2775 3584 3186 3129 
Q 3597 2675 3597 1894 
z
M 3022 2063 
Q 3016 2534 2758 2815 
Q 2500 3097 2075 3097 
Q 1594 3097 1305 2825 
Q 1016 2553 972 2059 
L 3022 2063 
z
" transform="scale(0.015625)"/>
      <path id="DejaVuSans-62" d="M 3116 1747 
Q 3116 2381 2855 2742 
Q 2594 3103 2138 3103 
Q 1681 3103 1420 2742 
Q 1159 2381 1159 1747 
Q 1159 1113 1420 752 
Q 1681 391 2138 391 
Q 2594 391 2855 752 
Q 3116 1113 3116 1747 
z
M 1159 2969 
Q 1341 3281 1617 3432 
Q 1894 3584 2278 3584 
Q 2916 3584 3314 3078 
Q 3713 2572 3713 1747 
Q 3713 922 3314 415 
Q 2916 -91 2278 -91 
Q 1894 -91 1617 61 
Q 1341 213 1159 525 
L 1159 0 
L 581 0 
L 581 4863 
L 1159 4863 
L 1159 2969 
z
" transform="scale(0.015625)"/>
      <path id="DejaVuSans-44" d="M 1259 4147 
L 1259 519 
L 2022 519 
Q 2988 519 3436 956 
Q 3884 1394 3884 2338 
Q 3884 3275 3436 3711 
Q 2988 4147 2022 4147 
L 1259 4147 
z
M 628 4666 
L 1925 4666 
Q 3281 4666 3915 4102 
Q 4550 3538 4550 2338 
Q 4550 1131 3912 565 
Q 3275 0 1925 0 
L 628 0 
L 628 4666 
z
" transform="scale(0.015625)"/>
      <path id="DejaVuSans-67" d="M 2906 1791 
Q 2906 2416 2648 2759 
Q 2391 3103 1925 3103 
Q 1463 3103 1205 2759 
Q 947 2416 947 1791 
Q 947 1169 1205 825 
Q 1463 481 1925 481 
Q 2391 481 2648 825 
Q 2906 1169 2906 1791 
z
M 3481 434 
Q 3481 -459 3084 -895 
Q 2688 -1331 1869 -1331 
Q 1566 -1331 1297 -1286 
Q 1028 -1241 775 -1147 
L 775 -588 
Q 1028 -725 1275 -790 
Q 1522 -856 1778 -856 
Q 2344 -856 2625 -561 
Q 2906 -266 2906 331 
L 2906 616 
Q 2728 306 2450 153 
Q 2172 0 1784 0 
Q 1141 0 747 490 
Q 353 981 353 1791 
Q 353 2603 747 3093 
Q 1141 3584 1784 3584 
Q 2172 3584 2450 3431 
Q 2728 3278 2906 2969 
L 2906 3500 
L 3481 3500 
L 3481 434 
z
" transform="scale(0.015625)"/>
      <path id="DejaVuSans-64" d="M 2906 2969 
L 2906 4863 
L 3481 4863 
L 3481 0 
L 2906 0 
L 2906 525 
Q 2725 213 2448 61 
Q 2172 -91 1784 -91 
Q 1150 -91 751 415 
Q 353 922 353 1747 
Q 353 2572 751 3078 
Q 1150 3584 1784 3584 
Q 2172 3584 2448 3432 
Q 2725 3281 2906 2969 
z
M 947 1747 
Q 947 1113 1208 752 
Q 1469 391 1925 391 
Q 2381 391 2643 752 
Q 2906 1113 2906 1747 
Q 2906 2381 2643 2742 
Q 2381 3103 1925 3103 
Q 1469 3103 1208 2742 
Q 947 2381 947 1747 
z
" transform="scale(0.015625)"/>
     </defs>
     <use xlink:href="#DejaVuSans-53"/>
     <use xlink:href="#DejaVuSans-70" x="63.476562"/>
     <use xlink:href="#DejaVuSans-6f" x="126.953125"/>
     <use xlink:href="#DejaVuSans-6b" x="188.134766"/>
     <use xlink:href="#DejaVuSans-65" x="242.419922"/>
     <use xlink:href="#DejaVuSans-6e" x="303.943359"/>
     <use xlink:href="#DejaVuSans-41" x="367.322266"/>
     <use xlink:href="#DejaVuSans-72" x="435.730469"/>
     <use xlink:href="#DejaVuSans-61" x="476.84375"/>
     <use xlink:href="#DejaVuSans-62" x="538.123047"/>
     <use xlink:href="#DejaVuSans-69" x="601.599609"/>
     <use xlink:href="#DejaVuSans-63" x="629.382812"/>
     <use xlink:href="#DejaVuSans-44" x="684.363281"/>
     <use xlink:href="#DejaVuSans-69" x="761.365234"/>
     <use xlink:href="#DejaVuSans-67" x="789.148438"/>
     <use xlink:href="#DejaVuSans-69" x="852.625"/>
     <use xlink:href="#DejaVuSans-74" x="880.408203"/>
     <use xlink:href="#DejaVuSans-73" x="919.617188"/>
     <use xlink:href="#DejaVuSans-20" x="971.716797"/>
     <use xlink:href="#DejaVuSans-64" x="1003.503906"/>
     <use xlink:href="#DejaVuSans-61" x="1066.980469"/>
     <use xlink:href="#DejaVuSans-74" x="1128.259766"/>
     <use xlink:href="#DejaVuSans-61" x="1167.46875"/>
     <use xlink:href="#DejaVuSans-73" x="1228.748047"/>
     <use xlink:href="#DejaVuSans-65" x="1280.847656"/>
     <use xlink:href="#DejaVuSans-74" x="1342.371094"/>
    </g>
   </g>
   <g id="legend_1">
    <g id="patch_31">
     <path d="M 323.289062 247 
L 381.8 247 
Q 383.8 247 383.8 245 
L 383.8 187.2875 
Q 383.8 185.2875 381.8 185.2875 
L 323.289062 185.2875 
Q 321.289062 185.2875 321.289062 187.2875 
L 321.289062 245 
Q 321.289062 247 323.289062 247 
z
" style="fill: #ffffff; opacity: 0.8; stroke: #cccccc; stroke-linejoin: miter"/>
    </g>
    <g id="patch_32">
     <path d="M 325.289062 196.885938 
L 345.289062 196.885938 
L 345.289062 189.885938 
L 325.289062 189.885938 
z
" style="fill: #1f77b4"/>
    </g>
    <g id="text_20">
     <!-- ESN1 -->
     <g transform="translate(353.289062 196.885938)scale(0.1 -0.1)">
      <defs>
       <path id="DejaVuSans-45" d="M 628 4666 
L 3578 4666 
L 3578 4134 
L 1259 4134 
L 1259 2753 
L 3481 2753 
L 3481 2222 
L 1259 2222 
L 1259 531 
L 3634 531 
L 3634 0 
L 628 0 
L 628 4666 
z
" transform="scale(0.015625)"/>
       <path id="DejaVuSans-4e" d="M 628 4666 
L 1478 4666 
L 3547 763 
L 3547 4666 
L 4159 4666 
L 4159 0 
L 3309 0 
L 1241 3903 
L 1241 0 
L 628 0 
L 628 4666 
z
" transform="scale(0.015625)"/>
      </defs>
      <use xlink:href="#DejaVuSans-45"/>
      <use xlink:href="#DejaVuSans-53" x="63.183594"/>
      <use xlink:href="#DejaVuSans-4e" x="126.660156"/>
      <use xlink:href="#DejaVuSans-31" x="201.464844"/>
     </g>
    </g>
    <g id="patch_33">
     <path d="M 325.289062 211.564063 
L 345.289062 211.564063 
L 345.289062 204.564063 
L 325.289062 204.564063 
z
" style="fill: #ff7f0e"/>
    </g>
    <g id="text_21">
     <!-- ESN2 -->
     <g transform="translate(353.289062 211.564063)scale(0.1 -0.1)">
      <use xlink:href="#DejaVuSans-45"/>
      <use xlink:href="#DejaVuSans-53" x="63.183594"/>
      <use xlink:href="#DejaVuSans-4e" x="126.660156"/>
      <use xlink:href="#DejaVuSans-32" x="201.464844"/>
     </g>
    </g>
    <g id="patch_34">
     <path d="M 325.289062 226.242188 
L 345.289062 226.242188 
L 345.289062 219.242188 
L 325.289062 219.242188 
z
" style="fill: #2ca02c"/>
    </g>
    <g id="text_22">
     <!-- ESN3 -->
     <g transform="translate(353.289062 226.242188)scale(0.1 -0.1)">
      <use xlink:href="#DejaVuSans-45"/>
      <use xlink:href="#DejaVuSans-53" x="63.183594"/>
      <use xlink:href="#DejaVuSans-4e" x="126.660156"/>
      <use xlink:href="#DejaVuSans-33" x="201.464844"/>
     </g>
    </g>
    <g id="patch_35">
     <path d="M 325.289062 240.920312 
L 345.289062 240.920312 
L 345.289062 233.920312 
L 325.289062 233.920312 
z
" style="fill: #d62728"/>
    </g>
    <g id="text_23">
     <!-- ESN4 -->
     <g transform="translate(353.289062 240.920312)scale(0.1 -0.1)">
      <use xlink:href="#DejaVuSans-45"/>
      <use xlink:href="#DejaVuSans-53" x="63.183594"/>
      <use xlink:href="#DejaVuSans-4e" x="126.660156"/>
      <use xlink:href="#DejaVuSans-34" x="201.464844"/>
     </g>
    </g>
   </g>
  </g>
 </g>
 <defs>
  <clipPath id="pfc7909d8a8">
   <rect x="54" y="34.56" width="334.8" height="217.44"/>
  </clipPath>
 </defs>
</svg>
