<?xml version="1.0" encoding="utf-8" standalone="no"?>
<!DOCTYPE svg PUBLIC "-//W3C//DTD SVG 1.1//EN"
  "http://www.w3.org/Graphics/SVG/1.1/DTD/svg11.dtd">
<svg xmlns:xlink="http://www.w3.org/1999/xlink" width="405.441562pt" height="263.63625pt" viewBox="0 0 405.441562 263.63625" xmlns="http://www.w3.org/2000/svg" version="1.1">
 <metadata>
  <rdf:RDF xmlns:dc="http://purl.org/dc/elements/1.1/" xmlns:cc="http://creativecommons.org/ns#" xmlns:rdf="http://www.w3.org/1999/02/22-rdf-syntax-ns#">
   <cc:Work>
    <dc:type rdf:resource="http://purl.org/dc/dcmitype/StillImage"/>
    <dc:date>2022-01-12T12:08:24.124557</dc:date>
    <dc:format>image/svg+xml</dc:format>
    <dc:creator>
     <cc:Agent>
      <dc:title>Matplotlib v3.5.1, https://matplotlib.org/</dc:title>
     </cc:Agent>
    </dc:creator>
   </cc:Work>
  </rdf:RDF>
 </metadata>
 <defs>
  <style type="text/css">*{stroke-linejoin: round; stroke-linecap: butt}</style>
 </defs>
 <g id="figure_1">
  <g id="patch_1">
   <path d="M 0 263.63625 
L 405.441562 263.63625 
L 405.441562 0 
L 0 0 
L 0 263.63625 
z
" style="fill: none"/>
  </g>
  <g id="axes_1">
   <g id="patch_2">
    <path d="M 43.78125 239.758125 
L 378.58125 239.758125 
L 378.58125 22.318125 
L 43.78125 22.318125 
z
" style="fill: #ffffff"/>
   </g>
   <g id="patch_3">
    <path d="M 58.999432 239.758125 
L 67.065606 239.758125 
L 67.065606 62.624598 
L 58.999432 62.624598 
z
" clip-path="url(#p25df77de6a)" style="fill: #1f77b4"/>
   </g>
   <g id="patch_4">
    <path d="M 112.773926 239.758125 
L 120.8401 239.758125 
L 120.8401 67.138921 
L 112.773926 67.138921 
z
" clip-path="url(#p25df77de6a)" style="fill: #1f77b4"/>
   </g>
   <g id="patch_5">
    <path d="M 166.54842 239.758125 
L 174.614594 239.758125 
L 174.614594 60.47492 
L 166.54842 60.47492 
z
" clip-path="url(#p25df77de6a)" style="fill: #1f77b4"/>
   </g>
   <g id="patch_6">
    <path d="M 220.322914 239.758125 
L 228.389088 239.758125 
L 228.389088 64.989243 
L 220.322914 64.989243 
z
" clip-path="url(#p25df77de6a)" style="fill: #1f77b4"/>
   </g>
   <g id="patch_7">
    <path d="M 274.097408 239.758125 
L 282.163582 239.758125 
L 282.163582 48.723343 
L 274.097408 48.723343 
z
" clip-path="url(#p25df77de6a)" style="fill: #1f77b4"/>
   </g>
   <g id="patch_8">
    <path d="M 327.871902 239.758125 
L 335.938076 239.758125 
L 335.938076 47.720159 
L 327.871902 47.720159 
z
" clip-path="url(#p25df77de6a)" style="fill: #1f77b4"/>
   </g>
   <g id="patch_9">
    <path d="M 68.141096 239.758125 
L 76.20727 239.758125 
L 76.20727 58.970144 
L 68.141096 58.970144 
z
" clip-path="url(#p25df77de6a)" style="fill: #ff7f0e"/>
   </g>
   <g id="patch_10">
    <path d="M 121.91559 239.758125 
L 129.981764 239.758125 
L 129.981764 49.79818 
L 121.91559 49.79818 
z
" clip-path="url(#p25df77de6a)" style="fill: #ff7f0e"/>
   </g>
   <g id="patch_11">
    <path d="M 175.690084 239.758125 
L 183.756258 239.758125 
L 183.756258 45.068886 
L 175.690084 45.068886 
z
" clip-path="url(#p25df77de6a)" style="fill: #ff7f0e"/>
   </g>
   <g id="patch_12">
    <path d="M 229.464578 239.758125 
L 237.530752 239.758125 
L 237.530752 41.486086 
L 229.464578 41.486086 
z
" clip-path="url(#p25df77de6a)" style="fill: #ff7f0e"/>
   </g>
   <g id="patch_13">
    <path d="M 283.239072 239.758125 
L 291.305246 239.758125 
L 291.305246 40.124625 
L 283.239072 40.124625 
z
" clip-path="url(#p25df77de6a)" style="fill: #ff7f0e"/>
   </g>
   <g id="patch_14">
    <path d="M 337.013566 239.758125 
L 345.07974 239.758125 
L 345.07974 37.903291 
L 337.013566 37.903291 
z
" clip-path="url(#p25df77de6a)" style="fill: #ff7f0e"/>
   </g>
   <g id="patch_15">
    <path d="M 77.28276 239.758125 
L 85.348934 239.758125 
L 85.348934 65.419178 
L 77.28276 65.419178 
z
" clip-path="url(#p25df77de6a)" style="fill: #2ca02c"/>
   </g>
   <g id="patch_16">
    <path d="M 131.057254 239.758125 
L 139.123428 239.758125 
L 139.123428 60.474919 
L 131.057254 60.474919 
z
" clip-path="url(#p25df77de6a)" style="fill: #2ca02c"/>
   </g>
   <g id="patch_17">
    <path d="M 184.831748 239.758125 
L 192.897922 239.758125 
L 192.897922 52.162828 
L 184.831748 52.162828 
z
" clip-path="url(#p25df77de6a)" style="fill: #2ca02c"/>
   </g>
   <g id="patch_18">
    <path d="M 238.606242 239.758125 
L 246.672416 239.758125 
L 246.672416 49.583214 
L 238.606242 49.583214 
z
" clip-path="url(#p25df77de6a)" style="fill: #2ca02c"/>
   </g>
   <g id="patch_19">
    <path d="M 292.380736 239.758125 
L 300.44691 239.758125 
L 300.44691 51.302954 
L 292.380736 51.302954 
z
" clip-path="url(#p25df77de6a)" style="fill: #2ca02c"/>
   </g>
   <g id="patch_20">
    <path d="M 346.15523 239.758125 
L 354.221404 239.758125 
L 354.221404 51.876203 
L 346.15523 51.876203 
z
" clip-path="url(#p25df77de6a)" style="fill: #2ca02c"/>
   </g>
   <g id="patch_21">
    <path d="M 86.424424 239.758125 
L 94.490598 239.758125 
L 94.490598 71.223309 
L 86.424424 71.223309 
z
" clip-path="url(#p25df77de6a)" style="fill: #d62728"/>
   </g>
   <g id="patch_22">
    <path d="M 140.198918 239.758125 
L 148.265092 239.758125 
L 148.265092 72.154838 
L 140.198918 72.154838 
z
" clip-path="url(#p25df77de6a)" style="fill: #d62728"/>
   </g>
   <g id="patch_23">
    <path d="M 193.973412 239.758125 
L 202.039586 239.758125 
L 202.039586 76.167573 
L 193.973412 76.167573 
z
" clip-path="url(#p25df77de6a)" style="fill: #d62728"/>
   </g>
   <g id="patch_24">
    <path d="M 247.747906 239.758125 
L 255.81408 239.758125 
L 255.81408 60.044982 
L 247.747906 60.044982 
z
" clip-path="url(#p25df77de6a)" style="fill: #d62728"/>
   </g>
   <g id="patch_25">
    <path d="M 301.5224 239.758125 
L 309.588574 239.758125 
L 309.588574 67.783826 
L 301.5224 67.783826 
z
" clip-path="url(#p25df77de6a)" style="fill: #d62728"/>
   </g>
   <g id="patch_26">
    <path d="M 355.296894 239.758125 
L 363.363068 239.758125 
L 363.363068 53.52429 
L 355.296894 53.52429 
z
" clip-path="url(#p25df77de6a)" style="fill: #d62728"/>
   </g>
   <g id="matplotlib.axis_1">
    <g id="xtick_1">
     <g id="line2d_1">
      <defs>
       <path id="m239cdc30ee" d="M 0 0 
L 0 3.5 
" style="stroke: #000000; stroke-width: 0.8"/>
      </defs>
      <g>
       <use xlink:href="#m239cdc30ee" x="76.745015" y="239.758125" style="stroke: #000000; stroke-width: 0.8"/>
      </g>
     </g>
     <g id="text_1">
      <!-- Units 50 -->
      <g transform="translate(56.011421 254.356563)scale(0.1 -0.1)">
       <defs>
        <path id="DejaVuSans-55" d="M 556 4666 
L 1191 4666 
L 1191 1831 
Q 1191 1081 1462 751 
Q 1734 422 2344 422 
Q 2950 422 3222 751 
Q 3494 1081 3494 1831 
L 3494 4666 
L 4128 4666 
L 4128 1753 
Q 4128 841 3676 375 
Q 3225 -91 2344 -91 
Q 1459 -91 1007 375 
Q 556 841 556 1753 
L 556 4666 
z
" transform="scale(0.015625)"/>
        <path id="DejaVuSans-6e" d="M 3513 2113 
L 3513 0 
L 2938 0 
L 2938 2094 
Q 2938 2591 2744 2837 
Q 2550 3084 2163 3084 
Q 1697 3084 1428 2787 
Q 1159 2491 1159 1978 
L 1159 0 
L 581 0 
L 581 3500 
L 1159 3500 
L 1159 2956 
Q 1366 3272 1645 3428 
Q 1925 3584 2291 3584 
Q 2894 3584 3203 3211 
Q 3513 2838 3513 2113 
z
" transform="scale(0.015625)"/>
        <path id="DejaVuSans-69" d="M 603 3500 
L 1178 3500 
L 1178 0 
L 603 0 
L 603 3500 
z
M 603 4863 
L 1178 4863 
L 1178 4134 
L 603 4134 
L 603 4863 
z
" transform="scale(0.015625)"/>
        <path id="DejaVuSans-74" d="M 1172 4494 
L 1172 3500 
L 2356 3500 
L 2356 3053 
L 1172 3053 
L 1172 1153 
Q 1172 725 1289 603 
Q 1406 481 1766 481 
L 2356 481 
L 2356 0 
L 1766 0 
Q 1100 0 847 248 
Q 594 497 594 1153 
L 594 3053 
L 172 3053 
L 172 3500 
L 594 3500 
L 594 4494 
L 1172 4494 
z
" transform="scale(0.015625)"/>
        <path id="DejaVuSans-73" d="M 2834 3397 
L 2834 2853 
Q 2591 2978 2328 3040 
Q 2066 3103 1784 3103 
Q 1356 3103 1142 2972 
Q 928 2841 928 2578 
Q 928 2378 1081 2264 
Q 1234 2150 1697 2047 
L 1894 2003 
Q 2506 1872 2764 1633 
Q 3022 1394 3022 966 
Q 3022 478 2636 193 
Q 2250 -91 1575 -91 
Q 1294 -91 989 -36 
Q 684 19 347 128 
L 347 722 
Q 666 556 975 473 
Q 1284 391 1588 391 
Q 1994 391 2212 530 
Q 2431 669 2431 922 
Q 2431 1156 2273 1281 
Q 2116 1406 1581 1522 
L 1381 1569 
Q 847 1681 609 1914 
Q 372 2147 372 2553 
Q 372 3047 722 3315 
Q 1072 3584 1716 3584 
Q 2034 3584 2315 3537 
Q 2597 3491 2834 3397 
z
" transform="scale(0.015625)"/>
        <path id="DejaVuSans-20" transform="scale(0.015625)"/>
        <path id="DejaVuSans-35" d="M 691 4666 
L 3169 4666 
L 3169 4134 
L 1269 4134 
L 1269 2991 
Q 1406 3038 1543 3061 
Q 1681 3084 1819 3084 
Q 2600 3084 3056 2656 
Q 3513 2228 3513 1497 
Q 3513 744 3044 326 
Q 2575 -91 1722 -91 
Q 1428 -91 1123 -41 
Q 819 9 494 109 
L 494 744 
Q 775 591 1075 516 
Q 1375 441 1709 441 
Q 2250 441 2565 725 
Q 2881 1009 2881 1497 
Q 2881 1984 2565 2268 
Q 2250 2553 1709 2553 
Q 1456 2553 1204 2497 
Q 953 2441 691 2322 
L 691 4666 
z
" transform="scale(0.015625)"/>
        <path id="DejaVuSans-30" d="M 2034 4250 
Q 1547 4250 1301 3770 
Q 1056 3291 1056 2328 
Q 1056 1369 1301 889 
Q 1547 409 2034 409 
Q 2525 409 2770 889 
Q 3016 1369 3016 2328 
Q 3016 3291 2770 3770 
Q 2525 4250 2034 4250 
z
M 2034 4750 
Q 2819 4750 3233 4129 
Q 3647 3509 3647 2328 
Q 3647 1150 3233 529 
Q 2819 -91 2034 -91 
Q 1250 -91 836 529 
Q 422 1150 422 2328 
Q 422 3509 836 4129 
Q 1250 4750 2034 4750 
z
" transform="scale(0.015625)"/>
       </defs>
       <use xlink:href="#DejaVuSans-55"/>
       <use xlink:href="#DejaVuSans-6e" x="73.193359"/>
       <use xlink:href="#DejaVuSans-69" x="136.572266"/>
       <use xlink:href="#DejaVuSans-74" x="164.355469"/>
       <use xlink:href="#DejaVuSans-73" x="203.564453"/>
       <use xlink:href="#DejaVuSans-20" x="255.664062"/>
       <use xlink:href="#DejaVuSans-35" x="287.451172"/>
       <use xlink:href="#DejaVuSans-30" x="351.074219"/>
      </g>
     </g>
    </g>
    <g id="xtick_2">
     <g id="line2d_2">
      <g>
       <use xlink:href="#m239cdc30ee" x="130.519509" y="239.758125" style="stroke: #000000; stroke-width: 0.8"/>
      </g>
     </g>
     <g id="text_2">
      <!-- Units 75 -->
      <g transform="translate(109.785915 254.356563)scale(0.1 -0.1)">
       <defs>
        <path id="DejaVuSans-37" d="M 525 4666 
L 3525 4666 
L 3525 4397 
L 1831 0 
L 1172 0 
L 2766 4134 
L 525 4134 
L 525 4666 
z
" transform="scale(0.015625)"/>
       </defs>
       <use xlink:href="#DejaVuSans-55"/>
       <use xlink:href="#DejaVuSans-6e" x="73.193359"/>
       <use xlink:href="#DejaVuSans-69" x="136.572266"/>
       <use xlink:href="#DejaVuSans-74" x="164.355469"/>
       <use xlink:href="#DejaVuSans-73" x="203.564453"/>
       <use xlink:href="#DejaVuSans-20" x="255.664062"/>
       <use xlink:href="#DejaVuSans-37" x="287.451172"/>
       <use xlink:href="#DejaVuSans-35" x="351.074219"/>
      </g>
     </g>
    </g>
    <g id="xtick_3">
     <g id="line2d_3">
      <g>
       <use xlink:href="#m239cdc30ee" x="184.294003" y="239.758125" style="stroke: #000000; stroke-width: 0.8"/>
      </g>
     </g>
     <g id="text_3">
      <!-- Units 112 -->
      <g transform="translate(160.379159 254.356563)scale(0.1 -0.1)">
       <defs>
        <path id="DejaVuSans-31" d="M 794 531 
L 1825 531 
L 1825 4091 
L 703 3866 
L 703 4441 
L 1819 4666 
L 2450 4666 
L 2450 531 
L 3481 531 
L 3481 0 
L 794 0 
L 794 531 
z
" transform="scale(0.015625)"/>
        <path id="DejaVuSans-32" d="M 1228 531 
L 3431 531 
L 3431 0 
L 469 0 
L 469 531 
Q 828 903 1448 1529 
Q 2069 2156 2228 2338 
Q 2531 2678 2651 2914 
Q 2772 3150 2772 3378 
Q 2772 3750 2511 3984 
Q 2250 4219 1831 4219 
Q 1534 4219 1204 4116 
Q 875 4013 500 3803 
L 500 4441 
Q 881 4594 1212 4672 
Q 1544 4750 1819 4750 
Q 2544 4750 2975 4387 
Q 3406 4025 3406 3419 
Q 3406 3131 3298 2873 
Q 3191 2616 2906 2266 
Q 2828 2175 2409 1742 
Q 1991 1309 1228 531 
z
" transform="scale(0.015625)"/>
       </defs>
       <use xlink:href="#DejaVuSans-55"/>
       <use xlink:href="#DejaVuSans-6e" x="73.193359"/>
       <use xlink:href="#DejaVuSans-69" x="136.572266"/>
       <use xlink:href="#DejaVuSans-74" x="164.355469"/>
       <use xlink:href="#DejaVuSans-73" x="203.564453"/>
       <use xlink:href="#DejaVuSans-20" x="255.664062"/>
       <use xlink:href="#DejaVuSans-31" x="287.451172"/>
       <use xlink:href="#DejaVuSans-31" x="351.074219"/>
       <use xlink:href="#DejaVuSans-32" x="414.697266"/>
      </g>
     </g>
    </g>
    <g id="xtick_4">
     <g id="line2d_4">
      <g>
       <use xlink:href="#m239cdc30ee" x="238.068497" y="239.758125" style="stroke: #000000; stroke-width: 0.8"/>
      </g>
     </g>
     <g id="text_4">
      <!-- Units 168 -->
      <g transform="translate(214.153653 254.356563)scale(0.1 -0.1)">
       <defs>
        <path id="DejaVuSans-36" d="M 2113 2584 
Q 1688 2584 1439 2293 
Q 1191 2003 1191 1497 
Q 1191 994 1439 701 
Q 1688 409 2113 409 
Q 2538 409 2786 701 
Q 3034 994 3034 1497 
Q 3034 2003 2786 2293 
Q 2538 2584 2113 2584 
z
M 3366 4563 
L 3366 3988 
Q 3128 4100 2886 4159 
Q 2644 4219 2406 4219 
Q 1781 4219 1451 3797 
Q 1122 3375 1075 2522 
Q 1259 2794 1537 2939 
Q 1816 3084 2150 3084 
Q 2853 3084 3261 2657 
Q 3669 2231 3669 1497 
Q 3669 778 3244 343 
Q 2819 -91 2113 -91 
Q 1303 -91 875 529 
Q 447 1150 447 2328 
Q 447 3434 972 4092 
Q 1497 4750 2381 4750 
Q 2619 4750 2861 4703 
Q 3103 4656 3366 4563 
z
" transform="scale(0.015625)"/>
        <path id="DejaVuSans-38" d="M 2034 2216 
Q 1584 2216 1326 1975 
Q 1069 1734 1069 1313 
Q 1069 891 1326 650 
Q 1584 409 2034 409 
Q 2484 409 2743 651 
Q 3003 894 3003 1313 
Q 3003 1734 2745 1975 
Q 2488 2216 2034 2216 
z
M 1403 2484 
Q 997 2584 770 2862 
Q 544 3141 544 3541 
Q 544 4100 942 4425 
Q 1341 4750 2034 4750 
Q 2731 4750 3128 4425 
Q 3525 4100 3525 3541 
Q 3525 3141 3298 2862 
Q 3072 2584 2669 2484 
Q 3125 2378 3379 2068 
Q 3634 1759 3634 1313 
Q 3634 634 3220 271 
Q 2806 -91 2034 -91 
Q 1263 -91 848 271 
Q 434 634 434 1313 
Q 434 1759 690 2068 
Q 947 2378 1403 2484 
z
M 1172 3481 
Q 1172 3119 1398 2916 
Q 1625 2713 2034 2713 
Q 2441 2713 2670 2916 
Q 2900 3119 2900 3481 
Q 2900 3844 2670 4047 
Q 2441 4250 2034 4250 
Q 1625 4250 1398 4047 
Q 1172 3844 1172 3481 
z
" transform="scale(0.015625)"/>
       </defs>
       <use xlink:href="#DejaVuSans-55"/>
       <use xlink:href="#DejaVuSans-6e" x="73.193359"/>
       <use xlink:href="#DejaVuSans-69" x="136.572266"/>
       <use xlink:href="#DejaVuSans-74" x="164.355469"/>
       <use xlink:href="#DejaVuSans-73" x="203.564453"/>
       <use xlink:href="#DejaVuSans-20" x="255.664062"/>
       <use xlink:href="#DejaVuSans-31" x="287.451172"/>
       <use xlink:href="#DejaVuSans-36" x="351.074219"/>
       <use xlink:href="#DejaVuSans-38" x="414.697266"/>
      </g>
     </g>
    </g>
    <g id="xtick_5">
     <g id="line2d_5">
      <g>
       <use xlink:href="#m239cdc30ee" x="291.842991" y="239.758125" style="stroke: #000000; stroke-width: 0.8"/>
      </g>
     </g>
     <g id="text_5">
      <!-- Units 253 -->
      <g transform="translate(267.928147 254.356563)scale(0.1 -0.1)">
       <defs>
        <path id="DejaVuSans-33" d="M 2597 2516 
Q 3050 2419 3304 2112 
Q 3559 1806 3559 1356 
Q 3559 666 3084 287 
Q 2609 -91 1734 -91 
Q 1441 -91 1130 -33 
Q 819 25 488 141 
L 488 750 
Q 750 597 1062 519 
Q 1375 441 1716 441 
Q 2309 441 2620 675 
Q 2931 909 2931 1356 
Q 2931 1769 2642 2001 
Q 2353 2234 1838 2234 
L 1294 2234 
L 1294 2753 
L 1863 2753 
Q 2328 2753 2575 2939 
Q 2822 3125 2822 3475 
Q 2822 3834 2567 4026 
Q 2313 4219 1838 4219 
Q 1578 4219 1281 4162 
Q 984 4106 628 3988 
L 628 4550 
Q 988 4650 1302 4700 
Q 1616 4750 1894 4750 
Q 2613 4750 3031 4423 
Q 3450 4097 3450 3541 
Q 3450 3153 3228 2886 
Q 3006 2619 2597 2516 
z
" transform="scale(0.015625)"/>
       </defs>
       <use xlink:href="#DejaVuSans-55"/>
       <use xlink:href="#DejaVuSans-6e" x="73.193359"/>
       <use xlink:href="#DejaVuSans-69" x="136.572266"/>
       <use xlink:href="#DejaVuSans-74" x="164.355469"/>
       <use xlink:href="#DejaVuSans-73" x="203.564453"/>
       <use xlink:href="#DejaVuSans-20" x="255.664062"/>
       <use xlink:href="#DejaVuSans-32" x="287.451172"/>
       <use xlink:href="#DejaVuSans-35" x="351.074219"/>
       <use xlink:href="#DejaVuSans-33" x="414.697266"/>
      </g>
     </g>
    </g>
    <g id="xtick_6">
     <g id="line2d_6">
      <g>
       <use xlink:href="#m239cdc30ee" x="345.617485" y="239.758125" style="stroke: #000000; stroke-width: 0.8"/>
      </g>
     </g>
     <g id="text_6">
      <!-- Units 379 -->
      <g transform="translate(321.702641 254.356563)scale(0.1 -0.1)">
       <defs>
        <path id="DejaVuSans-39" d="M 703 97 
L 703 672 
Q 941 559 1184 500 
Q 1428 441 1663 441 
Q 2288 441 2617 861 
Q 2947 1281 2994 2138 
Q 2813 1869 2534 1725 
Q 2256 1581 1919 1581 
Q 1219 1581 811 2004 
Q 403 2428 403 3163 
Q 403 3881 828 4315 
Q 1253 4750 1959 4750 
Q 2769 4750 3195 4129 
Q 3622 3509 3622 2328 
Q 3622 1225 3098 567 
Q 2575 -91 1691 -91 
Q 1453 -91 1209 -44 
Q 966 3 703 97 
z
M 1959 2075 
Q 2384 2075 2632 2365 
Q 2881 2656 2881 3163 
Q 2881 3666 2632 3958 
Q 2384 4250 1959 4250 
Q 1534 4250 1286 3958 
Q 1038 3666 1038 3163 
Q 1038 2656 1286 2365 
Q 1534 2075 1959 2075 
z
" transform="scale(0.015625)"/>
       </defs>
       <use xlink:href="#DejaVuSans-55"/>
       <use xlink:href="#DejaVuSans-6e" x="73.193359"/>
       <use xlink:href="#DejaVuSans-69" x="136.572266"/>
       <use xlink:href="#DejaVuSans-74" x="164.355469"/>
       <use xlink:href="#DejaVuSans-73" x="203.564453"/>
       <use xlink:href="#DejaVuSans-20" x="255.664062"/>
       <use xlink:href="#DejaVuSans-33" x="287.451172"/>
       <use xlink:href="#DejaVuSans-37" x="351.074219"/>
       <use xlink:href="#DejaVuSans-39" x="414.697266"/>
      </g>
     </g>
    </g>
   </g>
   <g id="matplotlib.axis_2">
    <g id="ytick_1">
     <g id="line2d_7">
      <defs>
       <path id="m0cba54cf18" d="M 0 0 
L -3.5 0 
" style="stroke: #000000; stroke-width: 0.8"/>
      </defs>
      <g>
       <use xlink:href="#m0cba54cf18" x="43.78125" y="239.758125" style="stroke: #000000; stroke-width: 0.8"/>
      </g>
     </g>
     <g id="text_7">
      <!-- 0.0 -->
      <g transform="translate(20.878125 243.557344)scale(0.1 -0.1)">
       <defs>
        <path id="DejaVuSans-2e" d="M 684 794 
L 1344 794 
L 1344 0 
L 684 0 
L 684 794 
z
" transform="scale(0.015625)"/>
       </defs>
       <use xlink:href="#DejaVuSans-30"/>
       <use xlink:href="#DejaVuSans-2e" x="63.623047"/>
       <use xlink:href="#DejaVuSans-30" x="95.410156"/>
      </g>
     </g>
    </g>
    <g id="ytick_2">
     <g id="line2d_8">
      <g>
       <use xlink:href="#m0cba54cf18" x="43.78125" y="218.261338" style="stroke: #000000; stroke-width: 0.8"/>
      </g>
     </g>
     <g id="text_8">
      <!-- 0.1 -->
      <g transform="translate(20.878125 222.060556)scale(0.1 -0.1)">
       <use xlink:href="#DejaVuSans-30"/>
       <use xlink:href="#DejaVuSans-2e" x="63.623047"/>
       <use xlink:href="#DejaVuSans-31" x="95.410156"/>
      </g>
     </g>
    </g>
    <g id="ytick_3">
     <g id="line2d_9">
      <g>
       <use xlink:href="#m0cba54cf18" x="43.78125" y="196.76455" style="stroke: #000000; stroke-width: 0.8"/>
      </g>
     </g>
     <g id="text_9">
      <!-- 0.2 -->
      <g transform="translate(20.878125 200.563769)scale(0.1 -0.1)">
       <use xlink:href="#DejaVuSans-30"/>
       <use xlink:href="#DejaVuSans-2e" x="63.623047"/>
       <use xlink:href="#DejaVuSans-32" x="95.410156"/>
      </g>
     </g>
    </g>
    <g id="ytick_4">
     <g id="line2d_10">
      <g>
       <use xlink:href="#m0cba54cf18" x="43.78125" y="175.267763" style="stroke: #000000; stroke-width: 0.8"/>
      </g>
     </g>
     <g id="text_10">
      <!-- 0.3 -->
      <g transform="translate(20.878125 179.066981)scale(0.1 -0.1)">
       <use xlink:href="#DejaVuSans-30"/>
       <use xlink:href="#DejaVuSans-2e" x="63.623047"/>
       <use xlink:href="#DejaVuSans-33" x="95.410156"/>
      </g>
     </g>
    </g>
    <g id="ytick_5">
     <g id="line2d_11">
      <g>
       <use xlink:href="#m0cba54cf18" x="43.78125" y="153.770975" style="stroke: #000000; stroke-width: 0.8"/>
      </g>
     </g>
     <g id="text_11">
      <!-- 0.4 -->
      <g transform="translate(20.878125 157.570194)scale(0.1 -0.1)">
       <defs>
        <path id="DejaVuSans-34" d="M 2419 4116 
L 825 1625 
L 2419 1625 
L 2419 4116 
z
M 2253 4666 
L 3047 4666 
L 3047 1625 
L 3713 1625 
L 3713 1100 
L 3047 1100 
L 3047 0 
L 2419 0 
L 2419 1100 
L 313 1100 
L 313 1709 
L 2253 4666 
z
" transform="scale(0.015625)"/>
       </defs>
       <use xlink:href="#DejaVuSans-30"/>
       <use xlink:href="#DejaVuSans-2e" x="63.623047"/>
       <use xlink:href="#DejaVuSans-34" x="95.410156"/>
      </g>
     </g>
    </g>
    <g id="ytick_6">
     <g id="line2d_12">
      <g>
       <use xlink:href="#m0cba54cf18" x="43.78125" y="132.274188" style="stroke: #000000; stroke-width: 0.8"/>
      </g>
     </g>
     <g id="text_12">
      <!-- 0.5 -->
      <g transform="translate(20.878125 136.073406)scale(0.1 -0.1)">
       <use xlink:href="#DejaVuSans-30"/>
       <use xlink:href="#DejaVuSans-2e" x="63.623047"/>
       <use xlink:href="#DejaVuSans-35" x="95.410156"/>
      </g>
     </g>
    </g>
    <g id="ytick_7">
     <g id="line2d_13">
      <g>
       <use xlink:href="#m0cba54cf18" x="43.78125" y="110.7774" style="stroke: #000000; stroke-width: 0.8"/>
      </g>
     </g>
     <g id="text_13">
      <!-- 0.6 -->
      <g transform="translate(20.878125 114.576619)scale(0.1 -0.1)">
       <use xlink:href="#DejaVuSans-30"/>
       <use xlink:href="#DejaVuSans-2e" x="63.623047"/>
       <use xlink:href="#DejaVuSans-36" x="95.410156"/>
      </g>
     </g>
    </g>
    <g id="ytick_8">
     <g id="line2d_14">
      <g>
       <use xlink:href="#m0cba54cf18" x="43.78125" y="89.280613" style="stroke: #000000; stroke-width: 0.8"/>
      </g>
     </g>
     <g id="text_14">
      <!-- 0.7 -->
      <g transform="translate(20.878125 93.079831)scale(0.1 -0.1)">
       <use xlink:href="#DejaVuSans-30"/>
       <use xlink:href="#DejaVuSans-2e" x="63.623047"/>
       <use xlink:href="#DejaVuSans-37" x="95.410156"/>
      </g>
     </g>
    </g>
    <g id="ytick_9">
     <g id="line2d_15">
      <g>
       <use xlink:href="#m0cba54cf18" x="43.78125" y="67.783825" style="stroke: #000000; stroke-width: 0.8"/>
      </g>
     </g>
     <g id="text_15">
      <!-- 0.8 -->
      <g transform="translate(20.878125 71.583044)scale(0.1 -0.1)">
       <use xlink:href="#DejaVuSans-30"/>
       <use xlink:href="#DejaVuSans-2e" x="63.623047"/>
       <use xlink:href="#DejaVuSans-38" x="95.410156"/>
      </g>
     </g>
    </g>
    <g id="ytick_10">
     <g id="line2d_16">
      <g>
       <use xlink:href="#m0cba54cf18" x="43.78125" y="46.287038" style="stroke: #000000; stroke-width: 0.8"/>
      </g>
     </g>
     <g id="text_16">
      <!-- 0.9 -->
      <g transform="translate(20.878125 50.086256)scale(0.1 -0.1)">
       <use xlink:href="#DejaVuSans-30"/>
       <use xlink:href="#DejaVuSans-2e" x="63.623047"/>
       <use xlink:href="#DejaVuSans-39" x="95.410156"/>
      </g>
     </g>
    </g>
    <g id="ytick_11">
     <g id="line2d_17">
      <g>
       <use xlink:href="#m0cba54cf18" x="43.78125" y="24.79025" style="stroke: #000000; stroke-width: 0.8"/>
      </g>
     </g>
     <g id="text_17">
      <!-- 1.0 -->
      <g transform="translate(20.878125 28.589469)scale(0.1 -0.1)">
       <use xlink:href="#DejaVuSans-31"/>
       <use xlink:href="#DejaVuSans-2e" x="63.623047"/>
       <use xlink:href="#DejaVuSans-30" x="95.410156"/>
      </g>
     </g>
    </g>
    <g id="ytick_12">
     <g id="line2d_18">
      <defs>
       <path id="m625d390d06" d="M 0 0 
L -2 0 
" style="stroke: #000000; stroke-width: 0.6"/>
      </defs>
      <g>
       <use xlink:href="#m625d390d06" x="43.78125" y="229.009731" style="stroke: #000000; stroke-width: 0.6"/>
      </g>
     </g>
    </g>
    <g id="ytick_13">
     <g id="line2d_19">
      <g>
       <use xlink:href="#m625d390d06" x="43.78125" y="207.512944" style="stroke: #000000; stroke-width: 0.6"/>
      </g>
     </g>
    </g>
    <g id="ytick_14">
     <g id="line2d_20">
      <g>
       <use xlink:href="#m625d390d06" x="43.78125" y="186.016156" style="stroke: #000000; stroke-width: 0.6"/>
      </g>
     </g>
    </g>
    <g id="ytick_15">
     <g id="line2d_21">
      <g>
       <use xlink:href="#m625d390d06" x="43.78125" y="164.519369" style="stroke: #000000; stroke-width: 0.6"/>
      </g>
     </g>
    </g>
    <g id="ytick_16">
     <g id="line2d_22">
      <g>
       <use xlink:href="#m625d390d06" x="43.78125" y="143.022581" style="stroke: #000000; stroke-width: 0.6"/>
      </g>
     </g>
    </g>
    <g id="ytick_17">
     <g id="line2d_23">
      <g>
       <use xlink:href="#m625d390d06" x="43.78125" y="121.525794" style="stroke: #000000; stroke-width: 0.6"/>
      </g>
     </g>
    </g>
    <g id="ytick_18">
     <g id="line2d_24">
      <g>
       <use xlink:href="#m625d390d06" x="43.78125" y="100.029006" style="stroke: #000000; stroke-width: 0.6"/>
      </g>
     </g>
    </g>
    <g id="ytick_19">
     <g id="line2d_25">
      <g>
       <use xlink:href="#m625d390d06" x="43.78125" y="78.532219" style="stroke: #000000; stroke-width: 0.6"/>
      </g>
     </g>
    </g>
    <g id="ytick_20">
     <g id="line2d_26">
      <g>
       <use xlink:href="#m625d390d06" x="43.78125" y="57.035431" style="stroke: #000000; stroke-width: 0.6"/>
      </g>
     </g>
    </g>
    <g id="ytick_21">
     <g id="line2d_27">
      <g>
       <use xlink:href="#m625d390d06" x="43.78125" y="35.538644" style="stroke: #000000; stroke-width: 0.6"/>
      </g>
     </g>
    </g>
    <g id="text_18">
     <!-- Accuracy -->
     <g transform="translate(14.798438 153.86625)rotate(-90)scale(0.1 -0.1)">
      <defs>
       <path id="DejaVuSans-41" d="M 2188 4044 
L 1331 1722 
L 3047 1722 
L 2188 4044 
z
M 1831 4666 
L 2547 4666 
L 4325 0 
L 3669 0 
L 3244 1197 
L 1141 1197 
L 716 0 
L 50 0 
L 1831 4666 
z
" transform="scale(0.015625)"/>
       <path id="DejaVuSans-63" d="M 3122 3366 
L 3122 2828 
Q 2878 2963 2633 3030 
Q 2388 3097 2138 3097 
Q 1578 3097 1268 2742 
Q 959 2388 959 1747 
Q 959 1106 1268 751 
Q 1578 397 2138 397 
Q 2388 397 2633 464 
Q 2878 531 3122 666 
L 3122 134 
Q 2881 22 2623 -34 
Q 2366 -91 2075 -91 
Q 1284 -91 818 406 
Q 353 903 353 1747 
Q 353 2603 823 3093 
Q 1294 3584 2113 3584 
Q 2378 3584 2631 3529 
Q 2884 3475 3122 3366 
z
" transform="scale(0.015625)"/>
       <path id="DejaVuSans-75" d="M 544 1381 
L 544 3500 
L 1119 3500 
L 1119 1403 
Q 1119 906 1312 657 
Q 1506 409 1894 409 
Q 2359 409 2629 706 
Q 2900 1003 2900 1516 
L 2900 3500 
L 3475 3500 
L 3475 0 
L 2900 0 
L 2900 538 
Q 2691 219 2414 64 
Q 2138 -91 1772 -91 
Q 1169 -91 856 284 
Q 544 659 544 1381 
z
M 1991 3584 
L 1991 3584 
z
" transform="scale(0.015625)"/>
       <path id="DejaVuSans-72" d="M 2631 2963 
Q 2534 3019 2420 3045 
Q 2306 3072 2169 3072 
Q 1681 3072 1420 2755 
Q 1159 2438 1159 1844 
L 1159 0 
L 581 0 
L 581 3500 
L 1159 3500 
L 1159 2956 
Q 1341 3275 1631 3429 
Q 1922 3584 2338 3584 
Q 2397 3584 2469 3576 
Q 2541 3569 2628 3553 
L 2631 2963 
z
" transform="scale(0.015625)"/>
       <path id="DejaVuSans-61" d="M 2194 1759 
Q 1497 1759 1228 1600 
Q 959 1441 959 1056 
Q 959 750 1161 570 
Q 1363 391 1709 391 
Q 2188 391 2477 730 
Q 2766 1069 2766 1631 
L 2766 1759 
L 2194 1759 
z
M 3341 1997 
L 3341 0 
L 2766 0 
L 2766 531 
Q 2569 213 2275 61 
Q 1981 -91 1556 -91 
Q 1019 -91 701 211 
Q 384 513 384 1019 
Q 384 1609 779 1909 
Q 1175 2209 1959 2209 
L 2766 2209 
L 2766 2266 
Q 2766 2663 2505 2880 
Q 2244 3097 1772 3097 
Q 1472 3097 1187 3025 
Q 903 2953 641 2809 
L 641 3341 
Q 956 3463 1253 3523 
Q 1550 3584 1831 3584 
Q 2591 3584 2966 3190 
Q 3341 2797 3341 1997 
z
" transform="scale(0.015625)"/>
       <path id="DejaVuSans-79" d="M 2059 -325 
Q 1816 -950 1584 -1140 
Q 1353 -1331 966 -1331 
L 506 -1331 
L 506 -850 
L 844 -850 
Q 1081 -850 1212 -737 
Q 1344 -625 1503 -206 
L 1606 56 
L 191 3500 
L 800 3500 
L 1894 763 
L 2988 3500 
L 3597 3500 
L 2059 -325 
z
" transform="scale(0.015625)"/>
      </defs>
      <use xlink:href="#DejaVuSans-41"/>
      <use xlink:href="#DejaVuSans-63" x="66.658203"/>
      <use xlink:href="#DejaVuSans-63" x="121.638672"/>
      <use xlink:href="#DejaVuSans-75" x="176.619141"/>
      <use xlink:href="#DejaVuSans-72" x="239.998047"/>
      <use xlink:href="#DejaVuSans-61" x="281.111328"/>
      <use xlink:href="#DejaVuSans-63" x="342.390625"/>
      <use xlink:href="#DejaVuSans-79" x="397.371094"/>
     </g>
    </g>
   </g>
   <g id="LineCollection_1">
    <path d="M 63.032519 66.350705 
L 63.032519 58.468557 
" clip-path="url(#p25df77de6a)" style="fill: none; stroke: #000000; stroke-width: 1.5"/>
    <path d="M 116.807013 73.516306 
L 116.807013 57.751985 
" clip-path="url(#p25df77de6a)" style="fill: none; stroke: #000000; stroke-width: 1.5"/>
    <path d="M 170.581507 66.350705 
L 170.581507 57.035426 
" clip-path="url(#p25df77de6a)" style="fill: none; stroke: #000000; stroke-width: 1.5"/>
    <path d="M 224.356001 69.21694 
L 224.356001 62.76791 
" clip-path="url(#p25df77de6a)" style="fill: none; stroke: #000000; stroke-width: 1.5"/>
    <path d="M 278.130495 51.302955 
L 278.130495 45.570484 
" clip-path="url(#p25df77de6a)" style="fill: none; stroke: #000000; stroke-width: 1.5"/>
    <path d="M 331.904989 50.586396 
L 331.904989 44.853912 
" clip-path="url(#p25df77de6a)" style="fill: none; stroke: #000000; stroke-width: 1.5"/>
   </g>
   <g id="line2d_28">
    <defs>
     <path id="m563176b95a" d="M 3 0 
L -3 -0 
" style="stroke: #000000"/>
    </defs>
    <g clip-path="url(#p25df77de6a)">
     <use xlink:href="#m563176b95a" x="63.032519" y="66.350705" style="stroke: #000000"/>
     <use xlink:href="#m563176b95a" x="116.807013" y="73.516306" style="stroke: #000000"/>
     <use xlink:href="#m563176b95a" x="170.581507" y="66.350705" style="stroke: #000000"/>
     <use xlink:href="#m563176b95a" x="224.356001" y="69.21694" style="stroke: #000000"/>
     <use xlink:href="#m563176b95a" x="278.130495" y="51.302955" style="stroke: #000000"/>
     <use xlink:href="#m563176b95a" x="331.904989" y="50.586396" style="stroke: #000000"/>
    </g>
   </g>
   <g id="line2d_29">
    <g clip-path="url(#p25df77de6a)">
     <use xlink:href="#m563176b95a" x="63.032519" y="58.468557" style="stroke: #000000"/>
     <use xlink:href="#m563176b95a" x="116.807013" y="57.751985" style="stroke: #000000"/>
     <use xlink:href="#m563176b95a" x="170.581507" y="57.035426" style="stroke: #000000"/>
     <use xlink:href="#m563176b95a" x="224.356001" y="62.76791" style="stroke: #000000"/>
     <use xlink:href="#m563176b95a" x="278.130495" y="45.570484" style="stroke: #000000"/>
     <use xlink:href="#m563176b95a" x="331.904989" y="44.853912" style="stroke: #000000"/>
    </g>
   </g>
   <g id="LineCollection_2">
    <path d="M 72.174183 64.201028 
L 72.174183 54.169191 
" clip-path="url(#p25df77de6a)" style="fill: none; stroke: #000000; stroke-width: 1.5"/>
    <path d="M 125.948677 58.468557 
L 125.948677 41.987676 
" clip-path="url(#p25df77de6a)" style="fill: none; stroke: #000000; stroke-width: 1.5"/>
    <path d="M 179.723171 51.302955 
L 179.723171 39.838 
" clip-path="url(#p25df77de6a)" style="fill: none; stroke: #000000; stroke-width: 1.5"/>
    <path d="M 233.497665 45.570484 
L 233.497665 36.971764 
" clip-path="url(#p25df77de6a)" style="fill: none; stroke: #000000; stroke-width: 1.5"/>
    <path d="M 287.272159 47.003602 
L 287.272159 35.538646 
" clip-path="url(#p25df77de6a)" style="fill: none; stroke: #000000; stroke-width: 1.5"/>
    <path d="M 341.046653 41.987676 
L 341.046653 32.672411 
" clip-path="url(#p25df77de6a)" style="fill: none; stroke: #000000; stroke-width: 1.5"/>
   </g>
   <g id="line2d_30">
    <g clip-path="url(#p25df77de6a)">
     <use xlink:href="#m563176b95a" x="72.174183" y="64.201028" style="stroke: #000000"/>
     <use xlink:href="#m563176b95a" x="125.948677" y="58.468557" style="stroke: #000000"/>
     <use xlink:href="#m563176b95a" x="179.723171" y="51.302955" style="stroke: #000000"/>
     <use xlink:href="#m563176b95a" x="233.497665" y="45.570484" style="stroke: #000000"/>
     <use xlink:href="#m563176b95a" x="287.272159" y="47.003602" style="stroke: #000000"/>
     <use xlink:href="#m563176b95a" x="341.046653" y="41.987676" style="stroke: #000000"/>
    </g>
   </g>
   <g id="line2d_31">
    <g clip-path="url(#p25df77de6a)">
     <use xlink:href="#m563176b95a" x="72.174183" y="54.169191" style="stroke: #000000"/>
     <use xlink:href="#m563176b95a" x="125.948677" y="41.987676" style="stroke: #000000"/>
     <use xlink:href="#m563176b95a" x="179.723171" y="39.838" style="stroke: #000000"/>
     <use xlink:href="#m563176b95a" x="233.497665" y="36.971764" style="stroke: #000000"/>
     <use xlink:href="#m563176b95a" x="287.272159" y="35.538646" style="stroke: #000000"/>
     <use xlink:href="#m563176b95a" x="341.046653" y="32.672411" style="stroke: #000000"/>
    </g>
   </g>
   <g id="LineCollection_3">
    <path d="M 81.315847 85.697821 
L 81.315847 52.019514 
" clip-path="url(#p25df77de6a)" style="fill: none; stroke: #000000; stroke-width: 1.5"/>
    <path d="M 135.090341 64.917587 
L 135.090341 57.035426 
" clip-path="url(#p25df77de6a)" style="fill: none; stroke: #000000; stroke-width: 1.5"/>
    <path d="M 188.864835 64.201028 
L 188.864835 45.570484 
" clip-path="url(#p25df77de6a)" style="fill: none; stroke: #000000; stroke-width: 1.5"/>
    <path d="M 242.639329 59.185116 
L 242.639329 43.420794 
" clip-path="url(#p25df77de6a)" style="fill: none; stroke: #000000; stroke-width: 1.5"/>
    <path d="M 296.413823 54.885749 
L 296.413823 43.420794 
" clip-path="url(#p25df77de6a)" style="fill: none; stroke: #000000; stroke-width: 1.5"/>
    <path d="M 350.188317 59.185116 
L 350.188317 48.436719 
" clip-path="url(#p25df77de6a)" style="fill: none; stroke: #000000; stroke-width: 1.5"/>
   </g>
   <g id="line2d_32">
    <g clip-path="url(#p25df77de6a)">
     <use xlink:href="#m563176b95a" x="81.315847" y="85.697821" style="stroke: #000000"/>
     <use xlink:href="#m563176b95a" x="135.090341" y="64.917587" style="stroke: #000000"/>
     <use xlink:href="#m563176b95a" x="188.864835" y="64.201028" style="stroke: #000000"/>
     <use xlink:href="#m563176b95a" x="242.639329" y="59.185116" style="stroke: #000000"/>
     <use xlink:href="#m563176b95a" x="296.413823" y="54.885749" style="stroke: #000000"/>
     <use xlink:href="#m563176b95a" x="350.188317" y="59.185116" style="stroke: #000000"/>
    </g>
   </g>
   <g id="line2d_33">
    <g clip-path="url(#p25df77de6a)">
     <use xlink:href="#m563176b95a" x="81.315847" y="52.019514" style="stroke: #000000"/>
     <use xlink:href="#m563176b95a" x="135.090341" y="57.035426" style="stroke: #000000"/>
     <use xlink:href="#m563176b95a" x="188.864835" y="45.570484" style="stroke: #000000"/>
     <use xlink:href="#m563176b95a" x="242.639329" y="43.420794" style="stroke: #000000"/>
     <use xlink:href="#m563176b95a" x="296.413823" y="43.420794" style="stroke: #000000"/>
     <use xlink:href="#m563176b95a" x="350.188317" y="48.436719" style="stroke: #000000"/>
    </g>
   </g>
   <g id="LineCollection_4">
    <path d="M 90.457511 81.398454 
L 90.457511 67.067264 
" clip-path="url(#p25df77de6a)" style="fill: none; stroke: #000000; stroke-width: 1.5"/>
    <path d="M 144.232005 77.099101 
L 144.232005 65.634146 
" clip-path="url(#p25df77de6a)" style="fill: none; stroke: #000000; stroke-width: 1.5"/>
    <path d="M 198.006499 95.729645 
L 198.006499 60.618233 
" clip-path="url(#p25df77de6a)" style="fill: none; stroke: #000000; stroke-width: 1.5"/>
    <path d="M 251.780993 62.76791 
L 251.780993 57.035426 
" clip-path="url(#p25df77de6a)" style="fill: none; stroke: #000000; stroke-width: 1.5"/>
    <path d="M 305.555487 82.115013 
L 305.555487 57.751985 
" clip-path="url(#p25df77de6a)" style="fill: none; stroke: #000000; stroke-width: 1.5"/>
    <path d="M 359.329981 59.901675 
L 359.329981 49.153278 
" clip-path="url(#p25df77de6a)" style="fill: none; stroke: #000000; stroke-width: 1.5"/>
   </g>
   <g id="line2d_34">
    <g clip-path="url(#p25df77de6a)">
     <use xlink:href="#m563176b95a" x="90.457511" y="81.398454" style="stroke: #000000"/>
     <use xlink:href="#m563176b95a" x="144.232005" y="77.099101" style="stroke: #000000"/>
     <use xlink:href="#m563176b95a" x="198.006499" y="95.729645" style="stroke: #000000"/>
     <use xlink:href="#m563176b95a" x="251.780993" y="62.76791" style="stroke: #000000"/>
     <use xlink:href="#m563176b95a" x="305.555487" y="82.115013" style="stroke: #000000"/>
     <use xlink:href="#m563176b95a" x="359.329981" y="59.901675" style="stroke: #000000"/>
    </g>
   </g>
   <g id="line2d_35">
    <g clip-path="url(#p25df77de6a)">
     <use xlink:href="#m563176b95a" x="90.457511" y="67.067264" style="stroke: #000000"/>
     <use xlink:href="#m563176b95a" x="144.232005" y="65.634146" style="stroke: #000000"/>
     <use xlink:href="#m563176b95a" x="198.006499" y="60.618233" style="stroke: #000000"/>
     <use xlink:href="#m563176b95a" x="251.780993" y="57.035426" style="stroke: #000000"/>
     <use xlink:href="#m563176b95a" x="305.555487" y="57.751985" style="stroke: #000000"/>
     <use xlink:href="#m563176b95a" x="359.329981" y="49.153278" style="stroke: #000000"/>
    </g>
   </g>
   <g id="patch_27">
    <path d="M 43.78125 239.758125 
L 43.78125 22.318125 
" style="fill: none; stroke: #000000; stroke-width: 0.8; stroke-linejoin: miter; stroke-linecap: square"/>
   </g>
   <g id="patch_28">
    <path d="M 378.58125 239.758125 
L 378.58125 22.318125 
" style="fill: none; stroke: #000000; stroke-width: 0.8; stroke-linejoin: miter; stroke-linecap: square"/>
   </g>
   <g id="patch_29">
    <path d="M 43.78125 239.758125 
L 378.58125 239.758125 
" style="fill: none; stroke: #000000; stroke-width: 0.8; stroke-linejoin: miter; stroke-linecap: square"/>
   </g>
   <g id="patch_30">
    <path d="M 43.78125 22.318125 
L 378.58125 22.318125 
" style="fill: none; stroke: #000000; stroke-width: 0.8; stroke-linejoin: miter; stroke-linecap: square"/>
   </g>
   <g id="text_19">
    <!-- Dataset: "ArticularyWordRecognition" Exp. Class: "Fixed units" -->
    <g transform="translate(24.120938 16.318125)scale(0.12 -0.12)">
     <defs>
      <path id="DejaVuSans-44" d="M 1259 4147 
L 1259 519 
L 2022 519 
Q 2988 519 3436 956 
Q 3884 1394 3884 2338 
Q 3884 3275 3436 3711 
Q 2988 4147 2022 4147 
L 1259 4147 
z
M 628 4666 
L 1925 4666 
Q 3281 4666 3915 4102 
Q 4550 3538 4550 2338 
Q 4550 1131 3912 565 
Q 3275 0 1925 0 
L 628 0 
L 628 4666 
z
" transform="scale(0.015625)"/>
      <path id="DejaVuSans-65" d="M 3597 1894 
L 3597 1613 
L 953 1613 
Q 991 1019 1311 708 
Q 1631 397 2203 397 
Q 2534 397 2845 478 
Q 3156 559 3463 722 
L 3463 178 
Q 3153 47 2828 -22 
Q 2503 -91 2169 -91 
Q 1331 -91 842 396 
Q 353 884 353 1716 
Q 353 2575 817 3079 
Q 1281 3584 2069 3584 
Q 2775 3584 3186 3129 
Q 3597 2675 3597 1894 
z
M 3022 2063 
Q 3016 2534 2758 2815 
Q 2500 3097 2075 3097 
Q 1594 3097 1305 2825 
Q 1016 2553 972 2059 
L 3022 2063 
z
" transform="scale(0.015625)"/>
      <path id="DejaVuSans-3a" d="M 750 794 
L 1409 794 
L 1409 0 
L 750 0 
L 750 794 
z
M 750 3309 
L 1409 3309 
L 1409 2516 
L 750 2516 
L 750 3309 
z
" transform="scale(0.015625)"/>
      <path id="DejaVuSans-22" d="M 1147 4666 
L 1147 2931 
L 616 2931 
L 616 4666 
L 1147 4666 
z
M 2328 4666 
L 2328 2931 
L 1797 2931 
L 1797 4666 
L 2328 4666 
z
" transform="scale(0.015625)"/>
      <path id="DejaVuSans-6c" d="M 603 4863 
L 1178 4863 
L 1178 0 
L 603 0 
L 603 4863 
z
" transform="scale(0.015625)"/>
      <path id="DejaVuSans-57" d="M 213 4666 
L 850 4666 
L 1831 722 
L 2809 4666 
L 3519 4666 
L 4500 722 
L 5478 4666 
L 6119 4666 
L 4947 0 
L 4153 0 
L 3169 4050 
L 2175 0 
L 1381 0 
L 213 4666 
z
" transform="scale(0.015625)"/>
      <path id="DejaVuSans-6f" d="M 1959 3097 
Q 1497 3097 1228 2736 
Q 959 2375 959 1747 
Q 959 1119 1226 758 
Q 1494 397 1959 397 
Q 2419 397 2687 759 
Q 2956 1122 2956 1747 
Q 2956 2369 2687 2733 
Q 2419 3097 1959 3097 
z
M 1959 3584 
Q 2709 3584 3137 3096 
Q 3566 2609 3566 1747 
Q 3566 888 3137 398 
Q 2709 -91 1959 -91 
Q 1206 -91 779 398 
Q 353 888 353 1747 
Q 353 2609 779 3096 
Q 1206 3584 1959 3584 
z
" transform="scale(0.015625)"/>
      <path id="DejaVuSans-64" d="M 2906 2969 
L 2906 4863 
L 3481 4863 
L 3481 0 
L 2906 0 
L 2906 525 
Q 2725 213 2448 61 
Q 2172 -91 1784 -91 
Q 1150 -91 751 415 
Q 353 922 353 1747 
Q 353 2572 751 3078 
Q 1150 3584 1784 3584 
Q 2172 3584 2448 3432 
Q 2725 3281 2906 2969 
z
M 947 1747 
Q 947 1113 1208 752 
Q 1469 391 1925 391 
Q 2381 391 2643 752 
Q 2906 1113 2906 1747 
Q 2906 2381 2643 2742 
Q 2381 3103 1925 3103 
Q 1469 3103 1208 2742 
Q 947 2381 947 1747 
z
" transform="scale(0.015625)"/>
      <path id="DejaVuSans-52" d="M 2841 2188 
Q 3044 2119 3236 1894 
Q 3428 1669 3622 1275 
L 4263 0 
L 3584 0 
L 2988 1197 
Q 2756 1666 2539 1819 
Q 2322 1972 1947 1972 
L 1259 1972 
L 1259 0 
L 628 0 
L 628 4666 
L 2053 4666 
Q 2853 4666 3247 4331 
Q 3641 3997 3641 3322 
Q 3641 2881 3436 2590 
Q 3231 2300 2841 2188 
z
M 1259 4147 
L 1259 2491 
L 2053 2491 
Q 2509 2491 2742 2702 
Q 2975 2913 2975 3322 
Q 2975 3731 2742 3939 
Q 2509 4147 2053 4147 
L 1259 4147 
z
" transform="scale(0.015625)"/>
      <path id="DejaVuSans-67" d="M 2906 1791 
Q 2906 2416 2648 2759 
Q 2391 3103 1925 3103 
Q 1463 3103 1205 2759 
Q 947 2416 947 1791 
Q 947 1169 1205 825 
Q 1463 481 1925 481 
Q 2391 481 2648 825 
Q 2906 1169 2906 1791 
z
M 3481 434 
Q 3481 -459 3084 -895 
Q 2688 -1331 1869 -1331 
Q 1566 -1331 1297 -1286 
Q 1028 -1241 775 -1147 
L 775 -588 
Q 1028 -725 1275 -790 
Q 1522 -856 1778 -856 
Q 2344 -856 2625 -561 
Q 2906 -266 2906 331 
L 2906 616 
Q 2728 306 2450 153 
Q 2172 0 1784 0 
Q 1141 0 747 490 
Q 353 981 353 1791 
Q 353 2603 747 3093 
Q 1141 3584 1784 3584 
Q 2172 3584 2450 3431 
Q 2728 3278 2906 2969 
L 2906 3500 
L 3481 3500 
L 3481 434 
z
" transform="scale(0.015625)"/>
      <path id="DejaVuSans-45" d="M 628 4666 
L 3578 4666 
L 3578 4134 
L 1259 4134 
L 1259 2753 
L 3481 2753 
L 3481 2222 
L 1259 2222 
L 1259 531 
L 3634 531 
L 3634 0 
L 628 0 
L 628 4666 
z
" transform="scale(0.015625)"/>
      <path id="DejaVuSans-78" d="M 3513 3500 
L 2247 1797 
L 3578 0 
L 2900 0 
L 1881 1375 
L 863 0 
L 184 0 
L 1544 1831 
L 300 3500 
L 978 3500 
L 1906 2253 
L 2834 3500 
L 3513 3500 
z
" transform="scale(0.015625)"/>
      <path id="DejaVuSans-70" d="M 1159 525 
L 1159 -1331 
L 581 -1331 
L 581 3500 
L 1159 3500 
L 1159 2969 
Q 1341 3281 1617 3432 
Q 1894 3584 2278 3584 
Q 2916 3584 3314 3078 
Q 3713 2572 3713 1747 
Q 3713 922 3314 415 
Q 2916 -91 2278 -91 
Q 1894 -91 1617 61 
Q 1341 213 1159 525 
z
M 3116 1747 
Q 3116 2381 2855 2742 
Q 2594 3103 2138 3103 
Q 1681 3103 1420 2742 
Q 1159 2381 1159 1747 
Q 1159 1113 1420 752 
Q 1681 391 2138 391 
Q 2594 391 2855 752 
Q 3116 1113 3116 1747 
z
" transform="scale(0.015625)"/>
      <path id="DejaVuSans-43" d="M 4122 4306 
L 4122 3641 
Q 3803 3938 3442 4084 
Q 3081 4231 2675 4231 
Q 1875 4231 1450 3742 
Q 1025 3253 1025 2328 
Q 1025 1406 1450 917 
Q 1875 428 2675 428 
Q 3081 428 3442 575 
Q 3803 722 4122 1019 
L 4122 359 
Q 3791 134 3420 21 
Q 3050 -91 2638 -91 
Q 1578 -91 968 557 
Q 359 1206 359 2328 
Q 359 3453 968 4101 
Q 1578 4750 2638 4750 
Q 3056 4750 3426 4639 
Q 3797 4528 4122 4306 
z
" transform="scale(0.015625)"/>
      <path id="DejaVuSans-46" d="M 628 4666 
L 3309 4666 
L 3309 4134 
L 1259 4134 
L 1259 2759 
L 3109 2759 
L 3109 2228 
L 1259 2228 
L 1259 0 
L 628 0 
L 628 4666 
z
" transform="scale(0.015625)"/>
     </defs>
     <use xlink:href="#DejaVuSans-44"/>
     <use xlink:href="#DejaVuSans-61" x="77.001953"/>
     <use xlink:href="#DejaVuSans-74" x="138.28125"/>
     <use xlink:href="#DejaVuSans-61" x="177.490234"/>
     <use xlink:href="#DejaVuSans-73" x="238.769531"/>
     <use xlink:href="#DejaVuSans-65" x="290.869141"/>
     <use xlink:href="#DejaVuSans-74" x="352.392578"/>
     <use xlink:href="#DejaVuSans-3a" x="391.601562"/>
     <use xlink:href="#DejaVuSans-20" x="425.292969"/>
     <use xlink:href="#DejaVuSans-22" x="457.080078"/>
     <use xlink:href="#DejaVuSans-41" x="503.076172"/>
     <use xlink:href="#DejaVuSans-72" x="571.484375"/>
     <use xlink:href="#DejaVuSans-74" x="612.597656"/>
     <use xlink:href="#DejaVuSans-69" x="651.806641"/>
     <use xlink:href="#DejaVuSans-63" x="679.589844"/>
     <use xlink:href="#DejaVuSans-75" x="734.570312"/>
     <use xlink:href="#DejaVuSans-6c" x="797.949219"/>
     <use xlink:href="#DejaVuSans-61" x="825.732422"/>
     <use xlink:href="#DejaVuSans-72" x="887.011719"/>
     <use xlink:href="#DejaVuSans-79" x="928.125"/>
     <use xlink:href="#DejaVuSans-57" x="987.304688"/>
     <use xlink:href="#DejaVuSans-6f" x="1080.306641"/>
     <use xlink:href="#DejaVuSans-72" x="1141.488281"/>
     <use xlink:href="#DejaVuSans-64" x="1180.851562"/>
     <use xlink:href="#DejaVuSans-52" x="1244.328125"/>
     <use xlink:href="#DejaVuSans-65" x="1309.310547"/>
     <use xlink:href="#DejaVuSans-63" x="1370.833984"/>
     <use xlink:href="#DejaVuSans-6f" x="1425.814453"/>
     <use xlink:href="#DejaVuSans-67" x="1486.996094"/>
     <use xlink:href="#DejaVuSans-6e" x="1550.472656"/>
     <use xlink:href="#DejaVuSans-69" x="1613.851562"/>
     <use xlink:href="#DejaVuSans-74" x="1641.634766"/>
     <use xlink:href="#DejaVuSans-69" x="1680.84375"/>
     <use xlink:href="#DejaVuSans-6f" x="1708.626953"/>
     <use xlink:href="#DejaVuSans-6e" x="1769.808594"/>
     <use xlink:href="#DejaVuSans-22" x="1833.1875"/>
     <use xlink:href="#DejaVuSans-20" x="1879.183594"/>
     <use xlink:href="#DejaVuSans-45" x="1910.970703"/>
     <use xlink:href="#DejaVuSans-78" x="1974.154297"/>
     <use xlink:href="#DejaVuSans-70" x="2033.333984"/>
     <use xlink:href="#DejaVuSans-2e" x="2096.810547"/>
     <use xlink:href="#DejaVuSans-20" x="2128.597656"/>
     <use xlink:href="#DejaVuSans-43" x="2160.384766"/>
     <use xlink:href="#DejaVuSans-6c" x="2230.208984"/>
     <use xlink:href="#DejaVuSans-61" x="2257.992188"/>
     <use xlink:href="#DejaVuSans-73" x="2319.271484"/>
     <use xlink:href="#DejaVuSans-73" x="2371.371094"/>
     <use xlink:href="#DejaVuSans-3a" x="2423.470703"/>
     <use xlink:href="#DejaVuSans-20" x="2457.162109"/>
     <use xlink:href="#DejaVuSans-22" x="2488.949219"/>
     <use xlink:href="#DejaVuSans-46" x="2534.945312"/>
     <use xlink:href="#DejaVuSans-69" x="2585.214844"/>
     <use xlink:href="#DejaVuSans-78" x="2612.998047"/>
     <use xlink:href="#DejaVuSans-65" x="2669.052734"/>
     <use xlink:href="#DejaVuSans-64" x="2730.576172"/>
     <use xlink:href="#DejaVuSans-20" x="2794.052734"/>
     <use xlink:href="#DejaVuSans-75" x="2825.839844"/>
     <use xlink:href="#DejaVuSans-6e" x="2889.21875"/>
     <use xlink:href="#DejaVuSans-69" x="2952.597656"/>
     <use xlink:href="#DejaVuSans-74" x="2980.380859"/>
     <use xlink:href="#DejaVuSans-73" x="3019.589844"/>
     <use xlink:href="#DejaVuSans-22" x="3071.689453"/>
    </g>
   </g>
   <g id="legend_1">
    <g id="patch_31">
     <path d="M 313.070312 234.758125 
L 371.58125 234.758125 
Q 373.58125 234.758125 373.58125 232.758125 
L 373.58125 175.045625 
Q 373.58125 173.045625 371.58125 173.045625 
L 313.070312 173.045625 
Q 311.070312 173.045625 311.070312 175.045625 
L 311.070312 232.758125 
Q 311.070312 234.758125 313.070312 234.758125 
z
" style="fill: #ffffff; opacity: 0.8; stroke: #cccccc; stroke-linejoin: miter"/>
    </g>
    <g id="patch_32">
     <path d="M 315.070312 184.644063 
L 335.070312 184.644063 
L 335.070312 177.644063 
L 315.070312 177.644063 
z
" style="fill: #1f77b4"/>
    </g>
    <g id="text_20">
     <!-- ESN1 -->
     <g transform="translate(343.070312 184.644063)scale(0.1 -0.1)">
      <defs>
       <path id="DejaVuSans-53" d="M 3425 4513 
L 3425 3897 
Q 3066 4069 2747 4153 
Q 2428 4238 2131 4238 
Q 1616 4238 1336 4038 
Q 1056 3838 1056 3469 
Q 1056 3159 1242 3001 
Q 1428 2844 1947 2747 
L 2328 2669 
Q 3034 2534 3370 2195 
Q 3706 1856 3706 1288 
Q 3706 609 3251 259 
Q 2797 -91 1919 -91 
Q 1588 -91 1214 -16 
Q 841 59 441 206 
L 441 856 
Q 825 641 1194 531 
Q 1563 422 1919 422 
Q 2459 422 2753 634 
Q 3047 847 3047 1241 
Q 3047 1584 2836 1778 
Q 2625 1972 2144 2069 
L 1759 2144 
Q 1053 2284 737 2584 
Q 422 2884 422 3419 
Q 422 4038 858 4394 
Q 1294 4750 2059 4750 
Q 2388 4750 2728 4690 
Q 3069 4631 3425 4513 
z
" transform="scale(0.015625)"/>
       <path id="DejaVuSans-4e" d="M 628 4666 
L 1478 4666 
L 3547 763 
L 3547 4666 
L 4159 4666 
L 4159 0 
L 3309 0 
L 1241 3903 
L 1241 0 
L 628 0 
L 628 4666 
z
" transform="scale(0.015625)"/>
      </defs>
      <use xlink:href="#DejaVuSans-45"/>
      <use xlink:href="#DejaVuSans-53" x="63.183594"/>
      <use xlink:href="#DejaVuSans-4e" x="126.660156"/>
      <use xlink:href="#DejaVuSans-31" x="201.464844"/>
     </g>
    </g>
    <g id="patch_33">
     <path d="M 315.070312 199.322188 
L 335.070312 199.322188 
L 335.070312 192.322188 
L 315.070312 192.322188 
z
" style="fill: #ff7f0e"/>
    </g>
    <g id="text_21">
     <!-- ESN2 -->
     <g transform="translate(343.070312 199.322188)scale(0.1 -0.1)">
      <use xlink:href="#DejaVuSans-45"/>
      <use xlink:href="#DejaVuSans-53" x="63.183594"/>
      <use xlink:href="#DejaVuSans-4e" x="126.660156"/>
      <use xlink:href="#DejaVuSans-32" x="201.464844"/>
     </g>
    </g>
    <g id="patch_34">
     <path d="M 315.070312 214.000313 
L 335.070312 214.000313 
L 335.070312 207.000313 
L 315.070312 207.000313 
z
" style="fill: #2ca02c"/>
    </g>
    <g id="text_22">
     <!-- ESN3 -->
     <g transform="translate(343.070312 214.000313)scale(0.1 -0.1)">
      <use xlink:href="#DejaVuSans-45"/>
      <use xlink:href="#DejaVuSans-53" x="63.183594"/>
      <use xlink:href="#DejaVuSans-4e" x="126.660156"/>
      <use xlink:href="#DejaVuSans-33" x="201.464844"/>
     </g>
    </g>
    <g id="patch_35">
     <path d="M 315.070312 228.678438 
L 335.070312 228.678438 
L 335.070312 221.678438 
L 315.070312 221.678438 
z
" style="fill: #d62728"/>
    </g>
    <g id="text_23">
     <!-- ESN4 -->
     <g transform="translate(343.070312 228.678438)scale(0.1 -0.1)">
      <use xlink:href="#DejaVuSans-45"/>
      <use xlink:href="#DejaVuSans-53" x="63.183594"/>
      <use xlink:href="#DejaVuSans-4e" x="126.660156"/>
      <use xlink:href="#DejaVuSans-34" x="201.464844"/>
     </g>
    </g>
   </g>
  </g>
 </g>
 <defs>
  <clipPath id="p25df77de6a">
   <rect x="43.78125" y="22.318125" width="334.8" height="217.44"/>
  </clipPath>
 </defs>
</svg>
