<?xml version="1.0" encoding="UTF-8" standalone="no"?>
<svg
   width="285.12pt"
   height="252pt"
   viewBox="0 0 285.12 252"
   version="1.1"
   id="svg4968"
   sodipodi:docname="benchmarks C1 U75.svg"
   inkscape:version="1.1.1 (3bf5ae0d25, 2021-09-20, custom)"
   xmlns:inkscape="http://www.inkscape.org/namespaces/inkscape"
   xmlns:sodipodi="http://sodipodi.sourceforge.net/DTD/sodipodi-0.dtd"
   xmlns:xlink="http://www.w3.org/1999/xlink"
   xmlns="http://www.w3.org/2000/svg"
   xmlns:svg="http://www.w3.org/2000/svg"
   xmlns:rdf="http://www.w3.org/1999/02/22-rdf-syntax-ns#"
   xmlns:cc="http://creativecommons.org/ns#"
   xmlns:dc="http://purl.org/dc/elements/1.1/">
  <sodipodi:namedview
     id="namedview4970"
     pagecolor="#ffffff"
     bordercolor="#666666"
     borderopacity="1.0"
     inkscape:pageshadow="2"
     inkscape:pageopacity="0.0"
     inkscape:pagecheckerboard="0"
     inkscape:document-units="pt"
     showgrid="false"
     inkscape:zoom="2.327381"
     inkscape:cx="190.12788"
     inkscape:cy="168"
     inkscape:window-width="1920"
     inkscape:window-height="1011"
     inkscape:window-x="0"
     inkscape:window-y="0"
     inkscape:window-maximized="1"
     inkscape:current-layer="figure_1" />
  <metadata
     id="metadata4359">
    <rdf:RDF>
      <cc:Work>
        <dc:type
           rdf:resource="http://purl.org/dc/dcmitype/StillImage" />
        <dc:date>2021-12-15T00:26:09.132082</dc:date>
        <dc:format>image/svg+xml</dc:format>
        <dc:creator>
          <cc:Agent>
            <dc:title>Matplotlib v3.5.1, https://matplotlib.org/</dc:title>
          </cc:Agent>
        </dc:creator>
      </cc:Work>
    </rdf:RDF>
  </metadata>
  <defs
     id="defs4363">
    <style
       type="text/css"
       id="style4361">*{stroke-linejoin: round; stroke-linecap: butt}</style>
  </defs>
  <g
     id="figure_1">
    <g
       id="patch_1">
      <path
         d="M 0 252  L 285.12 252  L 285.12 0  L 0 0  L 0 252  z "
         style="fill: none"
         id="path4365" />
    </g>
    <g
       id="axes_2"
       transform="matrix(1.074545,0,0,1,-9.5724804,0)">
      <g
         id="patch_7">
        <path
           d="M 35.64,220.5 H 256.608 V 30.24 H 35.64 Z"
           style="fill:#ffffff"
           id="path4578" />
      </g>
      <g
         id="patch_8">
        <path
           d="M 45.684,220.5 H 62.240044 V 60.93829 H 45.684 Z"
           clip-path="url(#p5dc5efe032)"
           style="fill:#008000"
           id="path4581" />
      </g>
      <g
         id="patch_9">
        <path
           d="m 100.87081,220.5 h 16.55605 V 55.459313 h -16.55605 z"
           clip-path="url(#p5dc5efe032)"
           style="fill:#008000"
           id="path4584" />
      </g>
      <g
         id="patch_10">
        <path
           d="m 156.05763,220.5 h 16.55604 V 64.778943 h -16.55604 z"
           clip-path="url(#p5dc5efe032)"
           style="fill:#008000"
           id="path4587" />
      </g>
      <g
         id="patch_11">
        <path
           d="m 211.24444,220.5 h 16.55604 V 45.683104 h -16.55604 z"
           clip-path="url(#p5dc5efe032)"
           style="fill:#008000"
           id="path4590" />
      </g>
      <g
         id="matplotlib.axis_3">
        <g
           id="xtick_3">
          <g
             id="line2d_13">
            <g
               id="g4595">
              <path
                 id="use4593"
                 d="M 63.343781,220.5 V 224"
                 style="stroke:#000000;stroke-width:0.8" />
            </g>
          </g>
          <g
             id="text_12">
            <!-- ESN1 -->
            <g
               transform="matrix(0.07071068,-0.07071068,-0.07071068,-0.07071068,55.921921,251.61897)"
               id="g4611">
              <defs
                 id="defs4601">
                <path
                   id="DejaVuSans-45"
                   d="M 628,4666 H 3578 V 4134 H 1259 V 2753 H 3481 V 2222 H 1259 V 531 H 3634 V 0 H 628 Z"
                   transform="scale(0.015625)" />
                <path
                   id="DejaVuSans-53"
                   d="m 3425,4513 v -616 q -359,172 -678,256 -319,85 -616,85 -515,0 -795,-200 -280,-200 -280,-569 0,-310 186,-468 186,-157 705,-254 l 381,-78 q 706,-135 1042,-474 336,-339 336,-907 0,-679 -455,-1029 -454,-350 -1332,-350 -331,0 -705,75 -373,75 -773,222 v 650 q 384,-215 753,-325 369,-109 725,-109 540,0 834,212 294,213 294,607 0,343 -211,537 -211,194 -692,291 l -385,75 q -706,140 -1022,440 -315,300 -315,835 0,619 436,975 436,356 1201,356 329,0 669,-60 341,-59 697,-177 z"
                   transform="scale(0.015625)" />
                <path
                   id="DejaVuSans-4e"
                   d="m 628,4666 h 850 L 3547,763 v 3903 h 612 V 0 H 3309 L 1241,3903 V 0 H 628 Z"
                   transform="scale(0.015625)" />
              </defs>
              <use
                 xlink:href="#DejaVuSans-45"
                 id="use4603"
                 x="0"
                 y="0"
                 width="100%"
                 height="100%" />
              <use
                 xlink:href="#DejaVuSans-53"
                 x="63.183594"
                 id="use4605"
                 y="0"
                 width="100%"
                 height="100%" />
              <use
                 xlink:href="#DejaVuSans-4e"
                 x="126.66016"
                 id="use4607"
                 y="0"
                 width="100%"
                 height="100%" />
              <path
                 id="use4609"
                 d="m 213.87109,8.296875 h 16.10938 v 55.625 L 212.44922,60.40625 v 8.984375 l 17.4375,3.515625 h 9.85937 V 8.296875 h 16.10938 V 0 h -41.98438 z"
                 style="stroke-width:0.015625" />
            </g>
          </g>
        </g>
        <g
           id="xtick_4">
          <g
             id="line2d_14">
            <g
               id="g4617">
              <path
                 id="use4615"
                 d="M 118.53059,220.5 V 224"
                 style="stroke:#000000;stroke-width:0.8" />
            </g>
          </g>
          <g
             id="text_13">
            <!-- ESN2 -->
            <g
               transform="matrix(0.07071068,-0.07071068,-0.07071068,-0.07071068,111.10873,251.61897)"
               id="g4628">
              <use
                 xlink:href="#DejaVuSans-45"
                 id="use4620"
                 x="0"
                 y="0"
                 width="100%"
                 height="100%" />
              <use
                 xlink:href="#DejaVuSans-53"
                 x="63.183594"
                 id="use4622"
                 y="0"
                 width="100%"
                 height="100%" />
              <use
                 xlink:href="#DejaVuSans-4e"
                 x="126.66016"
                 id="use4624"
                 y="0"
                 width="100%"
                 height="100%" />
              <path
                 id="use4626"
                 d="m 220.65234,8.296875 h 34.42188 V 0 h -46.28125 v 8.296875 q 5.60937,5.8125 15.29687,15.59375 9.70313,9.796875 12.1875,12.640625 4.73438,5.3125 6.60938,9 1.89062,3.6875 1.89062,7.25 0,5.8125 -4.07812,9.46875 -4.07813,3.671875 -10.625,3.671875 -4.64063,0 -9.79688,-1.609375 -5.14062,-1.609375 -11,-4.890625 v 9.96875 q 5.95313,2.390625 11.125,3.609375 5.1875,1.21875 9.48438,1.21875 11.32812,0 18.0625,-5.671875 6.73437,-5.65625 6.73437,-15.125 0,-4.5 -1.6875,-8.53125 -1.67187,-4.015625 -6.125,-9.484375 -1.21875,-1.421875 -7.76562,-8.1875 -6.53125,-6.765625 -18.45313,-18.921875 z"
                 style="stroke-width:0.015625" />
            </g>
          </g>
        </g>
        <g
           id="xtick_5">
          <g
             id="line2d_15">
            <g
               id="g4634">
              <path
                 id="use4632"
                 d="M 173.71741,220.5 V 224"
                 style="stroke:#000000;stroke-width:0.8" />
            </g>
          </g>
          <g
             id="text_14">
            <!-- ESN3 -->
            <g
               transform="matrix(0.07071068,-0.07071068,-0.07071068,-0.07071068,166.29555,251.61897)"
               id="g4645">
              <use
                 xlink:href="#DejaVuSans-45"
                 id="use4637"
                 x="0"
                 y="0"
                 width="100%"
                 height="100%" />
              <use
                 xlink:href="#DejaVuSans-53"
                 x="63.183594"
                 id="use4639"
                 y="0"
                 width="100%"
                 height="100%" />
              <use
                 xlink:href="#DejaVuSans-4e"
                 x="126.66016"
                 id="use4641"
                 y="0"
                 width="100%"
                 height="100%" />
              <path
                 id="use4643"
                 d="m 242.04297,39.3125 q 7.07812,-1.515625 11.04687,-6.3125 3.98438,-4.78125 3.98438,-11.8125 0,-10.78125 -7.42188,-16.703125 -7.42187,-5.90625 -21.09375,-5.90625 -4.57812,0 -9.4375,0.90625 -4.85937,0.90625 -10.03125,2.71875 v 9.515625 q 4.09375,-2.390625 8.96875,-3.609375 4.89063,-1.21875 10.21875,-1.21875 9.26563,0 14.125,3.65625 4.85938,3.65625 4.85938,10.640625 0,6.453125 -4.51563,10.078125 -4.51562,3.640625 -12.5625,3.640625 h -8.5 v 8.109375 h 8.89063 q 7.26562,0 11.125,2.90625 3.85937,2.90625 3.85937,8.375 0,5.609375 -3.98437,8.609375 -3.96875,3.015625 -11.39063,3.015625 -4.0625,0 -8.70312,-0.890625 -4.64063,-0.875 -10.20313,-2.71875 v 8.78125 q 5.625,1.5625 10.53125,2.34375 4.90625,0.78125 9.25,0.78125 11.23438,0 17.76563,-5.109375 6.54687,-5.09375 6.54687,-13.78125 0,-6.0625 -3.46875,-10.234375 -3.46875,-4.171875 -9.85937,-5.78125 z"
                 style="stroke-width:0.015625" />
            </g>
          </g>
        </g>
        <g
           id="xtick_6">
          <g
             id="line2d_16">
            <g
               id="g4651">
              <path
                 id="use4649"
                 d="M 228.90422,220.5 V 224"
                 style="stroke:#000000;stroke-width:0.8" />
            </g>
          </g>
          <g
             id="text_15">
            <!-- ESN4 -->
            <g
               transform="matrix(0.07071068,-0.07071068,-0.07071068,-0.07071068,221.48236,251.61897)"
               id="g4662">
              <use
                 xlink:href="#DejaVuSans-45"
                 id="use4654"
                 x="0"
                 y="0"
                 width="100%"
                 height="100%" />
              <use
                 xlink:href="#DejaVuSans-53"
                 x="63.183594"
                 id="use4656"
                 y="0"
                 width="100%"
                 height="100%" />
              <use
                 xlink:href="#DejaVuSans-4e"
                 x="126.66016"
                 id="use4658"
                 y="0"
                 width="100%"
                 height="100%" />
              <path
                 id="use4660"
                 d="M 239.26172,64.3125 214.35547,25.390625 h 24.90625 z m -2.59375,8.59375 h 12.40625 V 25.390625 h 10.40625 V 17.1875 H 249.07422 V 0 h -9.8125 v 17.1875 h -32.90625 v 9.515625 z"
                 style="stroke-width:0.015625" />
            </g>
          </g>
        </g>
      </g>
      <g
         id="matplotlib.axis_4">
        <g
           id="ytick_9">
          <g
             id="line2d_17">
            <g
               id="g4669">
              <path
                 id="use4667"
                 d="m 35.639999,220.5 h -3.5"
                 style="stroke:#000000;stroke-width:0.8" />
            </g>
          </g>
          <g
             id="text_16">
            <!-- 0.0 -->
            <g
               transform="matrix(0.1,0,0,-0.1,12.736875,224.29922)"
               id="g4681">
              <defs
                 id="defs4673">
                <path
                   id="DejaVuSans-2e"
                   d="m 684,794 h 660 V 0 H 684 Z"
                   transform="scale(0.015625)" />
              </defs>
              <path
                 id="use4675"
                 d="m 31.78125,66.40625 q -7.609375,0 -11.453125,-7.5 Q 16.5,51.421875 16.5,36.375 q 0,-14.984375 3.828125,-22.484375 3.84375,-7.5 11.453125,-7.5 7.671875,0 11.5,7.5 3.84375,7.5 3.84375,22.484375 0,15.046875 -3.84375,22.53125 -3.828125,7.5 -11.5,7.5 z m 0,7.8125 q 12.265625,0 18.734375,-9.703125 6.46875,-9.6875 6.46875,-28.140625 0,-18.40625 -6.46875,-28.109375 -6.46875,-9.6875 -18.734375,-9.6875 -12.25,0 -18.71875,9.6875 Q 6.59375,17.96875 6.59375,36.375 q 0,18.453125 6.46875,28.140625 6.46875,9.703125 18.71875,9.703125 z"
                 style="stroke-width:0.015625" />
              <use
                 xlink:href="#DejaVuSans-2e"
                 x="63.623047"
                 id="use4677"
                 y="0"
                 width="100%"
                 height="100%" />
              <path
                 id="use4679"
                 d="m 127.19141,66.40625 q -7.60938,0 -11.45313,-7.5 -3.82812,-7.484375 -3.82812,-22.53125 0,-14.984375 3.82812,-22.484375 3.84375,-7.5 11.45313,-7.5 7.67187,0 11.5,7.5 3.84375,7.5 3.84375,22.484375 0,15.046875 -3.84375,22.53125 -3.82813,7.5 -11.5,7.5 z m 0,7.8125 q 12.26562,0 18.73437,-9.703125 6.46875,-9.6875 6.46875,-28.140625 0,-18.40625 -6.46875,-28.109375 -6.46875,-9.6875 -18.73437,-9.6875 -12.25,0 -18.71875,9.6875 -6.46875,9.703125 -6.46875,28.109375 0,18.453125 6.46875,28.140625 6.46875,9.703125 18.71875,9.703125 z"
                 style="stroke-width:0.015625" />
            </g>
          </g>
        </g>
        <g
           id="ytick_10">
          <g
             id="line2d_18">
            <g
               id="g4687">
              <path
                 id="use4685"
                 d="m 35.639999,181.93231 h -3.5"
                 style="stroke:#000000;stroke-width:0.8" />
            </g>
          </g>
          <g
             id="text_17">
            <!-- 0.2 -->
            <g
               transform="matrix(0.1,0,0,-0.1,12.736875,185.73153)"
               id="g4696">
              <path
                 id="use4690"
                 d="m 31.78125,66.40625 q -7.609375,0 -11.453125,-7.5 Q 16.5,51.421875 16.5,36.375 q 0,-14.984375 3.828125,-22.484375 3.84375,-7.5 11.453125,-7.5 7.671875,0 11.5,7.5 3.84375,7.5 3.84375,22.484375 0,15.046875 -3.84375,22.53125 -3.828125,7.5 -11.5,7.5 z m 0,7.8125 q 12.265625,0 18.734375,-9.703125 6.46875,-9.6875 6.46875,-28.140625 0,-18.40625 -6.46875,-28.109375 -6.46875,-9.6875 -18.734375,-9.6875 -12.25,0 -18.71875,9.6875 Q 6.59375,17.96875 6.59375,36.375 q 0,18.453125 6.46875,28.140625 6.46875,9.703125 18.71875,9.703125 z"
                 style="stroke-width:0.015625" />
              <use
                 xlink:href="#DejaVuSans-2e"
                 x="63.623047"
                 id="use4692"
                 y="0"
                 width="100%"
                 height="100%" />
              <path
                 id="use4694"
                 d="m 114.59766,8.296875 h 34.42187 V 0 h -46.28125 v 8.296875 q 5.60938,5.8125 15.29688,15.59375 9.70312,9.796875 12.1875,12.640625 4.73437,5.3125 6.60937,9 1.89063,3.6875 1.89063,7.25 0,5.8125 -4.07813,9.46875 -4.07812,3.671875 -10.625,3.671875 -4.64062,0 -9.79687,-1.609375 -5.14063,-1.609375 -11,-4.890625 v 9.96875 q 5.95312,2.390625 11.125,3.609375 5.1875,1.21875 9.48437,1.21875 11.32813,0 18.0625,-5.671875 6.73438,-5.65625 6.73438,-15.125 0,-4.5 -1.6875,-8.53125 -1.67188,-4.015625 -6.125,-9.484375 -1.21875,-1.421875 -7.76563,-8.1875 -6.53125,-6.765625 -18.45312,-18.921875 z"
                 style="stroke-width:0.015625" />
            </g>
          </g>
        </g>
        <g
           id="ytick_11">
          <g
             id="line2d_19">
            <g
               id="g4702">
              <path
                 id="use4700"
                 d="m 35.639999,143.36462 h -3.5"
                 style="stroke:#000000;stroke-width:0.8" />
            </g>
          </g>
          <g
             id="text_18">
            <!-- 0.4 -->
            <g
               transform="matrix(0.1,0,0,-0.1,12.736875,147.16385)"
               id="g4711">
              <path
                 id="use4705"
                 d="m 31.78125,66.40625 q -7.609375,0 -11.453125,-7.5 Q 16.5,51.421875 16.5,36.375 q 0,-14.984375 3.828125,-22.484375 3.84375,-7.5 11.453125,-7.5 7.671875,0 11.5,7.5 3.84375,7.5 3.84375,22.484375 0,15.046875 -3.84375,22.53125 -3.828125,7.5 -11.5,7.5 z m 0,7.8125 q 12.265625,0 18.734375,-9.703125 6.46875,-9.6875 6.46875,-28.140625 0,-18.40625 -6.46875,-28.109375 -6.46875,-9.6875 -18.734375,-9.6875 -12.25,0 -18.71875,9.6875 Q 6.59375,17.96875 6.59375,36.375 q 0,18.453125 6.46875,28.140625 6.46875,9.703125 18.71875,9.703125 z"
                 style="stroke-width:0.015625" />
              <use
                 xlink:href="#DejaVuSans-2e"
                 x="63.623047"
                 id="use4707"
                 y="0"
                 width="100%"
                 height="100%" />
              <path
                 id="use4709"
                 d="M 133.20703,64.3125 108.30078,25.390625 h 24.90625 z m -2.59375,8.59375 h 12.40625 V 25.390625 h 10.40625 V 17.1875 H 143.01953 V 0 h -9.8125 v 17.1875 h -32.90625 v 9.515625 z"
                 style="stroke-width:0.015625" />
            </g>
          </g>
        </g>
        <g
           id="ytick_12">
          <g
             id="line2d_20">
            <g
               id="g4717">
              <path
                 id="use4715"
                 d="m 35.639999,104.79694 h -3.5"
                 style="stroke:#000000;stroke-width:0.8" />
            </g>
          </g>
          <g
             id="text_19">
            <!-- 0.6 -->
            <g
               transform="matrix(0.1,0,0,-0.1,12.736875,108.59616)"
               id="g4726">
              <path
                 id="use4720"
                 d="m 31.78125,66.40625 q -7.609375,0 -11.453125,-7.5 Q 16.5,51.421875 16.5,36.375 q 0,-14.984375 3.828125,-22.484375 3.84375,-7.5 11.453125,-7.5 7.671875,0 11.5,7.5 3.84375,7.5 3.84375,22.484375 0,15.046875 -3.84375,22.53125 -3.828125,7.5 -11.5,7.5 z m 0,7.8125 q 12.265625,0 18.734375,-9.703125 6.46875,-9.6875 6.46875,-28.140625 0,-18.40625 -6.46875,-28.109375 -6.46875,-9.6875 -18.734375,-9.6875 -12.25,0 -18.71875,9.6875 Q 6.59375,17.96875 6.59375,36.375 q 0,18.453125 6.46875,28.140625 6.46875,9.703125 18.71875,9.703125 z"
                 style="stroke-width:0.015625" />
              <use
                 xlink:href="#DejaVuSans-2e"
                 x="63.623047"
                 id="use4722"
                 y="0"
                 width="100%"
                 height="100%" />
              <path
                 id="use4724"
                 d="m 128.42578,40.375 q -6.64062,0 -10.53125,-4.546875 -3.875,-4.53125 -3.875,-12.4375 0,-7.859375 3.875,-12.4375 3.89063,-4.5625 10.53125,-4.5625 6.64063,0 10.51563,4.5625 3.875,4.578125 3.875,12.4375 0,7.90625 -3.875,12.4375 -3.875,4.546875 -10.51563,4.546875 z m 19.57813,30.921875 V 62.3125 q -3.71875,1.75 -7.5,2.671875 -3.78125,0.9375 -7.5,0.9375 -9.76563,0 -14.92188,-6.59375 -5.14062,-6.59375 -5.875,-19.921875 2.875,4.25 7.21875,6.515625 4.35938,2.265625 9.57813,2.265625 10.98437,0 17.35937,-6.671875 6.375,-6.65625 6.375,-18.125 0,-11.234375 -6.64062,-18.03125 -6.64063,-6.78125 -17.67188,-6.78125 -12.65625,0 -19.34375,9.6875 -6.6875,9.703125 -6.6875,28.109375 0,17.28125 8.20313,27.5625 8.20312,10.28125 22.01562,10.28125 3.71875,0 7.5,-0.734375 3.78125,-0.734375 7.89063,-2.1875 z"
                 style="stroke-width:0.015625" />
            </g>
          </g>
        </g>
        <g
           id="ytick_13">
          <g
             id="line2d_21">
            <g
               id="g4732">
              <path
                 id="use4730"
                 d="m 35.639999,66.229256 h -3.5"
                 style="stroke:#000000;stroke-width:0.8" />
            </g>
          </g>
          <g
             id="text_20">
            <!-- 0.8 -->
            <g
               transform="matrix(0.1,0,0,-0.1,12.736875,70.028478)"
               id="g4744">
              <defs
                 id="defs4736">
                <path
                   id="DejaVuSans-38"
                   d="m 2034,2216 q -450,0 -708,-241 -257,-241 -257,-662 0,-422 257,-663 258,-241 708,-241 450,0 709,242 260,243 260,662 0,421 -258,662 -257,241 -711,241 z m -631,268 q -406,100 -633,378 -226,279 -226,679 0,559 398,884 399,325 1092,325 697,0 1094,-325 397,-325 397,-884 0,-400 -227,-679 -226,-278 -629,-378 456,-106 710,-416 255,-309 255,-755 Q 3634,634 3220,271 2806,-91 2034,-91 1263,-91 848,271 434,634 434,1313 q 0,446 256,755 257,310 713,416 z m -231,997 q 0,-362 226,-565 227,-203 636,-203 407,0 636,203 230,203 230,565 0,363 -230,566 -229,203 -636,203 -409,0 -636,-203 -226,-203 -226,-566 z"
                   transform="scale(0.015625)" />
              </defs>
              <path
                 id="use4738"
                 d="m 31.78125,66.40625 q -7.609375,0 -11.453125,-7.5 Q 16.5,51.421875 16.5,36.375 q 0,-14.984375 3.828125,-22.484375 3.84375,-7.5 11.453125,-7.5 7.671875,0 11.5,7.5 3.84375,7.5 3.84375,22.484375 0,15.046875 -3.84375,22.53125 -3.828125,7.5 -11.5,7.5 z m 0,7.8125 q 12.265625,0 18.734375,-9.703125 6.46875,-9.6875 6.46875,-28.140625 0,-18.40625 -6.46875,-28.109375 -6.46875,-9.6875 -18.734375,-9.6875 -12.25,0 -18.71875,9.6875 Q 6.59375,17.96875 6.59375,36.375 q 0,18.453125 6.46875,28.140625 6.46875,9.703125 18.71875,9.703125 z"
                 style="stroke-width:0.015625" />
              <use
                 xlink:href="#DejaVuSans-2e"
                 x="63.623047"
                 id="use4740"
                 y="0"
                 width="100%"
                 height="100%" />
              <use
                 xlink:href="#DejaVuSans-38"
                 x="95.410156"
                 id="use4742"
                 y="0"
                 width="100%"
                 height="100%" />
            </g>
          </g>
        </g>
      </g>
      <g
         id="LineCollection_1">
        <path
           d="M 53.962022,67.928729 V 53.947851"
           clip-path="url(#p5dc5efe032)"
           style="fill:none;stroke:#000000;stroke-width:1.5"
           id="path4749" />
        <path
           d="M 109.14884,60.468834 V 50.449792"
           clip-path="url(#p5dc5efe032)"
           style="fill:none;stroke:#000000;stroke-width:1.5"
           id="path4751" />
        <path
           d="M 164.33565,70.157601 V 59.400285"
           clip-path="url(#p5dc5efe032)"
           style="fill:none;stroke:#000000;stroke-width:1.5"
           id="path4753" />
        <path
           d="M 219.52246,52.066208 V 39.3"
           clip-path="url(#p5dc5efe032)"
           style="fill:none;stroke:#000000;stroke-width:1.5"
           id="path4755" />
      </g>
      <g
         id="patch_12">
        <path
           d="M 35.64,220.5 V 30.24"
           style="fill:none;stroke:#000000;stroke-width:0.8;stroke-linecap:square;stroke-linejoin:miter"
           id="path4758" />
      </g>
      <g
         id="patch_13">
        <path
           d="M 256.608,220.5 V 30.24"
           style="fill:none;stroke:#000000;stroke-width:0.8;stroke-linecap:square;stroke-linejoin:miter"
           id="path4761" />
      </g>
      <g
         id="patch_14">
        <path
           d="M 35.64,220.5 H 256.608"
           style="fill:none;stroke:#000000;stroke-width:0.8;stroke-linecap:square;stroke-linejoin:miter"
           id="path4764" />
      </g>
      <g
         id="patch_15">
        <path
           d="M 35.64,30.24 H 256.608"
           style="fill:none;stroke:#000000;stroke-width:0.8;stroke-linecap:square;stroke-linejoin:miter"
           id="path4767" />
      </g>
    </g>
    <g
       id="axes_3"
       transform="matrix(1.074545,0,0,1,-9.5724796,0)">
      <g
         id="patch_16">
        <path
           d="M 64.447516,220.5 H 81.00356 V 91.06005 H 64.447516 Z"
           clip-path="url(#p5dc5efe032)"
           style="fill:#ff0000"
           id="path4771" />
      </g>
      <g
         id="patch_17">
        <path
           d="m 119.63433,220.5 h 16.55604 V 64.373926 h -16.55604 z"
           clip-path="url(#p5dc5efe032)"
           style="fill:#ff0000"
           id="path4774" />
      </g>
      <g
         id="patch_18">
        <path
           d="m 174.82114,220.5 h 16.55605 V 110.89317 h -16.55605 z"
           clip-path="url(#p5dc5efe032)"
           style="fill:#ff0000"
           id="path4777" />
      </g>
      <g
         id="patch_19">
        <path
           d="M 230.00796,220.5 H 246.564 V 95.506097 h -16.55604 z"
           clip-path="url(#p5dc5efe032)"
           style="fill:#ff0000"
           id="path4780" />
      </g>
      <g
         id="matplotlib.axis_5">
        <g
           id="ytick_14">
          <g
             id="line2d_22">
            <defs
               id="defs4784">
              <path
                 id="mbe85a2fc04"
                 d="M 0,0 H 3.5"
                 style="stroke:#000000;stroke-width:0.8" />
            </defs>
            <g
               id="g4788">
              <use
                 xlink:href="#mbe85a2fc04"
                 x="256.608"
                 y="220.5"
                 style="stroke:#000000;stroke-width:0.8"
                 id="use4786"
                 width="100%"
                 height="100%" />
            </g>
          </g>
          <g
             id="text_21">
            <!-- 0 -->
            <g
               transform="matrix(0.1,0,0,-0.1,263.608,224.29922)"
               id="g4793">
              <path
                 id="use4791"
                 d="m 31.78125,66.40625 q -7.609375,0 -11.453125,-7.5 Q 16.5,51.421875 16.5,36.375 q 0,-14.984375 3.828125,-22.484375 3.84375,-7.5 11.453125,-7.5 7.671875,0 11.5,7.5 3.84375,7.5 3.84375,22.484375 0,15.046875 -3.84375,22.53125 -3.828125,7.5 -11.5,7.5 z m 0,7.8125 q 12.265625,0 18.734375,-9.703125 6.46875,-9.6875 6.46875,-28.140625 0,-18.40625 -6.46875,-28.109375 -6.46875,-9.6875 -18.734375,-9.6875 -12.25,0 -18.71875,9.6875 Q 6.59375,17.96875 6.59375,36.375 q 0,18.453125 6.46875,28.140625 6.46875,9.703125 18.71875,9.703125 z"
                 style="stroke-width:0.015625" />
            </g>
          </g>
        </g>
        <g
           id="ytick_15">
          <g
             id="line2d_23">
            <g
               id="g4799">
              <use
                 xlink:href="#mbe85a2fc04"
                 x="256.608"
                 y="179.58627"
                 style="stroke:#000000;stroke-width:0.8"
                 id="use4797"
                 width="100%"
                 height="100%" />
            </g>
          </g>
          <g
             id="text_22">
            <!-- 2 -->
            <g
               transform="matrix(0.1,0,0,-0.1,263.608,183.38549)"
               id="g4804">
              <path
                 id="use4802"
                 d="M 19.1875,8.296875 H 53.609375 V 0 H 7.328125 v 8.296875 q 5.609375,5.8125 15.296875,15.59375 9.703125,9.796875 12.1875,12.640625 4.734375,5.3125 6.609375,9 1.890625,3.6875 1.890625,7.25 0,5.8125 -4.078125,9.46875 -4.078125,3.671875 -10.625,3.671875 -4.640625,0 -9.796875,-1.609375 -5.140625,-1.609375 -11,-4.890625 v 9.96875 Q 13.765625,71.78125 18.9375,73 q 5.1875,1.21875 9.484375,1.21875 11.328125,0 18.0625,-5.671875 6.734375,-5.65625 6.734375,-15.125 0,-4.5 -1.6875,-8.53125 Q 49.859375,40.875 45.40625,35.40625 44.1875,33.984375 37.640625,27.21875 31.109375,20.453125 19.1875,8.296875 Z"
                 style="stroke-width:0.015625" />
            </g>
          </g>
        </g>
        <g
           id="ytick_16">
          <g
             id="line2d_24">
            <g
               id="g4810">
              <use
                 xlink:href="#mbe85a2fc04"
                 x="256.608"
                 y="138.67255"
                 style="stroke:#000000;stroke-width:0.8"
                 id="use4808"
                 width="100%"
                 height="100%" />
            </g>
          </g>
          <g
             id="text_23">
            <!-- 4 -->
            <g
               transform="matrix(0.1,0,0,-0.1,263.608,142.47177)"
               id="g4815">
              <path
                 id="use4813"
                 d="M 37.796875,64.3125 12.890625,25.390625 h 24.90625 z m -2.59375,8.59375 h 12.40625 V 25.390625 h 10.40625 V 17.1875 H 47.609375 V 0 h -9.8125 V 17.1875 H 4.890625 v 9.515625 z"
                 style="stroke-width:0.015625" />
            </g>
          </g>
        </g>
        <g
           id="ytick_17">
          <g
             id="line2d_25">
            <g
               id="g4821">
              <use
                 xlink:href="#mbe85a2fc04"
                 x="256.608"
                 y="97.758827"
                 style="stroke:#000000;stroke-width:0.8"
                 id="use4819"
                 width="100%"
                 height="100%" />
            </g>
          </g>
          <g
             id="text_24">
            <!-- 6 -->
            <g
               transform="matrix(0.1,0,0,-0.1,263.608,101.55804)"
               id="g4826">
              <path
                 id="use4824"
                 d="m 33.015625,40.375 q -6.640625,0 -10.53125,-4.546875 -3.875,-4.53125 -3.875,-12.4375 0,-7.859375 3.875,-12.4375 3.890625,-4.5625 10.53125,-4.5625 6.640625,0 10.515625,4.5625 3.875,4.578125 3.875,12.4375 0,7.90625 -3.875,12.4375 Q 39.65625,40.375 33.015625,40.375 Z M 52.59375,71.296875 V 62.3125 q -3.71875,1.75 -7.5,2.671875 -3.78125,0.9375 -7.5,0.9375 -9.765625,0 -14.921875,-6.59375 -5.140625,-6.59375 -5.875,-19.921875 2.875,4.25 7.21875,6.515625 4.359375,2.265625 9.578125,2.265625 10.984375,0 17.359375,-6.671875 6.375,-6.65625 6.375,-18.125 0,-11.234375 -6.640625,-18.03125 -6.640625,-6.78125 -17.671875,-6.78125 -12.65625,0 -19.34375,9.6875 -6.6875,9.703125 -6.6875,28.109375 0,17.28125 8.203125,27.5625 8.203125,10.28125 22.015625,10.28125 3.71875,0 7.5,-0.734375 3.78125,-0.734375 7.890625,-2.1875 z"
                 style="stroke-width:0.015625" />
            </g>
          </g>
        </g>
        <g
           id="ytick_18">
          <g
             id="line2d_26">
            <g
               id="g4832">
              <use
                 xlink:href="#mbe85a2fc04"
                 x="256.608"
                 y="56.8451"
                 style="stroke:#000000;stroke-width:0.8"
                 id="use4830"
                 width="100%"
                 height="100%" />
            </g>
          </g>
          <g
             id="text_25">
            <!-- 8 -->
            <g
               transform="matrix(0.1,0,0,-0.1,263.608,60.644319)"
               id="g4837">
              <use
                 xlink:href="#DejaVuSans-38"
                 id="use4835"
                 x="0"
                 y="0"
                 width="100%"
                 height="100%" />
            </g>
          </g>
        </g>
      </g>
      <g
         id="LineCollection_2">
        <path
           d="M 72.725538,115.48186 V 66.638243"
           clip-path="url(#p5dc5efe032)"
           style="fill:none;stroke:#000000;stroke-width:1.5"
           id="path4842" />
        <path
           d="M 127.91235,89.447853 V 39.3"
           clip-path="url(#p5dc5efe032)"
           style="fill:none;stroke:#000000;stroke-width:1.5"
           id="path4844" />
        <path
           d="M 183.09916,128.65932 V 93.127028"
           clip-path="url(#p5dc5efe032)"
           style="fill:none;stroke:#000000;stroke-width:1.5"
           id="path4846" />
        <path
           d="M 238.28598,131.06877 V 59.943426"
           clip-path="url(#p5dc5efe032)"
           style="fill:none;stroke:#000000;stroke-width:1.5"
           id="path4848" />
      </g>
      <g
         id="patch_20">
        <path
           d="M 35.64,220.5 V 30.24"
           style="fill:none;stroke:#000000;stroke-width:0.8;stroke-linecap:square;stroke-linejoin:miter"
           id="path4851" />
      </g>
      <g
         id="patch_21">
        <path
           d="M 256.608,220.5 V 30.24"
           style="fill:none;stroke:#000000;stroke-width:0.8;stroke-linecap:square;stroke-linejoin:miter"
           id="path4854" />
      </g>
      <g
         id="patch_22">
        <path
           d="M 35.64,220.5 H 256.608"
           style="fill:none;stroke:#000000;stroke-width:0.8;stroke-linecap:square;stroke-linejoin:miter"
           id="path4857" />
      </g>
      <g
         id="patch_23">
        <path
           d="M 35.64,30.24 H 256.608"
           style="fill:none;stroke:#000000;stroke-width:0.8;stroke-linecap:square;stroke-linejoin:miter"
           id="path4860" />
      </g>
      <g
         id="legend_1">
        <g
           id="patch_24">
          <path
             d="m 105.24509,215.5 h 81.75782 q 2,0 2,-2 v -28.35625 q 0,-2 -2,-2 h -81.75782 q -2,0 -2,2 V 213.5 q 0,2 2,2 z"
             style="opacity:0.8;fill:#ffffff;stroke:#cccccc;stroke-linejoin:miter"
             id="path4863" />
        </g>
        <g
           id="patch_25">
          <path
             d="m 107.24509,194.74219 h 20 v -7 h -20 z"
             style="fill:#008000"
             id="path4866" />
        </g>
        <g
           id="text_26">
          <!-- Accuracy -->
          <g
             transform="matrix(0.1,0,0,-0.1,135.24509,194.74219)"
             id="g4892">
            <defs
               id="defs4874">
              <path
                 id="DejaVuSans-41"
                 d="M 2188,4044 1331,1722 h 1716 z m -357,622 h 716 L 4325,0 H 3669 L 3244,1197 H 1141 L 716,0 H 50 Z"
                 transform="scale(0.015625)" />
              <path
                 id="DejaVuSans-63"
                 d="m 3122,3366 v -538 q -244,135 -489,202 -245,67 -495,67 -560,0 -870,-355 -309,-354 -309,-995 0,-641 309,-996 310,-354 870,-354 250,0 495,67 245,67 489,202 V 134 Q 2881,22 2623,-34 2366,-91 2075,-91 1284,-91 818,406 353,903 353,1747 q 0,856 470,1346 471,491 1290,491 265,0 518,-55 253,-54 491,-163 z"
                 transform="scale(0.015625)" />
              <path
                 id="DejaVuSans-75"
                 d="m 544,1381 v 2119 h 575 V 1403 q 0,-497 193,-746 194,-248 582,-248 465,0 735,297 271,297 271,810 v 1984 h 575 V 0 H 2900 V 538 Q 2691,219 2414,64 2138,-91 1772,-91 1169,-91 856,284 544,659 544,1381 Z m 1447,2203 z"
                 transform="scale(0.015625)" />
              <path
                 id="DejaVuSans-61"
                 d="m 2194,1759 q -697,0 -966,-159 -269,-159 -269,-544 0,-306 202,-486 202,-179 548,-179 479,0 768,339 289,339 289,901 v 128 z m 1147,238 V 0 H 2766 V 531 Q 2569,213 2275,61 1981,-91 1556,-91 q -537,0 -855,302 -317,302 -317,808 0,590 395,890 396,300 1180,300 h 807 v 57 q 0,397 -261,614 -261,217 -733,217 -300,0 -585,-72 -284,-72 -546,-216 v 532 q 315,122 612,182 297,61 578,61 760,0 1135,-394 375,-393 375,-1193 z"
                 transform="scale(0.015625)" />
              <path
                 id="DejaVuSans-79"
                 d="m 2059,-325 q -243,-625 -475,-815 -231,-191 -618,-191 H 506 v 481 h 338 q 237,0 368,113 132,112 291,531 L 1606,56 191,3500 H 800 L 1894,763 2988,3500 h 609 z"
                 transform="scale(0.015625)" />
            </defs>
            <use
               xlink:href="#DejaVuSans-41"
               id="use4876"
               x="0"
               y="0"
               width="100%"
               height="100%" />
            <use
               xlink:href="#DejaVuSans-63"
               x="66.658203"
               id="use4878"
               y="0"
               width="100%"
               height="100%" />
            <use
               xlink:href="#DejaVuSans-63"
               x="121.63867"
               id="use4880"
               y="0"
               width="100%"
               height="100%" />
            <use
               xlink:href="#DejaVuSans-75"
               x="176.61914"
               id="use4882"
               y="0"
               width="100%"
               height="100%" />
            <path
               id="use4884"
               d="m 281.10742,46.296875 q -1.51562,0.875 -3.29687,1.28125 Q 276.0293,48 273.88867,48 266.26367,48 262.18555,43.046875 258.10742,38.09375 258.10742,28.8125 V 0 h -9.03125 v 54.6875 h 9.03125 v -8.5 q 2.84375,4.984375 7.375,7.390625 Q 270.0293,56 276.5293,56 q 0.92187,0 2.04687,-0.125 1.125,-0.109375 2.48438,-0.359375 z"
               style="stroke-width:0.015625" />
            <use
               xlink:href="#DejaVuSans-61"
               x="281.11133"
               id="use4886"
               y="0"
               width="100%"
               height="100%" />
            <use
               xlink:href="#DejaVuSans-63"
               x="342.39062"
               id="use4888"
               y="0"
               width="100%"
               height="100%" />
            <use
               xlink:href="#DejaVuSans-79"
               x="397.37109"
               id="use4890"
               y="0"
               width="100%"
               height="100%" />
          </g>
        </g>
        <g
           id="patch_26">
          <path
             d="m 107.24509,209.42031 h 20 v -7 h -20 z"
             style="fill:#ff0000"
             id="path4895" />
        </g>
        <g
           id="text_27">
          <!-- Train time -->
          <g
             transform="matrix(0.1,0,0,-0.1,135.24509,209.42031)"
             id="g4925">
            <defs
               id="defs4903">
              <path
                 id="DejaVuSans-54"
                 d="M -19,4666 H 3928 V 4134 H 2272 V 0 H 1638 V 4134 H -19 Z"
                 transform="scale(0.015625)" />
              <path
                 id="DejaVuSans-69"
                 d="m 603,3500 h 575 V 0 H 603 Z m 0,1363 h 575 V 4134 H 603 Z"
                 transform="scale(0.015625)" />
              <path
                 id="DejaVuSans-20"
                 transform="scale(0.015625)"
                 d="" />
              <path
                 id="DejaVuSans-74"
                 d="M 1172,4494 V 3500 H 2356 V 3053 H 1172 V 1153 q 0,-428 117,-550 117,-122 477,-122 h 590 V 0 H 1766 Q 1100,0 847,248 594,497 594,1153 V 3053 H 172 v 447 h 422 v 994 z"
                 transform="scale(0.015625)" />
              <path
                 id="DejaVuSans-6d"
                 d="m 3328,2828 q 216,388 516,572 300,184 706,184 547,0 844,-383 297,-382 297,-1088 V 0 h -578 v 2094 q 0,503 -179,746 -178,244 -543,244 -447,0 -707,-297 -259,-296 -259,-809 V 0 h -578 v 2094 q 0,506 -178,748 -178,242 -550,242 -441,0 -701,-298 -259,-298 -259,-808 V 0 H 581 v 3500 h 578 v -544 q 197,322 472,475 275,153 653,153 382,0 649,-194 267,-193 395,-562 z"
                 transform="scale(0.015625)" />
            </defs>
            <use
               xlink:href="#DejaVuSans-54"
               id="use4905"
               x="0"
               y="0"
               width="100%"
               height="100%" />
            <path
               id="use4907"
               d="m 87.443359,46.296875 q -1.515625,0.875 -3.296875,1.28125 Q 82.365234,48 80.224609,48 72.599609,48 68.521484,43.046875 64.443359,38.09375 64.443359,28.8125 V 0 h -9.03125 v 54.6875 h 9.03125 v -8.5 q 2.84375,4.984375 7.375,7.390625 Q 76.365234,56 82.865234,56 q 0.921875,0 2.046875,-0.125 1.125,-0.109375 2.484375,-0.359375 z"
               style="stroke-width:0.015625" />
            <use
               xlink:href="#DejaVuSans-61"
               x="87.447266"
               id="use4909"
               y="0"
               width="100%"
               height="100%" />
            <use
               xlink:href="#DejaVuSans-69"
               x="148.72656"
               id="use4911"
               y="0"
               width="100%"
               height="100%" />
            <path
               id="use4913"
               d="M 231.40039,33.015625 V 0 h -8.98437 v 32.71875 q 0,7.765625 -3.03125,11.609375 -3.03125,3.859375 -9.07813,3.859375 -7.28125,0 -11.48437,-4.640625 -4.20313,-4.625 -4.20313,-12.640625 V 0 h -9.03125 v 54.6875 h 9.03125 v -8.5 q 3.23438,4.9375 7.59375,7.375 4.375,2.4375 10.09375,2.4375 9.42188,0 14.25,-5.828125 4.84375,-5.828125 4.84375,-17.15625 z"
               style="stroke-width:0.015625" />
            <use
               xlink:href="#DejaVuSans-20"
               x="239.88867"
               id="use4915"
               y="0"
               width="100%"
               height="100%" />
            <use
               xlink:href="#DejaVuSans-74"
               x="271.67578"
               id="use4917"
               y="0"
               width="100%"
               height="100%" />
            <use
               xlink:href="#DejaVuSans-69"
               x="310.88477"
               id="use4919"
               y="0"
               width="100%"
               height="100%" />
            <use
               xlink:href="#DejaVuSans-6d"
               x="338.66797"
               id="use4921"
               y="0"
               width="100%"
               height="100%" />
            <path
               id="use4923"
               d="m 492.2832,29.59375 v -4.390625 h -41.3125 q 0.59375,-9.28125 5.59375,-14.140625 5,-4.859375 13.9375,-4.859375 5.17188,0 10.03125,1.265625 4.85938,1.265625 9.65625,3.8125 v -8.5 q -4.84375,-2.046875 -9.92187,-3.125 -5.07813,-1.078125 -10.29688,-1.078125 -13.09375,0 -20.73437,7.609375 -7.64063,7.625 -7.64063,20.625 0,13.421875 7.25,21.296875 Q 456.0957,56 468.4082,56 q 11.03125,0 17.45313,-7.109375 6.42187,-7.09375 6.42187,-19.296875 z m -8.98437,2.640625 q -0.0937,7.359375 -4.125,11.75 -4.03125,4.40625 -10.67188,4.40625 -7.51562,0 -12.03125,-4.25 -4.51562,-4.25 -5.20312,-11.96875 z"
               style="stroke-width:0.015625" />
          </g>
        </g>
      </g>
    </g>
    <g
       id="text_28">
      <!-- ESN4 C1 U75 -->
      <g
         transform="translate(102.80625 15.418125)scale(0.12 -0.12)"
         id="g4956">
        <defs
           id="defs4932">
          <path
             id="DejaVuSans-43"
             d="M 4122 4306  L 4122 3641  Q 3803 3938 3442 4084  Q 3081 4231 2675 4231  Q 1875 4231 1450 3742  Q 1025 3253 1025 2328  Q 1025 1406 1450 917  Q 1875 428 2675 428  Q 3081 428 3442 575  Q 3803 722 4122 1019  L 4122 359  Q 3791 134 3420 21  Q 3050 -91 2638 -91  Q 1578 -91 968 557  Q 359 1206 359 2328  Q 359 3453 968 4101  Q 1578 4750 2638 4750  Q 3056 4750 3426 4639  Q 3797 4528 4122 4306  z "
             transform="scale(0.015625)" />
          <path
             id="DejaVuSans-55"
             d="M 556 4666  L 1191 4666  L 1191 1831  Q 1191 1081 1462 751  Q 1734 422 2344 422  Q 2950 422 3222 751  Q 3494 1081 3494 1831  L 3494 4666  L 4128 4666  L 4128 1753  Q 4128 841 3676 375  Q 3225 -91 2344 -91  Q 1459 -91 1007 375  Q 556 841 556 1753  L 556 4666  z "
             transform="scale(0.015625)" />
        </defs>
        <use
           xlink:href="#DejaVuSans-45"
           id="use4934" />
        <use
           xlink:href="#DejaVuSans-53"
           x="63.183594"
           id="use4936" />
        <use
           xlink:href="#DejaVuSans-4e"
           x="126.660156"
           id="use4938" />
        <path
           id="use4940"
           d="M 239.26172,64.3125 214.35547,25.390625 h 24.90625 z m -2.59375,8.59375 h 12.40625 V 25.390625 h 10.40625 V 17.1875 H 249.07422 V 0 h -9.8125 v 17.1875 h -32.90625 v 9.515625 z"
           style="stroke-width:0.015625" />
        <use
           xlink:href="#DejaVuSans-20"
           x="265.087891"
           id="use4942" />
        <use
           xlink:href="#DejaVuSans-43"
           x="296.875"
           id="use4944" />
        <path
           id="use4946"
           d="m 379.10547,8.296875 h 16.10937 v 55.625 L 377.68359,60.40625 v 8.984375 l 17.4375,3.515625 h 9.85938 V 8.296875 h 16.10937 V 0 h -41.98437 z"
           style="stroke-width:0.015625" />
        <use
           xlink:href="#DejaVuSans-20"
           x="430.322266"
           id="use4948" />
        <use
           xlink:href="#DejaVuSans-55"
           x="462.109375"
           id="use4950" />
        <path
           id="use4952"
           d="m 543.50586,72.90625 h 46.875 V 68.703125 L 563.91211,0 h -10.29688 l 24.90625,64.59375 h -35.01562 z"
           style="stroke-width:0.015625" />
        <path
           id="use4954"
           d="m 609.72266,72.90625 h 38.71875 v -8.3125 h -29.6875 V 46.734375 q 2.14062,0.734375 4.28125,1.09375 2.15625,0.359375 4.3125,0.359375 12.20312,0 19.32812,-6.6875 7.14063,-6.6875 7.14063,-18.109375 0,-11.765625 -7.32813,-18.296875 -7.32812,-6.515625 -20.65625,-6.515625 -4.59375,0 -9.35937,0.78125 -4.75,0.78125 -9.82813,2.34375 V 11.625 q 4.39063,-2.390625 9.07813,-3.5625 4.6875,-1.171875 9.90625,-1.171875 8.45312,0 13.375,4.4375 4.9375,4.4375 4.9375,12.0625 0,7.609375 -4.9375,12.046875 -4.92188,4.453125 -13.375,4.453125 -3.95313,0 -7.89063,-0.875 -3.92187,-0.875 -8.01562,-2.734375 z"
           style="stroke-width:0.015625" />
      </g>
    </g>
  </g>
  <defs
     id="defs4966">
    <clipPath
       id="p49f29b4f35">
      <rect
         x="21.384"
         y="50.4"
         width="6.421829"
         height="182.7"
         id="rect4960" />
    </clipPath>
    <clipPath
       id="p5dc5efe032">
      <rect
         x="35.64"
         y="30.24"
         width="220.968"
         height="190.26"
         id="rect4963" />
    </clipPath>
  </defs>
</svg>
