<?xml version="1.0" encoding="UTF-8" standalone="no"?>
<svg
   width="465.12pt"
   height="432pt"
   viewBox="0 0 465.12 432"
   version="1.1"
   id="svg603"
   sodipodi:docname="benchmarks C1 U200.svg"
   inkscape:version="1.1.1 (3bf5ae0d25, 2021-09-20, custom)"
   xmlns:inkscape="http://www.inkscape.org/namespaces/inkscape"
   xmlns:sodipodi="http://sodipodi.sourceforge.net/DTD/sodipodi-0.dtd"
   xmlns:xlink="http://www.w3.org/1999/xlink"
   xmlns="http://www.w3.org/2000/svg"
   xmlns:svg="http://www.w3.org/2000/svg"
   xmlns:rdf="http://www.w3.org/1999/02/22-rdf-syntax-ns#"
   xmlns:cc="http://creativecommons.org/ns#"
   xmlns:dc="http://purl.org/dc/elements/1.1/">
  <sodipodi:namedview
     id="namedview605"
     pagecolor="#ffffff"
     bordercolor="#666666"
     borderopacity="1.0"
     inkscape:pageshadow="2"
     inkscape:pageopacity="0.0"
     inkscape:pagecheckerboard="0"
     inkscape:document-units="pt"
     showgrid="false"
     inkscape:zoom="1.3576389"
     inkscape:cx="309.7289"
     inkscape:cy="288"
     inkscape:window-width="1920"
     inkscape:window-height="1011"
     inkscape:window-x="0"
     inkscape:window-y="0"
     inkscape:window-maximized="1"
     inkscape:current-layer="figure_1" />
  <metadata
     id="metadata2">
    <rdf:RDF>
      <cc:Work>
        <dc:type
           rdf:resource="http://purl.org/dc/dcmitype/StillImage" />
        <dc:date>2021-12-15T00:31:24.390982</dc:date>
        <dc:format>image/svg+xml</dc:format>
        <dc:creator>
          <cc:Agent>
            <dc:title>Matplotlib v3.5.1, https://matplotlib.org/</dc:title>
          </cc:Agent>
        </dc:creator>
      </cc:Work>
    </rdf:RDF>
  </metadata>
  <defs
     id="defs6">
    <style
       type="text/css"
       id="style4">*{stroke-linejoin: round; stroke-linecap: butt}</style>
  </defs>
  <g
     id="figure_1">
    <g
       id="patch_1">
      <path
         d="M 0 432  L 465.12 432  L 465.12 0  L 0 0  L 0 432  z "
         style="fill: none"
         id="path8" />
    </g>
    <g
       id="axes_2"
       transform="matrix(1.1121576,0,0,1.1121576,-31.49431,-28.311521)">
      <g
         id="patch_7">
        <path
           d="M 58.14,378 H 418.608 V 51.84 H 58.14 Z"
           style="fill:#ffffff"
           id="path161" />
      </g>
      <g
         id="patch_8">
        <path
           d="M 74.524909,378 H 101.533 V 96.382784 H 74.524909 Z"
           clip-path="url(#pf9e920ef4f)"
           style="fill:#008000"
           id="path164" />
      </g>
      <g
         id="patch_9">
        <path
           d="m 164.55188,378 h 27.00809 V 85.937572 h -27.00809 z"
           clip-path="url(#pf9e920ef4f)"
           style="fill:#008000"
           id="path167" />
      </g>
      <g
         id="patch_10">
        <path
           d="m 254.57885,378 h 27.0081 V 74.55095 h -27.0081 z"
           clip-path="url(#pf9e920ef4f)"
           style="fill:#008000"
           id="path170" />
      </g>
      <g
         id="patch_11">
        <path
           d="m 344.60583,378 h 27.00809 V 71.637048 h -27.00809 z"
           clip-path="url(#pf9e920ef4f)"
           style="fill:#008000"
           id="path173" />
      </g>
      <g
         id="matplotlib.axis_3">
        <g
           id="xtick_3">
          <g
             id="line2d_9">
            <g
               id="g178">
              <path
                 id="use176"
                 d="m 103.33354,378 v 3.5"
                 style="stroke:#000000;stroke-width:0.8" />
            </g>
          </g>
          <g
             id="text_8">
            <!-- ESN1 -->
            <g
               transform="matrix(0.07071068,-0.07071068,-0.07071068,-0.07071068,95.911681,409.11897)"
               id="g194">
              <defs
                 id="defs184">
                <path
                   id="DejaVuSans-45"
                   d="M 628,4666 H 3578 V 4134 H 1259 V 2753 H 3481 V 2222 H 1259 V 531 H 3634 V 0 H 628 Z"
                   transform="scale(0.015625)" />
                <path
                   id="DejaVuSans-53"
                   d="m 3425,4513 v -616 q -359,172 -678,256 -319,85 -616,85 -515,0 -795,-200 -280,-200 -280,-569 0,-310 186,-468 186,-157 705,-254 l 381,-78 q 706,-135 1042,-474 336,-339 336,-907 0,-679 -455,-1029 -454,-350 -1332,-350 -331,0 -705,75 -373,75 -773,222 v 650 q 384,-215 753,-325 369,-109 725,-109 540,0 834,212 294,213 294,607 0,343 -211,537 -211,194 -692,291 l -385,75 q -706,140 -1022,440 -315,300 -315,835 0,619 436,975 436,356 1201,356 329,0 669,-60 341,-59 697,-177 z"
                   transform="scale(0.015625)" />
                <path
                   id="DejaVuSans-4e"
                   d="m 628,4666 h 850 L 3547,763 v 3903 h 612 V 0 H 3309 L 1241,3903 V 0 H 628 Z"
                   transform="scale(0.015625)" />
              </defs>
              <use
                 xlink:href="#DejaVuSans-45"
                 id="use186"
                 x="0"
                 y="0"
                 width="100%"
                 height="100%" />
              <use
                 xlink:href="#DejaVuSans-53"
                 x="63.183594"
                 id="use188"
                 y="0"
                 width="100%"
                 height="100%" />
              <use
                 xlink:href="#DejaVuSans-4e"
                 x="126.66016"
                 id="use190"
                 y="0"
                 width="100%"
                 height="100%" />
              <path
                 id="use192"
                 d="m 213.87109,8.296875 h 16.10938 v 55.625 L 212.44922,60.40625 v 8.984375 l 17.4375,3.515625 h 9.85937 V 8.296875 h 16.10938 V 0 h -41.98438 z"
                 style="stroke-width:0.015625" />
            </g>
          </g>
        </g>
        <g
           id="xtick_4">
          <g
             id="line2d_10">
            <g
               id="g200">
              <path
                 id="use198"
                 d="m 193.36052,378 v 3.5"
                 style="stroke:#000000;stroke-width:0.8" />
            </g>
          </g>
          <g
             id="text_9">
            <!-- ESN2 -->
            <g
               transform="matrix(0.07071068,-0.07071068,-0.07071068,-0.07071068,185.93865,409.11897)"
               id="g214">
              <defs
                 id="defs204">
                <path
                   id="DejaVuSans-32"
                   d="M 1228,531 H 3431 V 0 H 469 v 531 q 359,372 979,998 621,627 780,809 303,340 423,576 121,236 121,464 0,372 -261,606 -261,235 -680,235 -297,0 -627,-103 -329,-103 -704,-313 v 638 q 381,153 712,231 332,78 607,78 725,0 1156,-363 431,-362 431,-968 0,-288 -108,-546 -107,-257 -392,-607 -78,-91 -497,-524 Q 1991,1309 1228,531 Z"
                   transform="scale(0.015625)" />
              </defs>
              <use
                 xlink:href="#DejaVuSans-45"
                 id="use206"
                 x="0"
                 y="0"
                 width="100%"
                 height="100%" />
              <use
                 xlink:href="#DejaVuSans-53"
                 x="63.183594"
                 id="use208"
                 y="0"
                 width="100%"
                 height="100%" />
              <use
                 xlink:href="#DejaVuSans-4e"
                 x="126.66016"
                 id="use210"
                 y="0"
                 width="100%"
                 height="100%" />
              <use
                 xlink:href="#DejaVuSans-32"
                 x="201.46484"
                 id="use212"
                 y="0"
                 width="100%"
                 height="100%" />
            </g>
          </g>
        </g>
        <g
           id="xtick_5">
          <g
             id="line2d_11">
            <g
               id="g220">
              <path
                 id="use218"
                 d="m 283.38748,378 v 3.5"
                 style="stroke:#000000;stroke-width:0.8" />
            </g>
          </g>
          <g
             id="text_10">
            <!-- ESN3 -->
            <g
               transform="matrix(0.07071068,-0.07071068,-0.07071068,-0.07071068,275.96563,409.11897)"
               id="g231">
              <use
                 xlink:href="#DejaVuSans-45"
                 id="use223"
                 x="0"
                 y="0"
                 width="100%"
                 height="100%" />
              <use
                 xlink:href="#DejaVuSans-53"
                 x="63.183594"
                 id="use225"
                 y="0"
                 width="100%"
                 height="100%" />
              <use
                 xlink:href="#DejaVuSans-4e"
                 x="126.66016"
                 id="use227"
                 y="0"
                 width="100%"
                 height="100%" />
              <path
                 id="use229"
                 d="m 242.04297,39.3125 q 7.07812,-1.515625 11.04687,-6.3125 3.98438,-4.78125 3.98438,-11.8125 0,-10.78125 -7.42188,-16.703125 -7.42187,-5.90625 -21.09375,-5.90625 -4.57812,0 -9.4375,0.90625 -4.85937,0.90625 -10.03125,2.71875 v 9.515625 q 4.09375,-2.390625 8.96875,-3.609375 4.89063,-1.21875 10.21875,-1.21875 9.26563,0 14.125,3.65625 4.85938,3.65625 4.85938,10.640625 0,6.453125 -4.51563,10.078125 -4.51562,3.640625 -12.5625,3.640625 h -8.5 v 8.109375 h 8.89063 q 7.26562,0 11.125,2.90625 3.85937,2.90625 3.85937,8.375 0,5.609375 -3.98437,8.609375 -3.96875,3.015625 -11.39063,3.015625 -4.0625,0 -8.70312,-0.890625 -4.64063,-0.875 -10.20313,-2.71875 v 8.78125 q 5.625,1.5625 10.53125,2.34375 4.90625,0.78125 9.25,0.78125 11.23438,0 17.76563,-5.109375 6.54687,-5.09375 6.54687,-13.78125 0,-6.0625 -3.46875,-10.234375 -3.46875,-4.171875 -9.85937,-5.78125 z"
                 style="stroke-width:0.015625" />
            </g>
          </g>
        </g>
        <g
           id="xtick_6">
          <g
             id="line2d_12">
            <g
               id="g237">
              <path
                 id="use235"
                 d="m 373.41446,378 v 3.5"
                 style="stroke:#000000;stroke-width:0.8" />
            </g>
          </g>
          <g
             id="text_11">
            <!-- ESN4 -->
            <g
               transform="matrix(0.07071068,-0.07071068,-0.07071068,-0.07071068,365.9926,409.11897)"
               id="g251">
              <defs
                 id="defs241">
                <path
                   id="DejaVuSans-34"
                   d="M 2419,4116 825,1625 h 1594 z m -166,550 h 794 V 1625 h 666 V 1100 H 3047 V 0 H 2419 V 1100 H 313 v 609 z"
                   transform="scale(0.015625)" />
              </defs>
              <use
                 xlink:href="#DejaVuSans-45"
                 id="use243"
                 x="0"
                 y="0"
                 width="100%"
                 height="100%" />
              <use
                 xlink:href="#DejaVuSans-53"
                 x="63.183594"
                 id="use245"
                 y="0"
                 width="100%"
                 height="100%" />
              <use
                 xlink:href="#DejaVuSans-4e"
                 x="126.66016"
                 id="use247"
                 y="0"
                 width="100%"
                 height="100%" />
              <use
                 xlink:href="#DejaVuSans-34"
                 x="201.46484"
                 id="use249"
                 y="0"
                 width="100%"
                 height="100%" />
            </g>
          </g>
        </g>
      </g>
      <g
         id="matplotlib.axis_4">
        <g
           id="ytick_5">
          <g
             id="line2d_13">
            <g
               id="g258">
              <path
                 id="use256"
                 d="m 58.139999,378 h -3.5"
                 style="stroke:#000000;stroke-width:0.8" />
            </g>
          </g>
          <g
             id="text_12">
            <!-- 0.0 -->
            <g
               transform="matrix(0.1,0,0,-0.1,35.236875,381.79922)"
               id="g270">
              <defs
                 id="defs262">
                <path
                   id="DejaVuSans-2e"
                   d="m 684,794 h 660 V 0 H 684 Z"
                   transform="scale(0.015625)" />
              </defs>
              <path
                 id="use264"
                 d="m 31.78125,66.40625 q -7.609375,0 -11.453125,-7.5 Q 16.5,51.421875 16.5,36.375 q 0,-14.984375 3.828125,-22.484375 3.84375,-7.5 11.453125,-7.5 7.671875,0 11.5,7.5 3.84375,7.5 3.84375,22.484375 0,15.046875 -3.84375,22.53125 -3.828125,7.5 -11.5,7.5 z m 0,7.8125 q 12.265625,0 18.734375,-9.703125 6.46875,-9.6875 6.46875,-28.140625 0,-18.40625 -6.46875,-28.109375 -6.46875,-9.6875 -18.734375,-9.6875 -12.25,0 -18.71875,9.6875 Q 6.59375,17.96875 6.59375,36.375 q 0,18.453125 6.46875,28.140625 6.46875,9.703125 18.71875,9.703125 z"
                 style="stroke-width:0.015625" />
              <use
                 xlink:href="#DejaVuSans-2e"
                 x="63.623047"
                 id="use266"
                 y="0"
                 width="100%"
                 height="100%" />
              <path
                 id="use268"
                 d="m 127.19141,66.40625 q -7.60938,0 -11.45313,-7.5 -3.82812,-7.484375 -3.82812,-22.53125 0,-14.984375 3.82812,-22.484375 3.84375,-7.5 11.45313,-7.5 7.67187,0 11.5,7.5 3.84375,7.5 3.84375,22.484375 0,15.046875 -3.84375,22.53125 -3.82813,7.5 -11.5,7.5 z m 0,7.8125 q 12.26562,0 18.73437,-9.703125 6.46875,-9.6875 6.46875,-28.140625 0,-18.40625 -6.46875,-28.109375 -6.46875,-9.6875 -18.73437,-9.6875 -12.25,0 -18.71875,9.6875 -6.46875,9.703125 -6.46875,28.109375 0,18.453125 6.46875,28.140625 6.46875,9.703125 18.71875,9.703125 z"
                 style="stroke-width:0.015625" />
            </g>
          </g>
        </g>
        <g
           id="ytick_6">
          <g
             id="line2d_14">
            <g
               id="g276">
              <path
                 id="use274"
                 d="m 58.139999,313.62521 h -3.5"
                 style="stroke:#000000;stroke-width:0.8" />
            </g>
          </g>
          <g
             id="text_13">
            <!-- 0.2 -->
            <g
               transform="matrix(0.1,0,0,-0.1,35.236875,317.42445)"
               id="g285">
              <path
                 id="use279"
                 d="m 31.78125,66.40625 q -7.609375,0 -11.453125,-7.5 Q 16.5,51.421875 16.5,36.375 q 0,-14.984375 3.828125,-22.484375 3.84375,-7.5 11.453125,-7.5 7.671875,0 11.5,7.5 3.84375,7.5 3.84375,22.484375 0,15.046875 -3.84375,22.53125 -3.828125,7.5 -11.5,7.5 z m 0,7.8125 q 12.265625,0 18.734375,-9.703125 6.46875,-9.6875 6.46875,-28.140625 0,-18.40625 -6.46875,-28.109375 -6.46875,-9.6875 -18.734375,-9.6875 -12.25,0 -18.71875,9.6875 Q 6.59375,17.96875 6.59375,36.375 q 0,18.453125 6.46875,28.140625 6.46875,9.703125 18.71875,9.703125 z"
                 style="stroke-width:0.015625" />
              <use
                 xlink:href="#DejaVuSans-2e"
                 x="63.623047"
                 id="use281"
                 y="0"
                 width="100%"
                 height="100%" />
              <use
                 xlink:href="#DejaVuSans-32"
                 x="95.410156"
                 id="use283"
                 y="0"
                 width="100%"
                 height="100%" />
            </g>
          </g>
        </g>
        <g
           id="ytick_7">
          <g
             id="line2d_15">
            <g
               id="g291">
              <path
                 id="use289"
                 d="m 58.139999,249.25046 h -3.5"
                 style="stroke:#000000;stroke-width:0.8" />
            </g>
          </g>
          <g
             id="text_14">
            <!-- 0.4 -->
            <g
               transform="matrix(0.1,0,0,-0.1,35.236875,253.04967)"
               id="g300">
              <path
                 id="use294"
                 d="m 31.78125,66.40625 q -7.609375,0 -11.453125,-7.5 Q 16.5,51.421875 16.5,36.375 q 0,-14.984375 3.828125,-22.484375 3.84375,-7.5 11.453125,-7.5 7.671875,0 11.5,7.5 3.84375,7.5 3.84375,22.484375 0,15.046875 -3.84375,22.53125 -3.828125,7.5 -11.5,7.5 z m 0,7.8125 q 12.265625,0 18.734375,-9.703125 6.46875,-9.6875 6.46875,-28.140625 0,-18.40625 -6.46875,-28.109375 -6.46875,-9.6875 -18.734375,-9.6875 -12.25,0 -18.71875,9.6875 Q 6.59375,17.96875 6.59375,36.375 q 0,18.453125 6.46875,28.140625 6.46875,9.703125 18.71875,9.703125 z"
                 style="stroke-width:0.015625" />
              <use
                 xlink:href="#DejaVuSans-2e"
                 x="63.623047"
                 id="use296"
                 y="0"
                 width="100%"
                 height="100%" />
              <use
                 xlink:href="#DejaVuSans-34"
                 x="95.410156"
                 id="use298"
                 y="0"
                 width="100%"
                 height="100%" />
            </g>
          </g>
        </g>
        <g
           id="ytick_8">
          <g
             id="line2d_16">
            <g
               id="g306">
              <path
                 id="use304"
                 d="m 58.139999,184.87569 h -3.5"
                 style="stroke:#000000;stroke-width:0.8" />
            </g>
          </g>
          <g
             id="text_15">
            <!-- 0.6 -->
            <g
               transform="matrix(0.1,0,0,-0.1,35.236875,188.6749)"
               id="g318">
              <defs
                 id="defs310">
                <path
                   id="DejaVuSans-36"
                   d="m 2113,2584 q -425,0 -674,-291 -248,-290 -248,-796 0,-503 248,-796 249,-292 674,-292 425,0 673,292 248,293 248,796 0,506 -248,796 -248,291 -673,291 z m 1253,1979 v -575 q -238,112 -480,171 -242,60 -480,60 -625,0 -955,-422 -329,-422 -376,-1275 184,272 462,417 279,145 613,145 703,0 1111,-427 408,-426 408,-1160 0,-719 -425,-1154 -425,-434 -1131,-434 -810,0 -1238,620 -428,621 -428,1799 0,1106 525,1764 525,658 1409,658 238,0 480,-47 242,-47 505,-140 z"
                   transform="scale(0.015625)" />
              </defs>
              <path
                 id="use312"
                 d="m 31.78125,66.40625 q -7.609375,0 -11.453125,-7.5 Q 16.5,51.421875 16.5,36.375 q 0,-14.984375 3.828125,-22.484375 3.84375,-7.5 11.453125,-7.5 7.671875,0 11.5,7.5 3.84375,7.5 3.84375,22.484375 0,15.046875 -3.84375,22.53125 -3.828125,7.5 -11.5,7.5 z m 0,7.8125 q 12.265625,0 18.734375,-9.703125 6.46875,-9.6875 6.46875,-28.140625 0,-18.40625 -6.46875,-28.109375 -6.46875,-9.6875 -18.734375,-9.6875 -12.25,0 -18.71875,9.6875 Q 6.59375,17.96875 6.59375,36.375 q 0,18.453125 6.46875,28.140625 6.46875,9.703125 18.71875,9.703125 z"
                 style="stroke-width:0.015625" />
              <use
                 xlink:href="#DejaVuSans-2e"
                 x="63.623047"
                 id="use314"
                 y="0"
                 width="100%"
                 height="100%" />
              <use
                 xlink:href="#DejaVuSans-36"
                 x="95.410156"
                 id="use316"
                 y="0"
                 width="100%"
                 height="100%" />
            </g>
          </g>
        </g>
        <g
           id="ytick_9">
          <g
             id="line2d_17">
            <g
               id="g324">
              <path
                 id="use322"
                 d="m 58.139999,120.50091 h -3.5"
                 style="stroke:#000000;stroke-width:0.8" />
            </g>
          </g>
          <g
             id="text_16">
            <!-- 0.8 -->
            <g
               transform="matrix(0.1,0,0,-0.1,35.236875,124.30013)"
               id="g336">
              <defs
                 id="defs328">
                <path
                   id="DejaVuSans-38"
                   d="m 2034,2216 q -450,0 -708,-241 -257,-241 -257,-662 0,-422 257,-663 258,-241 708,-241 450,0 709,242 260,243 260,662 0,421 -258,662 -257,241 -711,241 z m -631,268 q -406,100 -633,378 -226,279 -226,679 0,559 398,884 399,325 1092,325 697,0 1094,-325 397,-325 397,-884 0,-400 -227,-679 -226,-278 -629,-378 456,-106 710,-416 255,-309 255,-755 Q 3634,634 3220,271 2806,-91 2034,-91 1263,-91 848,271 434,634 434,1313 q 0,446 256,755 257,310 713,416 z m -231,997 q 0,-362 226,-565 227,-203 636,-203 407,0 636,203 230,203 230,565 0,363 -230,566 -229,203 -636,203 -409,0 -636,-203 -226,-203 -226,-566 z"
                   transform="scale(0.015625)" />
              </defs>
              <path
                 id="use330"
                 d="m 31.78125,66.40625 q -7.609375,0 -11.453125,-7.5 Q 16.5,51.421875 16.5,36.375 q 0,-14.984375 3.828125,-22.484375 3.84375,-7.5 11.453125,-7.5 7.671875,0 11.5,7.5 3.84375,7.5 3.84375,22.484375 0,15.046875 -3.84375,22.53125 -3.828125,7.5 -11.5,7.5 z m 0,7.8125 q 12.265625,0 18.734375,-9.703125 6.46875,-9.6875 6.46875,-28.140625 0,-18.40625 -6.46875,-28.109375 -6.46875,-9.6875 -18.734375,-9.6875 -12.25,0 -18.71875,9.6875 Q 6.59375,17.96875 6.59375,36.375 q 0,18.453125 6.46875,28.140625 6.46875,9.703125 18.71875,9.703125 z"
                 style="stroke-width:0.015625" />
              <use
                 xlink:href="#DejaVuSans-2e"
                 x="63.623047"
                 id="use332"
                 y="0"
                 width="100%"
                 height="100%" />
              <use
                 xlink:href="#DejaVuSans-38"
                 x="95.410156"
                 id="use334"
                 y="0"
                 width="100%"
                 height="100%" />
            </g>
          </g>
        </g>
        <g
           id="ytick_10">
          <g
             id="line2d_18">
            <g
               id="g342">
              <path
                 id="use340"
                 d="m 58.139999,56.126137 h -3.5"
                 style="stroke:#000000;stroke-width:0.8" />
            </g>
          </g>
          <g
             id="text_17">
            <!-- 1.0 -->
            <g
               transform="matrix(0.1,0,0,-0.1,35.236875,59.925354)"
               id="g351">
              <path
                 id="use345"
                 d="m 12.40625,8.296875 h 16.109375 v 55.625 L 10.984375,60.40625 v 8.984375 l 17.4375,3.515625 H 38.28125 V 8.296875 H 54.390625 V 0 H 12.40625 Z"
                 style="stroke-width:0.015625" />
              <use
                 xlink:href="#DejaVuSans-2e"
                 x="63.623047"
                 id="use347"
                 y="0"
                 width="100%"
                 height="100%" />
              <path
                 id="use349"
                 d="m 127.19141,66.40625 q -7.60938,0 -11.45313,-7.5 -3.82812,-7.484375 -3.82812,-22.53125 0,-14.984375 3.82812,-22.484375 3.84375,-7.5 11.45313,-7.5 7.67187,0 11.5,7.5 3.84375,7.5 3.84375,22.484375 0,15.046875 -3.84375,22.53125 -3.82813,7.5 -11.5,7.5 z m 0,7.8125 q 12.26562,0 18.73437,-9.703125 6.46875,-9.6875 6.46875,-28.140625 0,-18.40625 -6.46875,-28.109375 -6.46875,-9.6875 -18.73437,-9.6875 -12.25,0 -18.71875,9.6875 -6.46875,9.703125 -6.46875,28.109375 0,18.453125 6.46875,28.140625 6.46875,9.703125 18.71875,9.703125 z"
                 style="stroke-width:0.015625" />
            </g>
          </g>
        </g>
      </g>
      <g
         id="LineCollection_1">
        <path
           d="M 88.028955,103.88228 V 88.883293"
           clip-path="url(#pf9e920ef4f)"
           style="fill:none;stroke:#000000;stroke-width:1.5"
           id="path356" />
        <path
           d="M 178.05593,93.963131 V 77.912013"
           clip-path="url(#pf9e920ef4f)"
           style="fill:none;stroke:#000000;stroke-width:1.5"
           id="path358" />
        <path
           d="M 268.0829,76.920548 V 72.181353"
           clip-path="url(#pf9e920ef4f)"
           style="fill:none;stroke:#000000;stroke-width:1.5"
           id="path360" />
        <path
           d="M 358.10987,75.902668 V 67.371429"
           clip-path="url(#pf9e920ef4f)"
           style="fill:none;stroke:#000000;stroke-width:1.5"
           id="path362" />
      </g>
      <g
         id="patch_12">
        <path
           d="M 58.14,378 V 51.84"
           style="fill:none;stroke:#000000;stroke-width:0.8;stroke-linecap:square;stroke-linejoin:miter"
           id="path365" />
      </g>
      <g
         id="patch_13">
        <path
           d="M 418.608,378 V 51.84"
           style="fill:none;stroke:#000000;stroke-width:0.8;stroke-linecap:square;stroke-linejoin:miter"
           id="path368" />
      </g>
      <g
         id="patch_14">
        <path
           d="M 58.14,378 H 418.608"
           style="fill:none;stroke:#000000;stroke-width:0.8;stroke-linecap:square;stroke-linejoin:miter"
           id="path371" />
      </g>
      <g
         id="patch_15">
        <path
           d="M 58.14,51.84 H 418.608"
           style="fill:none;stroke:#000000;stroke-width:0.8;stroke-linecap:square;stroke-linejoin:miter"
           id="path374" />
      </g>
    </g>
    <g
       id="axes_3"
       transform="matrix(1.1121576,0,0,1.1121576,-31.49431,-28.311521)">
      <g
         id="patch_16">
        <path
           d="m 105.13408,378 h 27.00809 V 219.4541 h -27.00809 z"
           clip-path="url(#pf9e920ef4f)"
           style="fill:#ff0000"
           id="path378" />
      </g>
      <g
         id="patch_17">
        <path
           d="m 195.16105,378 h 27.00809 V 234.85111 h -27.00809 z"
           clip-path="url(#pf9e920ef4f)"
           style="fill:#ff0000"
           id="path381" />
      </g>
      <g
         id="patch_18">
        <path
           d="m 285.18803,378 h 27.00809 V 117.89555 h -27.00809 z"
           clip-path="url(#pf9e920ef4f)"
           style="fill:#ff0000"
           id="path384" />
      </g>
      <g
         id="patch_19">
        <path
           d="m 375.215,378 h 27.00809 V 257.51145 H 375.215 Z"
           clip-path="url(#pf9e920ef4f)"
           style="fill:#ff0000"
           id="path387" />
      </g>
      <g
         id="matplotlib.axis_5">
        <g
           id="ytick_11">
          <g
             id="line2d_19">
            <defs
               id="defs391">
              <path
                 id="m22f6540230"
                 d="M 0,0 H 3.5"
                 style="stroke:#000000;stroke-width:0.8" />
            </defs>
            <g
               id="g395">
              <use
                 xlink:href="#m22f6540230"
                 x="418.608"
                 y="378"
                 style="stroke:#000000;stroke-width:0.8"
                 id="use393"
                 width="100%"
                 height="100%" />
            </g>
          </g>
          <g
             id="text_18">
            <!-- 0 -->
            <g
               transform="matrix(0.1,0,0,-0.1,425.608,381.79922)"
               id="g400">
              <path
                 id="use398"
                 d="m 31.78125,66.40625 q -7.609375,0 -11.453125,-7.5 Q 16.5,51.421875 16.5,36.375 q 0,-14.984375 3.828125,-22.484375 3.84375,-7.5 11.453125,-7.5 7.671875,0 11.5,7.5 3.84375,7.5 3.84375,22.484375 0,15.046875 -3.84375,22.53125 -3.828125,7.5 -11.5,7.5 z m 0,7.8125 q 12.265625,0 18.734375,-9.703125 6.46875,-9.6875 6.46875,-28.140625 0,-18.40625 -6.46875,-28.109375 -6.46875,-9.6875 -18.734375,-9.6875 -12.25,0 -18.71875,9.6875 Q 6.59375,17.96875 6.59375,36.375 q 0,18.453125 6.46875,28.140625 6.46875,9.703125 18.71875,9.703125 z"
                 style="stroke-width:0.015625" />
            </g>
          </g>
        </g>
        <g
           id="ytick_12">
          <g
             id="line2d_20">
            <g
               id="g406">
              <use
                 xlink:href="#m22f6540230"
                 x="418.608"
                 y="331.13684"
                 style="stroke:#000000;stroke-width:0.8"
                 id="use404"
                 width="100%"
                 height="100%" />
            </g>
          </g>
          <g
             id="text_19">
            <!-- 2 -->
            <g
               transform="matrix(0.1,0,0,-0.1,425.608,334.93605)"
               id="g411">
              <use
                 xlink:href="#DejaVuSans-32"
                 id="use409"
                 x="0"
                 y="0"
                 width="100%"
                 height="100%" />
            </g>
          </g>
        </g>
        <g
           id="ytick_13">
          <g
             id="line2d_21">
            <g
               id="g417">
              <use
                 xlink:href="#m22f6540230"
                 x="418.608"
                 y="284.27365"
                 style="stroke:#000000;stroke-width:0.8"
                 id="use415"
                 width="100%"
                 height="100%" />
            </g>
          </g>
          <g
             id="text_20">
            <!-- 4 -->
            <g
               transform="matrix(0.1,0,0,-0.1,425.608,288.07288)"
               id="g422">
              <use
                 xlink:href="#DejaVuSans-34"
                 id="use420"
                 x="0"
                 y="0"
                 width="100%"
                 height="100%" />
            </g>
          </g>
        </g>
        <g
           id="ytick_14">
          <g
             id="line2d_22">
            <g
               id="g428">
              <use
                 xlink:href="#m22f6540230"
                 x="418.608"
                 y="237.41049"
                 style="stroke:#000000;stroke-width:0.8"
                 id="use426"
                 width="100%"
                 height="100%" />
            </g>
          </g>
          <g
             id="text_21">
            <!-- 6 -->
            <g
               transform="matrix(0.1,0,0,-0.1,425.608,241.20971)"
               id="g433">
              <use
                 xlink:href="#DejaVuSans-36"
                 id="use431"
                 x="0"
                 y="0"
                 width="100%"
                 height="100%" />
            </g>
          </g>
        </g>
        <g
           id="ytick_15">
          <g
             id="line2d_23">
            <g
               id="g439">
              <use
                 xlink:href="#m22f6540230"
                 x="418.608"
                 y="190.54732"
                 style="stroke:#000000;stroke-width:0.8"
                 id="use437"
                 width="100%"
                 height="100%" />
            </g>
          </g>
          <g
             id="text_22">
            <!-- 8 -->
            <g
               transform="matrix(0.1,0,0,-0.1,425.608,194.34654)"
               id="g444">
              <use
                 xlink:href="#DejaVuSans-38"
                 id="use442"
                 x="0"
                 y="0"
                 width="100%"
                 height="100%" />
            </g>
          </g>
        </g>
        <g
           id="ytick_16">
          <g
             id="line2d_24">
            <g
               id="g450">
              <use
                 xlink:href="#m22f6540230"
                 x="418.608"
                 y="143.68416"
                 style="stroke:#000000;stroke-width:0.8"
                 id="use448"
                 width="100%"
                 height="100%" />
            </g>
          </g>
          <g
             id="text_23">
            <!-- 10 -->
            <g
               transform="matrix(0.1,0,0,-0.1,425.608,147.48337)"
               id="g457">
              <path
                 id="use453"
                 d="m 12.40625,8.296875 h 16.109375 v 55.625 L 10.984375,60.40625 v 8.984375 l 17.4375,3.515625 H 38.28125 V 8.296875 H 54.390625 V 0 H 12.40625 Z"
                 style="stroke-width:0.015625" />
              <path
                 id="use455"
                 d="m 95.404297,66.40625 q -7.609375,0 -11.453125,-7.5 -3.828125,-7.484375 -3.828125,-22.53125 0,-14.984375 3.828125,-22.484375 3.84375,-7.5 11.453125,-7.5 7.671873,0 11.500003,7.5 3.84375,7.5 3.84375,22.484375 0,15.046875 -3.84375,22.53125 -3.82813,7.5 -11.500003,7.5 z m 0,7.8125 q 12.265623,0 18.734373,-9.703125 6.46875,-9.6875 6.46875,-28.140625 0,-18.40625 -6.46875,-28.109375 -6.46875,-9.6875 -18.734373,-9.6875 -12.25,0 -18.71875,9.6875 -6.46875,9.703125 -6.46875,28.109375 0,18.453125 6.46875,28.140625 6.46875,9.703125 18.71875,9.703125 z"
                 style="stroke-width:0.015625" />
            </g>
          </g>
        </g>
        <g
           id="ytick_17">
          <g
             id="line2d_25">
            <g
               id="g463">
              <use
                 xlink:href="#m22f6540230"
                 x="418.608"
                 y="96.820984"
                 style="stroke:#000000;stroke-width:0.8"
                 id="use461"
                 width="100%"
                 height="100%" />
            </g>
          </g>
          <g
             id="text_24">
            <!-- 12 -->
            <g
               transform="matrix(0.1,0,0,-0.1,425.608,100.6202)"
               id="g470">
              <path
                 id="use466"
                 d="m 12.40625,8.296875 h 16.109375 v 55.625 L 10.984375,60.40625 v 8.984375 l 17.4375,3.515625 H 38.28125 V 8.296875 H 54.390625 V 0 H 12.40625 Z"
                 style="stroke-width:0.015625" />
              <use
                 xlink:href="#DejaVuSans-32"
                 x="63.623047"
                 id="use468"
                 y="0"
                 width="100%"
                 height="100%" />
            </g>
          </g>
        </g>
      </g>
      <g
         id="LineCollection_2">
        <path
           d="M 118.63813,232.62873 V 206.27946"
           clip-path="url(#pf9e920ef4f)"
           style="fill:none;stroke:#000000;stroke-width:1.5"
           id="path475" />
        <path
           d="M 208.6651,255.16165 V 214.54057"
           clip-path="url(#pf9e920ef4f)"
           style="fill:none;stroke:#000000;stroke-width:1.5"
           id="path477" />
        <path
           d="M 298.69207,168.41967 V 67.371429"
           clip-path="url(#pf9e920ef4f)"
           style="fill:none;stroke:#000000;stroke-width:1.5"
           id="path479" />
        <path
           d="M 388.71904,272.32079 V 242.70212"
           clip-path="url(#pf9e920ef4f)"
           style="fill:none;stroke:#000000;stroke-width:1.5"
           id="path481" />
      </g>
      <g
         id="patch_20">
        <path
           d="M 58.14,378 V 51.84"
           style="fill:none;stroke:#000000;stroke-width:0.8;stroke-linecap:square;stroke-linejoin:miter"
           id="path484" />
      </g>
      <g
         id="patch_21">
        <path
           d="M 418.608,378 V 51.84"
           style="fill:none;stroke:#000000;stroke-width:0.8;stroke-linecap:square;stroke-linejoin:miter"
           id="path487" />
      </g>
      <g
         id="patch_22">
        <path
           d="M 58.14,378 H 418.608"
           style="fill:none;stroke:#000000;stroke-width:0.8;stroke-linecap:square;stroke-linejoin:miter"
           id="path490" />
      </g>
      <g
         id="patch_23">
        <path
           d="M 58.14,51.84 H 418.608"
           style="fill:none;stroke:#000000;stroke-width:0.8;stroke-linecap:square;stroke-linejoin:miter"
           id="path493" />
      </g>
      <g
         id="legend_1">
        <g
           id="patch_24">
          <path
             d="m 197.49509,373 h 81.75782 q 2,0 2,-2 v -28.35625 q 0,-2 -2,-2 h -81.75782 q -2,0 -2,2 V 371 q 0,2 2,2 z"
             style="opacity:0.8;fill:#ffffff;stroke:#cccccc;stroke-linejoin:miter"
             id="path496" />
        </g>
        <g
           id="patch_25">
          <path
             d="m 199.49509,352.24219 h 20 v -7 h -20 z"
             style="fill:#008000"
             id="path499" />
        </g>
        <g
           id="text_25">
          <!-- Accuracy -->
          <g
             transform="matrix(0.1,0,0,-0.1,227.49509,352.24219)"
             id="g525">
            <defs
               id="defs507">
              <path
                 id="DejaVuSans-41"
                 d="M 2188,4044 1331,1722 h 1716 z m -357,622 h 716 L 4325,0 H 3669 L 3244,1197 H 1141 L 716,0 H 50 Z"
                 transform="scale(0.015625)" />
              <path
                 id="DejaVuSans-63"
                 d="m 3122,3366 v -538 q -244,135 -489,202 -245,67 -495,67 -560,0 -870,-355 -309,-354 -309,-995 0,-641 309,-996 310,-354 870,-354 250,0 495,67 245,67 489,202 V 134 Q 2881,22 2623,-34 2366,-91 2075,-91 1284,-91 818,406 353,903 353,1747 q 0,856 470,1346 471,491 1290,491 265,0 518,-55 253,-54 491,-163 z"
                 transform="scale(0.015625)" />
              <path
                 id="DejaVuSans-75"
                 d="m 544,1381 v 2119 h 575 V 1403 q 0,-497 193,-746 194,-248 582,-248 465,0 735,297 271,297 271,810 v 1984 h 575 V 0 H 2900 V 538 Q 2691,219 2414,64 2138,-91 1772,-91 1169,-91 856,284 544,659 544,1381 Z m 1447,2203 z"
                 transform="scale(0.015625)" />
              <path
                 id="DejaVuSans-61"
                 d="m 2194,1759 q -697,0 -966,-159 -269,-159 -269,-544 0,-306 202,-486 202,-179 548,-179 479,0 768,339 289,339 289,901 v 128 z m 1147,238 V 0 H 2766 V 531 Q 2569,213 2275,61 1981,-91 1556,-91 q -537,0 -855,302 -317,302 -317,808 0,590 395,890 396,300 1180,300 h 807 v 57 q 0,397 -261,614 -261,217 -733,217 -300,0 -585,-72 -284,-72 -546,-216 v 532 q 315,122 612,182 297,61 578,61 760,0 1135,-394 375,-393 375,-1193 z"
                 transform="scale(0.015625)" />
              <path
                 id="DejaVuSans-79"
                 d="m 2059,-325 q -243,-625 -475,-815 -231,-191 -618,-191 H 506 v 481 h 338 q 237,0 368,113 132,112 291,531 L 1606,56 191,3500 H 800 L 1894,763 2988,3500 h 609 z"
                 transform="scale(0.015625)" />
            </defs>
            <use
               xlink:href="#DejaVuSans-41"
               id="use509"
               x="0"
               y="0"
               width="100%"
               height="100%" />
            <use
               xlink:href="#DejaVuSans-63"
               x="66.658203"
               id="use511"
               y="0"
               width="100%"
               height="100%" />
            <use
               xlink:href="#DejaVuSans-63"
               x="121.63867"
               id="use513"
               y="0"
               width="100%"
               height="100%" />
            <use
               xlink:href="#DejaVuSans-75"
               x="176.61914"
               id="use515"
               y="0"
               width="100%"
               height="100%" />
            <path
               id="use517"
               d="m 281.10742,46.296875 q -1.51562,0.875 -3.29687,1.28125 Q 276.0293,48 273.88867,48 266.26367,48 262.18555,43.046875 258.10742,38.09375 258.10742,28.8125 V 0 h -9.03125 v 54.6875 h 9.03125 v -8.5 q 2.84375,4.984375 7.375,7.390625 Q 270.0293,56 276.5293,56 q 0.92187,0 2.04687,-0.125 1.125,-0.109375 2.48438,-0.359375 z"
               style="stroke-width:0.015625" />
            <use
               xlink:href="#DejaVuSans-61"
               x="281.11133"
               id="use519"
               y="0"
               width="100%"
               height="100%" />
            <use
               xlink:href="#DejaVuSans-63"
               x="342.39062"
               id="use521"
               y="0"
               width="100%"
               height="100%" />
            <use
               xlink:href="#DejaVuSans-79"
               x="397.37109"
               id="use523"
               y="0"
               width="100%"
               height="100%" />
          </g>
        </g>
        <g
           id="patch_26">
          <path
             d="m 199.49509,366.92031 h 20 v -7 h -20 z"
             style="fill:#ff0000"
             id="path528" />
        </g>
        <g
           id="text_26">
          <!-- Train time -->
          <g
             transform="matrix(0.1,0,0,-0.1,227.49509,366.92031)"
             id="g558">
            <defs
               id="defs536">
              <path
                 id="DejaVuSans-54"
                 d="M -19,4666 H 3928 V 4134 H 2272 V 0 H 1638 V 4134 H -19 Z"
                 transform="scale(0.015625)" />
              <path
                 id="DejaVuSans-69"
                 d="m 603,3500 h 575 V 0 H 603 Z m 0,1363 h 575 V 4134 H 603 Z"
                 transform="scale(0.015625)" />
              <path
                 id="DejaVuSans-20"
                 transform="scale(0.015625)"
                 d="" />
              <path
                 id="DejaVuSans-74"
                 d="M 1172,4494 V 3500 H 2356 V 3053 H 1172 V 1153 q 0,-428 117,-550 117,-122 477,-122 h 590 V 0 H 1766 Q 1100,0 847,248 594,497 594,1153 V 3053 H 172 v 447 h 422 v 994 z"
                 transform="scale(0.015625)" />
              <path
                 id="DejaVuSans-6d"
                 d="m 3328,2828 q 216,388 516,572 300,184 706,184 547,0 844,-383 297,-382 297,-1088 V 0 h -578 v 2094 q 0,503 -179,746 -178,244 -543,244 -447,0 -707,-297 -259,-296 -259,-809 V 0 h -578 v 2094 q 0,506 -178,748 -178,242 -550,242 -441,0 -701,-298 -259,-298 -259,-808 V 0 H 581 v 3500 h 578 v -544 q 197,322 472,475 275,153 653,153 382,0 649,-194 267,-193 395,-562 z"
                 transform="scale(0.015625)" />
            </defs>
            <use
               xlink:href="#DejaVuSans-54"
               id="use538"
               x="0"
               y="0"
               width="100%"
               height="100%" />
            <path
               id="use540"
               d="m 87.443359,46.296875 q -1.515625,0.875 -3.296875,1.28125 Q 82.365234,48 80.224609,48 72.599609,48 68.521484,43.046875 64.443359,38.09375 64.443359,28.8125 V 0 h -9.03125 v 54.6875 h 9.03125 v -8.5 q 2.84375,4.984375 7.375,7.390625 Q 76.365234,56 82.865234,56 q 0.921875,0 2.046875,-0.125 1.125,-0.109375 2.484375,-0.359375 z"
               style="stroke-width:0.015625" />
            <use
               xlink:href="#DejaVuSans-61"
               x="87.447266"
               id="use542"
               y="0"
               width="100%"
               height="100%" />
            <use
               xlink:href="#DejaVuSans-69"
               x="148.72656"
               id="use544"
               y="0"
               width="100%"
               height="100%" />
            <path
               id="use546"
               d="M 231.40039,33.015625 V 0 h -8.98437 v 32.71875 q 0,7.765625 -3.03125,11.609375 -3.03125,3.859375 -9.07813,3.859375 -7.28125,0 -11.48437,-4.640625 -4.20313,-4.625 -4.20313,-12.640625 V 0 h -9.03125 v 54.6875 h 9.03125 v -8.5 q 3.23438,4.9375 7.59375,7.375 4.375,2.4375 10.09375,2.4375 9.42188,0 14.25,-5.828125 4.84375,-5.828125 4.84375,-17.15625 z"
               style="stroke-width:0.015625" />
            <use
               xlink:href="#DejaVuSans-20"
               x="239.88867"
               id="use548"
               y="0"
               width="100%"
               height="100%" />
            <use
               xlink:href="#DejaVuSans-74"
               x="271.67578"
               id="use550"
               y="0"
               width="100%"
               height="100%" />
            <use
               xlink:href="#DejaVuSans-69"
               x="310.88477"
               id="use552"
               y="0"
               width="100%"
               height="100%" />
            <use
               xlink:href="#DejaVuSans-6d"
               x="338.66797"
               id="use554"
               y="0"
               width="100%"
               height="100%" />
            <path
               id="use556"
               d="m 492.2832,29.59375 v -4.390625 h -41.3125 q 0.59375,-9.28125 5.59375,-14.140625 5,-4.859375 13.9375,-4.859375 5.17188,0 10.03125,1.265625 4.85938,1.265625 9.65625,3.8125 v -8.5 q -4.84375,-2.046875 -9.92187,-3.125 -5.07813,-1.078125 -10.29688,-1.078125 -13.09375,0 -20.73437,7.609375 -7.64063,7.625 -7.64063,20.625 0,13.421875 7.25,21.296875 Q 456.0957,56 468.4082,56 q 11.03125,0 17.45313,-7.109375 6.42187,-7.09375 6.42187,-19.296875 z m -8.98437,2.640625 q -0.0937,7.359375 -4.125,11.75 -4.03125,4.40625 -10.67188,4.40625 -7.51562,0 -12.03125,-4.25 -4.51562,-4.25 -5.20312,-11.96875 z"
               style="stroke-width:0.015625" />
          </g>
        </g>
      </g>
    </g>
    <g
       id="text_27">
      <!-- ESN4 C1 U200 -->
      <g
         transform="translate(188.98875 19.918125)scale(0.12 -0.12)"
         id="g591">
        <defs
           id="defs565">
          <path
             id="DejaVuSans-43"
             d="M 4122 4306  L 4122 3641  Q 3803 3938 3442 4084  Q 3081 4231 2675 4231  Q 1875 4231 1450 3742  Q 1025 3253 1025 2328  Q 1025 1406 1450 917  Q 1875 428 2675 428  Q 3081 428 3442 575  Q 3803 722 4122 1019  L 4122 359  Q 3791 134 3420 21  Q 3050 -91 2638 -91  Q 1578 -91 968 557  Q 359 1206 359 2328  Q 359 3453 968 4101  Q 1578 4750 2638 4750  Q 3056 4750 3426 4639  Q 3797 4528 4122 4306  z "
             transform="scale(0.015625)" />
          <path
             id="DejaVuSans-55"
             d="M 556 4666  L 1191 4666  L 1191 1831  Q 1191 1081 1462 751  Q 1734 422 2344 422  Q 2950 422 3222 751  Q 3494 1081 3494 1831  L 3494 4666  L 4128 4666  L 4128 1753  Q 4128 841 3676 375  Q 3225 -91 2344 -91  Q 1459 -91 1007 375  Q 556 841 556 1753  L 556 4666  z "
             transform="scale(0.015625)" />
        </defs>
        <use
           xlink:href="#DejaVuSans-45"
           id="use567" />
        <use
           xlink:href="#DejaVuSans-53"
           x="63.183594"
           id="use569" />
        <use
           xlink:href="#DejaVuSans-4e"
           x="126.660156"
           id="use571" />
        <use
           xlink:href="#DejaVuSans-34"
           x="201.464844"
           id="use573" />
        <use
           xlink:href="#DejaVuSans-20"
           x="265.087891"
           id="use575" />
        <use
           xlink:href="#DejaVuSans-43"
           x="296.875"
           id="use577" />
        <path
           id="use579"
           d="m 379.10547,8.296875 h 16.10937 v 55.625 L 377.68359,60.40625 v 8.984375 l 17.4375,3.515625 h 9.85938 V 8.296875 h 16.10937 V 0 h -41.98437 z"
           style="stroke-width:0.015625" />
        <use
           xlink:href="#DejaVuSans-20"
           x="430.322266"
           id="use581" />
        <use
           xlink:href="#DejaVuSans-55"
           x="462.109375"
           id="use583" />
        <use
           xlink:href="#DejaVuSans-32"
           x="535.302734"
           id="use585" />
        <path
           id="use587"
           d="m 630.70703,66.40625 q -7.60937,0 -11.45312,-7.5 -3.82813,-7.484375 -3.82813,-22.53125 0,-14.984375 3.82813,-22.484375 3.84375,-7.5 11.45312,-7.5 7.67188,0 11.5,7.5 3.84375,7.5 3.84375,22.484375 0,15.046875 -3.84375,22.53125 -3.82812,7.5 -11.5,7.5 z m 0,7.8125 q 12.26563,0 18.73438,-9.703125 6.46875,-9.6875 6.46875,-28.140625 0,-18.40625 -6.46875,-28.109375 -6.46875,-9.6875 -18.73438,-9.6875 -12.25,0 -18.71875,9.6875 -6.46875,9.703125 -6.46875,28.109375 0,18.453125 6.46875,28.140625 6.46875,9.703125 18.71875,9.703125 z"
           style="stroke-width:0.015625" />
        <path
           id="use589"
           d="m 694.33008,66.40625 q -7.60938,0 -11.45313,-7.5 -3.82812,-7.484375 -3.82812,-22.53125 0,-14.984375 3.82812,-22.484375 3.84375,-7.5 11.45313,-7.5 7.67187,0 11.5,7.5 3.84375,7.5 3.84375,22.484375 0,15.046875 -3.84375,22.53125 -3.82813,7.5 -11.5,7.5 z m 0,7.8125 q 12.26562,0 18.73437,-9.703125 6.46875,-9.6875 6.46875,-28.140625 0,-18.40625 -6.46875,-28.109375 -6.46875,-9.6875 -18.73437,-9.6875 -12.25,0 -18.71875,9.6875 -6.46875,9.703125 -6.46875,28.109375 0,18.453125 6.46875,28.140625 6.46875,9.703125 18.71875,9.703125 z"
           style="stroke-width:0.015625" />
      </g>
    </g>
  </g>
  <defs
     id="defs601">
    <clipPath
       id="p4b6da4a5f7">
      <rect
         x="34.884"
         y="86.4"
         width="4.603809"
         height="313.2"
         id="rect595" />
    </clipPath>
    <clipPath
       id="pf9e920ef4f">
      <rect
         x="58.14"
         y="51.84"
         width="360.468"
         height="326.16"
         id="rect598" />
    </clipPath>
  </defs>
</svg>
