<?xml version="1.0" encoding="UTF-8" standalone="no"?>
<svg
   width="432pt"
   height="288pt"
   viewBox="0 0 432 288"
   version="1.1"
   id="svg479"
   sodipodi:docname="benchmarks C1 U100.svg"
   inkscape:version="1.1.1 (3bf5ae0d25, 2021-09-20, custom)"
   xmlns:inkscape="http://www.inkscape.org/namespaces/inkscape"
   xmlns:sodipodi="http://sodipodi.sourceforge.net/DTD/sodipodi-0.dtd"
   xmlns:xlink="http://www.w3.org/1999/xlink"
   xmlns="http://www.w3.org/2000/svg"
   xmlns:svg="http://www.w3.org/2000/svg"
   xmlns:rdf="http://www.w3.org/1999/02/22-rdf-syntax-ns#"
   xmlns:cc="http://creativecommons.org/ns#"
   xmlns:dc="http://purl.org/dc/elements/1.1/">
  <sodipodi:namedview
     id="namedview481"
     pagecolor="#ffffff"
     bordercolor="#666666"
     borderopacity="1.0"
     inkscape:pageshadow="2"
     inkscape:pageopacity="0.0"
     inkscape:pagecheckerboard="0"
     inkscape:document-units="pt"
     showgrid="false"
     inkscape:zoom="2.0364583"
     inkscape:cx="288"
     inkscape:cy="192"
     inkscape:window-width="1920"
     inkscape:window-height="1011"
     inkscape:window-x="0"
     inkscape:window-y="0"
     inkscape:window-maximized="1"
     inkscape:current-layer="figure_1" />
  <metadata
     id="metadata2">
    <rdf:RDF>
      <cc:Work>
        <dc:type
           rdf:resource="http://purl.org/dc/dcmitype/StillImage" />
        <dc:date>2021-12-14T17:36:19.187100</dc:date>
        <dc:format>image/svg+xml</dc:format>
        <dc:creator>
          <cc:Agent>
            <dc:title>Matplotlib v3.5.1, https://matplotlib.org/</dc:title>
          </cc:Agent>
        </dc:creator>
      </cc:Work>
    </rdf:RDF>
  </metadata>
  <defs
     id="defs6">
    <style
       type="text/css"
       id="style4">*{stroke-linejoin: round; stroke-linecap: butt}</style>
  </defs>
  <g
     id="figure_1">
    <g
       id="patch_1">
      <path
         d="M 0 288  L 432 288  L 432 0  L 0 0  L 0 288  z "
         style="fill: none"
         id="path8" />
    </g>
    <g
       id="axes_1"
       transform="matrix(1.0750852,0,0,1.0750852,-20.633308,-17.97627)">
      <g
         id="patch_2">
        <path
           d="M 54,252 H 388.8 V 34.56 H 54 Z"
           style="fill:#ffffff"
           id="path11" />
      </g>
      <g
         id="patch_3">
        <path
           d="M 69.218182,252 H 94.303097 V 64.317966 H 69.218182 Z"
           clip-path="url(#p41c48ff322)"
           style="fill:#008000"
           id="path14" />
      </g>
      <g
         id="patch_4">
        <path
           d="m 152.83456,252 h 25.08492 V 53.175891 h -25.08492 z"
           clip-path="url(#p41c48ff322)"
           style="fill:#008000"
           id="path17" />
      </g>
      <g
         id="patch_5">
        <path
           d="m 236.45095,252 h 25.08491 V 47.419151 h -25.08491 z"
           clip-path="url(#p41c48ff322)"
           style="fill:#008000"
           id="path20" />
      </g>
      <g
         id="patch_6">
        <path
           d="m 320.06733,252 h 25.08492 V 49.895171 h -25.08492 z"
           clip-path="url(#p41c48ff322)"
           style="fill:#008000"
           id="path23" />
      </g>
      <g
         id="matplotlib.axis_1">
        <g
           id="xtick_1">
          <g
             id="line2d_1">
            <defs
               id="defs27">
              <path
                 id="m4842c59b8f"
                 d="M 0,0 V 3.5"
                 style="stroke:#000000;stroke-width:0.8" />
            </defs>
            <g
               id="g31">
              <use
                 xlink:href="#m4842c59b8f"
                 x="95.975426"
                 y="252"
                 style="stroke:#000000;stroke-width:0.8"
                 id="use29"
                 width="100%"
                 height="100%" />
            </g>
          </g>
          <g
             id="text_1">
            <!-- ESN1 -->
            <g
               transform="matrix(0.07071068,-0.07071068,-0.07071068,-0.07071068,88.553566,283.11897)"
               id="g48">
              <defs
                 id="defs38">
                <path
                   id="DejaVuSans-45"
                   d="M 628,4666 H 3578 V 4134 H 1259 V 2753 H 3481 V 2222 H 1259 V 531 H 3634 V 0 H 628 Z"
                   transform="scale(0.015625)" />
                <path
                   id="DejaVuSans-53"
                   d="m 3425,4513 v -616 q -359,172 -678,256 -319,85 -616,85 -515,0 -795,-200 -280,-200 -280,-569 0,-310 186,-468 186,-157 705,-254 l 381,-78 q 706,-135 1042,-474 336,-339 336,-907 0,-679 -455,-1029 -454,-350 -1332,-350 -331,0 -705,75 -373,75 -773,222 v 650 q 384,-215 753,-325 369,-109 725,-109 540,0 834,212 294,213 294,607 0,343 -211,537 -211,194 -692,291 l -385,75 q -706,140 -1022,440 -315,300 -315,835 0,619 436,975 436,356 1201,356 329,0 669,-60 341,-59 697,-177 z"
                   transform="scale(0.015625)" />
                <path
                   id="DejaVuSans-4e"
                   d="m 628,4666 h 850 L 3547,763 v 3903 h 612 V 0 H 3309 L 1241,3903 V 0 H 628 Z"
                   transform="scale(0.015625)" />
                <path
                   id="DejaVuSans-31"
                   d="M 794,531 H 1825 V 4091 L 703,3866 v 575 l 1116,225 h 631 V 531 H 3481 V 0 H 794 Z"
                   transform="scale(0.015625)" />
              </defs>
              <use
                 xlink:href="#DejaVuSans-45"
                 id="use40"
                 x="0"
                 y="0"
                 width="100%"
                 height="100%" />
              <use
                 xlink:href="#DejaVuSans-53"
                 x="63.183594"
                 id="use42"
                 y="0"
                 width="100%"
                 height="100%" />
              <use
                 xlink:href="#DejaVuSans-4e"
                 x="126.66016"
                 id="use44"
                 y="0"
                 width="100%"
                 height="100%" />
              <use
                 xlink:href="#DejaVuSans-31"
                 x="201.46484"
                 id="use46"
                 y="0"
                 width="100%"
                 height="100%" />
            </g>
          </g>
        </g>
        <g
           id="xtick_2">
          <g
             id="line2d_2">
            <g
               id="g54">
              <use
                 xlink:href="#m4842c59b8f"
                 x="179.59181"
                 y="252"
                 style="stroke:#000000;stroke-width:0.8"
                 id="use52"
                 width="100%"
                 height="100%" />
            </g>
          </g>
          <g
             id="text_2">
            <!-- ESN2 -->
            <g
               transform="matrix(0.07071068,-0.07071068,-0.07071068,-0.07071068,172.16995,283.11897)"
               id="g68">
              <defs
                 id="defs58">
                <path
                   id="DejaVuSans-32"
                   d="M 1228,531 H 3431 V 0 H 469 v 531 q 359,372 979,998 621,627 780,809 303,340 423,576 121,236 121,464 0,372 -261,606 -261,235 -680,235 -297,0 -627,-103 -329,-103 -704,-313 v 638 q 381,153 712,231 332,78 607,78 725,0 1156,-363 431,-362 431,-968 0,-288 -108,-546 -107,-257 -392,-607 -78,-91 -497,-524 Q 1991,1309 1228,531 Z"
                   transform="scale(0.015625)" />
              </defs>
              <use
                 xlink:href="#DejaVuSans-45"
                 id="use60"
                 x="0"
                 y="0"
                 width="100%"
                 height="100%" />
              <use
                 xlink:href="#DejaVuSans-53"
                 x="63.183594"
                 id="use62"
                 y="0"
                 width="100%"
                 height="100%" />
              <use
                 xlink:href="#DejaVuSans-4e"
                 x="126.66016"
                 id="use64"
                 y="0"
                 width="100%"
                 height="100%" />
              <use
                 xlink:href="#DejaVuSans-32"
                 x="201.46484"
                 id="use66"
                 y="0"
                 width="100%"
                 height="100%" />
            </g>
          </g>
        </g>
        <g
           id="xtick_3">
          <g
             id="line2d_3">
            <g
               id="g74">
              <use
                 xlink:href="#m4842c59b8f"
                 x="263.20819"
                 y="252"
                 style="stroke:#000000;stroke-width:0.8"
                 id="use72"
                 width="100%"
                 height="100%" />
            </g>
          </g>
          <g
             id="text_3">
            <!-- ESN3 -->
            <g
               transform="matrix(0.07071068,-0.07071068,-0.07071068,-0.07071068,255.78633,283.11897)"
               id="g88">
              <defs
                 id="defs78">
                <path
                   id="DejaVuSans-33"
                   d="m 2597,2516 q 453,-97 707,-404 255,-306 255,-756 0,-690 -475,-1069 -475,-378 -1350,-378 -293,0 -604,58 -311,58 -642,174 v 609 q 262,-153 574,-231 313,-78 654,-78 593,0 904,234 311,234 311,681 0,413 -289,645 -289,233 -804,233 h -544 v 519 h 569 q 465,0 712,186 247,186 247,536 0,359 -255,551 -254,193 -729,193 -260,0 -557,-57 -297,-56 -653,-174 v 562 q 360,100 674,150 314,50 592,50 719,0 1137,-327 419,-326 419,-882 0,-388 -222,-655 -222,-267 -631,-370 z"
                   transform="scale(0.015625)" />
              </defs>
              <use
                 xlink:href="#DejaVuSans-45"
                 id="use80"
                 x="0"
                 y="0"
                 width="100%"
                 height="100%" />
              <use
                 xlink:href="#DejaVuSans-53"
                 x="63.183594"
                 id="use82"
                 y="0"
                 width="100%"
                 height="100%" />
              <use
                 xlink:href="#DejaVuSans-4e"
                 x="126.66016"
                 id="use84"
                 y="0"
                 width="100%"
                 height="100%" />
              <use
                 xlink:href="#DejaVuSans-33"
                 x="201.46484"
                 id="use86"
                 y="0"
                 width="100%"
                 height="100%" />
            </g>
          </g>
        </g>
        <g
           id="xtick_4">
          <g
             id="line2d_4">
            <g
               id="g94">
              <use
                 xlink:href="#m4842c59b8f"
                 x="346.82458"
                 y="252"
                 style="stroke:#000000;stroke-width:0.8"
                 id="use92"
                 width="100%"
                 height="100%" />
            </g>
          </g>
          <g
             id="text_4">
            <!-- ESN4 -->
            <g
               transform="matrix(0.07071068,-0.07071068,-0.07071068,-0.07071068,339.40272,283.11897)"
               id="g108">
              <defs
                 id="defs98">
                <path
                   id="DejaVuSans-34"
                   d="M 2419,4116 825,1625 h 1594 z m -166,550 h 794 V 1625 h 666 V 1100 H 3047 V 0 H 2419 V 1100 H 313 v 609 z"
                   transform="scale(0.015625)" />
              </defs>
              <use
                 xlink:href="#DejaVuSans-45"
                 id="use100"
                 x="0"
                 y="0"
                 width="100%"
                 height="100%" />
              <use
                 xlink:href="#DejaVuSans-53"
                 x="63.183594"
                 id="use102"
                 y="0"
                 width="100%"
                 height="100%" />
              <use
                 xlink:href="#DejaVuSans-4e"
                 x="126.66016"
                 id="use104"
                 y="0"
                 width="100%"
                 height="100%" />
              <use
                 xlink:href="#DejaVuSans-34"
                 x="201.46484"
                 id="use106"
                 y="0"
                 width="100%"
                 height="100%" />
            </g>
          </g>
        </g>
      </g>
      <g
         id="matplotlib.axis_2">
        <g
           id="ytick_1">
          <g
             id="line2d_5">
            <defs
               id="defs114">
              <path
                 id="me0f6da2925"
                 d="M 0,0 H -3.5"
                 style="stroke:#000000;stroke-width:0.8" />
            </defs>
            <g
               id="g118">
              <use
                 xlink:href="#me0f6da2925"
                 x="54"
                 y="252"
                 style="stroke:#000000;stroke-width:0.8"
                 id="use116"
                 width="100%"
                 height="100%" />
            </g>
          </g>
          <g
             id="text_5">
            <!-- 0.0 -->
            <g
               transform="matrix(0.1,0,0,-0.1,31.096875,255.79922)"
               id="g131">
              <defs
                 id="defs123">
                <path
                   id="DejaVuSans-30"
                   d="m 2034,4250 q -487,0 -733,-480 -245,-479 -245,-1442 0,-959 245,-1439 246,-480 733,-480 491,0 736,480 246,480 246,1439 0,963 -246,1442 -245,480 -736,480 z m 0,500 q 785,0 1199,-621 414,-620 414,-1801 0,-1178 -414,-1799 -414,-620 -1199,-620 -784,0 -1198,620 -414,621 -414,1799 0,1181 414,1801 414,621 1198,621 z"
                   transform="scale(0.015625)" />
                <path
                   id="DejaVuSans-2e"
                   d="m 684,794 h 660 V 0 H 684 Z"
                   transform="scale(0.015625)" />
              </defs>
              <use
                 xlink:href="#DejaVuSans-30"
                 id="use125"
                 x="0"
                 y="0"
                 width="100%"
                 height="100%" />
              <use
                 xlink:href="#DejaVuSans-2e"
                 x="63.623047"
                 id="use127"
                 y="0"
                 width="100%"
                 height="100%" />
              <use
                 xlink:href="#DejaVuSans-30"
                 x="95.410156"
                 id="use129"
                 y="0"
                 width="100%"
                 height="100%" />
            </g>
          </g>
        </g>
        <g
           id="ytick_2">
          <g
             id="line2d_6">
            <g
               id="g137">
              <use
                 xlink:href="#me0f6da2925"
                 x="54"
                 y="207.55551"
                 style="stroke:#000000;stroke-width:0.8"
                 id="use135"
                 width="100%"
                 height="100%" />
            </g>
          </g>
          <g
             id="text_6">
            <!-- 0.2 -->
            <g
               transform="matrix(0.1,0,0,-0.1,31.096875,211.35473)"
               id="g146">
              <use
                 xlink:href="#DejaVuSans-30"
                 id="use140"
                 x="0"
                 y="0"
                 width="100%"
                 height="100%" />
              <use
                 xlink:href="#DejaVuSans-2e"
                 x="63.623047"
                 id="use142"
                 y="0"
                 width="100%"
                 height="100%" />
              <use
                 xlink:href="#DejaVuSans-32"
                 x="95.410156"
                 id="use144"
                 y="0"
                 width="100%"
                 height="100%" />
            </g>
          </g>
        </g>
        <g
           id="ytick_3">
          <g
             id="line2d_7">
            <g
               id="g152">
              <use
                 xlink:href="#me0f6da2925"
                 x="54"
                 y="163.11101"
                 style="stroke:#000000;stroke-width:0.8"
                 id="use150"
                 width="100%"
                 height="100%" />
            </g>
          </g>
          <g
             id="text_7">
            <!-- 0.4 -->
            <g
               transform="matrix(0.1,0,0,-0.1,31.096875,166.91023)"
               id="g161">
              <use
                 xlink:href="#DejaVuSans-30"
                 id="use155"
                 x="0"
                 y="0"
                 width="100%"
                 height="100%" />
              <use
                 xlink:href="#DejaVuSans-2e"
                 x="63.623047"
                 id="use157"
                 y="0"
                 width="100%"
                 height="100%" />
              <use
                 xlink:href="#DejaVuSans-34"
                 x="95.410156"
                 id="use159"
                 y="0"
                 width="100%"
                 height="100%" />
            </g>
          </g>
        </g>
        <g
           id="ytick_4">
          <g
             id="line2d_8">
            <g
               id="g167">
              <use
                 xlink:href="#me0f6da2925"
                 x="54"
                 y="118.66653"
                 style="stroke:#000000;stroke-width:0.8"
                 id="use165"
                 width="100%"
                 height="100%" />
            </g>
          </g>
          <g
             id="text_8">
            <!-- 0.6 -->
            <g
               transform="matrix(0.1,0,0,-0.1,31.096875,122.46574)"
               id="g179">
              <defs
                 id="defs171">
                <path
                   id="DejaVuSans-36"
                   d="m 2113,2584 q -425,0 -674,-291 -248,-290 -248,-796 0,-503 248,-796 249,-292 674,-292 425,0 673,292 248,293 248,796 0,506 -248,796 -248,291 -673,291 z m 1253,1979 v -575 q -238,112 -480,171 -242,60 -480,60 -625,0 -955,-422 -329,-422 -376,-1275 184,272 462,417 279,145 613,145 703,0 1111,-427 408,-426 408,-1160 0,-719 -425,-1154 -425,-434 -1131,-434 -810,0 -1238,620 -428,621 -428,1799 0,1106 525,1764 525,658 1409,658 238,0 480,-47 242,-47 505,-140 z"
                   transform="scale(0.015625)" />
              </defs>
              <use
                 xlink:href="#DejaVuSans-30"
                 id="use173"
                 x="0"
                 y="0"
                 width="100%"
                 height="100%" />
              <use
                 xlink:href="#DejaVuSans-2e"
                 x="63.623047"
                 id="use175"
                 y="0"
                 width="100%"
                 height="100%" />
              <use
                 xlink:href="#DejaVuSans-36"
                 x="95.410156"
                 id="use177"
                 y="0"
                 width="100%"
                 height="100%" />
            </g>
          </g>
        </g>
        <g
           id="ytick_5">
          <g
             id="line2d_9">
            <g
               id="g185">
              <use
                 xlink:href="#me0f6da2925"
                 x="54"
                 y="74.222031"
                 style="stroke:#000000;stroke-width:0.8"
                 id="use183"
                 width="100%"
                 height="100%" />
            </g>
          </g>
          <g
             id="text_9">
            <!-- 0.8 -->
            <g
               transform="matrix(0.1,0,0,-0.1,31.096875,78.021249)"
               id="g197">
              <defs
                 id="defs189">
                <path
                   id="DejaVuSans-38"
                   d="m 2034,2216 q -450,0 -708,-241 -257,-241 -257,-662 0,-422 257,-663 258,-241 708,-241 450,0 709,242 260,243 260,662 0,421 -258,662 -257,241 -711,241 z m -631,268 q -406,100 -633,378 -226,279 -226,679 0,559 398,884 399,325 1092,325 697,0 1094,-325 397,-325 397,-884 0,-400 -227,-679 -226,-278 -629,-378 456,-106 710,-416 255,-309 255,-755 Q 3634,634 3220,271 2806,-91 2034,-91 1263,-91 848,271 434,634 434,1313 q 0,446 256,755 257,310 713,416 z m -231,997 q 0,-362 226,-565 227,-203 636,-203 407,0 636,203 230,203 230,565 0,363 -230,566 -229,203 -636,203 -409,0 -636,-203 -226,-203 -226,-566 z"
                   transform="scale(0.015625)" />
              </defs>
              <use
                 xlink:href="#DejaVuSans-30"
                 id="use191"
                 x="0"
                 y="0"
                 width="100%"
                 height="100%" />
              <use
                 xlink:href="#DejaVuSans-2e"
                 x="63.623047"
                 id="use193"
                 y="0"
                 width="100%"
                 height="100%" />
              <use
                 xlink:href="#DejaVuSans-38"
                 x="95.410156"
                 id="use195"
                 y="0"
                 width="100%"
                 height="100%" />
            </g>
          </g>
        </g>
      </g>
      <g
         id="LineCollection_1">
        <path
           d="M 81.760639,69.565283 V 59.070649"
           clip-path="url(#p41c48ff322)"
           style="fill:none;stroke:#000000;stroke-width:1.5"
           id="path202" />
        <path
           d="M 165.37702,55.010589 V 51.341193"
           clip-path="url(#p41c48ff322)"
           style="fill:none;stroke:#000000;stroke-width:1.5"
           id="path204" />
        <path
           d="M 248.99341,49.924017 V 44.914286"
           clip-path="url(#p41c48ff322)"
           style="fill:none;stroke:#000000;stroke-width:1.5"
           id="path206" />
        <path
           d="M 332.60979,54.401589 V 45.388753"
           clip-path="url(#p41c48ff322)"
           style="fill:none;stroke:#000000;stroke-width:1.5"
           id="path208" />
      </g>
      <g
         id="patch_7">
        <path
           d="M 54,252 V 34.56"
           style="fill:none;stroke:#000000;stroke-width:0.8;stroke-linecap:square;stroke-linejoin:miter"
           id="path211" />
      </g>
      <g
         id="patch_8">
        <path
           d="M 388.8,252 V 34.56"
           style="fill:none;stroke:#000000;stroke-width:0.8;stroke-linecap:square;stroke-linejoin:miter"
           id="path214" />
      </g>
      <g
         id="patch_9">
        <path
           d="M 54,252 H 388.8"
           style="fill:none;stroke:#000000;stroke-width:0.8;stroke-linecap:square;stroke-linejoin:miter"
           id="path217" />
      </g>
      <g
         id="patch_10">
        <path
           d="M 54,34.56 H 388.8"
           style="fill:none;stroke:#000000;stroke-width:0.8;stroke-linecap:square;stroke-linejoin:miter"
           id="path220" />
      </g>
      <g
         id="text_10">
        <!-- ESNs with 100 units. -->
        <g
           transform="matrix(0.12,0,0,-0.12,159.62719,28.56)"
           id="g273">
          <defs
             id="defs231">
            <path
               id="DejaVuSans-73"
               d="m 2834,3397 v -544 q -243,125 -506,187 -262,63 -544,63 -428,0 -642,-131 -214,-131 -214,-394 0,-200 153,-314 153,-114 616,-217 l 197,-44 q 612,-131 870,-370 258,-239 258,-667 0,-488 -386,-773 Q 2250,-91 1575,-91 1294,-91 989,-36 684,19 347,128 v 594 q 319,-166 628,-249 309,-82 613,-82 406,0 624,139 219,139 219,392 0,234 -158,359 -157,125 -692,241 l -200,47 q -534,112 -772,345 -237,233 -237,639 0,494 350,762 350,269 994,269 318,0 599,-47 282,-46 519,-140 z"
               transform="scale(0.015625)" />
            <path
               id="DejaVuSans-20"
               transform="scale(0.015625)"
               d="" />
            <path
               id="DejaVuSans-77"
               d="m 269,3500 h 575 l 719,-2731 715,2731 h 678 l 719,-2731 716,2731 h 575 L 4050,0 H 3372 L 2619,2869 1863,0 h -679 z"
               transform="scale(0.015625)" />
            <path
               id="DejaVuSans-69"
               d="m 603,3500 h 575 V 0 H 603 Z m 0,1363 h 575 V 4134 H 603 Z"
               transform="scale(0.015625)" />
            <path
               id="DejaVuSans-74"
               d="M 1172,4494 V 3500 H 2356 V 3053 H 1172 V 1153 q 0,-428 117,-550 117,-122 477,-122 h 590 V 0 H 1766 Q 1100,0 847,248 594,497 594,1153 V 3053 H 172 v 447 h 422 v 994 z"
               transform="scale(0.015625)" />
            <path
               id="DejaVuSans-68"
               d="M 3513,2113 V 0 h -575 v 2094 q 0,497 -194,743 -194,247 -581,247 -466,0 -735,-297 -269,-296 -269,-809 V 0 H 581 v 4863 h 578 V 2956 q 207,316 486,472 280,156 646,156 603,0 912,-373 310,-373 310,-1098 z"
               transform="scale(0.015625)" />
            <path
               id="DejaVuSans-75"
               d="m 544,1381 v 2119 h 575 V 1403 q 0,-497 193,-746 194,-248 582,-248 465,0 735,297 271,297 271,810 v 1984 h 575 V 0 H 2900 V 538 Q 2691,219 2414,64 2138,-91 1772,-91 1169,-91 856,284 544,659 544,1381 Z m 1447,2203 z"
               transform="scale(0.015625)" />
            <path
               id="DejaVuSans-6e"
               d="M 3513,2113 V 0 h -575 v 2094 q 0,497 -194,743 -194,247 -581,247 -466,0 -735,-297 -269,-296 -269,-809 V 0 H 581 v 3500 h 578 v -544 q 207,316 486,472 280,156 646,156 603,0 912,-373 310,-373 310,-1098 z"
               transform="scale(0.015625)" />
          </defs>
          <use
             xlink:href="#DejaVuSans-45"
             id="use233"
             x="0"
             y="0"
             width="100%"
             height="100%" />
          <use
             xlink:href="#DejaVuSans-53"
             x="63.183594"
             id="use235"
             y="0"
             width="100%"
             height="100%" />
          <use
             xlink:href="#DejaVuSans-4e"
             x="126.66016"
             id="use237"
             y="0"
             width="100%"
             height="100%" />
          <use
             xlink:href="#DejaVuSans-73"
             x="201.46484"
             id="use239"
             y="0"
             width="100%"
             height="100%" />
          <use
             xlink:href="#DejaVuSans-20"
             x="253.56445"
             id="use241"
             y="0"
             width="100%"
             height="100%" />
          <use
             xlink:href="#DejaVuSans-77"
             x="285.35156"
             id="use243"
             y="0"
             width="100%"
             height="100%" />
          <use
             xlink:href="#DejaVuSans-69"
             x="367.13867"
             id="use245"
             y="0"
             width="100%"
             height="100%" />
          <use
             xlink:href="#DejaVuSans-74"
             x="394.92188"
             id="use247"
             y="0"
             width="100%"
             height="100%" />
          <use
             xlink:href="#DejaVuSans-68"
             x="434.13086"
             id="use249"
             y="0"
             width="100%"
             height="100%" />
          <use
             xlink:href="#DejaVuSans-20"
             x="497.50977"
             id="use251"
             y="0"
             width="100%"
             height="100%" />
          <use
             xlink:href="#DejaVuSans-31"
             x="529.29688"
             id="use253"
             y="0"
             width="100%"
             height="100%" />
          <use
             xlink:href="#DejaVuSans-30"
             x="592.91992"
             id="use255"
             y="0"
             width="100%"
             height="100%" />
          <use
             xlink:href="#DejaVuSans-30"
             x="656.54297"
             id="use257"
             y="0"
             width="100%"
             height="100%" />
          <use
             xlink:href="#DejaVuSans-20"
             x="720.16602"
             id="use259"
             y="0"
             width="100%"
             height="100%" />
          <use
             xlink:href="#DejaVuSans-75"
             x="751.95312"
             id="use261"
             y="0"
             width="100%"
             height="100%" />
          <use
             xlink:href="#DejaVuSans-6e"
             x="815.33203"
             id="use263"
             y="0"
             width="100%"
             height="100%" />
          <use
             xlink:href="#DejaVuSans-69"
             x="878.71094"
             id="use265"
             y="0"
             width="100%"
             height="100%" />
          <use
             xlink:href="#DejaVuSans-74"
             x="906.49414"
             id="use267"
             y="0"
             width="100%"
             height="100%" />
          <use
             xlink:href="#DejaVuSans-73"
             x="945.70312"
             id="use269"
             y="0"
             width="100%"
             height="100%" />
          <use
             xlink:href="#DejaVuSans-2e"
             x="997.80273"
             id="use271"
             y="0"
             width="100%"
             height="100%" />
        </g>
      </g>
    </g>
    <g
       id="axes_2"
       transform="matrix(1.0750852,0,0,1.0750852,-20.633308,-17.97627)">
      <g
         id="patch_11">
        <path
           d="M 97.647752,252 H 122.73267 V 150.20328 H 97.647752 Z"
           clip-path="url(#p41c48ff322)"
           style="fill:#ff0000"
           id="path277" />
      </g>
      <g
         id="patch_12">
        <path
           d="m 181.26414,252 h 25.08491 v -95.51985 h -25.08491 z"
           clip-path="url(#p41c48ff322)"
           style="fill:#ff0000"
           id="path280" />
      </g>
      <g
         id="patch_13">
        <path
           d="m 264.88052,252 h 25.08492 V 65.282613 h -25.08492 z"
           clip-path="url(#p41c48ff322)"
           style="fill:#ff0000"
           id="path283" />
      </g>
      <g
         id="patch_14">
        <path
           d="m 348.4969,252 h 25.08492 V 186.94874 H 348.4969 Z"
           clip-path="url(#p41c48ff322)"
           style="fill:#ff0000"
           id="path286" />
      </g>
      <g
         id="matplotlib.axis_3">
        <g
           id="ytick_6">
          <g
             id="line2d_10">
            <defs
               id="defs290">
              <path
                 id="me2d8f656d5"
                 d="M 0,0 H 3.5"
                 style="stroke:#000000;stroke-width:0.8" />
            </defs>
            <g
               id="g294">
              <use
                 xlink:href="#me2d8f656d5"
                 x="388.79999"
                 y="252"
                 style="stroke:#000000;stroke-width:0.8"
                 id="use292"
                 width="100%"
                 height="100%" />
            </g>
          </g>
          <g
             id="text_11">
            <!-- 0 -->
            <g
               transform="matrix(0.1,0,0,-0.1,395.8,255.79922)"
               id="g299">
              <use
                 xlink:href="#DejaVuSans-30"
                 id="use297"
                 x="0"
                 y="0"
                 width="100%"
                 height="100%" />
            </g>
          </g>
        </g>
        <g
           id="ytick_7">
          <g
             id="line2d_11">
            <g
               id="g305">
              <use
                 xlink:href="#me2d8f656d5"
                 x="388.79999"
                 y="224.19615"
                 style="stroke:#000000;stroke-width:0.8"
                 id="use303"
                 width="100%"
                 height="100%" />
            </g>
          </g>
          <g
             id="text_12">
            <!-- 2 -->
            <g
               transform="matrix(0.1,0,0,-0.1,395.8,227.99537)"
               id="g310">
              <use
                 xlink:href="#DejaVuSans-32"
                 id="use308"
                 x="0"
                 y="0"
                 width="100%"
                 height="100%" />
            </g>
          </g>
        </g>
        <g
           id="ytick_8">
          <g
             id="line2d_12">
            <g
               id="g316">
              <use
                 xlink:href="#me2d8f656d5"
                 x="388.79999"
                 y="196.39229"
                 style="stroke:#000000;stroke-width:0.8"
                 id="use314"
                 width="100%"
                 height="100%" />
            </g>
          </g>
          <g
             id="text_13">
            <!-- 4 -->
            <g
               transform="matrix(0.1,0,0,-0.1,395.8,200.19151)"
               id="g321">
              <use
                 xlink:href="#DejaVuSans-34"
                 id="use319"
                 x="0"
                 y="0"
                 width="100%"
                 height="100%" />
            </g>
          </g>
        </g>
        <g
           id="ytick_9">
          <g
             id="line2d_13">
            <g
               id="g327">
              <use
                 xlink:href="#me2d8f656d5"
                 x="388.79999"
                 y="168.58844"
                 style="stroke:#000000;stroke-width:0.8"
                 id="use325"
                 width="100%"
                 height="100%" />
            </g>
          </g>
          <g
             id="text_14">
            <!-- 6 -->
            <g
               transform="matrix(0.1,0,0,-0.1,395.8,172.38766)"
               id="g332">
              <use
                 xlink:href="#DejaVuSans-36"
                 id="use330"
                 x="0"
                 y="0"
                 width="100%"
                 height="100%" />
            </g>
          </g>
        </g>
        <g
           id="ytick_10">
          <g
             id="line2d_14">
            <g
               id="g338">
              <use
                 xlink:href="#me2d8f656d5"
                 x="388.79999"
                 y="140.78459"
                 style="stroke:#000000;stroke-width:0.8"
                 id="use336"
                 width="100%"
                 height="100%" />
            </g>
          </g>
          <g
             id="text_15">
            <!-- 8 -->
            <g
               transform="matrix(0.1,0,0,-0.1,395.8,144.58381)"
               id="g343">
              <use
                 xlink:href="#DejaVuSans-38"
                 id="use341"
                 x="0"
                 y="0"
                 width="100%"
                 height="100%" />
            </g>
          </g>
        </g>
        <g
           id="ytick_11">
          <g
             id="line2d_15">
            <g
               id="g349">
              <use
                 xlink:href="#me2d8f656d5"
                 x="388.79999"
                 y="112.98074"
                 style="stroke:#000000;stroke-width:0.8"
                 id="use347"
                 width="100%"
                 height="100%" />
            </g>
          </g>
          <g
             id="text_16">
            <!-- 10 -->
            <g
               transform="matrix(0.1,0,0,-0.1,395.8,116.77996)"
               id="g356">
              <use
                 xlink:href="#DejaVuSans-31"
                 id="use352"
                 x="0"
                 y="0"
                 width="100%"
                 height="100%" />
              <use
                 xlink:href="#DejaVuSans-30"
                 x="63.623047"
                 id="use354"
                 y="0"
                 width="100%"
                 height="100%" />
            </g>
          </g>
        </g>
        <g
           id="ytick_12">
          <g
             id="line2d_16">
            <g
               id="g362">
              <use
                 xlink:href="#me2d8f656d5"
                 x="388.79999"
                 y="85.17688"
                 style="stroke:#000000;stroke-width:0.8"
                 id="use360"
                 width="100%"
                 height="100%" />
            </g>
          </g>
          <g
             id="text_17">
            <!-- 12 -->
            <g
               transform="matrix(0.1,0,0,-0.1,395.8,88.976102)"
               id="g369">
              <use
                 xlink:href="#DejaVuSans-31"
                 id="use365"
                 x="0"
                 y="0"
                 width="100%"
                 height="100%" />
              <use
                 xlink:href="#DejaVuSans-32"
                 x="63.623047"
                 id="use367"
                 y="0"
                 width="100%"
                 height="100%" />
            </g>
          </g>
        </g>
        <g
           id="ytick_13">
          <g
             id="line2d_17">
            <g
               id="g375">
              <use
                 xlink:href="#me2d8f656d5"
                 x="388.79999"
                 y="57.373032"
                 style="stroke:#000000;stroke-width:0.8"
                 id="use373"
                 width="100%"
                 height="100%" />
            </g>
          </g>
          <g
             id="text_18">
            <!-- 14 -->
            <g
               transform="matrix(0.1,0,0,-0.1,395.8,61.172249)"
               id="g382">
              <use
                 xlink:href="#DejaVuSans-31"
                 id="use378"
                 x="0"
                 y="0"
                 width="100%"
                 height="100%" />
              <use
                 xlink:href="#DejaVuSans-34"
                 x="63.623047"
                 id="use380"
                 y="0"
                 width="100%"
                 height="100%" />
            </g>
          </g>
        </g>
      </g>
      <g
         id="LineCollection_2">
        <path
           d="M 110.19021,157.16156 V 143.24499"
           clip-path="url(#p41c48ff322)"
           style="fill:none;stroke:#000000;stroke-width:1.5"
           id="path387" />
        <path
           d="M 193.80659,168.24749 V 144.7128"
           clip-path="url(#p41c48ff322)"
           style="fill:none;stroke:#000000;stroke-width:1.5"
           id="path389" />
        <path
           d="M 277.42298,85.65094 V 44.914286"
           clip-path="url(#p41c48ff322)"
           style="fill:none;stroke:#000000;stroke-width:1.5"
           id="path391" />
        <path
           d="M 361.03936,198.8906 V 175.00688"
           clip-path="url(#p41c48ff322)"
           style="fill:none;stroke:#000000;stroke-width:1.5"
           id="path393" />
      </g>
      <g
         id="patch_15">
        <path
           d="M 54,252 V 34.56"
           style="fill:none;stroke:#000000;stroke-width:0.8;stroke-linecap:square;stroke-linejoin:miter"
           id="path396" />
      </g>
      <g
         id="patch_16">
        <path
           d="M 388.8,252 V 34.56"
           style="fill:none;stroke:#000000;stroke-width:0.8;stroke-linecap:square;stroke-linejoin:miter"
           id="path399" />
      </g>
      <g
         id="patch_17">
        <path
           d="M 54,252 H 388.8"
           style="fill:none;stroke:#000000;stroke-width:0.8;stroke-linecap:square;stroke-linejoin:miter"
           id="path402" />
      </g>
      <g
         id="patch_18">
        <path
           d="M 54,34.56 H 388.8"
           style="fill:none;stroke:#000000;stroke-width:0.8;stroke-linecap:square;stroke-linejoin:miter"
           id="path405" />
      </g>
      <g
         id="legend_1">
        <g
           id="patch_19">
          <path
             d="m 180.52109,247 h 81.75782 q 2,0 2,-2 v -28.35625 q 0,-2 -2,-2 h -81.75782 q -2,0 -2,2 V 245 q 0,2 2,2 z"
             style="opacity:0.8;fill:#ffffff;stroke:#cccccc;stroke-linejoin:miter"
             id="path408" />
        </g>
        <g
           id="patch_20">
          <path
             d="m 182.52109,226.24219 h 20 v -7 h -20 z"
             style="fill:#008000"
             id="path411" />
        </g>
        <g
           id="text_19">
          <!-- Accuracy -->
          <g
             transform="matrix(0.1,0,0,-0.1,210.52109,226.24219)"
             id="g437">
            <defs
               id="defs419">
              <path
                 id="DejaVuSans-41"
                 d="M 2188,4044 1331,1722 h 1716 z m -357,622 h 716 L 4325,0 H 3669 L 3244,1197 H 1141 L 716,0 H 50 Z"
                 transform="scale(0.015625)" />
              <path
                 id="DejaVuSans-63"
                 d="m 3122,3366 v -538 q -244,135 -489,202 -245,67 -495,67 -560,0 -870,-355 -309,-354 -309,-995 0,-641 309,-996 310,-354 870,-354 250,0 495,67 245,67 489,202 V 134 Q 2881,22 2623,-34 2366,-91 2075,-91 1284,-91 818,406 353,903 353,1747 q 0,856 470,1346 471,491 1290,491 265,0 518,-55 253,-54 491,-163 z"
                 transform="scale(0.015625)" />
              <path
                 id="DejaVuSans-72"
                 d="m 2631,2963 q -97,56 -211,82 -114,27 -251,27 -488,0 -749,-317 -261,-317 -261,-911 V 0 H 581 v 3500 h 578 v -544 q 182,319 472,473 291,155 707,155 59,0 131,-8 72,-7 159,-23 z"
                 transform="scale(0.015625)" />
              <path
                 id="DejaVuSans-61"
                 d="m 2194,1759 q -697,0 -966,-159 -269,-159 -269,-544 0,-306 202,-486 202,-179 548,-179 479,0 768,339 289,339 289,901 v 128 z m 1147,238 V 0 H 2766 V 531 Q 2569,213 2275,61 1981,-91 1556,-91 q -537,0 -855,302 -317,302 -317,808 0,590 395,890 396,300 1180,300 h 807 v 57 q 0,397 -261,614 -261,217 -733,217 -300,0 -585,-72 -284,-72 -546,-216 v 532 q 315,122 612,182 297,61 578,61 760,0 1135,-394 375,-393 375,-1193 z"
                 transform="scale(0.015625)" />
              <path
                 id="DejaVuSans-79"
                 d="m 2059,-325 q -243,-625 -475,-815 -231,-191 -618,-191 H 506 v 481 h 338 q 237,0 368,113 132,112 291,531 L 1606,56 191,3500 H 800 L 1894,763 2988,3500 h 609 z"
                 transform="scale(0.015625)" />
            </defs>
            <use
               xlink:href="#DejaVuSans-41"
               id="use421"
               x="0"
               y="0"
               width="100%"
               height="100%" />
            <use
               xlink:href="#DejaVuSans-63"
               x="66.658203"
               id="use423"
               y="0"
               width="100%"
               height="100%" />
            <use
               xlink:href="#DejaVuSans-63"
               x="121.63867"
               id="use425"
               y="0"
               width="100%"
               height="100%" />
            <use
               xlink:href="#DejaVuSans-75"
               x="176.61914"
               id="use427"
               y="0"
               width="100%"
               height="100%" />
            <use
               xlink:href="#DejaVuSans-72"
               x="239.99805"
               id="use429"
               y="0"
               width="100%"
               height="100%" />
            <use
               xlink:href="#DejaVuSans-61"
               x="281.11133"
               id="use431"
               y="0"
               width="100%"
               height="100%" />
            <use
               xlink:href="#DejaVuSans-63"
               x="342.39062"
               id="use433"
               y="0"
               width="100%"
               height="100%" />
            <use
               xlink:href="#DejaVuSans-79"
               x="397.37109"
               id="use435"
               y="0"
               width="100%"
               height="100%" />
          </g>
        </g>
        <g
           id="patch_21">
          <path
             d="m 182.52109,240.92031 h 20 v -7 h -20 z"
             style="fill:#ff0000"
             id="path440" />
        </g>
        <g
           id="text_20">
          <!-- Train time -->
          <g
             transform="matrix(0.1,0,0,-0.1,210.52109,240.92031)"
             id="g468">
            <defs
               id="defs446">
              <path
                 id="DejaVuSans-54"
                 d="M -19,4666 H 3928 V 4134 H 2272 V 0 H 1638 V 4134 H -19 Z"
                 transform="scale(0.015625)" />
              <path
                 id="DejaVuSans-6d"
                 d="m 3328,2828 q 216,388 516,572 300,184 706,184 547,0 844,-383 297,-382 297,-1088 V 0 h -578 v 2094 q 0,503 -179,746 -178,244 -543,244 -447,0 -707,-297 -259,-296 -259,-809 V 0 h -578 v 2094 q 0,506 -178,748 -178,242 -550,242 -441,0 -701,-298 -259,-298 -259,-808 V 0 H 581 v 3500 h 578 v -544 q 197,322 472,475 275,153 653,153 382,0 649,-194 267,-193 395,-562 z"
                 transform="scale(0.015625)" />
              <path
                 id="DejaVuSans-65"
                 d="M 3597,1894 V 1613 H 953 q 38,-594 358,-905 320,-311 892,-311 331,0 642,81 311,81 618,244 V 178 Q 3153,47 2828,-22 2503,-91 2169,-91 1331,-91 842,396 353,884 353,1716 q 0,859 464,1363 464,505 1252,505 706,0 1117,-455 411,-454 411,-1235 z m -575,169 q -6,471 -264,752 -258,282 -683,282 -481,0 -770,-272 -289,-272 -333,-766 z"
                 transform="scale(0.015625)" />
            </defs>
            <use
               xlink:href="#DejaVuSans-54"
               id="use448"
               x="0"
               y="0"
               width="100%"
               height="100%" />
            <use
               xlink:href="#DejaVuSans-72"
               x="46.333984"
               id="use450"
               y="0"
               width="100%"
               height="100%" />
            <use
               xlink:href="#DejaVuSans-61"
               x="87.447266"
               id="use452"
               y="0"
               width="100%"
               height="100%" />
            <use
               xlink:href="#DejaVuSans-69"
               x="148.72656"
               id="use454"
               y="0"
               width="100%"
               height="100%" />
            <use
               xlink:href="#DejaVuSans-6e"
               x="176.50977"
               id="use456"
               y="0"
               width="100%"
               height="100%" />
            <use
               xlink:href="#DejaVuSans-20"
               x="239.88867"
               id="use458"
               y="0"
               width="100%"
               height="100%" />
            <use
               xlink:href="#DejaVuSans-74"
               x="271.67578"
               id="use460"
               y="0"
               width="100%"
               height="100%" />
            <use
               xlink:href="#DejaVuSans-69"
               x="310.88477"
               id="use462"
               y="0"
               width="100%"
               height="100%" />
            <use
               xlink:href="#DejaVuSans-6d"
               x="338.66797"
               id="use464"
               y="0"
               width="100%"
               height="100%" />
            <use
               xlink:href="#DejaVuSans-65"
               x="436.08008"
               id="use466"
               y="0"
               width="100%"
               height="100%" />
          </g>
        </g>
      </g>
    </g>
  </g>
  <defs
     id="defs477">
    <clipPath
       id="p41c48ff322">
      <rect
         x="54"
         y="34.56"
         width="334.8"
         height="217.44"
         id="rect474" />
    </clipPath>
  </defs>
</svg>
