<?xml version="1.0" encoding="UTF-8" standalone="no"?>
<svg
   width="393.12pt"
   height="360pt"
   viewBox="0 0 393.12 360"
   version="1.1"
   id="svg681"
   sodipodi:docname="benchmarks C1 U150.svg"
   inkscape:version="1.1.1 (3bf5ae0d25, 2021-09-20, custom)"
   xmlns:inkscape="http://www.inkscape.org/namespaces/inkscape"
   xmlns:sodipodi="http://sodipodi.sourceforge.net/DTD/sodipodi-0.dtd"
   xmlns:xlink="http://www.w3.org/1999/xlink"
   xmlns="http://www.w3.org/2000/svg"
   xmlns:svg="http://www.w3.org/2000/svg"
   xmlns:rdf="http://www.w3.org/1999/02/22-rdf-syntax-ns#"
   xmlns:cc="http://creativecommons.org/ns#"
   xmlns:dc="http://purl.org/dc/elements/1.1/">
  <sodipodi:namedview
     id="namedview683"
     pagecolor="#ffffff"
     bordercolor="#666666"
     borderopacity="1.0"
     inkscape:pageshadow="2"
     inkscape:pageopacity="0.0"
     inkscape:pagecheckerboard="0"
     inkscape:document-units="pt"
     showgrid="false"
     inkscape:zoom="1.6291667"
     inkscape:cx="261.79028"
     inkscape:cy="239.38619"
     inkscape:window-width="1920"
     inkscape:window-height="1011"
     inkscape:window-x="0"
     inkscape:window-y="0"
     inkscape:window-maximized="1"
     inkscape:current-layer="figure_1" />
  <metadata
     id="metadata2">
    <rdf:RDF>
      <cc:Work>
        <dc:type
           rdf:resource="http://purl.org/dc/dcmitype/StillImage" />
        <dc:date>2021-12-15T00:28:54.133771</dc:date>
        <dc:format>image/svg+xml</dc:format>
        <dc:creator>
          <cc:Agent>
            <dc:title>Matplotlib v3.5.1, https://matplotlib.org/</dc:title>
          </cc:Agent>
        </dc:creator>
      </cc:Work>
    </rdf:RDF>
  </metadata>
  <defs
     id="defs6">
    <style
       type="text/css"
       id="style4">*{stroke-linejoin: round; stroke-linecap: butt}</style>
  </defs>
  <g
     id="figure_1">
    <g
       id="patch_1">
      <path
         d="M 0 360  L 393.12 360  L 393.12 0  L 0 0  L 0 360  z "
         style="fill: none"
         id="path8" />
    </g>
    <g
       id="axes_2"
       transform="matrix(1.0568284,0,0,1.0568284,-10.667298,-10.34368)">
      <g
         id="patch_7">
        <path
           d="M 49.14,315 H 353.808 V 43.2 H 49.14 Z"
           style="fill:#ffffff"
           id="path224" />
      </g>
      <g
         id="patch_8">
        <path
           d="M 62.988545,315 H 85.815818 V 82.28304 H 62.988545 Z"
           clip-path="url(#p3c9ff7b815)"
           style="fill:#008000"
           id="path227" />
      </g>
      <g
         id="patch_9">
        <path
           d="m 139.07945,315 h 22.82728 V 70.837941 h -22.82728 z"
           clip-path="url(#p3c9ff7b815)"
           style="fill:#008000"
           id="path230" />
      </g>
      <g
         id="patch_10">
        <path
           d="m 215.17036,315 h 22.82728 V 60.75266 h -22.82728 z"
           clip-path="url(#p3c9ff7b815)"
           style="fill:#008000"
           id="path233" />
      </g>
      <g
         id="patch_11">
        <path
           d="m 291.26127,315 h 22.82727 V 58.259671 h -22.82727 z"
           clip-path="url(#p3c9ff7b815)"
           style="fill:#008000"
           id="path236" />
      </g>
      <g
         id="matplotlib.axis_3">
        <g
           id="xtick_3">
          <g
             id="line2d_13">
            <g
               id="g241">
              <path
                 id="use239"
                 d="m 87.337639,315 v 3.5"
                 style="stroke:#000000;stroke-width:0.8" />
            </g>
          </g>
          <g
             id="text_12">
            <!-- ESN1 -->
            <g
               transform="matrix(0.07071068,-0.07071068,-0.07071068,-0.07071068,79.915777,346.11897)"
               id="g257">
              <defs
                 id="defs247">
                <path
                   id="DejaVuSans-45"
                   d="M 628,4666 H 3578 V 4134 H 1259 V 2753 H 3481 V 2222 H 1259 V 531 H 3634 V 0 H 628 Z"
                   transform="scale(0.015625)" />
                <path
                   id="DejaVuSans-53"
                   d="m 3425,4513 v -616 q -359,172 -678,256 -319,85 -616,85 -515,0 -795,-200 -280,-200 -280,-569 0,-310 186,-468 186,-157 705,-254 l 381,-78 q 706,-135 1042,-474 336,-339 336,-907 0,-679 -455,-1029 -454,-350 -1332,-350 -331,0 -705,75 -373,75 -773,222 v 650 q 384,-215 753,-325 369,-109 725,-109 540,0 834,212 294,213 294,607 0,343 -211,537 -211,194 -692,291 l -385,75 q -706,140 -1022,440 -315,300 -315,835 0,619 436,975 436,356 1201,356 329,0 669,-60 341,-59 697,-177 z"
                   transform="scale(0.015625)" />
                <path
                   id="DejaVuSans-4e"
                   d="m 628,4666 h 850 L 3547,763 v 3903 h 612 V 0 H 3309 L 1241,3903 V 0 H 628 Z"
                   transform="scale(0.015625)" />
              </defs>
              <use
                 xlink:href="#DejaVuSans-45"
                 id="use249"
                 x="0"
                 y="0"
                 width="100%"
                 height="100%" />
              <use
                 xlink:href="#DejaVuSans-53"
                 x="63.183594"
                 id="use251"
                 y="0"
                 width="100%"
                 height="100%" />
              <use
                 xlink:href="#DejaVuSans-4e"
                 x="126.66016"
                 id="use253"
                 y="0"
                 width="100%"
                 height="100%" />
              <path
                 id="use255"
                 d="m 213.87109,8.296875 h 16.10938 v 55.625 L 212.44922,60.40625 v 8.984375 l 17.4375,3.515625 h 9.85937 V 8.296875 h 16.10938 V 0 h -41.98438 z"
                 style="stroke-width:0.015625" />
            </g>
          </g>
        </g>
        <g
           id="xtick_4">
          <g
             id="line2d_14">
            <g
               id="g263">
              <path
                 id="use261"
                 d="m 163.42854,315 v 3.5"
                 style="stroke:#000000;stroke-width:0.8" />
            </g>
          </g>
          <g
             id="text_13">
            <!-- ESN2 -->
            <g
               transform="matrix(0.07071068,-0.07071068,-0.07071068,-0.07071068,156.00669,346.11897)"
               id="g274">
              <use
                 xlink:href="#DejaVuSans-45"
                 id="use266"
                 x="0"
                 y="0"
                 width="100%"
                 height="100%" />
              <use
                 xlink:href="#DejaVuSans-53"
                 x="63.183594"
                 id="use268"
                 y="0"
                 width="100%"
                 height="100%" />
              <use
                 xlink:href="#DejaVuSans-4e"
                 x="126.66016"
                 id="use270"
                 y="0"
                 width="100%"
                 height="100%" />
              <path
                 id="use272"
                 d="m 220.65234,8.296875 h 34.42188 V 0 h -46.28125 v 8.296875 q 5.60937,5.8125 15.29687,15.59375 9.70313,9.796875 12.1875,12.640625 4.73438,5.3125 6.60938,9 1.89062,3.6875 1.89062,7.25 0,5.8125 -4.07812,9.46875 -4.07813,3.671875 -10.625,3.671875 -4.64063,0 -9.79688,-1.609375 -5.14062,-1.609375 -11,-4.890625 v 9.96875 q 5.95313,2.390625 11.125,3.609375 5.1875,1.21875 9.48438,1.21875 11.32812,0 18.0625,-5.671875 6.73437,-5.65625 6.73437,-15.125 0,-4.5 -1.6875,-8.53125 -1.67187,-4.015625 -6.125,-9.484375 -1.21875,-1.421875 -7.76562,-8.1875 -6.53125,-6.765625 -18.45313,-18.921875 z"
                 style="stroke-width:0.015625" />
            </g>
          </g>
        </g>
        <g
           id="xtick_5">
          <g
             id="line2d_15">
            <g
               id="g280">
              <path
                 id="use278"
                 d="m 239.51945,315 v 3.5"
                 style="stroke:#000000;stroke-width:0.8" />
            </g>
          </g>
          <g
             id="text_14">
            <!-- ESN3 -->
            <g
               transform="matrix(0.07071068,-0.07071068,-0.07071068,-0.07071068,232.09759,346.11897)"
               id="g291">
              <use
                 xlink:href="#DejaVuSans-45"
                 id="use283"
                 x="0"
                 y="0"
                 width="100%"
                 height="100%" />
              <use
                 xlink:href="#DejaVuSans-53"
                 x="63.183594"
                 id="use285"
                 y="0"
                 width="100%"
                 height="100%" />
              <use
                 xlink:href="#DejaVuSans-4e"
                 x="126.66016"
                 id="use287"
                 y="0"
                 width="100%"
                 height="100%" />
              <path
                 id="use289"
                 d="m 242.04297,39.3125 q 7.07812,-1.515625 11.04687,-6.3125 3.98438,-4.78125 3.98438,-11.8125 0,-10.78125 -7.42188,-16.703125 -7.42187,-5.90625 -21.09375,-5.90625 -4.57812,0 -9.4375,0.90625 -4.85937,0.90625 -10.03125,2.71875 v 9.515625 q 4.09375,-2.390625 8.96875,-3.609375 4.89063,-1.21875 10.21875,-1.21875 9.26563,0 14.125,3.65625 4.85938,3.65625 4.85938,10.640625 0,6.453125 -4.51563,10.078125 -4.51562,3.640625 -12.5625,3.640625 h -8.5 v 8.109375 h 8.89063 q 7.26562,0 11.125,2.90625 3.85937,2.90625 3.85937,8.375 0,5.609375 -3.98437,8.609375 -3.96875,3.015625 -11.39063,3.015625 -4.0625,0 -8.70312,-0.890625 -4.64063,-0.875 -10.20313,-2.71875 v 8.78125 q 5.625,1.5625 10.53125,2.34375 4.90625,0.78125 9.25,0.78125 11.23438,0 17.76563,-5.109375 6.54687,-5.09375 6.54687,-13.78125 0,-6.0625 -3.46875,-10.234375 -3.46875,-4.171875 -9.85937,-5.78125 z"
                 style="stroke-width:0.015625" />
            </g>
          </g>
        </g>
        <g
           id="xtick_6">
          <g
             id="line2d_16">
            <g
               id="g297">
              <path
                 id="use295"
                 d="m 315.61035,315 v 3.5"
                 style="stroke:#000000;stroke-width:0.8" />
            </g>
          </g>
          <g
             id="text_15">
            <!-- ESN4 -->
            <g
               transform="matrix(0.07071068,-0.07071068,-0.07071068,-0.07071068,308.18851,346.11897)"
               id="g308">
              <use
                 xlink:href="#DejaVuSans-45"
                 id="use300"
                 x="0"
                 y="0"
                 width="100%"
                 height="100%" />
              <use
                 xlink:href="#DejaVuSans-53"
                 x="63.183594"
                 id="use302"
                 y="0"
                 width="100%"
                 height="100%" />
              <use
                 xlink:href="#DejaVuSans-4e"
                 x="126.66016"
                 id="use304"
                 y="0"
                 width="100%"
                 height="100%" />
              <path
                 id="use306"
                 d="M 239.26172,64.3125 214.35547,25.390625 h 24.90625 z m -2.59375,8.59375 h 12.40625 V 25.390625 h 10.40625 V 17.1875 H 249.07422 V 0 h -9.8125 v 17.1875 h -32.90625 v 9.515625 z"
                 style="stroke-width:0.015625" />
            </g>
          </g>
        </g>
      </g>
      <g
         id="matplotlib.axis_4">
        <g
           id="ytick_9">
          <g
             id="line2d_17">
            <g
               id="g315">
              <path
                 id="use313"
                 d="m 49.139999,315 h -3.5"
                 style="stroke:#000000;stroke-width:0.8" />
            </g>
          </g>
          <g
             id="text_16">
            <!-- 0.0 -->
            <g
               transform="matrix(0.1,0,0,-0.1,26.236875,318.79922)"
               id="g327">
              <defs
                 id="defs319">
                <path
                   id="DejaVuSans-2e"
                   d="m 684,794 h 660 V 0 H 684 Z"
                   transform="scale(0.015625)" />
              </defs>
              <path
                 id="use321"
                 d="m 31.78125,66.40625 q -7.609375,0 -11.453125,-7.5 Q 16.5,51.421875 16.5,36.375 q 0,-14.984375 3.828125,-22.484375 3.84375,-7.5 11.453125,-7.5 7.671875,0 11.5,7.5 3.84375,7.5 3.84375,22.484375 0,15.046875 -3.84375,22.53125 -3.828125,7.5 -11.5,7.5 z m 0,7.8125 q 12.265625,0 18.734375,-9.703125 6.46875,-9.6875 6.46875,-28.140625 0,-18.40625 -6.46875,-28.109375 -6.46875,-9.6875 -18.734375,-9.6875 -12.25,0 -18.71875,9.6875 Q 6.59375,17.96875 6.59375,36.375 q 0,18.453125 6.46875,28.140625 6.46875,9.703125 18.71875,9.703125 z"
                 style="stroke-width:0.015625" />
              <use
                 xlink:href="#DejaVuSans-2e"
                 x="63.623047"
                 id="use323"
                 y="0"
                 width="100%"
                 height="100%" />
              <path
                 id="use325"
                 d="m 127.19141,66.40625 q -7.60938,0 -11.45313,-7.5 -3.82812,-7.484375 -3.82812,-22.53125 0,-14.984375 3.82812,-22.484375 3.84375,-7.5 11.45313,-7.5 7.67187,0 11.5,7.5 3.84375,7.5 3.84375,22.484375 0,15.046875 -3.84375,22.53125 -3.82813,7.5 -11.5,7.5 z m 0,7.8125 q 12.26562,0 18.73437,-9.703125 6.46875,-9.6875 6.46875,-28.140625 0,-18.40625 -6.46875,-28.109375 -6.46875,-9.6875 -18.73437,-9.6875 -12.25,0 -18.71875,9.6875 -6.46875,9.703125 -6.46875,28.109375 0,18.453125 6.46875,28.140625 6.46875,9.703125 18.71875,9.703125 z"
                 style="stroke-width:0.015625" />
            </g>
          </g>
        </g>
        <g
           id="ytick_10">
          <g
             id="line2d_18">
            <g
               id="g333">
              <path
                 id="use331"
                 d="m 49.139999,260.75854 h -3.5"
                 style="stroke:#000000;stroke-width:0.8" />
            </g>
          </g>
          <g
             id="text_17">
            <!-- 0.2 -->
            <g
               transform="matrix(0.1,0,0,-0.1,26.236875,264.55777)"
               id="g342">
              <path
                 id="use336"
                 d="m 31.78125,66.40625 q -7.609375,0 -11.453125,-7.5 Q 16.5,51.421875 16.5,36.375 q 0,-14.984375 3.828125,-22.484375 3.84375,-7.5 11.453125,-7.5 7.671875,0 11.5,7.5 3.84375,7.5 3.84375,22.484375 0,15.046875 -3.84375,22.53125 -3.828125,7.5 -11.5,7.5 z m 0,7.8125 q 12.265625,0 18.734375,-9.703125 6.46875,-9.6875 6.46875,-28.140625 0,-18.40625 -6.46875,-28.109375 -6.46875,-9.6875 -18.734375,-9.6875 -12.25,0 -18.71875,9.6875 Q 6.59375,17.96875 6.59375,36.375 q 0,18.453125 6.46875,28.140625 6.46875,9.703125 18.71875,9.703125 z"
                 style="stroke-width:0.015625" />
              <use
                 xlink:href="#DejaVuSans-2e"
                 x="63.623047"
                 id="use338"
                 y="0"
                 width="100%"
                 height="100%" />
              <path
                 id="use340"
                 d="m 114.59766,8.296875 h 34.42187 V 0 h -46.28125 v 8.296875 q 5.60938,5.8125 15.29688,15.59375 9.70312,9.796875 12.1875,12.640625 4.73437,5.3125 6.60937,9 1.89063,3.6875 1.89063,7.25 0,5.8125 -4.07813,9.46875 -4.07812,3.671875 -10.625,3.671875 -4.64062,0 -9.79687,-1.609375 -5.14063,-1.609375 -11,-4.890625 v 9.96875 q 5.95312,2.390625 11.125,3.609375 5.1875,1.21875 9.48437,1.21875 11.32813,0 18.0625,-5.671875 6.73438,-5.65625 6.73438,-15.125 0,-4.5 -1.6875,-8.53125 -1.67188,-4.015625 -6.125,-9.484375 -1.21875,-1.421875 -7.76563,-8.1875 -6.53125,-6.765625 -18.45312,-18.921875 z"
                 style="stroke-width:0.015625" />
            </g>
          </g>
        </g>
        <g
           id="ytick_11">
          <g
             id="line2d_19">
            <g
               id="g348">
              <path
                 id="use346"
                 d="m 49.139999,206.51711 h -3.5"
                 style="stroke:#000000;stroke-width:0.8" />
            </g>
          </g>
          <g
             id="text_18">
            <!-- 0.4 -->
            <g
               transform="matrix(0.1,0,0,-0.1,26.236875,210.31632)"
               id="g357">
              <path
                 id="use351"
                 d="m 31.78125,66.40625 q -7.609375,0 -11.453125,-7.5 Q 16.5,51.421875 16.5,36.375 q 0,-14.984375 3.828125,-22.484375 3.84375,-7.5 11.453125,-7.5 7.671875,0 11.5,7.5 3.84375,7.5 3.84375,22.484375 0,15.046875 -3.84375,22.53125 -3.828125,7.5 -11.5,7.5 z m 0,7.8125 q 12.265625,0 18.734375,-9.703125 6.46875,-9.6875 6.46875,-28.140625 0,-18.40625 -6.46875,-28.109375 -6.46875,-9.6875 -18.734375,-9.6875 -12.25,0 -18.71875,9.6875 Q 6.59375,17.96875 6.59375,36.375 q 0,18.453125 6.46875,28.140625 6.46875,9.703125 18.71875,9.703125 z"
                 style="stroke-width:0.015625" />
              <use
                 xlink:href="#DejaVuSans-2e"
                 x="63.623047"
                 id="use353"
                 y="0"
                 width="100%"
                 height="100%" />
              <path
                 id="use355"
                 d="M 133.20703,64.3125 108.30078,25.390625 h 24.90625 z m -2.59375,8.59375 h 12.40625 V 25.390625 h 10.40625 V 17.1875 H 143.01953 V 0 h -9.8125 v 17.1875 h -32.90625 v 9.515625 z"
                 style="stroke-width:0.015625" />
            </g>
          </g>
        </g>
        <g
           id="ytick_12">
          <g
             id="line2d_20">
            <g
               id="g363">
              <path
                 id="use361"
                 d="m 49.139999,152.27567 h -3.5"
                 style="stroke:#000000;stroke-width:0.8" />
            </g>
          </g>
          <g
             id="text_19">
            <!-- 0.6 -->
            <g
               transform="matrix(0.1,0,0,-0.1,26.236875,156.07488)"
               id="g372">
              <path
                 id="use366"
                 d="m 31.78125,66.40625 q -7.609375,0 -11.453125,-7.5 Q 16.5,51.421875 16.5,36.375 q 0,-14.984375 3.828125,-22.484375 3.84375,-7.5 11.453125,-7.5 7.671875,0 11.5,7.5 3.84375,7.5 3.84375,22.484375 0,15.046875 -3.84375,22.53125 -3.828125,7.5 -11.5,7.5 z m 0,7.8125 q 12.265625,0 18.734375,-9.703125 6.46875,-9.6875 6.46875,-28.140625 0,-18.40625 -6.46875,-28.109375 -6.46875,-9.6875 -18.734375,-9.6875 -12.25,0 -18.71875,9.6875 Q 6.59375,17.96875 6.59375,36.375 q 0,18.453125 6.46875,28.140625 6.46875,9.703125 18.71875,9.703125 z"
                 style="stroke-width:0.015625" />
              <use
                 xlink:href="#DejaVuSans-2e"
                 x="63.623047"
                 id="use368"
                 y="0"
                 width="100%"
                 height="100%" />
              <path
                 id="use370"
                 d="m 128.42578,40.375 q -6.64062,0 -10.53125,-4.546875 -3.875,-4.53125 -3.875,-12.4375 0,-7.859375 3.875,-12.4375 3.89063,-4.5625 10.53125,-4.5625 6.64063,0 10.51563,4.5625 3.875,4.578125 3.875,12.4375 0,7.90625 -3.875,12.4375 -3.875,4.546875 -10.51563,4.546875 z m 19.57813,30.921875 V 62.3125 q -3.71875,1.75 -7.5,2.671875 -3.78125,0.9375 -7.5,0.9375 -9.76563,0 -14.92188,-6.59375 -5.14062,-6.59375 -5.875,-19.921875 2.875,4.25 7.21875,6.515625 4.35938,2.265625 9.57813,2.265625 10.98437,0 17.35937,-6.671875 6.375,-6.65625 6.375,-18.125 0,-11.234375 -6.64062,-18.03125 -6.64063,-6.78125 -17.67188,-6.78125 -12.65625,0 -19.34375,9.6875 -6.6875,9.703125 -6.6875,28.109375 0,17.28125 8.20313,27.5625 8.20312,10.28125 22.01562,10.28125 3.71875,0 7.5,-0.734375 3.78125,-0.734375 7.89063,-2.1875 z"
                 style="stroke-width:0.015625" />
            </g>
          </g>
        </g>
        <g
           id="ytick_13">
          <g
             id="line2d_21">
            <g
               id="g378">
              <path
                 id="use376"
                 d="m 49.139999,98.03421 h -3.5"
                 style="stroke:#000000;stroke-width:0.8" />
            </g>
          </g>
          <g
             id="text_20">
            <!-- 0.8 -->
            <g
               transform="matrix(0.1,0,0,-0.1,26.236875,101.83343)"
               id="g387">
              <path
                 id="use381"
                 d="m 31.78125,66.40625 q -7.609375,0 -11.453125,-7.5 Q 16.5,51.421875 16.5,36.375 q 0,-14.984375 3.828125,-22.484375 3.84375,-7.5 11.453125,-7.5 7.671875,0 11.5,7.5 3.84375,7.5 3.84375,22.484375 0,15.046875 -3.84375,22.53125 -3.828125,7.5 -11.5,7.5 z m 0,7.8125 q 12.265625,0 18.734375,-9.703125 6.46875,-9.6875 6.46875,-28.140625 0,-18.40625 -6.46875,-28.109375 -6.46875,-9.6875 -18.734375,-9.6875 -12.25,0 -18.71875,9.6875 Q 6.59375,17.96875 6.59375,36.375 q 0,18.453125 6.46875,28.140625 6.46875,9.703125 18.71875,9.703125 z"
                 style="stroke-width:0.015625" />
              <use
                 xlink:href="#DejaVuSans-2e"
                 x="63.623047"
                 id="use383"
                 y="0"
                 width="100%"
                 height="100%" />
              <path
                 id="use385"
                 d="m 127.19141,34.625 q -7.03125,0 -11.0625,-3.765625 -4.01563,-3.765625 -4.01563,-10.34375 0,-6.59375 4.01563,-10.359375 4.03125,-3.765625 11.0625,-3.765625 7.03125,0 11.07812,3.78125 4.0625,3.796875 4.0625,10.34375 0,6.578125 -4.03125,10.34375 Q 134.28516,34.625 127.19141,34.625 Z m -9.85938,4.1875 q -6.34375,1.5625 -9.89062,5.90625 -3.53125,4.359375 -3.53125,10.609375 0,8.734375 6.21875,13.8125 6.23437,5.078125 17.0625,5.078125 10.89062,0 17.09375,-5.078125 6.20312,-5.078125 6.20312,-13.8125 0,-6.25 -3.54687,-10.609375 -3.53125,-4.34375 -9.82813,-5.90625 7.125,-1.65625 11.09375,-6.5 3.98438,-4.828125 3.98438,-11.796875 0,-10.609375 -6.46875,-16.28125 -6.46875,-5.65625 -18.53125,-5.65625 -12.04688,0 -18.53125,5.65625 -6.46875,5.671875 -6.46875,16.28125 0,6.96875 4,11.796875 4.01562,4.84375 11.14062,6.5 z m -3.60937,15.578125 q 0,-5.65625 3.53125,-8.828125 3.54687,-3.171875 9.9375,-3.171875 6.35937,0 9.9375,3.171875 3.59375,3.171875 3.59375,8.828125 0,5.671875 -3.59375,8.84375 -3.57813,3.171875 -9.9375,3.171875 -6.39063,0 -9.9375,-3.171875 -3.53125,-3.171875 -3.53125,-8.84375 z"
                 style="stroke-width:0.015625" />
            </g>
          </g>
        </g>
        <g
           id="ytick_14">
          <g
             id="line2d_22">
            <g
               id="g393">
              <path
                 id="use391"
                 d="m 49.139999,43.792763 h -3.5"
                 style="stroke:#000000;stroke-width:0.8" />
            </g>
          </g>
          <g
             id="text_21">
            <!-- 1.0 -->
            <g
               transform="matrix(0.1,0,0,-0.1,26.236875,47.591983)"
               id="g402">
              <path
                 id="use396"
                 d="m 12.40625,8.296875 h 16.109375 v 55.625 L 10.984375,60.40625 v 8.984375 l 17.4375,3.515625 H 38.28125 V 8.296875 H 54.390625 V 0 H 12.40625 Z"
                 style="stroke-width:0.015625" />
              <use
                 xlink:href="#DejaVuSans-2e"
                 x="63.623047"
                 id="use398"
                 y="0"
                 width="100%"
                 height="100%" />
              <path
                 id="use400"
                 d="m 127.19141,66.40625 q -7.60938,0 -11.45313,-7.5 -3.82812,-7.484375 -3.82812,-22.53125 0,-14.984375 3.82812,-22.484375 3.84375,-7.5 11.45313,-7.5 7.67187,0 11.5,7.5 3.84375,7.5 3.84375,22.484375 0,15.046875 -3.84375,22.53125 -3.82813,7.5 -11.5,7.5 z m 0,7.8125 q 12.26562,0 18.73437,-9.703125 6.46875,-9.6875 6.46875,-28.140625 0,-18.40625 -6.46875,-28.109375 -6.46875,-9.6875 -18.73437,-9.6875 -12.25,0 -18.71875,9.6875 -6.46875,9.703125 -6.46875,28.109375 0,18.453125 6.46875,28.140625 6.46875,9.703125 18.71875,9.703125 z"
                 style="stroke-width:0.015625" />
            </g>
          </g>
        </g>
      </g>
      <g
         id="LineCollection_1">
        <path
           d="M 74.402182,86.506819 V 78.059261"
           clip-path="url(#p3c9ff7b815)"
           style="fill:none;stroke:#000000;stroke-width:1.5"
           id="path407" />
        <path
           d="M 150.49309,77.435071 V 64.240812"
           clip-path="url(#p3c9ff7b815)"
           style="fill:none;stroke:#000000;stroke-width:1.5"
           id="path409" />
        <path
           d="M 226.584,65.362463 V 56.142857"
           clip-path="url(#p3c9ff7b815)"
           style="fill:none;stroke:#000000;stroke-width:1.5"
           id="path411" />
        <path
           d="M 302.67491,60.135414 V 56.383928"
           clip-path="url(#p3c9ff7b815)"
           style="fill:none;stroke:#000000;stroke-width:1.5"
           id="path413" />
      </g>
      <g
         id="patch_12">
        <path
           d="M 49.14,315 V 43.2"
           style="fill:none;stroke:#000000;stroke-width:0.8;stroke-linecap:square;stroke-linejoin:miter"
           id="path416" />
      </g>
      <g
         id="patch_13">
        <path
           d="M 353.808,315 V 43.2"
           style="fill:none;stroke:#000000;stroke-width:0.8;stroke-linecap:square;stroke-linejoin:miter"
           id="path419" />
      </g>
      <g
         id="patch_14">
        <path
           d="M 49.14,315 H 353.808"
           style="fill:none;stroke:#000000;stroke-width:0.8;stroke-linecap:square;stroke-linejoin:miter"
           id="path422" />
      </g>
      <g
         id="patch_15">
        <path
           d="M 49.14,43.2 H 353.808"
           style="fill:none;stroke:#000000;stroke-width:0.8;stroke-linecap:square;stroke-linejoin:miter"
           id="path425" />
      </g>
    </g>
    <g
       id="axes_3"
       transform="matrix(1.0568284,0,0,1.0568284,-10.667298,-10.34368)">
      <g
         id="patch_16">
        <path
           d="M 88.859455,315 H 111.68673 V 218.40112 H 88.859455 Z"
           clip-path="url(#p3c9ff7b815)"
           style="fill:#ff0000"
           id="path429" />
      </g>
      <g
         id="patch_17">
        <path
           d="m 164.95036,315 h 22.82728 V 214.51878 h -22.82728 z"
           clip-path="url(#p3c9ff7b815)"
           style="fill:#ff0000"
           id="path432" />
      </g>
      <g
         id="patch_18">
        <path
           d="m 241.04127,315 h 22.82727 V 86.885247 h -22.82727 z"
           clip-path="url(#p3c9ff7b815)"
           style="fill:#ff0000"
           id="path435" />
      </g>
      <g
         id="patch_19">
        <path
           d="m 317.13218,315 h 22.82727 v -86.39557 h -22.82727 z"
           clip-path="url(#p3c9ff7b815)"
           style="fill:#ff0000"
           id="path438" />
      </g>
      <g
         id="matplotlib.axis_5">
        <g
           id="ytick_15">
          <g
             id="line2d_23">
            <defs
               id="defs442">
              <path
                 id="m9a8b983955"
                 d="M 0,0 H 3.5"
                 style="stroke:#000000;stroke-width:0.8" />
            </defs>
            <g
               id="g446">
              <use
                 xlink:href="#m9a8b983955"
                 x="353.80801"
                 y="315"
                 style="stroke:#000000;stroke-width:0.8"
                 id="use444"
                 width="100%"
                 height="100%" />
            </g>
          </g>
          <g
             id="text_22">
            <!-- 0 -->
            <g
               transform="matrix(0.1,0,0,-0.1,360.808,318.79922)"
               id="g451">
              <path
                 id="use449"
                 d="m 31.78125,66.40625 q -7.609375,0 -11.453125,-7.5 Q 16.5,51.421875 16.5,36.375 q 0,-14.984375 3.828125,-22.484375 3.84375,-7.5 11.453125,-7.5 7.671875,0 11.5,7.5 3.84375,7.5 3.84375,22.484375 0,15.046875 -3.84375,22.53125 -3.828125,7.5 -11.5,7.5 z m 0,7.8125 q 12.265625,0 18.734375,-9.703125 6.46875,-9.6875 6.46875,-28.140625 0,-18.40625 -6.46875,-28.109375 -6.46875,-9.6875 -18.734375,-9.6875 -12.25,0 -18.71875,9.6875 Q 6.59375,17.96875 6.59375,36.375 q 0,18.453125 6.46875,28.140625 6.46875,9.703125 18.71875,9.703125 z"
                 style="stroke-width:0.015625" />
            </g>
          </g>
        </g>
        <g
           id="ytick_16">
          <g
             id="line2d_24">
            <g
               id="g457">
              <use
                 xlink:href="#m9a8b983955"
                 x="353.80801"
                 y="283.17853"
                 style="stroke:#000000;stroke-width:0.8"
                 id="use455"
                 width="100%"
                 height="100%" />
            </g>
          </g>
          <g
             id="text_23">
            <!-- 2 -->
            <g
               transform="matrix(0.1,0,0,-0.1,360.808,286.97773)"
               id="g462">
              <path
                 id="use460"
                 d="M 19.1875,8.296875 H 53.609375 V 0 H 7.328125 v 8.296875 q 5.609375,5.8125 15.296875,15.59375 9.703125,9.796875 12.1875,12.640625 4.734375,5.3125 6.609375,9 1.890625,3.6875 1.890625,7.25 0,5.8125 -4.078125,9.46875 -4.078125,3.671875 -10.625,3.671875 -4.640625,0 -9.796875,-1.609375 -5.140625,-1.609375 -11,-4.890625 v 9.96875 Q 13.765625,71.78125 18.9375,73 q 5.1875,1.21875 9.484375,1.21875 11.328125,0 18.0625,-5.671875 6.734375,-5.65625 6.734375,-15.125 0,-4.5 -1.6875,-8.53125 Q 49.859375,40.875 45.40625,35.40625 44.1875,33.984375 37.640625,27.21875 31.109375,20.453125 19.1875,8.296875 Z"
                 style="stroke-width:0.015625" />
            </g>
          </g>
        </g>
        <g
           id="ytick_17">
          <g
             id="line2d_25">
            <g
               id="g468">
              <use
                 xlink:href="#m9a8b983955"
                 x="353.80801"
                 y="251.35703"
                 style="stroke:#000000;stroke-width:0.8"
                 id="use466"
                 width="100%"
                 height="100%" />
            </g>
          </g>
          <g
             id="text_24">
            <!-- 4 -->
            <g
               transform="matrix(0.1,0,0,-0.1,360.808,255.15625)"
               id="g473">
              <path
                 id="use471"
                 d="M 37.796875,64.3125 12.890625,25.390625 h 24.90625 z m -2.59375,8.59375 h 12.40625 V 25.390625 h 10.40625 V 17.1875 H 47.609375 V 0 h -9.8125 V 17.1875 H 4.890625 v 9.515625 z"
                 style="stroke-width:0.015625" />
            </g>
          </g>
        </g>
        <g
           id="ytick_18">
          <g
             id="line2d_26">
            <g
               id="g479">
              <use
                 xlink:href="#m9a8b983955"
                 x="353.80801"
                 y="219.53554"
                 style="stroke:#000000;stroke-width:0.8"
                 id="use477"
                 width="100%"
                 height="100%" />
            </g>
          </g>
          <g
             id="text_25">
            <!-- 6 -->
            <g
               transform="matrix(0.1,0,0,-0.1,360.808,223.33476)"
               id="g484">
              <path
                 id="use482"
                 d="m 33.015625,40.375 q -6.640625,0 -10.53125,-4.546875 -3.875,-4.53125 -3.875,-12.4375 0,-7.859375 3.875,-12.4375 3.890625,-4.5625 10.53125,-4.5625 6.640625,0 10.515625,4.5625 3.875,4.578125 3.875,12.4375 0,7.90625 -3.875,12.4375 Q 39.65625,40.375 33.015625,40.375 Z M 52.59375,71.296875 V 62.3125 q -3.71875,1.75 -7.5,2.671875 -3.78125,0.9375 -7.5,0.9375 -9.765625,0 -14.921875,-6.59375 -5.140625,-6.59375 -5.875,-19.921875 2.875,4.25 7.21875,6.515625 4.359375,2.265625 9.578125,2.265625 10.984375,0 17.359375,-6.671875 6.375,-6.65625 6.375,-18.125 0,-11.234375 -6.640625,-18.03125 -6.640625,-6.78125 -17.671875,-6.78125 -12.65625,0 -19.34375,9.6875 -6.6875,9.703125 -6.6875,28.109375 0,17.28125 8.203125,27.5625 8.203125,10.28125 22.015625,10.28125 3.71875,0 7.5,-0.734375 3.78125,-0.734375 7.890625,-2.1875 z"
                 style="stroke-width:0.015625" />
            </g>
          </g>
        </g>
        <g
           id="ytick_19">
          <g
             id="line2d_27">
            <g
               id="g490">
              <use
                 xlink:href="#m9a8b983955"
                 x="353.80801"
                 y="187.71405"
                 style="stroke:#000000;stroke-width:0.8"
                 id="use488"
                 width="100%"
                 height="100%" />
            </g>
          </g>
          <g
             id="text_26">
            <!-- 8 -->
            <g
               transform="matrix(0.1,0,0,-0.1,360.808,191.51328)"
               id="g495">
              <path
                 id="use493"
                 d="m 31.78125,34.625 q -7.03125,0 -11.0625,-3.765625 -4.015625,-3.765625 -4.015625,-10.34375 0,-6.59375 4.015625,-10.359375 4.03125,-3.765625 11.0625,-3.765625 7.03125,0 11.078125,3.78125 4.0625,3.796875 4.0625,10.34375 0,6.578125 -4.03125,10.34375 Q 38.875,34.625 31.78125,34.625 Z m -9.859375,4.1875 Q 15.578125,40.375 12.03125,44.71875 8.5,49.078125 8.5,55.328125 q 0,8.734375 6.21875,13.8125 6.234375,5.078125 17.0625,5.078125 10.890625,0 17.09375,-5.078125 6.203125,-5.078125 6.203125,-13.8125 0,-6.25 -3.546875,-10.609375 Q 48,40.375 41.703125,38.8125 q 7.125,-1.65625 11.09375,-6.5 3.984375,-4.828125 3.984375,-11.796875 0,-10.609375 -6.46875,-16.28125 -6.46875,-5.65625 -18.53125,-5.65625 -12.046875,0 -18.53125,5.65625 -6.46875,5.671875 -6.46875,16.28125 0,6.96875 4,11.796875 4.015625,4.84375 11.140625,6.5 z M 18.3125,54.390625 q 0,-5.65625 3.53125,-8.828125 3.546875,-3.171875 9.9375,-3.171875 6.359375,0 9.9375,3.171875 3.59375,3.171875 3.59375,8.828125 0,5.671875 -3.59375,8.84375 -3.578125,3.171875 -9.9375,3.171875 -6.390625,0 -9.9375,-3.171875 Q 18.3125,60.0625 18.3125,54.390625 Z"
                 style="stroke-width:0.015625" />
            </g>
          </g>
        </g>
        <g
           id="ytick_20">
          <g
             id="line2d_28">
            <g
               id="g501">
              <use
                 xlink:href="#m9a8b983955"
                 x="353.80801"
                 y="155.89258"
                 style="stroke:#000000;stroke-width:0.8"
                 id="use499"
                 width="100%"
                 height="100%" />
            </g>
          </g>
          <g
             id="text_27">
            <!-- 10 -->
            <g
               transform="matrix(0.1,0,0,-0.1,360.808,159.69179)"
               id="g508">
              <path
                 id="use504"
                 d="m 12.40625,8.296875 h 16.109375 v 55.625 L 10.984375,60.40625 v 8.984375 l 17.4375,3.515625 H 38.28125 V 8.296875 H 54.390625 V 0 H 12.40625 Z"
                 style="stroke-width:0.015625" />
              <path
                 id="use506"
                 d="m 95.404297,66.40625 q -7.609375,0 -11.453125,-7.5 -3.828125,-7.484375 -3.828125,-22.53125 0,-14.984375 3.828125,-22.484375 3.84375,-7.5 11.453125,-7.5 7.671873,0 11.500003,7.5 3.84375,7.5 3.84375,22.484375 0,15.046875 -3.84375,22.53125 -3.82813,7.5 -11.500003,7.5 z m 0,7.8125 q 12.265623,0 18.734373,-9.703125 6.46875,-9.6875 6.46875,-28.140625 0,-18.40625 -6.46875,-28.109375 -6.46875,-9.6875 -18.734373,-9.6875 -12.25,0 -18.71875,9.6875 -6.46875,9.703125 -6.46875,28.109375 0,18.453125 6.46875,28.140625 6.46875,9.703125 18.71875,9.703125 z"
                 style="stroke-width:0.015625" />
            </g>
          </g>
        </g>
        <g
           id="ytick_21">
          <g
             id="line2d_29">
            <g
               id="g514">
              <use
                 xlink:href="#m9a8b983955"
                 x="353.80801"
                 y="124.07108"
                 style="stroke:#000000;stroke-width:0.8"
                 id="use512"
                 width="100%"
                 height="100%" />
            </g>
          </g>
          <g
             id="text_28">
            <!-- 12 -->
            <g
               transform="matrix(0.1,0,0,-0.1,360.808,127.87031)"
               id="g521">
              <path
                 id="use517"
                 d="m 12.40625,8.296875 h 16.109375 v 55.625 L 10.984375,60.40625 v 8.984375 l 17.4375,3.515625 H 38.28125 V 8.296875 H 54.390625 V 0 H 12.40625 Z"
                 style="stroke-width:0.015625" />
              <path
                 id="use519"
                 d="M 82.810547,8.296875 H 117.23242 V 0 H 70.951172 v 8.296875 q 5.609375,5.8125 15.296875,15.59375 9.703125,9.796875 12.1875,12.640625 4.734373,5.3125 6.609373,9 1.89063,3.6875 1.89063,7.25 0,5.8125 -4.07813,9.46875 -4.078123,3.671875 -10.624998,3.671875 -4.640625,0 -9.796875,-1.609375 -5.140625,-1.609375 -11,-4.890625 v 9.96875 q 5.953125,2.390625 11.125,3.609375 5.1875,1.21875 9.484375,1.21875 11.328128,0 18.062498,-5.671875 6.73438,-5.65625 6.73438,-15.125 0,-4.5 -1.6875,-8.53125 -1.67188,-4.015625 -6.125,-9.484375 -1.21875,-1.421875 -7.76563,-8.1875 Q 94.732422,20.453125 82.810547,8.296875 Z"
                 style="stroke-width:0.015625" />
            </g>
          </g>
        </g>
        <g
           id="ytick_22">
          <g
             id="line2d_30">
            <g
               id="g527">
              <use
                 xlink:href="#m9a8b983955"
                 x="353.80801"
                 y="92.249603"
                 style="stroke:#000000;stroke-width:0.8"
                 id="use525"
                 width="100%"
                 height="100%" />
            </g>
          </g>
          <g
             id="text_29">
            <!-- 14 -->
            <g
               transform="matrix(0.1,0,0,-0.1,360.808,96.048819)"
               id="g534">
              <path
                 id="use530"
                 d="m 12.40625,8.296875 h 16.109375 v 55.625 L 10.984375,60.40625 v 8.984375 l 17.4375,3.515625 H 38.28125 V 8.296875 H 54.390625 V 0 H 12.40625 Z"
                 style="stroke-width:0.015625" />
              <path
                 id="use532"
                 d="M 101.41992,64.3125 76.513672,25.390625 h 24.906248 z m -2.593748,8.59375 H 111.23242 V 25.390625 h 10.40625 V 17.1875 H 111.23242 V 0 h -9.8125 V 17.1875 H 68.513672 v 9.515625 z"
                 style="stroke-width:0.015625" />
            </g>
          </g>
        </g>
        <g
           id="ytick_23">
          <g
             id="line2d_31">
            <g
               id="g540">
              <use
                 xlink:href="#m9a8b983955"
                 x="353.80801"
                 y="60.428116"
                 style="stroke:#000000;stroke-width:0.8"
                 id="use538"
                 width="100%"
                 height="100%" />
            </g>
          </g>
          <g
             id="text_30">
            <!-- 16 -->
            <g
               transform="matrix(0.1,0,0,-0.1,360.808,64.227334)"
               id="g547">
              <path
                 id="use543"
                 d="m 12.40625,8.296875 h 16.109375 v 55.625 L 10.984375,60.40625 v 8.984375 l 17.4375,3.515625 H 38.28125 V 8.296875 H 54.390625 V 0 H 12.40625 Z"
                 style="stroke-width:0.015625" />
              <path
                 id="use545"
                 d="m 96.638672,40.375 q -6.640625,0 -10.53125,-4.546875 -3.875,-4.53125 -3.875,-12.4375 0,-7.859375 3.875,-12.4375 3.890625,-4.5625 10.53125,-4.5625 6.640628,0 10.515628,4.5625 3.875,4.578125 3.875,12.4375 0,7.90625 -3.875,12.4375 Q 103.2793,40.375 96.638672,40.375 Z M 116.2168,71.296875 V 62.3125 q -3.71875,1.75 -7.5,2.671875 -3.78125,0.9375 -7.5,0.9375 -9.765628,0 -14.921878,-6.59375 -5.140625,-6.59375 -5.875,-19.921875 2.875,4.25 7.21875,6.515625 4.359375,2.265625 9.578125,2.265625 10.984373,0 17.359373,-6.671875 6.375,-6.65625 6.375,-18.125 0,-11.234375 -6.64062,-18.03125 -6.64063,-6.78125 -17.671878,-6.78125 -12.65625,0 -19.34375,9.6875 -6.6875,9.703125 -6.6875,28.109375 0,17.28125 8.203125,27.5625 8.203125,10.28125 22.015623,10.28125 3.71875,0 7.5,-0.734375 3.78125,-0.734375 7.89063,-2.1875 z"
                 style="stroke-width:0.015625" />
            </g>
          </g>
        </g>
      </g>
      <g
         id="LineCollection_2">
        <path
           d="m 100.27309,220.04161 v -3.28097"
           clip-path="url(#p3c9ff7b815)"
           style="fill:none;stroke:#000000;stroke-width:1.5"
           id="path552" />
        <path
           d="M 176.364,228.02005 V 201.01752"
           clip-path="url(#p3c9ff7b815)"
           style="fill:none;stroke:#000000;stroke-width:1.5"
           id="path554" />
        <path
           d="M 252.45491,117.62764 V 56.142857"
           clip-path="url(#p3c9ff7b815)"
           style="fill:none;stroke:#000000;stroke-width:1.5"
           id="path556" />
        <path
           d="M 328.54582,237.14565 V 220.0632"
           clip-path="url(#p3c9ff7b815)"
           style="fill:none;stroke:#000000;stroke-width:1.5"
           id="path558" />
      </g>
      <g
         id="patch_20">
        <path
           d="M 49.14,315 V 43.2"
           style="fill:none;stroke:#000000;stroke-width:0.8;stroke-linecap:square;stroke-linejoin:miter"
           id="path561" />
      </g>
      <g
         id="patch_21">
        <path
           d="M 353.808,315 V 43.2"
           style="fill:none;stroke:#000000;stroke-width:0.8;stroke-linecap:square;stroke-linejoin:miter"
           id="path564" />
      </g>
      <g
         id="patch_22">
        <path
           d="M 49.14,315 H 353.808"
           style="fill:none;stroke:#000000;stroke-width:0.8;stroke-linecap:square;stroke-linejoin:miter"
           id="path567" />
      </g>
      <g
         id="patch_23">
        <path
           d="M 49.14,43.2 H 353.808"
           style="fill:none;stroke:#000000;stroke-width:0.8;stroke-linecap:square;stroke-linejoin:miter"
           id="path570" />
      </g>
      <g
         id="legend_1">
        <g
           id="patch_24">
          <path
             d="m 160.59509,310 h 81.75782 q 2,0 2,-2 v -28.35625 q 0,-2 -2,-2 h -81.75782 q -2,0 -2,2 V 308 q 0,2 2,2 z"
             style="opacity:0.8;fill:#ffffff;stroke:#cccccc;stroke-linejoin:miter"
             id="path573" />
        </g>
        <g
           id="patch_25">
          <path
             d="m 162.59509,289.24219 h 20 v -7 h -20 z"
             style="fill:#008000"
             id="path576" />
        </g>
        <g
           id="text_31">
          <!-- Accuracy -->
          <g
             transform="matrix(0.1,0,0,-0.1,190.59509,289.24219)"
             id="g602">
            <defs
               id="defs584">
              <path
                 id="DejaVuSans-41"
                 d="M 2188,4044 1331,1722 h 1716 z m -357,622 h 716 L 4325,0 H 3669 L 3244,1197 H 1141 L 716,0 H 50 Z"
                 transform="scale(0.015625)" />
              <path
                 id="DejaVuSans-63"
                 d="m 3122,3366 v -538 q -244,135 -489,202 -245,67 -495,67 -560,0 -870,-355 -309,-354 -309,-995 0,-641 309,-996 310,-354 870,-354 250,0 495,67 245,67 489,202 V 134 Q 2881,22 2623,-34 2366,-91 2075,-91 1284,-91 818,406 353,903 353,1747 q 0,856 470,1346 471,491 1290,491 265,0 518,-55 253,-54 491,-163 z"
                 transform="scale(0.015625)" />
              <path
                 id="DejaVuSans-75"
                 d="m 544,1381 v 2119 h 575 V 1403 q 0,-497 193,-746 194,-248 582,-248 465,0 735,297 271,297 271,810 v 1984 h 575 V 0 H 2900 V 538 Q 2691,219 2414,64 2138,-91 1772,-91 1169,-91 856,284 544,659 544,1381 Z m 1447,2203 z"
                 transform="scale(0.015625)" />
              <path
                 id="DejaVuSans-61"
                 d="m 2194,1759 q -697,0 -966,-159 -269,-159 -269,-544 0,-306 202,-486 202,-179 548,-179 479,0 768,339 289,339 289,901 v 128 z m 1147,238 V 0 H 2766 V 531 Q 2569,213 2275,61 1981,-91 1556,-91 q -537,0 -855,302 -317,302 -317,808 0,590 395,890 396,300 1180,300 h 807 v 57 q 0,397 -261,614 -261,217 -733,217 -300,0 -585,-72 -284,-72 -546,-216 v 532 q 315,122 612,182 297,61 578,61 760,0 1135,-394 375,-393 375,-1193 z"
                 transform="scale(0.015625)" />
              <path
                 id="DejaVuSans-79"
                 d="m 2059,-325 q -243,-625 -475,-815 -231,-191 -618,-191 H 506 v 481 h 338 q 237,0 368,113 132,112 291,531 L 1606,56 191,3500 H 800 L 1894,763 2988,3500 h 609 z"
                 transform="scale(0.015625)" />
            </defs>
            <use
               xlink:href="#DejaVuSans-41"
               id="use586"
               x="0"
               y="0"
               width="100%"
               height="100%" />
            <use
               xlink:href="#DejaVuSans-63"
               x="66.658203"
               id="use588"
               y="0"
               width="100%"
               height="100%" />
            <use
               xlink:href="#DejaVuSans-63"
               x="121.63867"
               id="use590"
               y="0"
               width="100%"
               height="100%" />
            <use
               xlink:href="#DejaVuSans-75"
               x="176.61914"
               id="use592"
               y="0"
               width="100%"
               height="100%" />
            <path
               id="use594"
               d="m 281.10742,46.296875 q -1.51562,0.875 -3.29687,1.28125 Q 276.0293,48 273.88867,48 266.26367,48 262.18555,43.046875 258.10742,38.09375 258.10742,28.8125 V 0 h -9.03125 v 54.6875 h 9.03125 v -8.5 q 2.84375,4.984375 7.375,7.390625 Q 270.0293,56 276.5293,56 q 0.92187,0 2.04687,-0.125 1.125,-0.109375 2.48438,-0.359375 z"
               style="stroke-width:0.015625" />
            <use
               xlink:href="#DejaVuSans-61"
               x="281.11133"
               id="use596"
               y="0"
               width="100%"
               height="100%" />
            <use
               xlink:href="#DejaVuSans-63"
               x="342.39062"
               id="use598"
               y="0"
               width="100%"
               height="100%" />
            <use
               xlink:href="#DejaVuSans-79"
               x="397.37109"
               id="use600"
               y="0"
               width="100%"
               height="100%" />
          </g>
        </g>
        <g
           id="patch_26">
          <path
             d="m 162.59509,303.92031 h 20 v -7 h -20 z"
             style="fill:#ff0000"
             id="path605" />
        </g>
        <g
           id="text_32">
          <!-- Train time -->
          <g
             transform="matrix(0.1,0,0,-0.1,190.59509,303.92031)"
             id="g635">
            <defs
               id="defs613">
              <path
                 id="DejaVuSans-54"
                 d="M -19,4666 H 3928 V 4134 H 2272 V 0 H 1638 V 4134 H -19 Z"
                 transform="scale(0.015625)" />
              <path
                 id="DejaVuSans-69"
                 d="m 603,3500 h 575 V 0 H 603 Z m 0,1363 h 575 V 4134 H 603 Z"
                 transform="scale(0.015625)" />
              <path
                 id="DejaVuSans-20"
                 transform="scale(0.015625)"
                 d="" />
              <path
                 id="DejaVuSans-74"
                 d="M 1172,4494 V 3500 H 2356 V 3053 H 1172 V 1153 q 0,-428 117,-550 117,-122 477,-122 h 590 V 0 H 1766 Q 1100,0 847,248 594,497 594,1153 V 3053 H 172 v 447 h 422 v 994 z"
                 transform="scale(0.015625)" />
              <path
                 id="DejaVuSans-6d"
                 d="m 3328,2828 q 216,388 516,572 300,184 706,184 547,0 844,-383 297,-382 297,-1088 V 0 h -578 v 2094 q 0,503 -179,746 -178,244 -543,244 -447,0 -707,-297 -259,-296 -259,-809 V 0 h -578 v 2094 q 0,506 -178,748 -178,242 -550,242 -441,0 -701,-298 -259,-298 -259,-808 V 0 H 581 v 3500 h 578 v -544 q 197,322 472,475 275,153 653,153 382,0 649,-194 267,-193 395,-562 z"
                 transform="scale(0.015625)" />
            </defs>
            <use
               xlink:href="#DejaVuSans-54"
               id="use615"
               x="0"
               y="0"
               width="100%"
               height="100%" />
            <path
               id="use617"
               d="m 87.443359,46.296875 q -1.515625,0.875 -3.296875,1.28125 Q 82.365234,48 80.224609,48 72.599609,48 68.521484,43.046875 64.443359,38.09375 64.443359,28.8125 V 0 h -9.03125 v 54.6875 h 9.03125 v -8.5 q 2.84375,4.984375 7.375,7.390625 Q 76.365234,56 82.865234,56 q 0.921875,0 2.046875,-0.125 1.125,-0.109375 2.484375,-0.359375 z"
               style="stroke-width:0.015625" />
            <use
               xlink:href="#DejaVuSans-61"
               x="87.447266"
               id="use619"
               y="0"
               width="100%"
               height="100%" />
            <use
               xlink:href="#DejaVuSans-69"
               x="148.72656"
               id="use621"
               y="0"
               width="100%"
               height="100%" />
            <path
               id="use623"
               d="M 231.40039,33.015625 V 0 h -8.98437 v 32.71875 q 0,7.765625 -3.03125,11.609375 -3.03125,3.859375 -9.07813,3.859375 -7.28125,0 -11.48437,-4.640625 -4.20313,-4.625 -4.20313,-12.640625 V 0 h -9.03125 v 54.6875 h 9.03125 v -8.5 q 3.23438,4.9375 7.59375,7.375 4.375,2.4375 10.09375,2.4375 9.42188,0 14.25,-5.828125 4.84375,-5.828125 4.84375,-17.15625 z"
               style="stroke-width:0.015625" />
            <use
               xlink:href="#DejaVuSans-20"
               x="239.88867"
               id="use625"
               y="0"
               width="100%"
               height="100%" />
            <use
               xlink:href="#DejaVuSans-74"
               x="271.67578"
               id="use627"
               y="0"
               width="100%"
               height="100%" />
            <use
               xlink:href="#DejaVuSans-69"
               x="310.88477"
               id="use629"
               y="0"
               width="100%"
               height="100%" />
            <use
               xlink:href="#DejaVuSans-6d"
               x="338.66797"
               id="use631"
               y="0"
               width="100%"
               height="100%" />
            <path
               id="use633"
               d="m 492.2832,29.59375 v -4.390625 h -41.3125 q 0.59375,-9.28125 5.59375,-14.140625 5,-4.859375 13.9375,-4.859375 5.17188,0 10.03125,1.265625 4.85938,1.265625 9.65625,3.8125 v -8.5 q -4.84375,-2.046875 -9.92187,-3.125 -5.07813,-1.078125 -10.29688,-1.078125 -13.09375,0 -20.73437,7.609375 -7.64063,7.625 -7.64063,20.625 0,13.421875 7.25,21.296875 Q 456.0957,56 468.4082,56 q 11.03125,0 17.45313,-7.109375 6.42187,-7.09375 6.42187,-19.296875 z m -8.98437,2.640625 q -0.0937,7.359375 -4.125,11.75 -4.03125,4.40625 -10.67188,4.40625 -7.51562,0 -12.03125,-4.25 -4.51562,-4.25 -5.20312,-11.96875 z"
               style="stroke-width:0.015625" />
          </g>
        </g>
      </g>
    </g>
    <g
       id="text_33"
       transform="matrix(1.026407,0,0,1.026407,-9.8490766,7.1059724)">
      <!-- ESN4 C1 U150 -->
      <g
         transform="matrix(0.12,0,0,-0.12,152.98875,18.118125)"
         id="g669">
        <defs
           id="defs643">
          <path
             id="DejaVuSans-43"
             d="m 4122,4306 v -665 q -319,297 -680,443 -361,147 -767,147 -800,0 -1225,-489 -425,-489 -425,-1414 0,-922 425,-1411 425,-489 1225,-489 406,0 767,147 361,147 680,444 V 359 Q 3791,134 3420,21 3050,-91 2638,-91 1578,-91 968,557 359,1206 359,2328 q 0,1125 609,1773 610,649 1670,649 418,0 788,-111 371,-111 696,-333 z"
             transform="scale(0.015625)" />
          <path
             id="DejaVuSans-55"
             d="m 556,4666 h 635 V 1831 q 0,-750 271,-1080 272,-329 882,-329 606,0 878,329 272,330 272,1080 v 2835 h 634 V 1753 Q 4128,841 3676,375 3225,-91 2344,-91 1459,-91 1007,375 556,841 556,1753 Z"
             transform="scale(0.015625)" />
          <path
             id="DejaVuSans-35"
             d="M 691,4666 H 3169 V 4134 H 1269 V 2991 q 137,47 274,70 138,23 276,23 781,0 1237,-428 457,-428 457,-1159 Q 3513,744 3044,326 2575,-91 1722,-91 1428,-91 1123,-41 819,9 494,109 v 635 q 281,-153 581,-228 300,-75 634,-75 541,0 856,284 316,284 316,772 0,487 -316,771 -315,285 -856,285 -253,0 -505,-56 -251,-56 -513,-175 z"
             transform="scale(0.015625)" />
        </defs>
        <use
           xlink:href="#DejaVuSans-45"
           id="use645"
           x="0"
           y="0"
           width="100%"
           height="100%" />
        <use
           xlink:href="#DejaVuSans-53"
           x="63.183594"
           id="use647"
           y="0"
           width="100%"
           height="100%" />
        <use
           xlink:href="#DejaVuSans-4e"
           x="126.66016"
           id="use649"
           y="0"
           width="100%"
           height="100%" />
        <path
           id="use651"
           d="M 239.26172,64.3125 214.35547,25.390625 h 24.90625 z m -2.59375,8.59375 h 12.40625 V 25.390625 h 10.40625 V 17.1875 H 249.07422 V 0 h -9.8125 v 17.1875 h -32.90625 v 9.515625 z"
           style="stroke-width:0.015625" />
        <use
           xlink:href="#DejaVuSans-20"
           x="265.08789"
           id="use653"
           y="0"
           width="100%"
           height="100%" />
        <use
           xlink:href="#DejaVuSans-43"
           x="296.875"
           id="use655"
           y="0"
           width="100%"
           height="100%" />
        <path
           id="use657"
           d="m 379.10547,8.296875 h 16.10937 v 55.625 L 377.68359,60.40625 v 8.984375 l 17.4375,3.515625 h 9.85938 V 8.296875 h 16.10937 V 0 h -41.98437 z"
           style="stroke-width:0.015625" />
        <use
           xlink:href="#DejaVuSans-20"
           x="430.32227"
           id="use659"
           y="0"
           width="100%"
           height="100%" />
        <use
           xlink:href="#DejaVuSans-55"
           x="462.10938"
           id="use661"
           y="0"
           width="100%"
           height="100%" />
        <path
           id="use663"
           d="m 547.70898,8.296875 h 16.10938 v 55.625 L 546.28711,60.40625 v 8.984375 l 17.4375,3.515625 h 9.85937 V 8.296875 h 16.10938 V 0 h -41.98438 z"
           style="stroke-width:0.015625" />
        <use
           xlink:href="#DejaVuSans-35"
           x="598.92578"
           id="use665"
           y="0"
           width="100%"
           height="100%" />
        <path
           id="use667"
           d="m 694.33008,66.40625 q -7.60938,0 -11.45313,-7.5 -3.82812,-7.484375 -3.82812,-22.53125 0,-14.984375 3.82812,-22.484375 3.84375,-7.5 11.45313,-7.5 7.67187,0 11.5,7.5 3.84375,7.5 3.84375,22.484375 0,15.046875 -3.84375,22.53125 -3.82813,7.5 -11.5,7.5 z m 0,7.8125 q 12.26562,0 18.73437,-9.703125 6.46875,-9.6875 6.46875,-28.140625 0,-18.40625 -6.46875,-28.109375 -6.46875,-9.6875 -18.73437,-9.6875 -12.25,0 -18.71875,9.6875 -6.46875,9.703125 -6.46875,28.109375 0,18.453125 6.46875,28.140625 6.46875,9.703125 18.71875,9.703125 z"
           style="stroke-width:0.015625" />
      </g>
    </g>
  </g>
  <defs
     id="defs679">
    <clipPath
       id="p3a5ac3ba16">
      <rect
         x="29.484"
         y="72"
         width="5.015753"
         height="261"
         id="rect673" />
    </clipPath>
    <clipPath
       id="p3c9ff7b815">
      <rect
         x="49.14"
         y="43.2"
         width="304.668"
         height="271.8"
         id="rect676" />
    </clipPath>
  </defs>
</svg>
