<?xml version="1.0" encoding="utf-8" standalone="no"?>
<!DOCTYPE svg PUBLIC "-//W3C//DTD SVG 1.1//EN"
  "http://www.w3.org/Graphics/SVG/1.1/DTD/svg11.dtd">
<svg xmlns:xlink="http://www.w3.org/1999/xlink" width="392.14375pt" height="304.189125pt" viewBox="0 0 392.14375 304.189125" xmlns="http://www.w3.org/2000/svg" version="1.1">
 <metadata>
  <rdf:RDF xmlns:dc="http://purl.org/dc/elements/1.1/" xmlns:cc="http://creativecommons.org/ns#" xmlns:rdf="http://www.w3.org/1999/02/22-rdf-syntax-ns#">
   <cc:Work>
    <dc:type rdf:resource="http://purl.org/dc/dcmitype/StillImage"/>
    <dc:date>2022-01-12T12:08:34.913947</dc:date>
    <dc:format>image/svg+xml</dc:format>
    <dc:creator>
     <cc:Agent>
      <dc:title>Matplotlib v3.5.1, https://matplotlib.org/</dc:title>
     </cc:Agent>
    </dc:creator>
   </cc:Work>
  </rdf:RDF>
 </metadata>
 <defs>
  <style type="text/css">*{stroke-linejoin: round; stroke-linecap: butt}</style>
 </defs>
 <g id="figure_1">
  <g id="patch_1">
   <path d="M 0 304.189125 
L 392.14375 304.189125 
L 392.14375 0 
L 0 0 
L 0 304.189125 
z
" style="fill: none"/>
  </g>
  <g id="axes_1">
   <g id="patch_2">
    <path d="M 50.14375 266.632875 
L 384.94375 266.632875 
L 384.94375 49.192875 
L 50.14375 49.192875 
z
" style="fill: #ffffff"/>
   </g>
   <g id="matplotlib.axis_1">
    <g id="xtick_1">
     <g id="line2d_1">
      <defs>
       <path id="m8f243a28de" d="M 0 0 
L 0 3.5 
" style="stroke: #000000; stroke-width: 0.8"/>
      </defs>
      <g>
       <use xlink:href="#m8f243a28de" x="65.361932" y="266.632875" style="stroke: #000000; stroke-width: 0.8"/>
      </g>
     </g>
     <g id="text_1">
      <!-- 50 -->
      <g transform="translate(58.999432 281.231312)scale(0.1 -0.1)">
       <defs>
        <path id="DejaVuSans-35" d="M 691 4666 
L 3169 4666 
L 3169 4134 
L 1269 4134 
L 1269 2991 
Q 1406 3038 1543 3061 
Q 1681 3084 1819 3084 
Q 2600 3084 3056 2656 
Q 3513 2228 3513 1497 
Q 3513 744 3044 326 
Q 2575 -91 1722 -91 
Q 1428 -91 1123 -41 
Q 819 9 494 109 
L 494 744 
Q 775 591 1075 516 
Q 1375 441 1709 441 
Q 2250 441 2565 725 
Q 2881 1009 2881 1497 
Q 2881 1984 2565 2268 
Q 2250 2553 1709 2553 
Q 1456 2553 1204 2497 
Q 953 2441 691 2322 
L 691 4666 
z
" transform="scale(0.015625)"/>
        <path id="DejaVuSans-30" d="M 2034 4250 
Q 1547 4250 1301 3770 
Q 1056 3291 1056 2328 
Q 1056 1369 1301 889 
Q 1547 409 2034 409 
Q 2525 409 2770 889 
Q 3016 1369 3016 2328 
Q 3016 3291 2770 3770 
Q 2525 4250 2034 4250 
z
M 2034 4750 
Q 2819 4750 3233 4129 
Q 3647 3509 3647 2328 
Q 3647 1150 3233 529 
Q 2819 -91 2034 -91 
Q 1250 -91 836 529 
Q 422 1150 422 2328 
Q 422 3509 836 4129 
Q 1250 4750 2034 4750 
z
" transform="scale(0.015625)"/>
       </defs>
       <use xlink:href="#DejaVuSans-35"/>
       <use xlink:href="#DejaVuSans-30" x="63.623047"/>
      </g>
     </g>
    </g>
    <g id="xtick_2">
     <g id="line2d_2">
      <g>
       <use xlink:href="#m8f243a28de" x="111.617804" y="266.632875" style="stroke: #000000; stroke-width: 0.8"/>
      </g>
     </g>
     <g id="text_2">
      <!-- 100 -->
      <g transform="translate(102.074054 281.231312)scale(0.1 -0.1)">
       <defs>
        <path id="DejaVuSans-31" d="M 794 531 
L 1825 531 
L 1825 4091 
L 703 3866 
L 703 4441 
L 1819 4666 
L 2450 4666 
L 2450 531 
L 3481 531 
L 3481 0 
L 794 0 
L 794 531 
z
" transform="scale(0.015625)"/>
       </defs>
       <use xlink:href="#DejaVuSans-31"/>
       <use xlink:href="#DejaVuSans-30" x="63.623047"/>
       <use xlink:href="#DejaVuSans-30" x="127.246094"/>
      </g>
     </g>
    </g>
    <g id="xtick_3">
     <g id="line2d_3">
      <g>
       <use xlink:href="#m8f243a28de" x="157.873675" y="266.632875" style="stroke: #000000; stroke-width: 0.8"/>
      </g>
     </g>
     <g id="text_3">
      <!-- 150 -->
      <g transform="translate(148.329925 281.231312)scale(0.1 -0.1)">
       <use xlink:href="#DejaVuSans-31"/>
       <use xlink:href="#DejaVuSans-35" x="63.623047"/>
       <use xlink:href="#DejaVuSans-30" x="127.246094"/>
      </g>
     </g>
    </g>
    <g id="xtick_4">
     <g id="line2d_4">
      <g>
       <use xlink:href="#m8f243a28de" x="204.129547" y="266.632875" style="stroke: #000000; stroke-width: 0.8"/>
      </g>
     </g>
     <g id="text_4">
      <!-- 200 -->
      <g transform="translate(194.585797 281.231312)scale(0.1 -0.1)">
       <defs>
        <path id="DejaVuSans-32" d="M 1228 531 
L 3431 531 
L 3431 0 
L 469 0 
L 469 531 
Q 828 903 1448 1529 
Q 2069 2156 2228 2338 
Q 2531 2678 2651 2914 
Q 2772 3150 2772 3378 
Q 2772 3750 2511 3984 
Q 2250 4219 1831 4219 
Q 1534 4219 1204 4116 
Q 875 4013 500 3803 
L 500 4441 
Q 881 4594 1212 4672 
Q 1544 4750 1819 4750 
Q 2544 4750 2975 4387 
Q 3406 4025 3406 3419 
Q 3406 3131 3298 2873 
Q 3191 2616 2906 2266 
Q 2828 2175 2409 1742 
Q 1991 1309 1228 531 
z
" transform="scale(0.015625)"/>
       </defs>
       <use xlink:href="#DejaVuSans-32"/>
       <use xlink:href="#DejaVuSans-30" x="63.623047"/>
       <use xlink:href="#DejaVuSans-30" x="127.246094"/>
      </g>
     </g>
    </g>
    <g id="xtick_5">
     <g id="line2d_5">
      <g>
       <use xlink:href="#m8f243a28de" x="250.385419" y="266.632875" style="stroke: #000000; stroke-width: 0.8"/>
      </g>
     </g>
     <g id="text_5">
      <!-- 250 -->
      <g transform="translate(240.841669 281.231312)scale(0.1 -0.1)">
       <use xlink:href="#DejaVuSans-32"/>
       <use xlink:href="#DejaVuSans-35" x="63.623047"/>
       <use xlink:href="#DejaVuSans-30" x="127.246094"/>
      </g>
     </g>
    </g>
    <g id="xtick_6">
     <g id="line2d_6">
      <g>
       <use xlink:href="#m8f243a28de" x="296.641291" y="266.632875" style="stroke: #000000; stroke-width: 0.8"/>
      </g>
     </g>
     <g id="text_6">
      <!-- 300 -->
      <g transform="translate(287.097541 281.231312)scale(0.1 -0.1)">
       <defs>
        <path id="DejaVuSans-33" d="M 2597 2516 
Q 3050 2419 3304 2112 
Q 3559 1806 3559 1356 
Q 3559 666 3084 287 
Q 2609 -91 1734 -91 
Q 1441 -91 1130 -33 
Q 819 25 488 141 
L 488 750 
Q 750 597 1062 519 
Q 1375 441 1716 441 
Q 2309 441 2620 675 
Q 2931 909 2931 1356 
Q 2931 1769 2642 2001 
Q 2353 2234 1838 2234 
L 1294 2234 
L 1294 2753 
L 1863 2753 
Q 2328 2753 2575 2939 
Q 2822 3125 2822 3475 
Q 2822 3834 2567 4026 
Q 2313 4219 1838 4219 
Q 1578 4219 1281 4162 
Q 984 4106 628 3988 
L 628 4550 
Q 988 4650 1302 4700 
Q 1616 4750 1894 4750 
Q 2613 4750 3031 4423 
Q 3450 4097 3450 3541 
Q 3450 3153 3228 2886 
Q 3006 2619 2597 2516 
z
" transform="scale(0.015625)"/>
       </defs>
       <use xlink:href="#DejaVuSans-33"/>
       <use xlink:href="#DejaVuSans-30" x="63.623047"/>
       <use xlink:href="#DejaVuSans-30" x="127.246094"/>
      </g>
     </g>
    </g>
    <g id="xtick_7">
     <g id="line2d_7">
      <g>
       <use xlink:href="#m8f243a28de" x="342.897163" y="266.632875" style="stroke: #000000; stroke-width: 0.8"/>
      </g>
     </g>
     <g id="text_7">
      <!-- 350 -->
      <g transform="translate(333.353413 281.231312)scale(0.1 -0.1)">
       <use xlink:href="#DejaVuSans-33"/>
       <use xlink:href="#DejaVuSans-35" x="63.623047"/>
       <use xlink:href="#DejaVuSans-30" x="127.246094"/>
      </g>
     </g>
    </g>
    <g id="text_8">
     <!-- Units -->
     <g transform="translate(204.761719 294.909437)scale(0.1 -0.1)">
      <defs>
       <path id="DejaVuSans-55" d="M 556 4666 
L 1191 4666 
L 1191 1831 
Q 1191 1081 1462 751 
Q 1734 422 2344 422 
Q 2950 422 3222 751 
Q 3494 1081 3494 1831 
L 3494 4666 
L 4128 4666 
L 4128 1753 
Q 4128 841 3676 375 
Q 3225 -91 2344 -91 
Q 1459 -91 1007 375 
Q 556 841 556 1753 
L 556 4666 
z
" transform="scale(0.015625)"/>
       <path id="DejaVuSans-6e" d="M 3513 2113 
L 3513 0 
L 2938 0 
L 2938 2094 
Q 2938 2591 2744 2837 
Q 2550 3084 2163 3084 
Q 1697 3084 1428 2787 
Q 1159 2491 1159 1978 
L 1159 0 
L 581 0 
L 581 3500 
L 1159 3500 
L 1159 2956 
Q 1366 3272 1645 3428 
Q 1925 3584 2291 3584 
Q 2894 3584 3203 3211 
Q 3513 2838 3513 2113 
z
" transform="scale(0.015625)"/>
       <path id="DejaVuSans-69" d="M 603 3500 
L 1178 3500 
L 1178 0 
L 603 0 
L 603 3500 
z
M 603 4863 
L 1178 4863 
L 1178 4134 
L 603 4134 
L 603 4863 
z
" transform="scale(0.015625)"/>
       <path id="DejaVuSans-74" d="M 1172 4494 
L 1172 3500 
L 2356 3500 
L 2356 3053 
L 1172 3053 
L 1172 1153 
Q 1172 725 1289 603 
Q 1406 481 1766 481 
L 2356 481 
L 2356 0 
L 1766 0 
Q 1100 0 847 248 
Q 594 497 594 1153 
L 594 3053 
L 172 3053 
L 172 3500 
L 594 3500 
L 594 4494 
L 1172 4494 
z
" transform="scale(0.015625)"/>
       <path id="DejaVuSans-73" d="M 2834 3397 
L 2834 2853 
Q 2591 2978 2328 3040 
Q 2066 3103 1784 3103 
Q 1356 3103 1142 2972 
Q 928 2841 928 2578 
Q 928 2378 1081 2264 
Q 1234 2150 1697 2047 
L 1894 2003 
Q 2506 1872 2764 1633 
Q 3022 1394 3022 966 
Q 3022 478 2636 193 
Q 2250 -91 1575 -91 
Q 1294 -91 989 -36 
Q 684 19 347 128 
L 347 722 
Q 666 556 975 473 
Q 1284 391 1588 391 
Q 1994 391 2212 530 
Q 2431 669 2431 922 
Q 2431 1156 2273 1281 
Q 2116 1406 1581 1522 
L 1381 1569 
Q 847 1681 609 1914 
Q 372 2147 372 2553 
Q 372 3047 722 3315 
Q 1072 3584 1716 3584 
Q 2034 3584 2315 3537 
Q 2597 3491 2834 3397 
z
" transform="scale(0.015625)"/>
      </defs>
      <use xlink:href="#DejaVuSans-55"/>
      <use xlink:href="#DejaVuSans-6e" x="73.193359"/>
      <use xlink:href="#DejaVuSans-69" x="136.572266"/>
      <use xlink:href="#DejaVuSans-74" x="164.355469"/>
      <use xlink:href="#DejaVuSans-73" x="203.564453"/>
     </g>
    </g>
   </g>
   <g id="matplotlib.axis_2">
    <g id="ytick_1">
     <g id="line2d_8">
      <defs>
       <path id="m7d744dce45" d="M 0 0 
L -3.5 0 
" style="stroke: #000000; stroke-width: 0.8"/>
      </defs>
      <g>
       <use xlink:href="#m7d744dce45" x="50.14375" y="253.196519" style="stroke: #000000; stroke-width: 0.8"/>
      </g>
     </g>
     <g id="text_9">
      <!-- 0.70 -->
      <g transform="translate(20.878125 256.995738)scale(0.1 -0.1)">
       <defs>
        <path id="DejaVuSans-2e" d="M 684 794 
L 1344 794 
L 1344 0 
L 684 0 
L 684 794 
z
" transform="scale(0.015625)"/>
        <path id="DejaVuSans-37" d="M 525 4666 
L 3525 4666 
L 3525 4397 
L 1831 0 
L 1172 0 
L 2766 4134 
L 525 4134 
L 525 4666 
z
" transform="scale(0.015625)"/>
       </defs>
       <use xlink:href="#DejaVuSans-30"/>
       <use xlink:href="#DejaVuSans-2e" x="63.623047"/>
       <use xlink:href="#DejaVuSans-37" x="95.410156"/>
       <use xlink:href="#DejaVuSans-30" x="159.033203"/>
      </g>
     </g>
    </g>
    <g id="ytick_2">
     <g id="line2d_9">
      <g>
       <use xlink:href="#m7d744dce45" x="50.14375" y="219.195912" style="stroke: #000000; stroke-width: 0.8"/>
      </g>
     </g>
     <g id="text_10">
      <!-- 0.75 -->
      <g transform="translate(20.878125 222.995131)scale(0.1 -0.1)">
       <use xlink:href="#DejaVuSans-30"/>
       <use xlink:href="#DejaVuSans-2e" x="63.623047"/>
       <use xlink:href="#DejaVuSans-37" x="95.410156"/>
       <use xlink:href="#DejaVuSans-35" x="159.033203"/>
      </g>
     </g>
    </g>
    <g id="ytick_3">
     <g id="line2d_10">
      <g>
       <use xlink:href="#m7d744dce45" x="50.14375" y="185.195305" style="stroke: #000000; stroke-width: 0.8"/>
      </g>
     </g>
     <g id="text_11">
      <!-- 0.80 -->
      <g transform="translate(20.878125 188.994523)scale(0.1 -0.1)">
       <defs>
        <path id="DejaVuSans-38" d="M 2034 2216 
Q 1584 2216 1326 1975 
Q 1069 1734 1069 1313 
Q 1069 891 1326 650 
Q 1584 409 2034 409 
Q 2484 409 2743 651 
Q 3003 894 3003 1313 
Q 3003 1734 2745 1975 
Q 2488 2216 2034 2216 
z
M 1403 2484 
Q 997 2584 770 2862 
Q 544 3141 544 3541 
Q 544 4100 942 4425 
Q 1341 4750 2034 4750 
Q 2731 4750 3128 4425 
Q 3525 4100 3525 3541 
Q 3525 3141 3298 2862 
Q 3072 2584 2669 2484 
Q 3125 2378 3379 2068 
Q 3634 1759 3634 1313 
Q 3634 634 3220 271 
Q 2806 -91 2034 -91 
Q 1263 -91 848 271 
Q 434 634 434 1313 
Q 434 1759 690 2068 
Q 947 2378 1403 2484 
z
M 1172 3481 
Q 1172 3119 1398 2916 
Q 1625 2713 2034 2713 
Q 2441 2713 2670 2916 
Q 2900 3119 2900 3481 
Q 2900 3844 2670 4047 
Q 2441 4250 2034 4250 
Q 1625 4250 1398 4047 
Q 1172 3844 1172 3481 
z
" transform="scale(0.015625)"/>
       </defs>
       <use xlink:href="#DejaVuSans-30"/>
       <use xlink:href="#DejaVuSans-2e" x="63.623047"/>
       <use xlink:href="#DejaVuSans-38" x="95.410156"/>
       <use xlink:href="#DejaVuSans-30" x="159.033203"/>
      </g>
     </g>
    </g>
    <g id="ytick_4">
     <g id="line2d_11">
      <g>
       <use xlink:href="#m7d744dce45" x="50.14375" y="151.194697" style="stroke: #000000; stroke-width: 0.8"/>
      </g>
     </g>
     <g id="text_12">
      <!-- 0.85 -->
      <g transform="translate(20.878125 154.993916)scale(0.1 -0.1)">
       <use xlink:href="#DejaVuSans-30"/>
       <use xlink:href="#DejaVuSans-2e" x="63.623047"/>
       <use xlink:href="#DejaVuSans-38" x="95.410156"/>
       <use xlink:href="#DejaVuSans-35" x="159.033203"/>
      </g>
     </g>
    </g>
    <g id="ytick_5">
     <g id="line2d_12">
      <g>
       <use xlink:href="#m7d744dce45" x="50.14375" y="117.19409" style="stroke: #000000; stroke-width: 0.8"/>
      </g>
     </g>
     <g id="text_13">
      <!-- 0.90 -->
      <g transform="translate(20.878125 120.993309)scale(0.1 -0.1)">
       <defs>
        <path id="DejaVuSans-39" d="M 703 97 
L 703 672 
Q 941 559 1184 500 
Q 1428 441 1663 441 
Q 2288 441 2617 861 
Q 2947 1281 2994 2138 
Q 2813 1869 2534 1725 
Q 2256 1581 1919 1581 
Q 1219 1581 811 2004 
Q 403 2428 403 3163 
Q 403 3881 828 4315 
Q 1253 4750 1959 4750 
Q 2769 4750 3195 4129 
Q 3622 3509 3622 2328 
Q 3622 1225 3098 567 
Q 2575 -91 1691 -91 
Q 1453 -91 1209 -44 
Q 966 3 703 97 
z
M 1959 2075 
Q 2384 2075 2632 2365 
Q 2881 2656 2881 3163 
Q 2881 3666 2632 3958 
Q 2384 4250 1959 4250 
Q 1534 4250 1286 3958 
Q 1038 3666 1038 3163 
Q 1038 2656 1286 2365 
Q 1534 2075 1959 2075 
z
" transform="scale(0.015625)"/>
       </defs>
       <use xlink:href="#DejaVuSans-30"/>
       <use xlink:href="#DejaVuSans-2e" x="63.623047"/>
       <use xlink:href="#DejaVuSans-39" x="95.410156"/>
       <use xlink:href="#DejaVuSans-30" x="159.033203"/>
      </g>
     </g>
    </g>
    <g id="ytick_6">
     <g id="line2d_13">
      <g>
       <use xlink:href="#m7d744dce45" x="50.14375" y="83.193482" style="stroke: #000000; stroke-width: 0.8"/>
      </g>
     </g>
     <g id="text_14">
      <!-- 0.95 -->
      <g transform="translate(20.878125 86.992701)scale(0.1 -0.1)">
       <use xlink:href="#DejaVuSans-30"/>
       <use xlink:href="#DejaVuSans-2e" x="63.623047"/>
       <use xlink:href="#DejaVuSans-39" x="95.410156"/>
       <use xlink:href="#DejaVuSans-35" x="159.033203"/>
      </g>
     </g>
    </g>
    <g id="ytick_7">
     <g id="line2d_14">
      <g>
       <use xlink:href="#m7d744dce45" x="50.14375" y="49.192875" style="stroke: #000000; stroke-width: 0.8"/>
      </g>
     </g>
     <g id="text_15">
      <!-- 1.00 -->
      <g transform="translate(20.878125 52.992094)scale(0.1 -0.1)">
       <use xlink:href="#DejaVuSans-31"/>
       <use xlink:href="#DejaVuSans-2e" x="63.623047"/>
       <use xlink:href="#DejaVuSans-30" x="95.410156"/>
       <use xlink:href="#DejaVuSans-30" x="159.033203"/>
      </g>
     </g>
    </g>
    <g id="ytick_8">
     <g id="line2d_15">
      <defs>
       <path id="m515504e180" d="M 0 0 
L -2 0 
" style="stroke: #000000; stroke-width: 0.6"/>
      </defs>
      <g>
       <use xlink:href="#m515504e180" x="50.14375" y="259.996641" style="stroke: #000000; stroke-width: 0.6"/>
      </g>
     </g>
    </g>
    <g id="ytick_9">
     <g id="line2d_16">
      <g>
       <use xlink:href="#m515504e180" x="50.14375" y="246.396398" style="stroke: #000000; stroke-width: 0.6"/>
      </g>
     </g>
    </g>
    <g id="ytick_10">
     <g id="line2d_17">
      <g>
       <use xlink:href="#m515504e180" x="50.14375" y="239.596276" style="stroke: #000000; stroke-width: 0.6"/>
      </g>
     </g>
    </g>
    <g id="ytick_11">
     <g id="line2d_18">
      <g>
       <use xlink:href="#m515504e180" x="50.14375" y="232.796155" style="stroke: #000000; stroke-width: 0.6"/>
      </g>
     </g>
    </g>
    <g id="ytick_12">
     <g id="line2d_19">
      <g>
       <use xlink:href="#m515504e180" x="50.14375" y="225.996034" style="stroke: #000000; stroke-width: 0.6"/>
      </g>
     </g>
    </g>
    <g id="ytick_13">
     <g id="line2d_20">
      <g>
       <use xlink:href="#m515504e180" x="50.14375" y="212.395791" style="stroke: #000000; stroke-width: 0.6"/>
      </g>
     </g>
    </g>
    <g id="ytick_14">
     <g id="line2d_21">
      <g>
       <use xlink:href="#m515504e180" x="50.14375" y="205.595669" style="stroke: #000000; stroke-width: 0.6"/>
      </g>
     </g>
    </g>
    <g id="ytick_15">
     <g id="line2d_22">
      <g>
       <use xlink:href="#m515504e180" x="50.14375" y="198.795548" style="stroke: #000000; stroke-width: 0.6"/>
      </g>
     </g>
    </g>
    <g id="ytick_16">
     <g id="line2d_23">
      <g>
       <use xlink:href="#m515504e180" x="50.14375" y="191.995426" style="stroke: #000000; stroke-width: 0.6"/>
      </g>
     </g>
    </g>
    <g id="ytick_17">
     <g id="line2d_24">
      <g>
       <use xlink:href="#m515504e180" x="50.14375" y="178.395183" style="stroke: #000000; stroke-width: 0.6"/>
      </g>
     </g>
    </g>
    <g id="ytick_18">
     <g id="line2d_25">
      <g>
       <use xlink:href="#m515504e180" x="50.14375" y="171.595062" style="stroke: #000000; stroke-width: 0.6"/>
      </g>
     </g>
    </g>
    <g id="ytick_19">
     <g id="line2d_26">
      <g>
       <use xlink:href="#m515504e180" x="50.14375" y="164.79494" style="stroke: #000000; stroke-width: 0.6"/>
      </g>
     </g>
    </g>
    <g id="ytick_20">
     <g id="line2d_27">
      <g>
       <use xlink:href="#m515504e180" x="50.14375" y="157.994819" style="stroke: #000000; stroke-width: 0.6"/>
      </g>
     </g>
    </g>
    <g id="ytick_21">
     <g id="line2d_28">
      <g>
       <use xlink:href="#m515504e180" x="50.14375" y="144.394576" style="stroke: #000000; stroke-width: 0.6"/>
      </g>
     </g>
    </g>
    <g id="ytick_22">
     <g id="line2d_29">
      <g>
       <use xlink:href="#m515504e180" x="50.14375" y="137.594454" style="stroke: #000000; stroke-width: 0.6"/>
      </g>
     </g>
    </g>
    <g id="ytick_23">
     <g id="line2d_30">
      <g>
       <use xlink:href="#m515504e180" x="50.14375" y="130.794333" style="stroke: #000000; stroke-width: 0.6"/>
      </g>
     </g>
    </g>
    <g id="ytick_24">
     <g id="line2d_31">
      <g>
       <use xlink:href="#m515504e180" x="50.14375" y="123.994211" style="stroke: #000000; stroke-width: 0.6"/>
      </g>
     </g>
    </g>
    <g id="ytick_25">
     <g id="line2d_32">
      <g>
       <use xlink:href="#m515504e180" x="50.14375" y="110.393968" style="stroke: #000000; stroke-width: 0.6"/>
      </g>
     </g>
    </g>
    <g id="ytick_26">
     <g id="line2d_33">
      <g>
       <use xlink:href="#m515504e180" x="50.14375" y="103.593847" style="stroke: #000000; stroke-width: 0.6"/>
      </g>
     </g>
    </g>
    <g id="ytick_27">
     <g id="line2d_34">
      <g>
       <use xlink:href="#m515504e180" x="50.14375" y="96.793725" style="stroke: #000000; stroke-width: 0.6"/>
      </g>
     </g>
    </g>
    <g id="ytick_28">
     <g id="line2d_35">
      <g>
       <use xlink:href="#m515504e180" x="50.14375" y="89.993604" style="stroke: #000000; stroke-width: 0.6"/>
      </g>
     </g>
    </g>
    <g id="ytick_29">
     <g id="line2d_36">
      <g>
       <use xlink:href="#m515504e180" x="50.14375" y="76.393361" style="stroke: #000000; stroke-width: 0.6"/>
      </g>
     </g>
    </g>
    <g id="ytick_30">
     <g id="line2d_37">
      <g>
       <use xlink:href="#m515504e180" x="50.14375" y="69.593239" style="stroke: #000000; stroke-width: 0.6"/>
      </g>
     </g>
    </g>
    <g id="ytick_31">
     <g id="line2d_38">
      <g>
       <use xlink:href="#m515504e180" x="50.14375" y="62.793118" style="stroke: #000000; stroke-width: 0.6"/>
      </g>
     </g>
    </g>
    <g id="ytick_32">
     <g id="line2d_39">
      <g>
       <use xlink:href="#m515504e180" x="50.14375" y="55.992996" style="stroke: #000000; stroke-width: 0.6"/>
      </g>
     </g>
    </g>
    <g id="text_16">
     <!-- Accuracy -->
     <g transform="translate(14.798438 180.741)rotate(-90)scale(0.1 -0.1)">
      <defs>
       <path id="DejaVuSans-41" d="M 2188 4044 
L 1331 1722 
L 3047 1722 
L 2188 4044 
z
M 1831 4666 
L 2547 4666 
L 4325 0 
L 3669 0 
L 3244 1197 
L 1141 1197 
L 716 0 
L 50 0 
L 1831 4666 
z
" transform="scale(0.015625)"/>
       <path id="DejaVuSans-63" d="M 3122 3366 
L 3122 2828 
Q 2878 2963 2633 3030 
Q 2388 3097 2138 3097 
Q 1578 3097 1268 2742 
Q 959 2388 959 1747 
Q 959 1106 1268 751 
Q 1578 397 2138 397 
Q 2388 397 2633 464 
Q 2878 531 3122 666 
L 3122 134 
Q 2881 22 2623 -34 
Q 2366 -91 2075 -91 
Q 1284 -91 818 406 
Q 353 903 353 1747 
Q 353 2603 823 3093 
Q 1294 3584 2113 3584 
Q 2378 3584 2631 3529 
Q 2884 3475 3122 3366 
z
" transform="scale(0.015625)"/>
       <path id="DejaVuSans-75" d="M 544 1381 
L 544 3500 
L 1119 3500 
L 1119 1403 
Q 1119 906 1312 657 
Q 1506 409 1894 409 
Q 2359 409 2629 706 
Q 2900 1003 2900 1516 
L 2900 3500 
L 3475 3500 
L 3475 0 
L 2900 0 
L 2900 538 
Q 2691 219 2414 64 
Q 2138 -91 1772 -91 
Q 1169 -91 856 284 
Q 544 659 544 1381 
z
M 1991 3584 
L 1991 3584 
z
" transform="scale(0.015625)"/>
       <path id="DejaVuSans-72" d="M 2631 2963 
Q 2534 3019 2420 3045 
Q 2306 3072 2169 3072 
Q 1681 3072 1420 2755 
Q 1159 2438 1159 1844 
L 1159 0 
L 581 0 
L 581 3500 
L 1159 3500 
L 1159 2956 
Q 1341 3275 1631 3429 
Q 1922 3584 2338 3584 
Q 2397 3584 2469 3576 
Q 2541 3569 2628 3553 
L 2631 2963 
z
" transform="scale(0.015625)"/>
       <path id="DejaVuSans-61" d="M 2194 1759 
Q 1497 1759 1228 1600 
Q 959 1441 959 1056 
Q 959 750 1161 570 
Q 1363 391 1709 391 
Q 2188 391 2477 730 
Q 2766 1069 2766 1631 
L 2766 1759 
L 2194 1759 
z
M 3341 1997 
L 3341 0 
L 2766 0 
L 2766 531 
Q 2569 213 2275 61 
Q 1981 -91 1556 -91 
Q 1019 -91 701 211 
Q 384 513 384 1019 
Q 384 1609 779 1909 
Q 1175 2209 1959 2209 
L 2766 2209 
L 2766 2266 
Q 2766 2663 2505 2880 
Q 2244 3097 1772 3097 
Q 1472 3097 1187 3025 
Q 903 2953 641 2809 
L 641 3341 
Q 956 3463 1253 3523 
Q 1550 3584 1831 3584 
Q 2591 3584 2966 3190 
Q 3341 2797 3341 1997 
z
" transform="scale(0.015625)"/>
       <path id="DejaVuSans-79" d="M 2059 -325 
Q 1816 -950 1584 -1140 
Q 1353 -1331 966 -1331 
L 506 -1331 
L 506 -850 
L 844 -850 
Q 1081 -850 1212 -737 
Q 1344 -625 1503 -206 
L 1606 56 
L 191 3500 
L 800 3500 
L 1894 763 
L 2988 3500 
L 3597 3500 
L 2059 -325 
z
" transform="scale(0.015625)"/>
      </defs>
      <use xlink:href="#DejaVuSans-41"/>
      <use xlink:href="#DejaVuSans-63" x="66.658203"/>
      <use xlink:href="#DejaVuSans-63" x="121.638672"/>
      <use xlink:href="#DejaVuSans-75" x="176.619141"/>
      <use xlink:href="#DejaVuSans-72" x="239.998047"/>
      <use xlink:href="#DejaVuSans-61" x="281.111328"/>
      <use xlink:href="#DejaVuSans-63" x="342.390625"/>
      <use xlink:href="#DejaVuSans-79" x="397.371094"/>
     </g>
    </g>
   </g>
   <g id="LineCollection_1">
    <path d="M 65.361932 257.309379 
L 65.361932 219.891682 
" clip-path="url(#pe0b7314069)" style="fill: none; stroke: #1f77b4; stroke-width: 1.5"/>
    <path d="M 88.489868 184.94793 
L 88.489868 150.622614 
" clip-path="url(#pe0b7314069)" style="fill: none; stroke: #1f77b4; stroke-width: 1.5"/>
    <path d="M 122.719213 171.650717 
L 122.719213 142.582467 
" clip-path="url(#pe0b7314069)" style="fill: none; stroke: #1f77b4; stroke-width: 1.5"/>
    <path d="M 174.525789 145.05633 
L 174.525789 125.574397 
" clip-path="url(#pe0b7314069)" style="fill: none; stroke: #1f77b4; stroke-width: 1.5"/>
    <path d="M 253.160771 128.666777 
L 253.160771 110.421796 
" clip-path="url(#pe0b7314069)" style="fill: none; stroke: #1f77b4; stroke-width: 1.5"/>
    <path d="M 369.725568 126.192873 
L 369.725568 103.309342 
" clip-path="url(#pe0b7314069)" style="fill: none; stroke: #1f77b4; stroke-width: 1.5"/>
   </g>
   <g id="line2d_40">
    <defs>
     <path id="m47024deaa7" d="M 5 0 
L -5 -0 
" style="stroke: #1f77b4"/>
    </defs>
    <g clip-path="url(#pe0b7314069)">
     <use xlink:href="#m47024deaa7" x="65.361932" y="257.309379" style="fill: #1f77b4; stroke: #1f77b4"/>
     <use xlink:href="#m47024deaa7" x="88.489868" y="184.94793" style="fill: #1f77b4; stroke: #1f77b4"/>
     <use xlink:href="#m47024deaa7" x="122.719213" y="171.650717" style="fill: #1f77b4; stroke: #1f77b4"/>
     <use xlink:href="#m47024deaa7" x="174.525789" y="145.05633" style="fill: #1f77b4; stroke: #1f77b4"/>
     <use xlink:href="#m47024deaa7" x="253.160771" y="128.666777" style="fill: #1f77b4; stroke: #1f77b4"/>
     <use xlink:href="#m47024deaa7" x="369.725568" y="126.192873" style="fill: #1f77b4; stroke: #1f77b4"/>
    </g>
   </g>
   <g id="line2d_41">
    <g clip-path="url(#pe0b7314069)">
     <use xlink:href="#m47024deaa7" x="65.361932" y="219.891682" style="fill: #1f77b4; stroke: #1f77b4"/>
     <use xlink:href="#m47024deaa7" x="88.489868" y="150.622614" style="fill: #1f77b4; stroke: #1f77b4"/>
     <use xlink:href="#m47024deaa7" x="122.719213" y="142.582467" style="fill: #1f77b4; stroke: #1f77b4"/>
     <use xlink:href="#m47024deaa7" x="174.525789" y="125.574397" style="fill: #1f77b4; stroke: #1f77b4"/>
     <use xlink:href="#m47024deaa7" x="253.160771" y="110.421796" style="fill: #1f77b4; stroke: #1f77b4"/>
     <use xlink:href="#m47024deaa7" x="369.725568" y="103.309342" style="fill: #1f77b4; stroke: #1f77b4"/>
    </g>
   </g>
   <g id="LineCollection_2">
    <path d="M 65.361932 166.702949 
L 65.361932 135.779231 
" clip-path="url(#pe0b7314069)" style="fill: none; stroke: #ff7f0e; stroke-width: 1.5"/>
    <path d="M 88.489868 158.97202 
L 88.489868 116.915774 
" clip-path="url(#pe0b7314069)" style="fill: none; stroke: #ff7f0e; stroke-width: 1.5"/>
    <path d="M 122.719213 140.727039 
L 122.719213 97.433841 
" clip-path="url(#pe0b7314069)" style="fill: none; stroke: #ff7f0e; stroke-width: 1.5"/>
    <path d="M 174.525789 101.453914 
L 174.525789 86.301313 
" clip-path="url(#pe0b7314069)" style="fill: none; stroke: #ff7f0e; stroke-width: 1.5"/>
    <path d="M 253.160771 94.341461 
L 253.160771 85.682837 
" clip-path="url(#pe0b7314069)" style="fill: none; stroke: #ff7f0e; stroke-width: 1.5"/>
    <path d="M 369.725568 94.032243 
L 369.725568 76.405738 
" clip-path="url(#pe0b7314069)" style="fill: none; stroke: #ff7f0e; stroke-width: 1.5"/>
   </g>
   <g id="line2d_42">
    <defs>
     <path id="ma5463c0336" d="M 5 0 
L -5 -0 
" style="stroke: #ff7f0e"/>
    </defs>
    <g clip-path="url(#pe0b7314069)">
     <use xlink:href="#ma5463c0336" x="65.361932" y="166.702949" style="fill: #ff7f0e; stroke: #ff7f0e"/>
     <use xlink:href="#ma5463c0336" x="88.489868" y="158.97202" style="fill: #ff7f0e; stroke: #ff7f0e"/>
     <use xlink:href="#ma5463c0336" x="122.719213" y="140.727039" style="fill: #ff7f0e; stroke: #ff7f0e"/>
     <use xlink:href="#ma5463c0336" x="174.525789" y="101.453914" style="fill: #ff7f0e; stroke: #ff7f0e"/>
     <use xlink:href="#ma5463c0336" x="253.160771" y="94.341461" style="fill: #ff7f0e; stroke: #ff7f0e"/>
     <use xlink:href="#ma5463c0336" x="369.725568" y="94.032243" style="fill: #ff7f0e; stroke: #ff7f0e"/>
    </g>
   </g>
   <g id="line2d_43">
    <g clip-path="url(#pe0b7314069)">
     <use xlink:href="#ma5463c0336" x="65.361932" y="135.779231" style="fill: #ff7f0e; stroke: #ff7f0e"/>
     <use xlink:href="#ma5463c0336" x="88.489868" y="116.915774" style="fill: #ff7f0e; stroke: #ff7f0e"/>
     <use xlink:href="#ma5463c0336" x="122.719213" y="97.433841" style="fill: #ff7f0e; stroke: #ff7f0e"/>
     <use xlink:href="#ma5463c0336" x="174.525789" y="86.301313" style="fill: #ff7f0e; stroke: #ff7f0e"/>
     <use xlink:href="#ma5463c0336" x="253.160771" y="85.682837" style="fill: #ff7f0e; stroke: #ff7f0e"/>
     <use xlink:href="#ma5463c0336" x="369.725568" y="76.405738" style="fill: #ff7f0e; stroke: #ff7f0e"/>
    </g>
   </g>
   <g id="LineCollection_3">
    <path d="M 65.361932 187.731052 
L 65.361932 137.016183 
" clip-path="url(#pe0b7314069)" style="fill: none; stroke: #2ca02c; stroke-width: 1.5"/>
    <path d="M 88.489868 137.634659 
L 88.489868 110.112578 
" clip-path="url(#pe0b7314069)" style="fill: none; stroke: #2ca02c; stroke-width: 1.5"/>
    <path d="M 122.719213 126.502131 
L 122.719213 94.650719 
" clip-path="url(#pe0b7314069)" style="fill: none; stroke: #2ca02c; stroke-width: 1.5"/>
    <path d="M 174.525789 121.554323 
L 174.525789 93.104509 
" clip-path="url(#pe0b7314069)" style="fill: none; stroke: #2ca02c; stroke-width: 1.5"/>
    <path d="M 253.160771 100.835438 
L 253.160771 81.044287 
" clip-path="url(#pe0b7314069)" style="fill: none; stroke: #2ca02c; stroke-width: 1.5"/>
    <path d="M 369.725568 103.000124 
L 369.725568 82.281239 
" clip-path="url(#pe0b7314069)" style="fill: none; stroke: #2ca02c; stroke-width: 1.5"/>
   </g>
   <g id="line2d_44">
    <defs>
     <path id="m5d19cdbd6b" d="M 5 0 
L -5 -0 
" style="stroke: #2ca02c"/>
    </defs>
    <g clip-path="url(#pe0b7314069)">
     <use xlink:href="#m5d19cdbd6b" x="65.361932" y="187.731052" style="fill: #2ca02c; stroke: #2ca02c"/>
     <use xlink:href="#m5d19cdbd6b" x="88.489868" y="137.634659" style="fill: #2ca02c; stroke: #2ca02c"/>
     <use xlink:href="#m5d19cdbd6b" x="122.719213" y="126.502131" style="fill: #2ca02c; stroke: #2ca02c"/>
     <use xlink:href="#m5d19cdbd6b" x="174.525789" y="121.554323" style="fill: #2ca02c; stroke: #2ca02c"/>
     <use xlink:href="#m5d19cdbd6b" x="253.160771" y="100.835438" style="fill: #2ca02c; stroke: #2ca02c"/>
     <use xlink:href="#m5d19cdbd6b" x="369.725568" y="103.000124" style="fill: #2ca02c; stroke: #2ca02c"/>
    </g>
   </g>
   <g id="line2d_45">
    <g clip-path="url(#pe0b7314069)">
     <use xlink:href="#m5d19cdbd6b" x="65.361932" y="137.016183" style="fill: #2ca02c; stroke: #2ca02c"/>
     <use xlink:href="#m5d19cdbd6b" x="88.489868" y="110.112578" style="fill: #2ca02c; stroke: #2ca02c"/>
     <use xlink:href="#m5d19cdbd6b" x="122.719213" y="94.650719" style="fill: #2ca02c; stroke: #2ca02c"/>
     <use xlink:href="#m5d19cdbd6b" x="174.525789" y="93.104509" style="fill: #2ca02c; stroke: #2ca02c"/>
     <use xlink:href="#m5d19cdbd6b" x="253.160771" y="81.044287" style="fill: #2ca02c; stroke: #2ca02c"/>
     <use xlink:href="#m5d19cdbd6b" x="369.725568" y="82.281239" style="fill: #2ca02c; stroke: #2ca02c"/>
    </g>
   </g>
   <g id="LineCollection_4">
    <path d="M 65.361932 165.465997 
L 65.361932 128.357559 
" clip-path="url(#pe0b7314069)" style="fill: none; stroke: #d62728; stroke-width: 1.5"/>
    <path d="M 88.489868 124.646703 
L 88.489868 99.598486 
" clip-path="url(#pe0b7314069)" style="fill: none; stroke: #d62728; stroke-width: 1.5"/>
    <path d="M 122.719213 115.98808 
L 122.719213 86.919789 
" clip-path="url(#pe0b7314069)" style="fill: none; stroke: #d62728; stroke-width: 1.5"/>
    <path d="M 174.525789 105.473988 
L 174.525789 83.208933 
" clip-path="url(#pe0b7314069)" style="fill: none; stroke: #d62728; stroke-width: 1.5"/>
    <path d="M 253.160771 88.156741 
L 253.160771 75.168786 
" clip-path="url(#pe0b7314069)" style="fill: none; stroke: #d62728; stroke-width: 1.5"/>
    <path d="M 369.725568 88.156741 
L 369.725568 70.839454 
" clip-path="url(#pe0b7314069)" style="fill: none; stroke: #d62728; stroke-width: 1.5"/>
   </g>
   <g id="line2d_46">
    <defs>
     <path id="m30c1f6fc5d" d="M 5 0 
L -5 -0 
" style="stroke: #d62728"/>
    </defs>
    <g clip-path="url(#pe0b7314069)">
     <use xlink:href="#m30c1f6fc5d" x="65.361932" y="165.465997" style="fill: #d62728; stroke: #d62728"/>
     <use xlink:href="#m30c1f6fc5d" x="88.489868" y="124.646703" style="fill: #d62728; stroke: #d62728"/>
     <use xlink:href="#m30c1f6fc5d" x="122.719213" y="115.98808" style="fill: #d62728; stroke: #d62728"/>
     <use xlink:href="#m30c1f6fc5d" x="174.525789" y="105.473988" style="fill: #d62728; stroke: #d62728"/>
     <use xlink:href="#m30c1f6fc5d" x="253.160771" y="88.156741" style="fill: #d62728; stroke: #d62728"/>
     <use xlink:href="#m30c1f6fc5d" x="369.725568" y="88.156741" style="fill: #d62728; stroke: #d62728"/>
    </g>
   </g>
   <g id="line2d_47">
    <g clip-path="url(#pe0b7314069)">
     <use xlink:href="#m30c1f6fc5d" x="65.361932" y="128.357559" style="fill: #d62728; stroke: #d62728"/>
     <use xlink:href="#m30c1f6fc5d" x="88.489868" y="99.598486" style="fill: #d62728; stroke: #d62728"/>
     <use xlink:href="#m30c1f6fc5d" x="122.719213" y="86.919789" style="fill: #d62728; stroke: #d62728"/>
     <use xlink:href="#m30c1f6fc5d" x="174.525789" y="83.208933" style="fill: #d62728; stroke: #d62728"/>
     <use xlink:href="#m30c1f6fc5d" x="253.160771" y="75.168786" style="fill: #d62728; stroke: #d62728"/>
     <use xlink:href="#m30c1f6fc5d" x="369.725568" y="70.839454" style="fill: #d62728; stroke: #d62728"/>
    </g>
   </g>
   <g id="line2d_48">
    <path d="M 65.361932 233.188884 
L 88.489868 170.970401 
L 122.719213 149.540283 
L 174.525789 132.439472 
L 253.160771 122.265573 
L 369.725568 112.895692 
" clip-path="url(#pe0b7314069)" style="fill: none; stroke: #1f77b4; stroke-width: 1.5; stroke-linecap: square"/>
    <defs>
     <path id="m0b2be4775f" d="M 0 1.5 
C 0.397805 1.5 0.77937 1.341951 1.06066 1.06066 
C 1.341951 0.77937 1.5 0.397805 1.5 0 
C 1.5 -0.397805 1.341951 -0.77937 1.06066 -1.06066 
C 0.77937 -1.341951 0.397805 -1.5 0 -1.5 
C -0.397805 -1.5 -0.77937 -1.341951 -1.06066 -1.06066 
C -1.341951 -0.77937 -1.5 -0.397805 -1.5 0 
C -1.5 0.397805 -1.341951 0.77937 -1.06066 1.06066 
C -0.77937 1.341951 -0.397805 1.5 0 1.5 
z
" style="stroke: #1f77b4"/>
    </defs>
    <g clip-path="url(#pe0b7314069)">
     <use xlink:href="#m0b2be4775f" x="65.361932" y="233.188884" style="fill: #1f77b4; stroke: #1f77b4"/>
     <use xlink:href="#m0b2be4775f" x="88.489868" y="170.970401" style="fill: #1f77b4; stroke: #1f77b4"/>
     <use xlink:href="#m0b2be4775f" x="122.719213" y="149.540283" style="fill: #1f77b4; stroke: #1f77b4"/>
     <use xlink:href="#m0b2be4775f" x="174.525789" y="132.439472" style="fill: #1f77b4; stroke: #1f77b4"/>
     <use xlink:href="#m0b2be4775f" x="253.160771" y="122.265573" style="fill: #1f77b4; stroke: #1f77b4"/>
     <use xlink:href="#m0b2be4775f" x="369.725568" y="112.895692" style="fill: #1f77b4; stroke: #1f77b4"/>
    </g>
   </g>
   <g id="line2d_49">
    <path d="M 65.361932 150.28245 
L 88.489868 140.8198 
L 122.719213 107.514975 
L 174.525789 94.959949 
L 253.160771 90.847089 
L 369.725568 84.786061 
" clip-path="url(#pe0b7314069)" style="fill: none; stroke: #ff7f0e; stroke-width: 1.5; stroke-linecap: square"/>
    <defs>
     <path id="me5d0d27566" d="M 0 1.5 
C 0.397805 1.5 0.77937 1.341951 1.06066 1.06066 
C 1.341951 0.77937 1.5 0.397805 1.5 0 
C 1.5 -0.397805 1.341951 -0.77937 1.06066 -1.06066 
C 0.77937 -1.341951 0.397805 -1.5 0 -1.5 
C -0.397805 -1.5 -0.77937 -1.341951 -1.06066 -1.06066 
C -1.341951 -0.77937 -1.5 -0.397805 -1.5 0 
C -1.5 0.397805 -1.341951 0.77937 -1.06066 1.06066 
C -0.77937 1.341951 -0.397805 1.5 0 1.5 
z
" style="stroke: #ff7f0e"/>
    </defs>
    <g clip-path="url(#pe0b7314069)">
     <use xlink:href="#me5d0d27566" x="65.361932" y="150.28245" style="fill: #ff7f0e; stroke: #ff7f0e"/>
     <use xlink:href="#me5d0d27566" x="88.489868" y="140.8198" style="fill: #ff7f0e; stroke: #ff7f0e"/>
     <use xlink:href="#me5d0d27566" x="122.719213" y="107.514975" style="fill: #ff7f0e; stroke: #ff7f0e"/>
     <use xlink:href="#me5d0d27566" x="174.525789" y="94.959949" style="fill: #ff7f0e; stroke: #ff7f0e"/>
     <use xlink:href="#me5d0d27566" x="253.160771" y="90.847089" style="fill: #ff7f0e; stroke: #ff7f0e"/>
     <use xlink:href="#me5d0d27566" x="369.725568" y="84.786061" style="fill: #ff7f0e; stroke: #ff7f0e"/>
    </g>
   </g>
   <g id="line2d_50">
    <path d="M 65.361932 155.137469 
L 88.489868 121.245089 
L 122.719213 108.133447 
L 174.525789 108.195294 
L 253.160771 90.630633 
L 369.725568 91.249105 
" clip-path="url(#pe0b7314069)" style="fill: none; stroke: #2ca02c; stroke-width: 1.5; stroke-linecap: square"/>
    <defs>
     <path id="m127945e337" d="M 0 1.5 
C 0.397805 1.5 0.77937 1.341951 1.06066 1.06066 
C 1.341951 0.77937 1.5 0.397805 1.5 0 
C 1.5 -0.397805 1.341951 -0.77937 1.06066 -1.06066 
C 0.77937 -1.341951 0.397805 -1.5 0 -1.5 
C -0.397805 -1.5 -0.77937 -1.341951 -1.06066 -1.06066 
C -1.341951 -0.77937 -1.5 -0.397805 -1.5 0 
C -1.5 0.397805 -1.341951 0.77937 -1.06066 1.06066 
C -0.77937 1.341951 -0.397805 1.5 0 1.5 
z
" style="stroke: #2ca02c"/>
    </defs>
    <g clip-path="url(#pe0b7314069)">
     <use xlink:href="#m127945e337" x="65.361932" y="155.137469" style="fill: #2ca02c; stroke: #2ca02c"/>
     <use xlink:href="#m127945e337" x="88.489868" y="121.245089" style="fill: #2ca02c; stroke: #2ca02c"/>
     <use xlink:href="#m127945e337" x="122.719213" y="108.133447" style="fill: #2ca02c; stroke: #2ca02c"/>
     <use xlink:href="#m127945e337" x="174.525789" y="108.195294" style="fill: #2ca02c; stroke: #2ca02c"/>
     <use xlink:href="#m127945e337" x="253.160771" y="90.630633" style="fill: #2ca02c; stroke: #2ca02c"/>
     <use xlink:href="#m127945e337" x="369.725568" y="91.249105" style="fill: #2ca02c; stroke: #2ca02c"/>
    </g>
   </g>
   <g id="line2d_51">
    <path d="M 65.361932 146.386064 
L 88.489868 113.699711 
L 122.719213 99.938666 
L 174.525789 93.970391 
L 253.160771 80.796901 
L 369.725568 76.312956 
" clip-path="url(#pe0b7314069)" style="fill: none; stroke: #d62728; stroke-width: 1.5; stroke-linecap: square"/>
    <defs>
     <path id="m5849993f52" d="M 0 1.5 
C 0.397805 1.5 0.77937 1.341951 1.06066 1.06066 
C 1.341951 0.77937 1.5 0.397805 1.5 0 
C 1.5 -0.397805 1.341951 -0.77937 1.06066 -1.06066 
C 0.77937 -1.341951 0.397805 -1.5 0 -1.5 
C -0.397805 -1.5 -0.77937 -1.341951 -1.06066 -1.06066 
C -1.341951 -0.77937 -1.5 -0.397805 -1.5 0 
C -1.5 0.397805 -1.341951 0.77937 -1.06066 1.06066 
C -0.77937 1.341951 -0.397805 1.5 0 1.5 
z
" style="stroke: #d62728"/>
    </defs>
    <g clip-path="url(#pe0b7314069)">
     <use xlink:href="#m5849993f52" x="65.361932" y="146.386064" style="fill: #d62728; stroke: #d62728"/>
     <use xlink:href="#m5849993f52" x="88.489868" y="113.699711" style="fill: #d62728; stroke: #d62728"/>
     <use xlink:href="#m5849993f52" x="122.719213" y="99.938666" style="fill: #d62728; stroke: #d62728"/>
     <use xlink:href="#m5849993f52" x="174.525789" y="93.970391" style="fill: #d62728; stroke: #d62728"/>
     <use xlink:href="#m5849993f52" x="253.160771" y="80.796901" style="fill: #d62728; stroke: #d62728"/>
     <use xlink:href="#m5849993f52" x="369.725568" y="76.312956" style="fill: #d62728; stroke: #d62728"/>
    </g>
   </g>
   <g id="patch_3">
    <path d="M 50.14375 266.632875 
L 50.14375 49.192875 
" style="fill: none; stroke: #000000; stroke-width: 0.8; stroke-linejoin: miter; stroke-linecap: square"/>
   </g>
   <g id="patch_4">
    <path d="M 384.94375 266.632875 
L 384.94375 49.192875 
" style="fill: none; stroke: #000000; stroke-width: 0.8; stroke-linejoin: miter; stroke-linecap: square"/>
   </g>
   <g id="patch_5">
    <path d="M 50.14375 266.632875 
L 384.94375 266.632875 
" style="fill: none; stroke: #000000; stroke-width: 0.8; stroke-linejoin: miter; stroke-linecap: square"/>
   </g>
   <g id="patch_6">
    <path d="M 50.14375 49.192875 
L 384.94375 49.192875 
" style="fill: none; stroke: #000000; stroke-width: 0.8; stroke-linejoin: miter; stroke-linecap: square"/>
   </g>
   <g id="text_17">
    <!-- Dataset: "SpokenArabicDigits" -->
    <g transform="translate(126.295938 16.318125)scale(0.12 -0.12)">
     <defs>
      <path id="DejaVuSans-44" d="M 1259 4147 
L 1259 519 
L 2022 519 
Q 2988 519 3436 956 
Q 3884 1394 3884 2338 
Q 3884 3275 3436 3711 
Q 2988 4147 2022 4147 
L 1259 4147 
z
M 628 4666 
L 1925 4666 
Q 3281 4666 3915 4102 
Q 4550 3538 4550 2338 
Q 4550 1131 3912 565 
Q 3275 0 1925 0 
L 628 0 
L 628 4666 
z
" transform="scale(0.015625)"/>
      <path id="DejaVuSans-65" d="M 3597 1894 
L 3597 1613 
L 953 1613 
Q 991 1019 1311 708 
Q 1631 397 2203 397 
Q 2534 397 2845 478 
Q 3156 559 3463 722 
L 3463 178 
Q 3153 47 2828 -22 
Q 2503 -91 2169 -91 
Q 1331 -91 842 396 
Q 353 884 353 1716 
Q 353 2575 817 3079 
Q 1281 3584 2069 3584 
Q 2775 3584 3186 3129 
Q 3597 2675 3597 1894 
z
M 3022 2063 
Q 3016 2534 2758 2815 
Q 2500 3097 2075 3097 
Q 1594 3097 1305 2825 
Q 1016 2553 972 2059 
L 3022 2063 
z
" transform="scale(0.015625)"/>
      <path id="DejaVuSans-3a" d="M 750 794 
L 1409 794 
L 1409 0 
L 750 0 
L 750 794 
z
M 750 3309 
L 1409 3309 
L 1409 2516 
L 750 2516 
L 750 3309 
z
" transform="scale(0.015625)"/>
      <path id="DejaVuSans-20" transform="scale(0.015625)"/>
      <path id="DejaVuSans-22" d="M 1147 4666 
L 1147 2931 
L 616 2931 
L 616 4666 
L 1147 4666 
z
M 2328 4666 
L 2328 2931 
L 1797 2931 
L 1797 4666 
L 2328 4666 
z
" transform="scale(0.015625)"/>
      <path id="DejaVuSans-53" d="M 3425 4513 
L 3425 3897 
Q 3066 4069 2747 4153 
Q 2428 4238 2131 4238 
Q 1616 4238 1336 4038 
Q 1056 3838 1056 3469 
Q 1056 3159 1242 3001 
Q 1428 2844 1947 2747 
L 2328 2669 
Q 3034 2534 3370 2195 
Q 3706 1856 3706 1288 
Q 3706 609 3251 259 
Q 2797 -91 1919 -91 
Q 1588 -91 1214 -16 
Q 841 59 441 206 
L 441 856 
Q 825 641 1194 531 
Q 1563 422 1919 422 
Q 2459 422 2753 634 
Q 3047 847 3047 1241 
Q 3047 1584 2836 1778 
Q 2625 1972 2144 2069 
L 1759 2144 
Q 1053 2284 737 2584 
Q 422 2884 422 3419 
Q 422 4038 858 4394 
Q 1294 4750 2059 4750 
Q 2388 4750 2728 4690 
Q 3069 4631 3425 4513 
z
" transform="scale(0.015625)"/>
      <path id="DejaVuSans-70" d="M 1159 525 
L 1159 -1331 
L 581 -1331 
L 581 3500 
L 1159 3500 
L 1159 2969 
Q 1341 3281 1617 3432 
Q 1894 3584 2278 3584 
Q 2916 3584 3314 3078 
Q 3713 2572 3713 1747 
Q 3713 922 3314 415 
Q 2916 -91 2278 -91 
Q 1894 -91 1617 61 
Q 1341 213 1159 525 
z
M 3116 1747 
Q 3116 2381 2855 2742 
Q 2594 3103 2138 3103 
Q 1681 3103 1420 2742 
Q 1159 2381 1159 1747 
Q 1159 1113 1420 752 
Q 1681 391 2138 391 
Q 2594 391 2855 752 
Q 3116 1113 3116 1747 
z
" transform="scale(0.015625)"/>
      <path id="DejaVuSans-6f" d="M 1959 3097 
Q 1497 3097 1228 2736 
Q 959 2375 959 1747 
Q 959 1119 1226 758 
Q 1494 397 1959 397 
Q 2419 397 2687 759 
Q 2956 1122 2956 1747 
Q 2956 2369 2687 2733 
Q 2419 3097 1959 3097 
z
M 1959 3584 
Q 2709 3584 3137 3096 
Q 3566 2609 3566 1747 
Q 3566 888 3137 398 
Q 2709 -91 1959 -91 
Q 1206 -91 779 398 
Q 353 888 353 1747 
Q 353 2609 779 3096 
Q 1206 3584 1959 3584 
z
" transform="scale(0.015625)"/>
      <path id="DejaVuSans-6b" d="M 581 4863 
L 1159 4863 
L 1159 1991 
L 2875 3500 
L 3609 3500 
L 1753 1863 
L 3688 0 
L 2938 0 
L 1159 1709 
L 1159 0 
L 581 0 
L 581 4863 
z
" transform="scale(0.015625)"/>
      <path id="DejaVuSans-62" d="M 3116 1747 
Q 3116 2381 2855 2742 
Q 2594 3103 2138 3103 
Q 1681 3103 1420 2742 
Q 1159 2381 1159 1747 
Q 1159 1113 1420 752 
Q 1681 391 2138 391 
Q 2594 391 2855 752 
Q 3116 1113 3116 1747 
z
M 1159 2969 
Q 1341 3281 1617 3432 
Q 1894 3584 2278 3584 
Q 2916 3584 3314 3078 
Q 3713 2572 3713 1747 
Q 3713 922 3314 415 
Q 2916 -91 2278 -91 
Q 1894 -91 1617 61 
Q 1341 213 1159 525 
L 1159 0 
L 581 0 
L 581 4863 
L 1159 4863 
L 1159 2969 
z
" transform="scale(0.015625)"/>
      <path id="DejaVuSans-67" d="M 2906 1791 
Q 2906 2416 2648 2759 
Q 2391 3103 1925 3103 
Q 1463 3103 1205 2759 
Q 947 2416 947 1791 
Q 947 1169 1205 825 
Q 1463 481 1925 481 
Q 2391 481 2648 825 
Q 2906 1169 2906 1791 
z
M 3481 434 
Q 3481 -459 3084 -895 
Q 2688 -1331 1869 -1331 
Q 1566 -1331 1297 -1286 
Q 1028 -1241 775 -1147 
L 775 -588 
Q 1028 -725 1275 -790 
Q 1522 -856 1778 -856 
Q 2344 -856 2625 -561 
Q 2906 -266 2906 331 
L 2906 616 
Q 2728 306 2450 153 
Q 2172 0 1784 0 
Q 1141 0 747 490 
Q 353 981 353 1791 
Q 353 2603 747 3093 
Q 1141 3584 1784 3584 
Q 2172 3584 2450 3431 
Q 2728 3278 2906 2969 
L 2906 3500 
L 3481 3500 
L 3481 434 
z
" transform="scale(0.015625)"/>
     </defs>
     <use xlink:href="#DejaVuSans-44"/>
     <use xlink:href="#DejaVuSans-61" x="77.001953"/>
     <use xlink:href="#DejaVuSans-74" x="138.28125"/>
     <use xlink:href="#DejaVuSans-61" x="177.490234"/>
     <use xlink:href="#DejaVuSans-73" x="238.769531"/>
     <use xlink:href="#DejaVuSans-65" x="290.869141"/>
     <use xlink:href="#DejaVuSans-74" x="352.392578"/>
     <use xlink:href="#DejaVuSans-3a" x="391.601562"/>
     <use xlink:href="#DejaVuSans-20" x="425.292969"/>
     <use xlink:href="#DejaVuSans-22" x="457.080078"/>
     <use xlink:href="#DejaVuSans-53" x="503.076172"/>
     <use xlink:href="#DejaVuSans-70" x="566.552734"/>
     <use xlink:href="#DejaVuSans-6f" x="630.029297"/>
     <use xlink:href="#DejaVuSans-6b" x="691.210938"/>
     <use xlink:href="#DejaVuSans-65" x="745.496094"/>
     <use xlink:href="#DejaVuSans-6e" x="807.019531"/>
     <use xlink:href="#DejaVuSans-41" x="870.398438"/>
     <use xlink:href="#DejaVuSans-72" x="938.806641"/>
     <use xlink:href="#DejaVuSans-61" x="979.919922"/>
     <use xlink:href="#DejaVuSans-62" x="1041.199219"/>
     <use xlink:href="#DejaVuSans-69" x="1104.675781"/>
     <use xlink:href="#DejaVuSans-63" x="1132.458984"/>
     <use xlink:href="#DejaVuSans-44" x="1187.439453"/>
     <use xlink:href="#DejaVuSans-69" x="1264.441406"/>
     <use xlink:href="#DejaVuSans-67" x="1292.224609"/>
     <use xlink:href="#DejaVuSans-69" x="1355.701172"/>
     <use xlink:href="#DejaVuSans-74" x="1383.484375"/>
     <use xlink:href="#DejaVuSans-73" x="1422.693359"/>
     <use xlink:href="#DejaVuSans-22" x="1474.792969"/>
    </g>
    <!-- Exp. Class: "Fixed units" -->
    <g transform="translate(145.141563 29.7555)scale(0.12 -0.12)">
     <defs>
      <path id="DejaVuSans-45" d="M 628 4666 
L 3578 4666 
L 3578 4134 
L 1259 4134 
L 1259 2753 
L 3481 2753 
L 3481 2222 
L 1259 2222 
L 1259 531 
L 3634 531 
L 3634 0 
L 628 0 
L 628 4666 
z
" transform="scale(0.015625)"/>
      <path id="DejaVuSans-78" d="M 3513 3500 
L 2247 1797 
L 3578 0 
L 2900 0 
L 1881 1375 
L 863 0 
L 184 0 
L 1544 1831 
L 300 3500 
L 978 3500 
L 1906 2253 
L 2834 3500 
L 3513 3500 
z
" transform="scale(0.015625)"/>
      <path id="DejaVuSans-43" d="M 4122 4306 
L 4122 3641 
Q 3803 3938 3442 4084 
Q 3081 4231 2675 4231 
Q 1875 4231 1450 3742 
Q 1025 3253 1025 2328 
Q 1025 1406 1450 917 
Q 1875 428 2675 428 
Q 3081 428 3442 575 
Q 3803 722 4122 1019 
L 4122 359 
Q 3791 134 3420 21 
Q 3050 -91 2638 -91 
Q 1578 -91 968 557 
Q 359 1206 359 2328 
Q 359 3453 968 4101 
Q 1578 4750 2638 4750 
Q 3056 4750 3426 4639 
Q 3797 4528 4122 4306 
z
" transform="scale(0.015625)"/>
      <path id="DejaVuSans-6c" d="M 603 4863 
L 1178 4863 
L 1178 0 
L 603 0 
L 603 4863 
z
" transform="scale(0.015625)"/>
      <path id="DejaVuSans-46" d="M 628 4666 
L 3309 4666 
L 3309 4134 
L 1259 4134 
L 1259 2759 
L 3109 2759 
L 3109 2228 
L 1259 2228 
L 1259 0 
L 628 0 
L 628 4666 
z
" transform="scale(0.015625)"/>
      <path id="DejaVuSans-64" d="M 2906 2969 
L 2906 4863 
L 3481 4863 
L 3481 0 
L 2906 0 
L 2906 525 
Q 2725 213 2448 61 
Q 2172 -91 1784 -91 
Q 1150 -91 751 415 
Q 353 922 353 1747 
Q 353 2572 751 3078 
Q 1150 3584 1784 3584 
Q 2172 3584 2448 3432 
Q 2725 3281 2906 2969 
z
M 947 1747 
Q 947 1113 1208 752 
Q 1469 391 1925 391 
Q 2381 391 2643 752 
Q 2906 1113 2906 1747 
Q 2906 2381 2643 2742 
Q 2381 3103 1925 3103 
Q 1469 3103 1208 2742 
Q 947 2381 947 1747 
z
" transform="scale(0.015625)"/>
     </defs>
     <use xlink:href="#DejaVuSans-45"/>
     <use xlink:href="#DejaVuSans-78" x="63.183594"/>
     <use xlink:href="#DejaVuSans-70" x="122.363281"/>
     <use xlink:href="#DejaVuSans-2e" x="185.839844"/>
     <use xlink:href="#DejaVuSans-20" x="217.626953"/>
     <use xlink:href="#DejaVuSans-43" x="249.414062"/>
     <use xlink:href="#DejaVuSans-6c" x="319.238281"/>
     <use xlink:href="#DejaVuSans-61" x="347.021484"/>
     <use xlink:href="#DejaVuSans-73" x="408.300781"/>
     <use xlink:href="#DejaVuSans-73" x="460.400391"/>
     <use xlink:href="#DejaVuSans-3a" x="512.5"/>
     <use xlink:href="#DejaVuSans-20" x="546.191406"/>
     <use xlink:href="#DejaVuSans-22" x="577.978516"/>
     <use xlink:href="#DejaVuSans-46" x="623.974609"/>
     <use xlink:href="#DejaVuSans-69" x="674.244141"/>
     <use xlink:href="#DejaVuSans-78" x="702.027344"/>
     <use xlink:href="#DejaVuSans-65" x="758.082031"/>
     <use xlink:href="#DejaVuSans-64" x="819.605469"/>
     <use xlink:href="#DejaVuSans-20" x="883.082031"/>
     <use xlink:href="#DejaVuSans-75" x="914.869141"/>
     <use xlink:href="#DejaVuSans-6e" x="978.248047"/>
     <use xlink:href="#DejaVuSans-69" x="1041.626953"/>
     <use xlink:href="#DejaVuSans-74" x="1069.410156"/>
     <use xlink:href="#DejaVuSans-73" x="1108.619141"/>
     <use xlink:href="#DejaVuSans-22" x="1160.71875"/>
    </g>
    <!-- hp: units -->
    <g transform="translate(191.254375 43.192875)scale(0.12 -0.12)">
     <defs>
      <path id="DejaVuSans-68" d="M 3513 2113 
L 3513 0 
L 2938 0 
L 2938 2094 
Q 2938 2591 2744 2837 
Q 2550 3084 2163 3084 
Q 1697 3084 1428 2787 
Q 1159 2491 1159 1978 
L 1159 0 
L 581 0 
L 581 4863 
L 1159 4863 
L 1159 2956 
Q 1366 3272 1645 3428 
Q 1925 3584 2291 3584 
Q 2894 3584 3203 3211 
Q 3513 2838 3513 2113 
z
" transform="scale(0.015625)"/>
     </defs>
     <use xlink:href="#DejaVuSans-68"/>
     <use xlink:href="#DejaVuSans-70" x="63.378906"/>
     <use xlink:href="#DejaVuSans-3a" x="126.855469"/>
     <use xlink:href="#DejaVuSans-20" x="160.546875"/>
     <use xlink:href="#DejaVuSans-75" x="192.333984"/>
     <use xlink:href="#DejaVuSans-6e" x="255.712891"/>
     <use xlink:href="#DejaVuSans-69" x="319.091797"/>
     <use xlink:href="#DejaVuSans-74" x="346.875"/>
     <use xlink:href="#DejaVuSans-73" x="386.083984"/>
    </g>
   </g>
   <g id="legend_1">
    <g id="patch_7">
     <path d="M 319.432813 261.632875 
L 377.94375 261.632875 
Q 379.94375 261.632875 379.94375 259.632875 
L 379.94375 201.920375 
Q 379.94375 199.920375 377.94375 199.920375 
L 319.432813 199.920375 
Q 317.432813 199.920375 317.432813 201.920375 
L 317.432813 259.632875 
Q 317.432813 261.632875 319.432813 261.632875 
z
" style="fill: #ffffff; opacity: 0.8; stroke: #cccccc; stroke-linejoin: miter"/>
    </g>
    <g id="LineCollection_5">
     <path d="M 331.432813 213.018812 
L 331.432813 203.018812 
" style="fill: none; stroke: #1f77b4; stroke-width: 1.5"/>
    </g>
    <g id="line2d_52">
     <g>
      <use xlink:href="#m47024deaa7" x="331.432813" y="213.018812" style="fill: #1f77b4; stroke: #1f77b4"/>
     </g>
    </g>
    <g id="line2d_53">
     <g>
      <use xlink:href="#m47024deaa7" x="331.432813" y="203.018812" style="fill: #1f77b4; stroke: #1f77b4"/>
     </g>
    </g>
    <g id="line2d_54">
     <path d="M 321.432813 208.018812 
L 341.432813 208.018812 
" style="fill: none; stroke: #1f77b4; stroke-width: 1.5; stroke-linecap: square"/>
    </g>
    <g id="line2d_55">
     <g>
      <use xlink:href="#m0b2be4775f" x="331.432813" y="208.018812" style="fill: #1f77b4; stroke: #1f77b4"/>
     </g>
    </g>
    <g id="text_18">
     <!-- ESN1 -->
     <g transform="translate(349.432813 211.518812)scale(0.1 -0.1)">
      <defs>
       <path id="DejaVuSans-4e" d="M 628 4666 
L 1478 4666 
L 3547 763 
L 3547 4666 
L 4159 4666 
L 4159 0 
L 3309 0 
L 1241 3903 
L 1241 0 
L 628 0 
L 628 4666 
z
" transform="scale(0.015625)"/>
      </defs>
      <use xlink:href="#DejaVuSans-45"/>
      <use xlink:href="#DejaVuSans-53" x="63.183594"/>
      <use xlink:href="#DejaVuSans-4e" x="126.660156"/>
      <use xlink:href="#DejaVuSans-31" x="201.464844"/>
     </g>
    </g>
    <g id="LineCollection_6">
     <path d="M 331.432813 227.696937 
L 331.432813 217.696937 
" style="fill: none; stroke: #ff7f0e; stroke-width: 1.5"/>
    </g>
    <g id="line2d_56">
     <g>
      <use xlink:href="#ma5463c0336" x="331.432813" y="227.696937" style="fill: #ff7f0e; stroke: #ff7f0e"/>
     </g>
    </g>
    <g id="line2d_57">
     <g>
      <use xlink:href="#ma5463c0336" x="331.432813" y="217.696937" style="fill: #ff7f0e; stroke: #ff7f0e"/>
     </g>
    </g>
    <g id="line2d_58">
     <path d="M 321.432813 222.696937 
L 341.432813 222.696937 
" style="fill: none; stroke: #ff7f0e; stroke-width: 1.5; stroke-linecap: square"/>
    </g>
    <g id="line2d_59">
     <g>
      <use xlink:href="#me5d0d27566" x="331.432813" y="222.696937" style="fill: #ff7f0e; stroke: #ff7f0e"/>
     </g>
    </g>
    <g id="text_19">
     <!-- ESN2 -->
     <g transform="translate(349.432813 226.196937)scale(0.1 -0.1)">
      <use xlink:href="#DejaVuSans-45"/>
      <use xlink:href="#DejaVuSans-53" x="63.183594"/>
      <use xlink:href="#DejaVuSans-4e" x="126.660156"/>
      <use xlink:href="#DejaVuSans-32" x="201.464844"/>
     </g>
    </g>
    <g id="LineCollection_7">
     <path d="M 331.432813 242.375062 
L 331.432813 232.375062 
" style="fill: none; stroke: #2ca02c; stroke-width: 1.5"/>
    </g>
    <g id="line2d_60">
     <g>
      <use xlink:href="#m5d19cdbd6b" x="331.432813" y="242.375062" style="fill: #2ca02c; stroke: #2ca02c"/>
     </g>
    </g>
    <g id="line2d_61">
     <g>
      <use xlink:href="#m5d19cdbd6b" x="331.432813" y="232.375062" style="fill: #2ca02c; stroke: #2ca02c"/>
     </g>
    </g>
    <g id="line2d_62">
     <path d="M 321.432813 237.375062 
L 341.432813 237.375062 
" style="fill: none; stroke: #2ca02c; stroke-width: 1.5; stroke-linecap: square"/>
    </g>
    <g id="line2d_63">
     <g>
      <use xlink:href="#m127945e337" x="331.432813" y="237.375062" style="fill: #2ca02c; stroke: #2ca02c"/>
     </g>
    </g>
    <g id="text_20">
     <!-- ESN3 -->
     <g transform="translate(349.432813 240.875062)scale(0.1 -0.1)">
      <use xlink:href="#DejaVuSans-45"/>
      <use xlink:href="#DejaVuSans-53" x="63.183594"/>
      <use xlink:href="#DejaVuSans-4e" x="126.660156"/>
      <use xlink:href="#DejaVuSans-33" x="201.464844"/>
     </g>
    </g>
    <g id="LineCollection_8">
     <path d="M 331.432813 257.053187 
L 331.432813 247.053187 
" style="fill: none; stroke: #d62728; stroke-width: 1.5"/>
    </g>
    <g id="line2d_64">
     <g>
      <use xlink:href="#m30c1f6fc5d" x="331.432813" y="257.053187" style="fill: #d62728; stroke: #d62728"/>
     </g>
    </g>
    <g id="line2d_65">
     <g>
      <use xlink:href="#m30c1f6fc5d" x="331.432813" y="247.053187" style="fill: #d62728; stroke: #d62728"/>
     </g>
    </g>
    <g id="line2d_66">
     <path d="M 321.432813 252.053187 
L 341.432813 252.053187 
" style="fill: none; stroke: #d62728; stroke-width: 1.5; stroke-linecap: square"/>
    </g>
    <g id="line2d_67">
     <g>
      <use xlink:href="#m5849993f52" x="331.432813" y="252.053187" style="fill: #d62728; stroke: #d62728"/>
     </g>
    </g>
    <g id="text_21">
     <!-- ESN4 -->
     <g transform="translate(349.432813 255.553187)scale(0.1 -0.1)">
      <defs>
       <path id="DejaVuSans-34" d="M 2419 4116 
L 825 1625 
L 2419 1625 
L 2419 4116 
z
M 2253 4666 
L 3047 4666 
L 3047 1625 
L 3713 1625 
L 3713 1100 
L 3047 1100 
L 3047 0 
L 2419 0 
L 2419 1100 
L 313 1100 
L 313 1709 
L 2253 4666 
z
" transform="scale(0.015625)"/>
      </defs>
      <use xlink:href="#DejaVuSans-45"/>
      <use xlink:href="#DejaVuSans-53" x="63.183594"/>
      <use xlink:href="#DejaVuSans-4e" x="126.660156"/>
      <use xlink:href="#DejaVuSans-34" x="201.464844"/>
     </g>
    </g>
   </g>
  </g>
 </g>
 <defs>
  <clipPath id="pe0b7314069">
   <rect x="50.14375" y="49.192875" width="334.8" height="217.44"/>
  </clipPath>
 </defs>
</svg>
