<?xml version="1.0" encoding="utf-8" standalone="no"?>
<!DOCTYPE svg PUBLIC "-//W3C//DTD SVG 1.1//EN"
  "http://www.w3.org/Graphics/SVG/1.1/DTD/svg11.dtd">
<svg xmlns:xlink="http://www.w3.org/1999/xlink" width="699.906563pt" height="165.112875pt" viewBox="0 0 699.906563 165.112875" xmlns="http://www.w3.org/2000/svg" version="1.1">
 <metadata>
  <rdf:RDF xmlns:dc="http://purl.org/dc/elements/1.1/" xmlns:cc="http://creativecommons.org/ns#" xmlns:rdf="http://www.w3.org/1999/02/22-rdf-syntax-ns#">
   <cc:Work>
    <dc:type rdf:resource="http://purl.org/dc/dcmitype/StillImage"/>
    <dc:date>2022-02-07T15:54:01.127207</dc:date>
    <dc:format>image/svg+xml</dc:format>
    <dc:creator>
     <cc:Agent>
      <dc:title>Matplotlib v3.5.1, https://matplotlib.org/</dc:title>
     </cc:Agent>
    </dc:creator>
   </cc:Work>
  </rdf:RDF>
 </metadata>
 <defs>
  <style type="text/css">*{stroke-linejoin: round; stroke-linecap: butt}</style>
 </defs>
 <g id="figure_1">
  <g id="axes_1">
   <g id="table_1">
    <g id="patch_1">
     <path d="M 23.106563 85.552875 
L 83.97929 85.552875 
M 83.97929 73.552875 
L 23.106563 73.552875 
M 23.106563 85.552875 
" style="fill: #ffffff; stroke: #000000; stroke-linejoin: miter"/>
    </g>
    <g id="text_1">
     <!-- bias scaling 0 -->
     <g transform="translate(36.477692 80.932563)scale(0.05 -0.05)">
      <defs>
       <path id="DejaVuSans-62" d="M 3116 1747 
Q 3116 2381 2855 2742 
Q 2594 3103 2138 3103 
Q 1681 3103 1420 2742 
Q 1159 2381 1159 1747 
Q 1159 1113 1420 752 
Q 1681 391 2138 391 
Q 2594 391 2855 752 
Q 3116 1113 3116 1747 
z
M 1159 2969 
Q 1341 3281 1617 3432 
Q 1894 3584 2278 3584 
Q 2916 3584 3314 3078 
Q 3713 2572 3713 1747 
Q 3713 922 3314 415 
Q 2916 -91 2278 -91 
Q 1894 -91 1617 61 
Q 1341 213 1159 525 
L 1159 0 
L 581 0 
L 581 4863 
L 1159 4863 
L 1159 2969 
z
" transform="scale(0.015625)"/>
       <path id="DejaVuSans-69" d="M 603 3500 
L 1178 3500 
L 1178 0 
L 603 0 
L 603 3500 
z
M 603 4863 
L 1178 4863 
L 1178 4134 
L 603 4134 
L 603 4863 
z
" transform="scale(0.015625)"/>
       <path id="DejaVuSans-61" d="M 2194 1759 
Q 1497 1759 1228 1600 
Q 959 1441 959 1056 
Q 959 750 1161 570 
Q 1363 391 1709 391 
Q 2188 391 2477 730 
Q 2766 1069 2766 1631 
L 2766 1759 
L 2194 1759 
z
M 3341 1997 
L 3341 0 
L 2766 0 
L 2766 531 
Q 2569 213 2275 61 
Q 1981 -91 1556 -91 
Q 1019 -91 701 211 
Q 384 513 384 1019 
Q 384 1609 779 1909 
Q 1175 2209 1959 2209 
L 2766 2209 
L 2766 2266 
Q 2766 2663 2505 2880 
Q 2244 3097 1772 3097 
Q 1472 3097 1187 3025 
Q 903 2953 641 2809 
L 641 3341 
Q 956 3463 1253 3523 
Q 1550 3584 1831 3584 
Q 2591 3584 2966 3190 
Q 3341 2797 3341 1997 
z
" transform="scale(0.015625)"/>
       <path id="DejaVuSans-73" d="M 2834 3397 
L 2834 2853 
Q 2591 2978 2328 3040 
Q 2066 3103 1784 3103 
Q 1356 3103 1142 2972 
Q 928 2841 928 2578 
Q 928 2378 1081 2264 
Q 1234 2150 1697 2047 
L 1894 2003 
Q 2506 1872 2764 1633 
Q 3022 1394 3022 966 
Q 3022 478 2636 193 
Q 2250 -91 1575 -91 
Q 1294 -91 989 -36 
Q 684 19 347 128 
L 347 722 
Q 666 556 975 473 
Q 1284 391 1588 391 
Q 1994 391 2212 530 
Q 2431 669 2431 922 
Q 2431 1156 2273 1281 
Q 2116 1406 1581 1522 
L 1381 1569 
Q 847 1681 609 1914 
Q 372 2147 372 2553 
Q 372 3047 722 3315 
Q 1072 3584 1716 3584 
Q 2034 3584 2315 3537 
Q 2597 3491 2834 3397 
z
" transform="scale(0.015625)"/>
       <path id="DejaVuSans-20" transform="scale(0.015625)"/>
       <path id="DejaVuSans-63" d="M 3122 3366 
L 3122 2828 
Q 2878 2963 2633 3030 
Q 2388 3097 2138 3097 
Q 1578 3097 1268 2742 
Q 959 2388 959 1747 
Q 959 1106 1268 751 
Q 1578 397 2138 397 
Q 2388 397 2633 464 
Q 2878 531 3122 666 
L 3122 134 
Q 2881 22 2623 -34 
Q 2366 -91 2075 -91 
Q 1284 -91 818 406 
Q 353 903 353 1747 
Q 353 2603 823 3093 
Q 1294 3584 2113 3584 
Q 2378 3584 2631 3529 
Q 2884 3475 3122 3366 
z
" transform="scale(0.015625)"/>
       <path id="DejaVuSans-6c" d="M 603 4863 
L 1178 4863 
L 1178 0 
L 603 0 
L 603 4863 
z
" transform="scale(0.015625)"/>
       <path id="DejaVuSans-6e" d="M 3513 2113 
L 3513 0 
L 2938 0 
L 2938 2094 
Q 2938 2591 2744 2837 
Q 2550 3084 2163 3084 
Q 1697 3084 1428 2787 
Q 1159 2491 1159 1978 
L 1159 0 
L 581 0 
L 581 3500 
L 1159 3500 
L 1159 2956 
Q 1366 3272 1645 3428 
Q 1925 3584 2291 3584 
Q 2894 3584 3203 3211 
Q 3513 2838 3513 2113 
z
" transform="scale(0.015625)"/>
       <path id="DejaVuSans-67" d="M 2906 1791 
Q 2906 2416 2648 2759 
Q 2391 3103 1925 3103 
Q 1463 3103 1205 2759 
Q 947 2416 947 1791 
Q 947 1169 1205 825 
Q 1463 481 1925 481 
Q 2391 481 2648 825 
Q 2906 1169 2906 1791 
z
M 3481 434 
Q 3481 -459 3084 -895 
Q 2688 -1331 1869 -1331 
Q 1566 -1331 1297 -1286 
Q 1028 -1241 775 -1147 
L 775 -588 
Q 1028 -725 1275 -790 
Q 1522 -856 1778 -856 
Q 2344 -856 2625 -561 
Q 2906 -266 2906 331 
L 2906 616 
Q 2728 306 2450 153 
Q 2172 0 1784 0 
Q 1141 0 747 490 
Q 353 981 353 1791 
Q 353 2603 747 3093 
Q 1141 3584 1784 3584 
Q 2172 3584 2450 3431 
Q 2728 3278 2906 2969 
L 2906 3500 
L 3481 3500 
L 3481 434 
z
" transform="scale(0.015625)"/>
       <path id="DejaVuSans-30" d="M 2034 4250 
Q 1547 4250 1301 3770 
Q 1056 3291 1056 2328 
Q 1056 1369 1301 889 
Q 1547 409 2034 409 
Q 2525 409 2770 889 
Q 3016 1369 3016 2328 
Q 3016 3291 2770 3770 
Q 2525 4250 2034 4250 
z
M 2034 4750 
Q 2819 4750 3233 4129 
Q 3647 3509 3647 2328 
Q 3647 1150 3233 529 
Q 2819 -91 2034 -91 
Q 1250 -91 836 529 
Q 422 1150 422 2328 
Q 422 3509 836 4129 
Q 1250 4750 2034 4750 
z
" transform="scale(0.015625)"/>
      </defs>
      <use xlink:href="#DejaVuSans-62"/>
      <use xlink:href="#DejaVuSans-69" x="63.476562"/>
      <use xlink:href="#DejaVuSans-61" x="91.259766"/>
      <use xlink:href="#DejaVuSans-73" x="152.539062"/>
      <use xlink:href="#DejaVuSans-20" x="204.638672"/>
      <use xlink:href="#DejaVuSans-73" x="236.425781"/>
      <use xlink:href="#DejaVuSans-63" x="288.525391"/>
      <use xlink:href="#DejaVuSans-61" x="343.505859"/>
      <use xlink:href="#DejaVuSans-6c" x="404.785156"/>
      <use xlink:href="#DejaVuSans-69" x="432.568359"/>
      <use xlink:href="#DejaVuSans-6e" x="460.351562"/>
      <use xlink:href="#DejaVuSans-67" x="523.730469"/>
      <use xlink:href="#DejaVuSans-20" x="587.207031"/>
      <use xlink:href="#DejaVuSans-30" x="618.994141"/>
     </g>
    </g>
    <g id="patch_2">
     <path d="M 83.97929 85.552875 
L 144.852017 85.552875 
M 144.852017 73.552875 
L 83.97929 73.552875 
M 83.97929 85.552875 
" style="fill: #ffffff; stroke: #000000; stroke-linejoin: miter"/>
    </g>
    <g id="text_2">
     <!-- connectivity 0 -->
     <g transform="translate(96.735966 80.932563)scale(0.05 -0.05)">
      <defs>
       <path id="DejaVuSans-6f" d="M 1959 3097 
Q 1497 3097 1228 2736 
Q 959 2375 959 1747 
Q 959 1119 1226 758 
Q 1494 397 1959 397 
Q 2419 397 2687 759 
Q 2956 1122 2956 1747 
Q 2956 2369 2687 2733 
Q 2419 3097 1959 3097 
z
M 1959 3584 
Q 2709 3584 3137 3096 
Q 3566 2609 3566 1747 
Q 3566 888 3137 398 
Q 2709 -91 1959 -91 
Q 1206 -91 779 398 
Q 353 888 353 1747 
Q 353 2609 779 3096 
Q 1206 3584 1959 3584 
z
" transform="scale(0.015625)"/>
       <path id="DejaVuSans-65" d="M 3597 1894 
L 3597 1613 
L 953 1613 
Q 991 1019 1311 708 
Q 1631 397 2203 397 
Q 2534 397 2845 478 
Q 3156 559 3463 722 
L 3463 178 
Q 3153 47 2828 -22 
Q 2503 -91 2169 -91 
Q 1331 -91 842 396 
Q 353 884 353 1716 
Q 353 2575 817 3079 
Q 1281 3584 2069 3584 
Q 2775 3584 3186 3129 
Q 3597 2675 3597 1894 
z
M 3022 2063 
Q 3016 2534 2758 2815 
Q 2500 3097 2075 3097 
Q 1594 3097 1305 2825 
Q 1016 2553 972 2059 
L 3022 2063 
z
" transform="scale(0.015625)"/>
       <path id="DejaVuSans-74" d="M 1172 4494 
L 1172 3500 
L 2356 3500 
L 2356 3053 
L 1172 3053 
L 1172 1153 
Q 1172 725 1289 603 
Q 1406 481 1766 481 
L 2356 481 
L 2356 0 
L 1766 0 
Q 1100 0 847 248 
Q 594 497 594 1153 
L 594 3053 
L 172 3053 
L 172 3500 
L 594 3500 
L 594 4494 
L 1172 4494 
z
" transform="scale(0.015625)"/>
       <path id="DejaVuSans-76" d="M 191 3500 
L 800 3500 
L 1894 563 
L 2988 3500 
L 3597 3500 
L 2284 0 
L 1503 0 
L 191 3500 
z
" transform="scale(0.015625)"/>
       <path id="DejaVuSans-79" d="M 2059 -325 
Q 1816 -950 1584 -1140 
Q 1353 -1331 966 -1331 
L 506 -1331 
L 506 -850 
L 844 -850 
Q 1081 -850 1212 -737 
Q 1344 -625 1503 -206 
L 1606 56 
L 191 3500 
L 800 3500 
L 1894 763 
L 2988 3500 
L 3597 3500 
L 2059 -325 
z
" transform="scale(0.015625)"/>
      </defs>
      <use xlink:href="#DejaVuSans-63"/>
      <use xlink:href="#DejaVuSans-6f" x="54.980469"/>
      <use xlink:href="#DejaVuSans-6e" x="116.162109"/>
      <use xlink:href="#DejaVuSans-6e" x="179.541016"/>
      <use xlink:href="#DejaVuSans-65" x="242.919922"/>
      <use xlink:href="#DejaVuSans-63" x="304.443359"/>
      <use xlink:href="#DejaVuSans-74" x="359.423828"/>
      <use xlink:href="#DejaVuSans-69" x="398.632812"/>
      <use xlink:href="#DejaVuSans-76" x="426.416016"/>
      <use xlink:href="#DejaVuSans-69" x="485.595703"/>
      <use xlink:href="#DejaVuSans-74" x="513.378906"/>
      <use xlink:href="#DejaVuSans-79" x="552.587891"/>
      <use xlink:href="#DejaVuSans-20" x="611.767578"/>
      <use xlink:href="#DejaVuSans-30" x="643.554688"/>
     </g>
    </g>
    <g id="patch_3">
     <path d="M 144.852017 85.552875 
L 205.724744 85.552875 
M 205.724744 73.552875 
L 144.852017 73.552875 
M 144.852017 85.552875 
" style="fill: #ffffff; stroke: #000000; stroke-linejoin: miter"/>
    </g>
    <g id="text_3">
     <!-- connectivity X-&gt;Y -->
     <g transform="translate(153.08799 80.932563)scale(0.05 -0.05)">
      <defs>
       <path id="DejaVuSans-58" d="M 403 4666 
L 1081 4666 
L 2241 2931 
L 3406 4666 
L 4084 4666 
L 2584 2425 
L 4184 0 
L 3506 0 
L 2194 1984 
L 872 0 
L 191 0 
L 1856 2491 
L 403 4666 
z
" transform="scale(0.015625)"/>
       <path id="DejaVuSans-2d" d="M 313 2009 
L 1997 2009 
L 1997 1497 
L 313 1497 
L 313 2009 
z
" transform="scale(0.015625)"/>
       <path id="DejaVuSans-3e" d="M 678 3150 
L 678 3719 
L 4684 2266 
L 4684 1747 
L 678 294 
L 678 863 
L 3897 2003 
L 678 3150 
z
" transform="scale(0.015625)"/>
       <path id="DejaVuSans-59" d="M -13 4666 
L 666 4666 
L 1959 2747 
L 3244 4666 
L 3922 4666 
L 2272 2222 
L 2272 0 
L 1638 0 
L 1638 2222 
L -13 4666 
z
" transform="scale(0.015625)"/>
      </defs>
      <use xlink:href="#DejaVuSans-63"/>
      <use xlink:href="#DejaVuSans-6f" x="54.980469"/>
      <use xlink:href="#DejaVuSans-6e" x="116.162109"/>
      <use xlink:href="#DejaVuSans-6e" x="179.541016"/>
      <use xlink:href="#DejaVuSans-65" x="242.919922"/>
      <use xlink:href="#DejaVuSans-63" x="304.443359"/>
      <use xlink:href="#DejaVuSans-74" x="359.423828"/>
      <use xlink:href="#DejaVuSans-69" x="398.632812"/>
      <use xlink:href="#DejaVuSans-76" x="426.416016"/>
      <use xlink:href="#DejaVuSans-69" x="485.595703"/>
      <use xlink:href="#DejaVuSans-74" x="513.378906"/>
      <use xlink:href="#DejaVuSans-79" x="552.587891"/>
      <use xlink:href="#DejaVuSans-20" x="611.767578"/>
      <use xlink:href="#DejaVuSans-58" x="643.554688"/>
      <use xlink:href="#DejaVuSans-2d" x="707.060547"/>
      <use xlink:href="#DejaVuSans-3e" x="743.144531"/>
      <use xlink:href="#DejaVuSans-59" x="826.933594"/>
     </g>
    </g>
    <g id="patch_4">
     <path d="M 205.724744 85.552875 
L 266.597472 85.552875 
M 266.597472 73.552875 
L 205.724744 73.552875 
M 205.724744 85.552875 
" style="fill: #ffffff; stroke: #000000; stroke-linejoin: miter"/>
    </g>
    <g id="text_4">
     <!-- input scaling 0 -->
     <g transform="translate(217.78142 80.932563)scale(0.05 -0.05)">
      <defs>
       <path id="DejaVuSans-70" d="M 1159 525 
L 1159 -1331 
L 581 -1331 
L 581 3500 
L 1159 3500 
L 1159 2969 
Q 1341 3281 1617 3432 
Q 1894 3584 2278 3584 
Q 2916 3584 3314 3078 
Q 3713 2572 3713 1747 
Q 3713 922 3314 415 
Q 2916 -91 2278 -91 
Q 1894 -91 1617 61 
Q 1341 213 1159 525 
z
M 3116 1747 
Q 3116 2381 2855 2742 
Q 2594 3103 2138 3103 
Q 1681 3103 1420 2742 
Q 1159 2381 1159 1747 
Q 1159 1113 1420 752 
Q 1681 391 2138 391 
Q 2594 391 2855 752 
Q 3116 1113 3116 1747 
z
" transform="scale(0.015625)"/>
       <path id="DejaVuSans-75" d="M 544 1381 
L 544 3500 
L 1119 3500 
L 1119 1403 
Q 1119 906 1312 657 
Q 1506 409 1894 409 
Q 2359 409 2629 706 
Q 2900 1003 2900 1516 
L 2900 3500 
L 3475 3500 
L 3475 0 
L 2900 0 
L 2900 538 
Q 2691 219 2414 64 
Q 2138 -91 1772 -91 
Q 1169 -91 856 284 
Q 544 659 544 1381 
z
M 1991 3584 
L 1991 3584 
z
" transform="scale(0.015625)"/>
      </defs>
      <use xlink:href="#DejaVuSans-69"/>
      <use xlink:href="#DejaVuSans-6e" x="27.783203"/>
      <use xlink:href="#DejaVuSans-70" x="91.162109"/>
      <use xlink:href="#DejaVuSans-75" x="154.638672"/>
      <use xlink:href="#DejaVuSans-74" x="218.017578"/>
      <use xlink:href="#DejaVuSans-20" x="257.226562"/>
      <use xlink:href="#DejaVuSans-73" x="289.013672"/>
      <use xlink:href="#DejaVuSans-63" x="341.113281"/>
      <use xlink:href="#DejaVuSans-61" x="396.09375"/>
      <use xlink:href="#DejaVuSans-6c" x="457.373047"/>
      <use xlink:href="#DejaVuSans-69" x="485.15625"/>
      <use xlink:href="#DejaVuSans-6e" x="512.939453"/>
      <use xlink:href="#DejaVuSans-67" x="576.318359"/>
      <use xlink:href="#DejaVuSans-20" x="639.794922"/>
      <use xlink:href="#DejaVuSans-30" x="671.582031"/>
     </g>
    </g>
    <g id="patch_5">
     <path d="M 266.597472 85.552875 
L 327.470199 85.552875 
M 327.470199 73.552875 
L 266.597472 73.552875 
M 266.597472 85.552875 
" style="fill: #ffffff; stroke: #000000; stroke-linejoin: miter"/>
    </g>
    <g id="text_5">
     <!-- leaky -->
     <g transform="translate(290.432273 80.932563)scale(0.05 -0.05)">
      <defs>
       <path id="DejaVuSans-6b" d="M 581 4863 
L 1159 4863 
L 1159 1991 
L 2875 3500 
L 3609 3500 
L 1753 1863 
L 3688 0 
L 2938 0 
L 1159 1709 
L 1159 0 
L 581 0 
L 581 4863 
z
" transform="scale(0.015625)"/>
      </defs>
      <use xlink:href="#DejaVuSans-6c"/>
      <use xlink:href="#DejaVuSans-65" x="27.783203"/>
      <use xlink:href="#DejaVuSans-61" x="89.306641"/>
      <use xlink:href="#DejaVuSans-6b" x="150.585938"/>
      <use xlink:href="#DejaVuSans-79" x="204.871094"/>
     </g>
    </g>
    <g id="patch_6">
     <path d="M 327.470199 85.552875 
L 388.342926 85.552875 
M 388.342926 73.552875 
L 327.470199 73.552875 
M 327.470199 85.552875 
" style="fill: #ffffff; stroke: #000000; stroke-linejoin: miter"/>
    </g>
    <g id="text_6">
     <!-- learning rate -->
     <g transform="translate(341.834688 80.932563)scale(0.05 -0.05)">
      <defs>
       <path id="DejaVuSans-72" d="M 2631 2963 
Q 2534 3019 2420 3045 
Q 2306 3072 2169 3072 
Q 1681 3072 1420 2755 
Q 1159 2438 1159 1844 
L 1159 0 
L 581 0 
L 581 3500 
L 1159 3500 
L 1159 2956 
Q 1341 3275 1631 3429 
Q 1922 3584 2338 3584 
Q 2397 3584 2469 3576 
Q 2541 3569 2628 3553 
L 2631 2963 
z
" transform="scale(0.015625)"/>
      </defs>
      <use xlink:href="#DejaVuSans-6c"/>
      <use xlink:href="#DejaVuSans-65" x="27.783203"/>
      <use xlink:href="#DejaVuSans-61" x="89.306641"/>
      <use xlink:href="#DejaVuSans-72" x="150.585938"/>
      <use xlink:href="#DejaVuSans-6e" x="189.949219"/>
      <use xlink:href="#DejaVuSans-69" x="253.328125"/>
      <use xlink:href="#DejaVuSans-6e" x="281.111328"/>
      <use xlink:href="#DejaVuSans-67" x="344.490234"/>
      <use xlink:href="#DejaVuSans-20" x="407.966797"/>
      <use xlink:href="#DejaVuSans-72" x="439.753906"/>
      <use xlink:href="#DejaVuSans-61" x="480.867188"/>
      <use xlink:href="#DejaVuSans-74" x="542.146484"/>
      <use xlink:href="#DejaVuSans-65" x="581.355469"/>
     </g>
    </g>
    <g id="patch_7">
     <path d="M 388.342926 85.552875 
L 449.215653 85.552875 
M 449.215653 73.552875 
L 388.342926 73.552875 
M 388.342926 85.552875 
" style="fill: #ffffff; stroke: #000000; stroke-linejoin: miter"/>
    </g>
    <g id="text_7">
     <!-- partition 0 -->
     <g transform="translate(405.783977 80.932563)scale(0.05 -0.05)">
      <use xlink:href="#DejaVuSans-70"/>
      <use xlink:href="#DejaVuSans-61" x="63.476562"/>
      <use xlink:href="#DejaVuSans-72" x="124.755859"/>
      <use xlink:href="#DejaVuSans-74" x="165.869141"/>
      <use xlink:href="#DejaVuSans-69" x="205.078125"/>
      <use xlink:href="#DejaVuSans-74" x="232.861328"/>
      <use xlink:href="#DejaVuSans-69" x="272.070312"/>
      <use xlink:href="#DejaVuSans-6f" x="299.853516"/>
      <use xlink:href="#DejaVuSans-6e" x="361.035156"/>
      <use xlink:href="#DejaVuSans-20" x="424.414062"/>
      <use xlink:href="#DejaVuSans-30" x="456.201172"/>
     </g>
    </g>
    <g id="patch_8">
     <path d="M 449.215653 85.552875 
L 510.088381 85.552875 
M 510.088381 73.552875 
L 449.215653 73.552875 
M 449.215653 85.552875 
" style="fill: #ffffff; stroke: #000000; stroke-linejoin: miter"/>
    </g>
    <g id="text_8">
     <!-- partition 1 -->
     <g transform="translate(466.656705 80.932563)scale(0.05 -0.05)">
      <defs>
       <path id="DejaVuSans-31" d="M 794 531 
L 1825 531 
L 1825 4091 
L 703 3866 
L 703 4441 
L 1819 4666 
L 2450 4666 
L 2450 531 
L 3481 531 
L 3481 0 
L 794 0 
L 794 531 
z
" transform="scale(0.015625)"/>
      </defs>
      <use xlink:href="#DejaVuSans-70"/>
      <use xlink:href="#DejaVuSans-61" x="63.476562"/>
      <use xlink:href="#DejaVuSans-72" x="124.755859"/>
      <use xlink:href="#DejaVuSans-74" x="165.869141"/>
      <use xlink:href="#DejaVuSans-69" x="205.078125"/>
      <use xlink:href="#DejaVuSans-74" x="232.861328"/>
      <use xlink:href="#DejaVuSans-69" x="272.070312"/>
      <use xlink:href="#DejaVuSans-6f" x="299.853516"/>
      <use xlink:href="#DejaVuSans-6e" x="361.035156"/>
      <use xlink:href="#DejaVuSans-20" x="424.414062"/>
      <use xlink:href="#DejaVuSans-31" x="456.201172"/>
     </g>
    </g>
    <g id="patch_9">
     <path d="M 510.088381 85.552875 
L 570.961108 85.552875 
M 570.961108 73.552875 
L 510.088381 73.552875 
M 510.088381 85.552875 
" style="fill: #ffffff; stroke: #000000; stroke-linejoin: miter"/>
    </g>
    <g id="text_9">
     <!-- spectral radius 0 -->
     <g transform="translate(519.580213 80.932563)scale(0.05 -0.05)">
      <defs>
       <path id="DejaVuSans-64" d="M 2906 2969 
L 2906 4863 
L 3481 4863 
L 3481 0 
L 2906 0 
L 2906 525 
Q 2725 213 2448 61 
Q 2172 -91 1784 -91 
Q 1150 -91 751 415 
Q 353 922 353 1747 
Q 353 2572 751 3078 
Q 1150 3584 1784 3584 
Q 2172 3584 2448 3432 
Q 2725 3281 2906 2969 
z
M 947 1747 
Q 947 1113 1208 752 
Q 1469 391 1925 391 
Q 2381 391 2643 752 
Q 2906 1113 2906 1747 
Q 2906 2381 2643 2742 
Q 2381 3103 1925 3103 
Q 1469 3103 1208 2742 
Q 947 2381 947 1747 
z
" transform="scale(0.015625)"/>
      </defs>
      <use xlink:href="#DejaVuSans-73"/>
      <use xlink:href="#DejaVuSans-70" x="52.099609"/>
      <use xlink:href="#DejaVuSans-65" x="115.576172"/>
      <use xlink:href="#DejaVuSans-63" x="177.099609"/>
      <use xlink:href="#DejaVuSans-74" x="232.080078"/>
      <use xlink:href="#DejaVuSans-72" x="271.289062"/>
      <use xlink:href="#DejaVuSans-61" x="312.402344"/>
      <use xlink:href="#DejaVuSans-6c" x="373.681641"/>
      <use xlink:href="#DejaVuSans-20" x="401.464844"/>
      <use xlink:href="#DejaVuSans-72" x="433.251953"/>
      <use xlink:href="#DejaVuSans-61" x="474.365234"/>
      <use xlink:href="#DejaVuSans-64" x="535.644531"/>
      <use xlink:href="#DejaVuSans-69" x="599.121094"/>
      <use xlink:href="#DejaVuSans-75" x="626.904297"/>
      <use xlink:href="#DejaVuSans-73" x="690.283203"/>
      <use xlink:href="#DejaVuSans-20" x="742.382812"/>
      <use xlink:href="#DejaVuSans-30" x="774.169922"/>
     </g>
    </g>
    <g id="patch_10">
     <path d="M 570.961108 85.552875 
L 631.833835 85.552875 
M 631.833835 73.552875 
L 570.961108 73.552875 
M 570.961108 85.552875 
" style="fill: #ffffff; stroke: #000000; stroke-linejoin: miter"/>
    </g>
    <g id="text_10">
     <!-- spectral radius 1 -->
     <g transform="translate(580.45294 80.932563)scale(0.05 -0.05)">
      <use xlink:href="#DejaVuSans-73"/>
      <use xlink:href="#DejaVuSans-70" x="52.099609"/>
      <use xlink:href="#DejaVuSans-65" x="115.576172"/>
      <use xlink:href="#DejaVuSans-63" x="177.099609"/>
      <use xlink:href="#DejaVuSans-74" x="232.080078"/>
      <use xlink:href="#DejaVuSans-72" x="271.289062"/>
      <use xlink:href="#DejaVuSans-61" x="312.402344"/>
      <use xlink:href="#DejaVuSans-6c" x="373.681641"/>
      <use xlink:href="#DejaVuSans-20" x="401.464844"/>
      <use xlink:href="#DejaVuSans-72" x="433.251953"/>
      <use xlink:href="#DejaVuSans-61" x="474.365234"/>
      <use xlink:href="#DejaVuSans-64" x="535.644531"/>
      <use xlink:href="#DejaVuSans-69" x="599.121094"/>
      <use xlink:href="#DejaVuSans-75" x="626.904297"/>
      <use xlink:href="#DejaVuSans-73" x="690.283203"/>
      <use xlink:href="#DejaVuSans-20" x="742.382812"/>
      <use xlink:href="#DejaVuSans-31" x="774.169922"/>
     </g>
    </g>
    <g id="patch_11">
     <path d="M 631.833835 85.552875 
L 692.706563 85.552875 
M 692.706563 73.552875 
L 631.833835 73.552875 
M 631.833835 85.552875 
" style="fill: #ffffff; stroke: #000000; stroke-linejoin: miter"/>
    </g>
    <g id="text_11">
     <!-- units -->
     <g transform="translate(656.124496 80.932563)scale(0.05 -0.05)">
      <use xlink:href="#DejaVuSans-75"/>
      <use xlink:href="#DejaVuSans-6e" x="63.378906"/>
      <use xlink:href="#DejaVuSans-69" x="126.757812"/>
      <use xlink:href="#DejaVuSans-74" x="154.541016"/>
      <use xlink:href="#DejaVuSans-73" x="193.75"/>
     </g>
    </g>
    <g id="patch_12">
     <path d="M 7.2 97.552875 
L 23.106563 97.552875 
M 23.106563 85.552875 
L 7.2 85.552875 
M 7.2 97.552875 
" style="fill: #ffffff; stroke: #000000; stroke-linejoin: miter"/>
    </g>
    <g id="text_12">
     <!-- ESN1 -->
     <g transform="translate(8.790656 92.932563)scale(0.05 -0.05)">
      <defs>
       <path id="DejaVuSans-45" d="M 628 4666 
L 3578 4666 
L 3578 4134 
L 1259 4134 
L 1259 2753 
L 3481 2753 
L 3481 2222 
L 1259 2222 
L 1259 531 
L 3634 531 
L 3634 0 
L 628 0 
L 628 4666 
z
" transform="scale(0.015625)"/>
       <path id="DejaVuSans-53" d="M 3425 4513 
L 3425 3897 
Q 3066 4069 2747 4153 
Q 2428 4238 2131 4238 
Q 1616 4238 1336 4038 
Q 1056 3838 1056 3469 
Q 1056 3159 1242 3001 
Q 1428 2844 1947 2747 
L 2328 2669 
Q 3034 2534 3370 2195 
Q 3706 1856 3706 1288 
Q 3706 609 3251 259 
Q 2797 -91 1919 -91 
Q 1588 -91 1214 -16 
Q 841 59 441 206 
L 441 856 
Q 825 641 1194 531 
Q 1563 422 1919 422 
Q 2459 422 2753 634 
Q 3047 847 3047 1241 
Q 3047 1584 2836 1778 
Q 2625 1972 2144 2069 
L 1759 2144 
Q 1053 2284 737 2584 
Q 422 2884 422 3419 
Q 422 4038 858 4394 
Q 1294 4750 2059 4750 
Q 2388 4750 2728 4690 
Q 3069 4631 3425 4513 
z
" transform="scale(0.015625)"/>
       <path id="DejaVuSans-4e" d="M 628 4666 
L 1478 4666 
L 3547 763 
L 3547 4666 
L 4159 4666 
L 4159 0 
L 3309 0 
L 1241 3903 
L 1241 0 
L 628 0 
L 628 4666 
z
" transform="scale(0.015625)"/>
      </defs>
      <use xlink:href="#DejaVuSans-45"/>
      <use xlink:href="#DejaVuSans-53" x="63.183594"/>
      <use xlink:href="#DejaVuSans-4e" x="126.660156"/>
      <use xlink:href="#DejaVuSans-31" x="201.464844"/>
     </g>
    </g>
    <g id="patch_13">
     <path d="M 23.106563 97.552875 
L 83.97929 97.552875 
M 83.97929 85.552875 
L 23.106563 85.552875 
M 23.106563 97.552875 
" style="fill: #ffffff; stroke: #000000; stroke-linejoin: miter"/>
    </g>
    <g id="text_13">
     <!-- 0.1 -->
     <g transform="translate(49.567145 92.932563)scale(0.05 -0.05)">
      <defs>
       <path id="DejaVuSans-2e" d="M 684 794 
L 1344 794 
L 1344 0 
L 684 0 
L 684 794 
z
" transform="scale(0.015625)"/>
      </defs>
      <use xlink:href="#DejaVuSans-30"/>
      <use xlink:href="#DejaVuSans-2e" x="63.623047"/>
      <use xlink:href="#DejaVuSans-31" x="95.410156"/>
     </g>
    </g>
    <g id="patch_14">
     <path d="M 83.97929 97.552875 
L 144.852017 97.552875 
M 144.852017 85.552875 
L 83.97929 85.552875 
M 83.97929 97.552875 
" style="fill: #ffffff; stroke: #000000; stroke-linejoin: miter"/>
    </g>
    <g id="text_14">
     <!-- 0.488 -->
     <g transform="translate(107.258622 92.932563)scale(0.05 -0.05)">
      <defs>
       <path id="DejaVuSans-34" d="M 2419 4116 
L 825 1625 
L 2419 1625 
L 2419 4116 
z
M 2253 4666 
L 3047 4666 
L 3047 1625 
L 3713 1625 
L 3713 1100 
L 3047 1100 
L 3047 0 
L 2419 0 
L 2419 1100 
L 313 1100 
L 313 1709 
L 2253 4666 
z
" transform="scale(0.015625)"/>
       <path id="DejaVuSans-38" d="M 2034 2216 
Q 1584 2216 1326 1975 
Q 1069 1734 1069 1313 
Q 1069 891 1326 650 
Q 1584 409 2034 409 
Q 2484 409 2743 651 
Q 3003 894 3003 1313 
Q 3003 1734 2745 1975 
Q 2488 2216 2034 2216 
z
M 1403 2484 
Q 997 2584 770 2862 
Q 544 3141 544 3541 
Q 544 4100 942 4425 
Q 1341 4750 2034 4750 
Q 2731 4750 3128 4425 
Q 3525 4100 3525 3541 
Q 3525 3141 3298 2862 
Q 3072 2584 2669 2484 
Q 3125 2378 3379 2068 
Q 3634 1759 3634 1313 
Q 3634 634 3220 271 
Q 2806 -91 2034 -91 
Q 1263 -91 848 271 
Q 434 634 434 1313 
Q 434 1759 690 2068 
Q 947 2378 1403 2484 
z
M 1172 3481 
Q 1172 3119 1398 2916 
Q 1625 2713 2034 2713 
Q 2441 2713 2670 2916 
Q 2900 3119 2900 3481 
Q 2900 3844 2670 4047 
Q 2441 4250 2034 4250 
Q 1625 4250 1398 4047 
Q 1172 3844 1172 3481 
z
" transform="scale(0.015625)"/>
      </defs>
      <use xlink:href="#DejaVuSans-30"/>
      <use xlink:href="#DejaVuSans-2e" x="63.623047"/>
      <use xlink:href="#DejaVuSans-34" x="95.410156"/>
      <use xlink:href="#DejaVuSans-38" x="159.033203"/>
      <use xlink:href="#DejaVuSans-38" x="222.65625"/>
     </g>
    </g>
    <g id="patch_15">
     <path d="M 144.852017 97.552875 
L 205.724744 97.552875 
M 205.724744 85.552875 
L 144.852017 85.552875 
M 144.852017 97.552875 
" style="fill: #ffffff; stroke: #000000; stroke-linejoin: miter"/>
    </g>
    <g id="text_15">
     <!-- - -->
     <g transform="translate(174.386428 92.932563)scale(0.05 -0.05)">
      <use xlink:href="#DejaVuSans-2d"/>
     </g>
    </g>
    <g id="patch_16">
     <path d="M 205.724744 97.552875 
L 266.597472 97.552875 
M 266.597472 85.552875 
L 205.724744 85.552875 
M 205.724744 97.552875 
" style="fill: #ffffff; stroke: #000000; stroke-linejoin: miter"/>
    </g>
    <g id="text_16">
     <!-- 1.3 -->
     <g transform="translate(232.185327 92.932563)scale(0.05 -0.05)">
      <defs>
       <path id="DejaVuSans-33" d="M 2597 2516 
Q 3050 2419 3304 2112 
Q 3559 1806 3559 1356 
Q 3559 666 3084 287 
Q 2609 -91 1734 -91 
Q 1441 -91 1130 -33 
Q 819 25 488 141 
L 488 750 
Q 750 597 1062 519 
Q 1375 441 1716 441 
Q 2309 441 2620 675 
Q 2931 909 2931 1356 
Q 2931 1769 2642 2001 
Q 2353 2234 1838 2234 
L 1294 2234 
L 1294 2753 
L 1863 2753 
Q 2328 2753 2575 2939 
Q 2822 3125 2822 3475 
Q 2822 3834 2567 4026 
Q 2313 4219 1838 4219 
Q 1578 4219 1281 4162 
Q 984 4106 628 3988 
L 628 4550 
Q 988 4650 1302 4700 
Q 1616 4750 1894 4750 
Q 2613 4750 3031 4423 
Q 3450 4097 3450 3541 
Q 3450 3153 3228 2886 
Q 3006 2619 2597 2516 
z
" transform="scale(0.015625)"/>
      </defs>
      <use xlink:href="#DejaVuSans-31"/>
      <use xlink:href="#DejaVuSans-2e" x="63.623047"/>
      <use xlink:href="#DejaVuSans-33" x="95.410156"/>
     </g>
    </g>
    <g id="patch_17">
     <path d="M 266.597472 97.552875 
L 327.470199 97.552875 
M 327.470199 85.552875 
L 266.597472 85.552875 
M 266.597472 97.552875 
" style="fill: #ffffff; stroke: #000000; stroke-linejoin: miter"/>
    </g>
    <g id="text_17">
     <!-- 0.3 -->
     <g transform="translate(293.058054 92.932563)scale(0.05 -0.05)">
      <use xlink:href="#DejaVuSans-30"/>
      <use xlink:href="#DejaVuSans-2e" x="63.623047"/>
      <use xlink:href="#DejaVuSans-33" x="95.410156"/>
     </g>
    </g>
    <g id="patch_18">
     <path d="M 327.470199 97.552875 
L 388.342926 97.552875 
M 388.342926 85.552875 
L 327.470199 85.552875 
M 327.470199 97.552875 
" style="fill: #ffffff; stroke: #000000; stroke-linejoin: miter"/>
    </g>
    <g id="text_18">
     <!-- 0.008 -->
     <g transform="translate(350.749531 92.932563)scale(0.05 -0.05)">
      <use xlink:href="#DejaVuSans-30"/>
      <use xlink:href="#DejaVuSans-2e" x="63.623047"/>
      <use xlink:href="#DejaVuSans-30" x="95.410156"/>
      <use xlink:href="#DejaVuSans-30" x="159.033203"/>
      <use xlink:href="#DejaVuSans-38" x="222.65625"/>
     </g>
    </g>
    <g id="patch_19">
     <path d="M 388.342926 97.552875 
L 449.215653 97.552875 
M 449.215653 85.552875 
L 388.342926 85.552875 
M 388.342926 97.552875 
" style="fill: #ffffff; stroke: #000000; stroke-linejoin: miter"/>
    </g>
    <g id="text_19">
     <!-- - -->
     <g transform="translate(417.877337 92.932563)scale(0.05 -0.05)">
      <use xlink:href="#DejaVuSans-2d"/>
     </g>
    </g>
    <g id="patch_20">
     <path d="M 449.215653 97.552875 
L 510.088381 97.552875 
M 510.088381 85.552875 
L 449.215653 85.552875 
M 449.215653 97.552875 
" style="fill: #ffffff; stroke: #000000; stroke-linejoin: miter"/>
    </g>
    <g id="text_20">
     <!-- - -->
     <g transform="translate(478.750064 92.932563)scale(0.05 -0.05)">
      <use xlink:href="#DejaVuSans-2d"/>
     </g>
    </g>
    <g id="patch_21">
     <path d="M 510.088381 97.552875 
L 570.961108 97.552875 
M 570.961108 85.552875 
L 510.088381 85.552875 
M 510.088381 97.552875 
" style="fill: #ffffff; stroke: #000000; stroke-linejoin: miter"/>
    </g>
    <g id="text_21">
     <!-- 2.0 -->
     <g transform="translate(536.548963 92.932563)scale(0.05 -0.05)">
      <defs>
       <path id="DejaVuSans-32" d="M 1228 531 
L 3431 531 
L 3431 0 
L 469 0 
L 469 531 
Q 828 903 1448 1529 
Q 2069 2156 2228 2338 
Q 2531 2678 2651 2914 
Q 2772 3150 2772 3378 
Q 2772 3750 2511 3984 
Q 2250 4219 1831 4219 
Q 1534 4219 1204 4116 
Q 875 4013 500 3803 
L 500 4441 
Q 881 4594 1212 4672 
Q 1544 4750 1819 4750 
Q 2544 4750 2975 4387 
Q 3406 4025 3406 3419 
Q 3406 3131 3298 2873 
Q 3191 2616 2906 2266 
Q 2828 2175 2409 1742 
Q 1991 1309 1228 531 
z
" transform="scale(0.015625)"/>
      </defs>
      <use xlink:href="#DejaVuSans-32"/>
      <use xlink:href="#DejaVuSans-2e" x="63.623047"/>
      <use xlink:href="#DejaVuSans-30" x="95.410156"/>
     </g>
    </g>
    <g id="patch_22">
     <path d="M 570.961108 97.552875 
L 631.833835 97.552875 
M 631.833835 85.552875 
L 570.961108 85.552875 
M 570.961108 97.552875 
" style="fill: #ffffff; stroke: #000000; stroke-linejoin: miter"/>
    </g>
    <g id="text_22">
     <!-- - -->
     <g transform="translate(600.495518 92.932563)scale(0.05 -0.05)">
      <use xlink:href="#DejaVuSans-2d"/>
     </g>
    </g>
    <g id="patch_23">
     <path d="M 631.833835 97.552875 
L 692.706563 97.552875 
M 692.706563 85.552875 
L 631.833835 85.552875 
M 631.833835 97.552875 
" style="fill: #ffffff; stroke: #000000; stroke-linejoin: miter"/>
    </g>
    <g id="text_23">
     <!-- 100 -->
     <g transform="translate(657.498324 92.932563)scale(0.05 -0.05)">
      <use xlink:href="#DejaVuSans-31"/>
      <use xlink:href="#DejaVuSans-30" x="63.623047"/>
      <use xlink:href="#DejaVuSans-30" x="127.246094"/>
     </g>
    </g>
    <g id="patch_24">
     <path d="M 7.2 109.552875 
L 23.106563 109.552875 
M 23.106563 97.552875 
L 7.2 97.552875 
M 7.2 109.552875 
" style="fill: #ffffff; stroke: #000000; stroke-linejoin: miter"/>
    </g>
    <g id="text_24">
     <!-- ESN2 -->
     <g transform="translate(8.790656 104.932563)scale(0.05 -0.05)">
      <use xlink:href="#DejaVuSans-45"/>
      <use xlink:href="#DejaVuSans-53" x="63.183594"/>
      <use xlink:href="#DejaVuSans-4e" x="126.660156"/>
      <use xlink:href="#DejaVuSans-32" x="201.464844"/>
     </g>
    </g>
    <g id="patch_25">
     <path d="M 23.106563 109.552875 
L 83.97929 109.552875 
M 83.97929 97.552875 
L 23.106563 97.552875 
M 23.106563 109.552875 
" style="fill: #ffffff; stroke: #000000; stroke-linejoin: miter"/>
    </g>
    <g id="text_25">
     <!-- 0.21 -->
     <g transform="translate(47.97652 104.932563)scale(0.05 -0.05)">
      <use xlink:href="#DejaVuSans-30"/>
      <use xlink:href="#DejaVuSans-2e" x="63.623047"/>
      <use xlink:href="#DejaVuSans-32" x="95.410156"/>
      <use xlink:href="#DejaVuSans-31" x="159.033203"/>
     </g>
    </g>
    <g id="patch_26">
     <path d="M 83.97929 109.552875 
L 144.852017 109.552875 
M 144.852017 97.552875 
L 83.97929 97.552875 
M 83.97929 109.552875 
" style="fill: #ffffff; stroke: #000000; stroke-linejoin: miter"/>
    </g>
    <g id="text_26">
     <!-- 0.234 -->
     <g transform="translate(107.258622 104.932563)scale(0.05 -0.05)">
      <use xlink:href="#DejaVuSans-30"/>
      <use xlink:href="#DejaVuSans-2e" x="63.623047"/>
      <use xlink:href="#DejaVuSans-32" x="95.410156"/>
      <use xlink:href="#DejaVuSans-33" x="159.033203"/>
      <use xlink:href="#DejaVuSans-34" x="222.65625"/>
     </g>
    </g>
    <g id="patch_27">
     <path d="M 144.852017 109.552875 
L 205.724744 109.552875 
M 205.724744 97.552875 
L 144.852017 97.552875 
M 144.852017 109.552875 
" style="fill: #ffffff; stroke: #000000; stroke-linejoin: miter"/>
    </g>
    <g id="text_27">
     <!-- - -->
     <g transform="translate(174.386428 104.932563)scale(0.05 -0.05)">
      <use xlink:href="#DejaVuSans-2d"/>
     </g>
    </g>
    <g id="patch_28">
     <path d="M 205.724744 109.552875 
L 266.597472 109.552875 
M 266.597472 97.552875 
L 205.724744 97.552875 
M 205.724744 109.552875 
" style="fill: #ffffff; stroke: #000000; stroke-linejoin: miter"/>
    </g>
    <g id="text_28">
     <!-- 0.77 -->
     <g transform="translate(230.594702 104.932563)scale(0.05 -0.05)">
      <defs>
       <path id="DejaVuSans-37" d="M 525 4666 
L 3525 4666 
L 3525 4397 
L 1831 0 
L 1172 0 
L 2766 4134 
L 525 4134 
L 525 4666 
z
" transform="scale(0.015625)"/>
      </defs>
      <use xlink:href="#DejaVuSans-30"/>
      <use xlink:href="#DejaVuSans-2e" x="63.623047"/>
      <use xlink:href="#DejaVuSans-37" x="95.410156"/>
      <use xlink:href="#DejaVuSans-37" x="159.033203"/>
     </g>
    </g>
    <g id="patch_29">
     <path d="M 266.597472 109.552875 
L 327.470199 109.552875 
M 327.470199 97.552875 
L 266.597472 97.552875 
M 266.597472 109.552875 
" style="fill: #ffffff; stroke: #000000; stroke-linejoin: miter"/>
    </g>
    <g id="text_29">
     <!-- 0.1 -->
     <g transform="translate(293.058054 104.932563)scale(0.05 -0.05)">
      <use xlink:href="#DejaVuSans-30"/>
      <use xlink:href="#DejaVuSans-2e" x="63.623047"/>
      <use xlink:href="#DejaVuSans-31" x="95.410156"/>
     </g>
    </g>
    <g id="patch_30">
     <path d="M 327.470199 109.552875 
L 388.342926 109.552875 
M 388.342926 97.552875 
L 327.470199 97.552875 
M 327.470199 109.552875 
" style="fill: #ffffff; stroke: #000000; stroke-linejoin: miter"/>
    </g>
    <g id="text_30">
     <!-- 0.034 -->
     <g transform="translate(350.749531 104.932563)scale(0.05 -0.05)">
      <use xlink:href="#DejaVuSans-30"/>
      <use xlink:href="#DejaVuSans-2e" x="63.623047"/>
      <use xlink:href="#DejaVuSans-30" x="95.410156"/>
      <use xlink:href="#DejaVuSans-33" x="159.033203"/>
      <use xlink:href="#DejaVuSans-34" x="222.65625"/>
     </g>
    </g>
    <g id="patch_31">
     <path d="M 388.342926 109.552875 
L 449.215653 109.552875 
M 449.215653 97.552875 
L 388.342926 97.552875 
M 388.342926 109.552875 
" style="fill: #ffffff; stroke: #000000; stroke-linejoin: miter"/>
    </g>
    <g id="text_31">
     <!-- - -->
     <g transform="translate(417.877337 104.932563)scale(0.05 -0.05)">
      <use xlink:href="#DejaVuSans-2d"/>
     </g>
    </g>
    <g id="patch_32">
     <path d="M 449.215653 109.552875 
L 510.088381 109.552875 
M 510.088381 97.552875 
L 449.215653 97.552875 
M 449.215653 109.552875 
" style="fill: #ffffff; stroke: #000000; stroke-linejoin: miter"/>
    </g>
    <g id="text_32">
     <!-- - -->
     <g transform="translate(478.750064 104.932563)scale(0.05 -0.05)">
      <use xlink:href="#DejaVuSans-2d"/>
     </g>
    </g>
    <g id="patch_33">
     <path d="M 510.088381 109.552875 
L 570.961108 109.552875 
M 570.961108 97.552875 
L 510.088381 97.552875 
M 510.088381 109.552875 
" style="fill: #ffffff; stroke: #000000; stroke-linejoin: miter"/>
    </g>
    <g id="text_33">
     <!-- 0.0 -->
     <g transform="translate(536.548963 104.932563)scale(0.05 -0.05)">
      <use xlink:href="#DejaVuSans-30"/>
      <use xlink:href="#DejaVuSans-2e" x="63.623047"/>
      <use xlink:href="#DejaVuSans-30" x="95.410156"/>
     </g>
    </g>
    <g id="patch_34">
     <path d="M 570.961108 109.552875 
L 631.833835 109.552875 
M 631.833835 97.552875 
L 570.961108 97.552875 
M 570.961108 109.552875 
" style="fill: #ffffff; stroke: #000000; stroke-linejoin: miter"/>
    </g>
    <g id="text_34">
     <!-- 2.0 -->
     <g transform="translate(597.42169 104.932563)scale(0.05 -0.05)">
      <use xlink:href="#DejaVuSans-32"/>
      <use xlink:href="#DejaVuSans-2e" x="63.623047"/>
      <use xlink:href="#DejaVuSans-30" x="95.410156"/>
     </g>
    </g>
    <g id="patch_35">
     <path d="M 631.833835 109.552875 
L 692.706563 109.552875 
M 692.706563 97.552875 
L 631.833835 97.552875 
M 631.833835 109.552875 
" style="fill: #ffffff; stroke: #000000; stroke-linejoin: miter"/>
    </g>
    <g id="text_35">
     <!-- 100 -->
     <g transform="translate(657.498324 104.932563)scale(0.05 -0.05)">
      <use xlink:href="#DejaVuSans-31"/>
      <use xlink:href="#DejaVuSans-30" x="63.623047"/>
      <use xlink:href="#DejaVuSans-30" x="127.246094"/>
     </g>
    </g>
    <g id="patch_36">
     <path d="M 7.2 121.552875 
L 23.106563 121.552875 
M 23.106563 109.552875 
L 7.2 109.552875 
M 7.2 121.552875 
" style="fill: #ffffff; stroke: #000000; stroke-linejoin: miter"/>
    </g>
    <g id="text_36">
     <!-- ESN3 -->
     <g transform="translate(8.790656 116.932563)scale(0.05 -0.05)">
      <use xlink:href="#DejaVuSans-45"/>
      <use xlink:href="#DejaVuSans-53" x="63.183594"/>
      <use xlink:href="#DejaVuSans-4e" x="126.660156"/>
      <use xlink:href="#DejaVuSans-33" x="201.464844"/>
     </g>
    </g>
    <g id="patch_37">
     <path d="M 23.106563 121.552875 
L 83.97929 121.552875 
M 83.97929 109.552875 
L 23.106563 109.552875 
M 23.106563 121.552875 
" style="fill: #ffffff; stroke: #000000; stroke-linejoin: miter"/>
    </g>
    <g id="text_37">
     <!-- 0.1 -->
     <g transform="translate(49.567145 116.932563)scale(0.05 -0.05)">
      <use xlink:href="#DejaVuSans-30"/>
      <use xlink:href="#DejaVuSans-2e" x="63.623047"/>
      <use xlink:href="#DejaVuSans-31" x="95.410156"/>
     </g>
    </g>
    <g id="patch_38">
     <path d="M 83.97929 121.552875 
L 144.852017 121.552875 
M 144.852017 109.552875 
L 83.97929 109.552875 
M 83.97929 121.552875 
" style="fill: #ffffff; stroke: #000000; stroke-linejoin: miter"/>
    </g>
    <g id="text_38">
     <!-- 1.0 -->
     <g transform="translate(110.439872 116.932563)scale(0.05 -0.05)">
      <use xlink:href="#DejaVuSans-31"/>
      <use xlink:href="#DejaVuSans-2e" x="63.623047"/>
      <use xlink:href="#DejaVuSans-30" x="95.410156"/>
     </g>
    </g>
    <g id="patch_39">
     <path d="M 144.852017 121.552875 
L 205.724744 121.552875 
M 205.724744 109.552875 
L 144.852017 109.552875 
M 144.852017 121.552875 
" style="fill: #ffffff; stroke: #000000; stroke-linejoin: miter"/>
    </g>
    <g id="text_39">
     <!-- 0.0 -->
     <g transform="translate(171.312599 116.932563)scale(0.05 -0.05)">
      <use xlink:href="#DejaVuSans-30"/>
      <use xlink:href="#DejaVuSans-2e" x="63.623047"/>
      <use xlink:href="#DejaVuSans-30" x="95.410156"/>
     </g>
    </g>
    <g id="patch_40">
     <path d="M 205.724744 121.552875 
L 266.597472 121.552875 
M 266.597472 109.552875 
L 205.724744 109.552875 
M 205.724744 121.552875 
" style="fill: #ffffff; stroke: #000000; stroke-linejoin: miter"/>
    </g>
    <g id="text_40">
     <!-- 1.5 -->
     <g transform="translate(232.185327 116.932563)scale(0.05 -0.05)">
      <defs>
       <path id="DejaVuSans-35" d="M 691 4666 
L 3169 4666 
L 3169 4134 
L 1269 4134 
L 1269 2991 
Q 1406 3038 1543 3061 
Q 1681 3084 1819 3084 
Q 2600 3084 3056 2656 
Q 3513 2228 3513 1497 
Q 3513 744 3044 326 
Q 2575 -91 1722 -91 
Q 1428 -91 1123 -41 
Q 819 9 494 109 
L 494 744 
Q 775 591 1075 516 
Q 1375 441 1709 441 
Q 2250 441 2565 725 
Q 2881 1009 2881 1497 
Q 2881 1984 2565 2268 
Q 2250 2553 1709 2553 
Q 1456 2553 1204 2497 
Q 953 2441 691 2322 
L 691 4666 
z
" transform="scale(0.015625)"/>
      </defs>
      <use xlink:href="#DejaVuSans-31"/>
      <use xlink:href="#DejaVuSans-2e" x="63.623047"/>
      <use xlink:href="#DejaVuSans-35" x="95.410156"/>
     </g>
    </g>
    <g id="patch_41">
     <path d="M 266.597472 121.552875 
L 327.470199 121.552875 
M 327.470199 109.552875 
L 266.597472 109.552875 
M 266.597472 121.552875 
" style="fill: #ffffff; stroke: #000000; stroke-linejoin: miter"/>
    </g>
    <g id="text_41">
     <!-- 0.1 -->
     <g transform="translate(293.058054 116.932563)scale(0.05 -0.05)">
      <use xlink:href="#DejaVuSans-30"/>
      <use xlink:href="#DejaVuSans-2e" x="63.623047"/>
      <use xlink:href="#DejaVuSans-31" x="95.410156"/>
     </g>
    </g>
    <g id="patch_42">
     <path d="M 327.470199 121.552875 
L 388.342926 121.552875 
M 388.342926 109.552875 
L 327.470199 109.552875 
M 327.470199 121.552875 
" style="fill: #ffffff; stroke: #000000; stroke-linejoin: miter"/>
    </g>
    <g id="text_42">
     <!-- 0.1 -->
     <g transform="translate(353.930781 116.932563)scale(0.05 -0.05)">
      <use xlink:href="#DejaVuSans-30"/>
      <use xlink:href="#DejaVuSans-2e" x="63.623047"/>
      <use xlink:href="#DejaVuSans-31" x="95.410156"/>
     </g>
    </g>
    <g id="patch_43">
     <path d="M 388.342926 121.552875 
L 449.215653 121.552875 
M 449.215653 109.552875 
L 388.342926 109.552875 
M 388.342926 121.552875 
" style="fill: #ffffff; stroke: #000000; stroke-linejoin: miter"/>
    </g>
    <g id="text_43">
     <!-- - -->
     <g transform="translate(417.877337 116.932563)scale(0.05 -0.05)">
      <use xlink:href="#DejaVuSans-2d"/>
     </g>
    </g>
    <g id="patch_44">
     <path d="M 449.215653 121.552875 
L 510.088381 121.552875 
M 510.088381 109.552875 
L 449.215653 109.552875 
M 449.215653 121.552875 
" style="fill: #ffffff; stroke: #000000; stroke-linejoin: miter"/>
    </g>
    <g id="text_44">
     <!-- - -->
     <g transform="translate(478.750064 116.932563)scale(0.05 -0.05)">
      <use xlink:href="#DejaVuSans-2d"/>
     </g>
    </g>
    <g id="patch_45">
     <path d="M 510.088381 121.552875 
L 570.961108 121.552875 
M 570.961108 109.552875 
L 510.088381 109.552875 
M 510.088381 121.552875 
" style="fill: #ffffff; stroke: #000000; stroke-linejoin: miter"/>
    </g>
    <g id="text_45">
     <!-- 2.0 -->
     <g transform="translate(536.548963 116.932563)scale(0.05 -0.05)">
      <use xlink:href="#DejaVuSans-32"/>
      <use xlink:href="#DejaVuSans-2e" x="63.623047"/>
      <use xlink:href="#DejaVuSans-30" x="95.410156"/>
     </g>
    </g>
    <g id="patch_46">
     <path d="M 570.961108 121.552875 
L 631.833835 121.552875 
M 631.833835 109.552875 
L 570.961108 109.552875 
M 570.961108 121.552875 
" style="fill: #ffffff; stroke: #000000; stroke-linejoin: miter"/>
    </g>
    <g id="text_46">
     <!-- 2.0 -->
     <g transform="translate(597.42169 116.932563)scale(0.05 -0.05)">
      <use xlink:href="#DejaVuSans-32"/>
      <use xlink:href="#DejaVuSans-2e" x="63.623047"/>
      <use xlink:href="#DejaVuSans-30" x="95.410156"/>
     </g>
    </g>
    <g id="patch_47">
     <path d="M 631.833835 121.552875 
L 692.706563 121.552875 
M 692.706563 109.552875 
L 631.833835 109.552875 
M 631.833835 121.552875 
" style="fill: #ffffff; stroke: #000000; stroke-linejoin: miter"/>
    </g>
    <g id="text_47">
     <!-- 100 -->
     <g transform="translate(657.498324 116.932563)scale(0.05 -0.05)">
      <use xlink:href="#DejaVuSans-31"/>
      <use xlink:href="#DejaVuSans-30" x="63.623047"/>
      <use xlink:href="#DejaVuSans-30" x="127.246094"/>
     </g>
    </g>
    <g id="patch_48">
     <path d="M 7.2 133.552875 
L 23.106563 133.552875 
M 23.106563 121.552875 
L 7.2 121.552875 
M 7.2 133.552875 
" style="fill: #ffffff; stroke: #000000; stroke-linejoin: miter"/>
    </g>
    <g id="text_48">
     <!-- ESN4 -->
     <g transform="translate(8.790656 128.932563)scale(0.05 -0.05)">
      <use xlink:href="#DejaVuSans-45"/>
      <use xlink:href="#DejaVuSans-53" x="63.183594"/>
      <use xlink:href="#DejaVuSans-4e" x="126.660156"/>
      <use xlink:href="#DejaVuSans-34" x="201.464844"/>
     </g>
    </g>
    <g id="patch_49">
     <path d="M 23.106563 133.552875 
L 83.97929 133.552875 
M 83.97929 121.552875 
L 23.106563 121.552875 
M 23.106563 133.552875 
" style="fill: #ffffff; stroke: #000000; stroke-linejoin: miter"/>
    </g>
    <g id="text_49">
     <!-- 0.1 -->
     <g transform="translate(49.567145 128.932563)scale(0.05 -0.05)">
      <use xlink:href="#DejaVuSans-30"/>
      <use xlink:href="#DejaVuSans-2e" x="63.623047"/>
      <use xlink:href="#DejaVuSans-31" x="95.410156"/>
     </g>
    </g>
    <g id="patch_50">
     <path d="M 83.97929 133.552875 
L 144.852017 133.552875 
M 144.852017 121.552875 
L 83.97929 121.552875 
M 83.97929 133.552875 
" style="fill: #ffffff; stroke: #000000; stroke-linejoin: miter"/>
    </g>
    <g id="text_50">
     <!-- 1.0 -->
     <g transform="translate(110.439872 128.932563)scale(0.05 -0.05)">
      <use xlink:href="#DejaVuSans-31"/>
      <use xlink:href="#DejaVuSans-2e" x="63.623047"/>
      <use xlink:href="#DejaVuSans-30" x="95.410156"/>
     </g>
    </g>
    <g id="patch_51">
     <path d="M 144.852017 133.552875 
L 205.724744 133.552875 
M 205.724744 121.552875 
L 144.852017 121.552875 
M 144.852017 133.552875 
" style="fill: #ffffff; stroke: #000000; stroke-linejoin: miter"/>
    </g>
    <g id="text_51">
     <!-- 0.0 -->
     <g transform="translate(171.312599 128.932563)scale(0.05 -0.05)">
      <use xlink:href="#DejaVuSans-30"/>
      <use xlink:href="#DejaVuSans-2e" x="63.623047"/>
      <use xlink:href="#DejaVuSans-30" x="95.410156"/>
     </g>
    </g>
    <g id="patch_52">
     <path d="M 205.724744 133.552875 
L 266.597472 133.552875 
M 266.597472 121.552875 
L 205.724744 121.552875 
M 205.724744 133.552875 
" style="fill: #ffffff; stroke: #000000; stroke-linejoin: miter"/>
    </g>
    <g id="text_52">
     <!-- 0.1 -->
     <g transform="translate(232.185327 128.932563)scale(0.05 -0.05)">
      <use xlink:href="#DejaVuSans-30"/>
      <use xlink:href="#DejaVuSans-2e" x="63.623047"/>
      <use xlink:href="#DejaVuSans-31" x="95.410156"/>
     </g>
    </g>
    <g id="patch_53">
     <path d="M 266.597472 133.552875 
L 327.470199 133.552875 
M 327.470199 121.552875 
L 266.597472 121.552875 
M 266.597472 133.552875 
" style="fill: #ffffff; stroke: #000000; stroke-linejoin: miter"/>
    </g>
    <g id="text_53">
     <!-- 1.0 -->
     <g transform="translate(293.058054 128.932563)scale(0.05 -0.05)">
      <use xlink:href="#DejaVuSans-31"/>
      <use xlink:href="#DejaVuSans-2e" x="63.623047"/>
      <use xlink:href="#DejaVuSans-30" x="95.410156"/>
     </g>
    </g>
    <g id="patch_54">
     <path d="M 327.470199 133.552875 
L 388.342926 133.552875 
M 388.342926 121.552875 
L 327.470199 121.552875 
M 327.470199 133.552875 
" style="fill: #ffffff; stroke: #000000; stroke-linejoin: miter"/>
    </g>
    <g id="text_54">
     <!-- 0.1 -->
     <g transform="translate(353.930781 128.932563)scale(0.05 -0.05)">
      <use xlink:href="#DejaVuSans-30"/>
      <use xlink:href="#DejaVuSans-2e" x="63.623047"/>
      <use xlink:href="#DejaVuSans-31" x="95.410156"/>
     </g>
    </g>
    <g id="patch_55">
     <path d="M 388.342926 133.552875 
L 449.215653 133.552875 
M 449.215653 121.552875 
L 388.342926 121.552875 
M 388.342926 133.552875 
" style="fill: #ffffff; stroke: #000000; stroke-linejoin: miter"/>
    </g>
    <g id="text_55">
     <!-- 1.0 -->
     <g transform="translate(414.803509 128.932563)scale(0.05 -0.05)">
      <use xlink:href="#DejaVuSans-31"/>
      <use xlink:href="#DejaVuSans-2e" x="63.623047"/>
      <use xlink:href="#DejaVuSans-30" x="95.410156"/>
     </g>
    </g>
    <g id="patch_56">
     <path d="M 449.215653 133.552875 
L 510.088381 133.552875 
M 510.088381 121.552875 
L 449.215653 121.552875 
M 449.215653 133.552875 
" style="fill: #ffffff; stroke: #000000; stroke-linejoin: miter"/>
    </g>
    <g id="text_56">
     <!-- 0.01 -->
     <g transform="translate(474.085611 128.932563)scale(0.05 -0.05)">
      <use xlink:href="#DejaVuSans-30"/>
      <use xlink:href="#DejaVuSans-2e" x="63.623047"/>
      <use xlink:href="#DejaVuSans-30" x="95.410156"/>
      <use xlink:href="#DejaVuSans-31" x="159.033203"/>
     </g>
    </g>
    <g id="patch_57">
     <path d="M 510.088381 133.552875 
L 570.961108 133.552875 
M 570.961108 121.552875 
L 510.088381 121.552875 
M 510.088381 133.552875 
" style="fill: #ffffff; stroke: #000000; stroke-linejoin: miter"/>
    </g>
    <g id="text_57">
     <!-- 2.0 -->
     <g transform="translate(536.548963 128.932563)scale(0.05 -0.05)">
      <use xlink:href="#DejaVuSans-32"/>
      <use xlink:href="#DejaVuSans-2e" x="63.623047"/>
      <use xlink:href="#DejaVuSans-30" x="95.410156"/>
     </g>
    </g>
    <g id="patch_58">
     <path d="M 570.961108 133.552875 
L 631.833835 133.552875 
M 631.833835 121.552875 
L 570.961108 121.552875 
M 570.961108 133.552875 
" style="fill: #ffffff; stroke: #000000; stroke-linejoin: miter"/>
    </g>
    <g id="text_58">
     <!-- 2.0 -->
     <g transform="translate(597.42169 128.932563)scale(0.05 -0.05)">
      <use xlink:href="#DejaVuSans-32"/>
      <use xlink:href="#DejaVuSans-2e" x="63.623047"/>
      <use xlink:href="#DejaVuSans-30" x="95.410156"/>
     </g>
    </g>
    <g id="patch_59">
     <path d="M 631.833835 133.552875 
L 692.706563 133.552875 
M 692.706563 121.552875 
L 631.833835 121.552875 
M 631.833835 133.552875 
" style="fill: #ffffff; stroke: #000000; stroke-linejoin: miter"/>
    </g>
    <g id="text_59">
     <!-- 100 -->
     <g transform="translate(657.498324 128.932563)scale(0.05 -0.05)">
      <use xlink:href="#DejaVuSans-31"/>
      <use xlink:href="#DejaVuSans-30" x="63.623047"/>
      <use xlink:href="#DejaVuSans-30" x="127.246094"/>
     </g>
    </g>
   </g>
   <g id="text_60">
    <!-- Dataset: "Libras" -->
    <g transform="translate(306.874688 16.318125)scale(0.12 -0.12)">
     <defs>
      <path id="DejaVuSans-44" d="M 1259 4147 
L 1259 519 
L 2022 519 
Q 2988 519 3436 956 
Q 3884 1394 3884 2338 
Q 3884 3275 3436 3711 
Q 2988 4147 2022 4147 
L 1259 4147 
z
M 628 4666 
L 1925 4666 
Q 3281 4666 3915 4102 
Q 4550 3538 4550 2338 
Q 4550 1131 3912 565 
Q 3275 0 1925 0 
L 628 0 
L 628 4666 
z
" transform="scale(0.015625)"/>
      <path id="DejaVuSans-3a" d="M 750 794 
L 1409 794 
L 1409 0 
L 750 0 
L 750 794 
z
M 750 3309 
L 1409 3309 
L 1409 2516 
L 750 2516 
L 750 3309 
z
" transform="scale(0.015625)"/>
      <path id="DejaVuSans-22" d="M 1147 4666 
L 1147 2931 
L 616 2931 
L 616 4666 
L 1147 4666 
z
M 2328 4666 
L 2328 2931 
L 1797 2931 
L 1797 4666 
L 2328 4666 
z
" transform="scale(0.015625)"/>
      <path id="DejaVuSans-4c" d="M 628 4666 
L 1259 4666 
L 1259 531 
L 3531 531 
L 3531 0 
L 628 0 
L 628 4666 
z
" transform="scale(0.015625)"/>
     </defs>
     <use xlink:href="#DejaVuSans-44"/>
     <use xlink:href="#DejaVuSans-61" x="77.001953"/>
     <use xlink:href="#DejaVuSans-74" x="138.28125"/>
     <use xlink:href="#DejaVuSans-61" x="177.490234"/>
     <use xlink:href="#DejaVuSans-73" x="238.769531"/>
     <use xlink:href="#DejaVuSans-65" x="290.869141"/>
     <use xlink:href="#DejaVuSans-74" x="352.392578"/>
     <use xlink:href="#DejaVuSans-3a" x="391.601562"/>
     <use xlink:href="#DejaVuSans-20" x="425.292969"/>
     <use xlink:href="#DejaVuSans-22" x="457.080078"/>
     <use xlink:href="#DejaVuSans-4c" x="503.076172"/>
     <use xlink:href="#DejaVuSans-69" x="558.789062"/>
     <use xlink:href="#DejaVuSans-62" x="586.572266"/>
     <use xlink:href="#DejaVuSans-72" x="650.048828"/>
     <use xlink:href="#DejaVuSans-61" x="691.162109"/>
     <use xlink:href="#DejaVuSans-73" x="752.441406"/>
     <use xlink:href="#DejaVuSans-22" x="804.541016"/>
    </g>
    <!-- Exp. Class: "Multiple S.R." -->
    <g transform="translate(280.394063 29.7555)scale(0.12 -0.12)">
     <defs>
      <path id="DejaVuSans-78" d="M 3513 3500 
L 2247 1797 
L 3578 0 
L 2900 0 
L 1881 1375 
L 863 0 
L 184 0 
L 1544 1831 
L 300 3500 
L 978 3500 
L 1906 2253 
L 2834 3500 
L 3513 3500 
z
" transform="scale(0.015625)"/>
      <path id="DejaVuSans-43" d="M 4122 4306 
L 4122 3641 
Q 3803 3938 3442 4084 
Q 3081 4231 2675 4231 
Q 1875 4231 1450 3742 
Q 1025 3253 1025 2328 
Q 1025 1406 1450 917 
Q 1875 428 2675 428 
Q 3081 428 3442 575 
Q 3803 722 4122 1019 
L 4122 359 
Q 3791 134 3420 21 
Q 3050 -91 2638 -91 
Q 1578 -91 968 557 
Q 359 1206 359 2328 
Q 359 3453 968 4101 
Q 1578 4750 2638 4750 
Q 3056 4750 3426 4639 
Q 3797 4528 4122 4306 
z
" transform="scale(0.015625)"/>
      <path id="DejaVuSans-4d" d="M 628 4666 
L 1569 4666 
L 2759 1491 
L 3956 4666 
L 4897 4666 
L 4897 0 
L 4281 0 
L 4281 4097 
L 3078 897 
L 2444 897 
L 1241 4097 
L 1241 0 
L 628 0 
L 628 4666 
z
" transform="scale(0.015625)"/>
      <path id="DejaVuSans-52" d="M 2841 2188 
Q 3044 2119 3236 1894 
Q 3428 1669 3622 1275 
L 4263 0 
L 3584 0 
L 2988 1197 
Q 2756 1666 2539 1819 
Q 2322 1972 1947 1972 
L 1259 1972 
L 1259 0 
L 628 0 
L 628 4666 
L 2053 4666 
Q 2853 4666 3247 4331 
Q 3641 3997 3641 3322 
Q 3641 2881 3436 2590 
Q 3231 2300 2841 2188 
z
M 1259 4147 
L 1259 2491 
L 2053 2491 
Q 2509 2491 2742 2702 
Q 2975 2913 2975 3322 
Q 2975 3731 2742 3939 
Q 2509 4147 2053 4147 
L 1259 4147 
z
" transform="scale(0.015625)"/>
     </defs>
     <use xlink:href="#DejaVuSans-45"/>
     <use xlink:href="#DejaVuSans-78" x="63.183594"/>
     <use xlink:href="#DejaVuSans-70" x="122.363281"/>
     <use xlink:href="#DejaVuSans-2e" x="185.839844"/>
     <use xlink:href="#DejaVuSans-20" x="217.626953"/>
     <use xlink:href="#DejaVuSans-43" x="249.414062"/>
     <use xlink:href="#DejaVuSans-6c" x="319.238281"/>
     <use xlink:href="#DejaVuSans-61" x="347.021484"/>
     <use xlink:href="#DejaVuSans-73" x="408.300781"/>
     <use xlink:href="#DejaVuSans-73" x="460.400391"/>
     <use xlink:href="#DejaVuSans-3a" x="512.5"/>
     <use xlink:href="#DejaVuSans-20" x="546.191406"/>
     <use xlink:href="#DejaVuSans-22" x="577.978516"/>
     <use xlink:href="#DejaVuSans-4d" x="623.974609"/>
     <use xlink:href="#DejaVuSans-75" x="710.253906"/>
     <use xlink:href="#DejaVuSans-6c" x="773.632812"/>
     <use xlink:href="#DejaVuSans-74" x="801.416016"/>
     <use xlink:href="#DejaVuSans-69" x="840.625"/>
     <use xlink:href="#DejaVuSans-70" x="868.408203"/>
     <use xlink:href="#DejaVuSans-6c" x="931.884766"/>
     <use xlink:href="#DejaVuSans-65" x="959.667969"/>
     <use xlink:href="#DejaVuSans-20" x="1021.191406"/>
     <use xlink:href="#DejaVuSans-53" x="1052.978516"/>
     <use xlink:href="#DejaVuSans-2e" x="1116.455078"/>
     <use xlink:href="#DejaVuSans-52" x="1148.242188"/>
     <use xlink:href="#DejaVuSans-2e" x="1214.099609"/>
     <use xlink:href="#DejaVuSans-22" x="1245.886719"/>
    </g>
    <!-- Experiment: "Units 100" -->
    <g transform="translate(285.092813 43.192875)scale(0.12 -0.12)">
     <defs>
      <path id="DejaVuSans-6d" d="M 3328 2828 
Q 3544 3216 3844 3400 
Q 4144 3584 4550 3584 
Q 5097 3584 5394 3201 
Q 5691 2819 5691 2113 
L 5691 0 
L 5113 0 
L 5113 2094 
Q 5113 2597 4934 2840 
Q 4756 3084 4391 3084 
Q 3944 3084 3684 2787 
Q 3425 2491 3425 1978 
L 3425 0 
L 2847 0 
L 2847 2094 
Q 2847 2600 2669 2842 
Q 2491 3084 2119 3084 
Q 1678 3084 1418 2786 
Q 1159 2488 1159 1978 
L 1159 0 
L 581 0 
L 581 3500 
L 1159 3500 
L 1159 2956 
Q 1356 3278 1631 3431 
Q 1906 3584 2284 3584 
Q 2666 3584 2933 3390 
Q 3200 3197 3328 2828 
z
" transform="scale(0.015625)"/>
      <path id="DejaVuSans-55" d="M 556 4666 
L 1191 4666 
L 1191 1831 
Q 1191 1081 1462 751 
Q 1734 422 2344 422 
Q 2950 422 3222 751 
Q 3494 1081 3494 1831 
L 3494 4666 
L 4128 4666 
L 4128 1753 
Q 4128 841 3676 375 
Q 3225 -91 2344 -91 
Q 1459 -91 1007 375 
Q 556 841 556 1753 
L 556 4666 
z
" transform="scale(0.015625)"/>
     </defs>
     <use xlink:href="#DejaVuSans-45"/>
     <use xlink:href="#DejaVuSans-78" x="63.183594"/>
     <use xlink:href="#DejaVuSans-70" x="122.363281"/>
     <use xlink:href="#DejaVuSans-65" x="185.839844"/>
     <use xlink:href="#DejaVuSans-72" x="247.363281"/>
     <use xlink:href="#DejaVuSans-69" x="288.476562"/>
     <use xlink:href="#DejaVuSans-6d" x="316.259766"/>
     <use xlink:href="#DejaVuSans-65" x="413.671875"/>
     <use xlink:href="#DejaVuSans-6e" x="475.195312"/>
     <use xlink:href="#DejaVuSans-74" x="538.574219"/>
     <use xlink:href="#DejaVuSans-3a" x="577.783203"/>
     <use xlink:href="#DejaVuSans-20" x="611.474609"/>
     <use xlink:href="#DejaVuSans-22" x="643.261719"/>
     <use xlink:href="#DejaVuSans-55" x="689.257812"/>
     <use xlink:href="#DejaVuSans-6e" x="762.451172"/>
     <use xlink:href="#DejaVuSans-69" x="825.830078"/>
     <use xlink:href="#DejaVuSans-74" x="853.613281"/>
     <use xlink:href="#DejaVuSans-73" x="892.822266"/>
     <use xlink:href="#DejaVuSans-20" x="944.921875"/>
     <use xlink:href="#DejaVuSans-31" x="976.708984"/>
     <use xlink:href="#DejaVuSans-30" x="1040.332031"/>
     <use xlink:href="#DejaVuSans-30" x="1103.955078"/>
     <use xlink:href="#DejaVuSans-22" x="1167.578125"/>
    </g>
   </g>
  </g>
 </g>
</svg>
