<?xml version="1.0" encoding="utf-8" standalone="no"?>
<!DOCTYPE svg PUBLIC "-//W3C//DTD SVG 1.1//EN"
  "http://www.w3.org/Graphics/SVG/1.1/DTD/svg11.dtd">
<svg xmlns:xlink="http://www.w3.org/1999/xlink" width="385.78125pt" height="263.63625pt" viewBox="0 0 385.78125 263.63625" xmlns="http://www.w3.org/2000/svg" version="1.1">
 <metadata>
  <rdf:RDF xmlns:dc="http://purl.org/dc/elements/1.1/" xmlns:cc="http://creativecommons.org/ns#" xmlns:rdf="http://www.w3.org/1999/02/22-rdf-syntax-ns#">
   <cc:Work>
    <dc:type rdf:resource="http://purl.org/dc/dcmitype/StillImage"/>
    <dc:date>2022-02-07T15:53:58.928056</dc:date>
    <dc:format>image/svg+xml</dc:format>
    <dc:creator>
     <cc:Agent>
      <dc:title>Matplotlib v3.5.1, https://matplotlib.org/</dc:title>
     </cc:Agent>
    </dc:creator>
   </cc:Work>
  </rdf:RDF>
 </metadata>
 <defs>
  <style type="text/css">*{stroke-linejoin: round; stroke-linecap: butt}</style>
 </defs>
 <g id="figure_1">
  <g id="patch_1">
   <path d="M 0 263.63625 
L 385.78125 263.63625 
L 385.78125 0 
L 0 0 
L 0 263.63625 
z
" style="fill: none"/>
  </g>
  <g id="axes_1">
   <g id="patch_2">
    <path d="M 43.78125 239.758125 
L 378.58125 239.758125 
L 378.58125 22.318125 
L 43.78125 22.318125 
z
" style="fill: #ffffff"/>
   </g>
   <g id="matplotlib.axis_1">
    <g id="xtick_1">
     <g id="line2d_1">
      <defs>
       <path id="mabe259afa5" d="M 0 0 
L 0 3.5 
" style="stroke: #000000; stroke-width: 0.8"/>
      </defs>
      <g>
       <use xlink:href="#mabe259afa5" x="80.55308" y="239.758125" style="stroke: #000000; stroke-width: 0.8"/>
      </g>
     </g>
     <g id="text_1">
      <!-- Units 50 -->
      <g transform="translate(59.819486 254.356563)scale(0.1 -0.1)">
       <defs>
        <path id="DejaVuSans-55" d="M 556 4666 
L 1191 4666 
L 1191 1831 
Q 1191 1081 1462 751 
Q 1734 422 2344 422 
Q 2950 422 3222 751 
Q 3494 1081 3494 1831 
L 3494 4666 
L 4128 4666 
L 4128 1753 
Q 4128 841 3676 375 
Q 3225 -91 2344 -91 
Q 1459 -91 1007 375 
Q 556 841 556 1753 
L 556 4666 
z
" transform="scale(0.015625)"/>
        <path id="DejaVuSans-6e" d="M 3513 2113 
L 3513 0 
L 2938 0 
L 2938 2094 
Q 2938 2591 2744 2837 
Q 2550 3084 2163 3084 
Q 1697 3084 1428 2787 
Q 1159 2491 1159 1978 
L 1159 0 
L 581 0 
L 581 3500 
L 1159 3500 
L 1159 2956 
Q 1366 3272 1645 3428 
Q 1925 3584 2291 3584 
Q 2894 3584 3203 3211 
Q 3513 2838 3513 2113 
z
" transform="scale(0.015625)"/>
        <path id="DejaVuSans-69" d="M 603 3500 
L 1178 3500 
L 1178 0 
L 603 0 
L 603 3500 
z
M 603 4863 
L 1178 4863 
L 1178 4134 
L 603 4134 
L 603 4863 
z
" transform="scale(0.015625)"/>
        <path id="DejaVuSans-74" d="M 1172 4494 
L 1172 3500 
L 2356 3500 
L 2356 3053 
L 1172 3053 
L 1172 1153 
Q 1172 725 1289 603 
Q 1406 481 1766 481 
L 2356 481 
L 2356 0 
L 1766 0 
Q 1100 0 847 248 
Q 594 497 594 1153 
L 594 3053 
L 172 3053 
L 172 3500 
L 594 3500 
L 594 4494 
L 1172 4494 
z
" transform="scale(0.015625)"/>
        <path id="DejaVuSans-73" d="M 2834 3397 
L 2834 2853 
Q 2591 2978 2328 3040 
Q 2066 3103 1784 3103 
Q 1356 3103 1142 2972 
Q 928 2841 928 2578 
Q 928 2378 1081 2264 
Q 1234 2150 1697 2047 
L 1894 2003 
Q 2506 1872 2764 1633 
Q 3022 1394 3022 966 
Q 3022 478 2636 193 
Q 2250 -91 1575 -91 
Q 1294 -91 989 -36 
Q 684 19 347 128 
L 347 722 
Q 666 556 975 473 
Q 1284 391 1588 391 
Q 1994 391 2212 530 
Q 2431 669 2431 922 
Q 2431 1156 2273 1281 
Q 2116 1406 1581 1522 
L 1381 1569 
Q 847 1681 609 1914 
Q 372 2147 372 2553 
Q 372 3047 722 3315 
Q 1072 3584 1716 3584 
Q 2034 3584 2315 3537 
Q 2597 3491 2834 3397 
z
" transform="scale(0.015625)"/>
        <path id="DejaVuSans-20" transform="scale(0.015625)"/>
        <path id="DejaVuSans-35" d="M 691 4666 
L 3169 4666 
L 3169 4134 
L 1269 4134 
L 1269 2991 
Q 1406 3038 1543 3061 
Q 1681 3084 1819 3084 
Q 2600 3084 3056 2656 
Q 3513 2228 3513 1497 
Q 3513 744 3044 326 
Q 2575 -91 1722 -91 
Q 1428 -91 1123 -41 
Q 819 9 494 109 
L 494 744 
Q 775 591 1075 516 
Q 1375 441 1709 441 
Q 2250 441 2565 725 
Q 2881 1009 2881 1497 
Q 2881 1984 2565 2268 
Q 2250 2553 1709 2553 
Q 1456 2553 1204 2497 
Q 953 2441 691 2322 
L 691 4666 
z
" transform="scale(0.015625)"/>
        <path id="DejaVuSans-30" d="M 2034 4250 
Q 1547 4250 1301 3770 
Q 1056 3291 1056 2328 
Q 1056 1369 1301 889 
Q 1547 409 2034 409 
Q 2525 409 2770 889 
Q 3016 1369 3016 2328 
Q 3016 3291 2770 3770 
Q 2525 4250 2034 4250 
z
M 2034 4750 
Q 2819 4750 3233 4129 
Q 3647 3509 3647 2328 
Q 3647 1150 3233 529 
Q 2819 -91 2034 -91 
Q 1250 -91 836 529 
Q 422 1150 422 2328 
Q 422 3509 836 4129 
Q 1250 4750 2034 4750 
z
" transform="scale(0.015625)"/>
       </defs>
       <use xlink:href="#DejaVuSans-55"/>
       <use xlink:href="#DejaVuSans-6e" x="73.193359"/>
       <use xlink:href="#DejaVuSans-69" x="136.572266"/>
       <use xlink:href="#DejaVuSans-74" x="164.355469"/>
       <use xlink:href="#DejaVuSans-73" x="203.564453"/>
       <use xlink:href="#DejaVuSans-20" x="255.664062"/>
       <use xlink:href="#DejaVuSans-35" x="287.451172"/>
       <use xlink:href="#DejaVuSans-30" x="351.074219"/>
      </g>
     </g>
    </g>
    <g id="xtick_2">
     <g id="line2d_2">
      <g>
       <use xlink:href="#mabe259afa5" x="145.867165" y="239.758125" style="stroke: #000000; stroke-width: 0.8"/>
      </g>
     </g>
     <g id="text_2">
      <!-- Units 75 -->
      <g transform="translate(125.133571 254.356563)scale(0.1 -0.1)">
       <defs>
        <path id="DejaVuSans-37" d="M 525 4666 
L 3525 4666 
L 3525 4397 
L 1831 0 
L 1172 0 
L 2766 4134 
L 525 4134 
L 525 4666 
z
" transform="scale(0.015625)"/>
       </defs>
       <use xlink:href="#DejaVuSans-55"/>
       <use xlink:href="#DejaVuSans-6e" x="73.193359"/>
       <use xlink:href="#DejaVuSans-69" x="136.572266"/>
       <use xlink:href="#DejaVuSans-74" x="164.355469"/>
       <use xlink:href="#DejaVuSans-73" x="203.564453"/>
       <use xlink:href="#DejaVuSans-20" x="255.664062"/>
       <use xlink:href="#DejaVuSans-37" x="287.451172"/>
       <use xlink:href="#DejaVuSans-35" x="351.074219"/>
      </g>
     </g>
    </g>
    <g id="xtick_3">
     <g id="line2d_3">
      <g>
       <use xlink:href="#mabe259afa5" x="211.18125" y="239.758125" style="stroke: #000000; stroke-width: 0.8"/>
      </g>
     </g>
     <g id="text_3">
      <!-- Units 100 -->
      <g transform="translate(187.266406 254.356563)scale(0.1 -0.1)">
       <defs>
        <path id="DejaVuSans-31" d="M 794 531 
L 1825 531 
L 1825 4091 
L 703 3866 
L 703 4441 
L 1819 4666 
L 2450 4666 
L 2450 531 
L 3481 531 
L 3481 0 
L 794 0 
L 794 531 
z
" transform="scale(0.015625)"/>
       </defs>
       <use xlink:href="#DejaVuSans-55"/>
       <use xlink:href="#DejaVuSans-6e" x="73.193359"/>
       <use xlink:href="#DejaVuSans-69" x="136.572266"/>
       <use xlink:href="#DejaVuSans-74" x="164.355469"/>
       <use xlink:href="#DejaVuSans-73" x="203.564453"/>
       <use xlink:href="#DejaVuSans-20" x="255.664062"/>
       <use xlink:href="#DejaVuSans-31" x="287.451172"/>
       <use xlink:href="#DejaVuSans-30" x="351.074219"/>
       <use xlink:href="#DejaVuSans-30" x="414.697266"/>
      </g>
     </g>
    </g>
    <g id="xtick_4">
     <g id="line2d_4">
      <g>
       <use xlink:href="#mabe259afa5" x="276.495335" y="239.758125" style="stroke: #000000; stroke-width: 0.8"/>
      </g>
     </g>
     <g id="text_4">
      <!-- Units 150 -->
      <g transform="translate(252.580491 254.356563)scale(0.1 -0.1)">
       <use xlink:href="#DejaVuSans-55"/>
       <use xlink:href="#DejaVuSans-6e" x="73.193359"/>
       <use xlink:href="#DejaVuSans-69" x="136.572266"/>
       <use xlink:href="#DejaVuSans-74" x="164.355469"/>
       <use xlink:href="#DejaVuSans-73" x="203.564453"/>
       <use xlink:href="#DejaVuSans-20" x="255.664062"/>
       <use xlink:href="#DejaVuSans-31" x="287.451172"/>
       <use xlink:href="#DejaVuSans-35" x="351.074219"/>
       <use xlink:href="#DejaVuSans-30" x="414.697266"/>
      </g>
     </g>
    </g>
    <g id="xtick_5">
     <g id="line2d_5">
      <g>
       <use xlink:href="#mabe259afa5" x="341.80942" y="239.758125" style="stroke: #000000; stroke-width: 0.8"/>
      </g>
     </g>
     <g id="text_5">
      <!-- Units 250 -->
      <g transform="translate(317.894576 254.356563)scale(0.1 -0.1)">
       <defs>
        <path id="DejaVuSans-32" d="M 1228 531 
L 3431 531 
L 3431 0 
L 469 0 
L 469 531 
Q 828 903 1448 1529 
Q 2069 2156 2228 2338 
Q 2531 2678 2651 2914 
Q 2772 3150 2772 3378 
Q 2772 3750 2511 3984 
Q 2250 4219 1831 4219 
Q 1534 4219 1204 4116 
Q 875 4013 500 3803 
L 500 4441 
Q 881 4594 1212 4672 
Q 1544 4750 1819 4750 
Q 2544 4750 2975 4387 
Q 3406 4025 3406 3419 
Q 3406 3131 3298 2873 
Q 3191 2616 2906 2266 
Q 2828 2175 2409 1742 
Q 1991 1309 1228 531 
z
" transform="scale(0.015625)"/>
       </defs>
       <use xlink:href="#DejaVuSans-55"/>
       <use xlink:href="#DejaVuSans-6e" x="73.193359"/>
       <use xlink:href="#DejaVuSans-69" x="136.572266"/>
       <use xlink:href="#DejaVuSans-74" x="164.355469"/>
       <use xlink:href="#DejaVuSans-73" x="203.564453"/>
       <use xlink:href="#DejaVuSans-20" x="255.664062"/>
       <use xlink:href="#DejaVuSans-32" x="287.451172"/>
       <use xlink:href="#DejaVuSans-35" x="351.074219"/>
       <use xlink:href="#DejaVuSans-30" x="414.697266"/>
      </g>
     </g>
    </g>
   </g>
   <g id="matplotlib.axis_2">
    <g id="ytick_1">
     <g id="line2d_6">
      <path d="M 43.78125 239.758125 
L 378.58125 239.758125 
" clip-path="url(#pbffa5debd2)" style="fill: none; stroke-dasharray: 2.96,1.28; stroke-dashoffset: 0; stroke: #808080; stroke-width: 0.8"/>
     </g>
     <g id="line2d_7">
      <defs>
       <path id="mb3abfadd6b" d="M 0 0 
L -3.5 0 
" style="stroke: #000000; stroke-width: 0.8"/>
      </defs>
      <g>
       <use xlink:href="#mb3abfadd6b" x="43.78125" y="239.758125" style="stroke: #000000; stroke-width: 0.8"/>
      </g>
     </g>
     <g id="text_6">
      <!-- 0.0 -->
      <g transform="translate(20.878125 243.557344)scale(0.1 -0.1)">
       <defs>
        <path id="DejaVuSans-2e" d="M 684 794 
L 1344 794 
L 1344 0 
L 684 0 
L 684 794 
z
" transform="scale(0.015625)"/>
       </defs>
       <use xlink:href="#DejaVuSans-30"/>
       <use xlink:href="#DejaVuSans-2e" x="63.623047"/>
       <use xlink:href="#DejaVuSans-30" x="95.410156"/>
      </g>
     </g>
    </g>
    <g id="ytick_2">
     <g id="line2d_8">
      <path d="M 43.78125 205.560483 
L 378.58125 205.560483 
" clip-path="url(#pbffa5debd2)" style="fill: none; stroke-dasharray: 2.96,1.28; stroke-dashoffset: 0; stroke: #808080; stroke-width: 0.8"/>
     </g>
     <g id="line2d_9">
      <g>
       <use xlink:href="#mb3abfadd6b" x="43.78125" y="205.560483" style="stroke: #000000; stroke-width: 0.8"/>
      </g>
     </g>
     <g id="text_7">
      <!-- 0.1 -->
      <g transform="translate(20.878125 209.359702)scale(0.1 -0.1)">
       <use xlink:href="#DejaVuSans-30"/>
       <use xlink:href="#DejaVuSans-2e" x="63.623047"/>
       <use xlink:href="#DejaVuSans-31" x="95.410156"/>
      </g>
     </g>
    </g>
    <g id="ytick_3">
     <g id="line2d_10">
      <path d="M 43.78125 171.362841 
L 378.58125 171.362841 
" clip-path="url(#pbffa5debd2)" style="fill: none; stroke-dasharray: 2.96,1.28; stroke-dashoffset: 0; stroke: #808080; stroke-width: 0.8"/>
     </g>
     <g id="line2d_11">
      <g>
       <use xlink:href="#mb3abfadd6b" x="43.78125" y="171.362841" style="stroke: #000000; stroke-width: 0.8"/>
      </g>
     </g>
     <g id="text_8">
      <!-- 0.2 -->
      <g transform="translate(20.878125 175.16206)scale(0.1 -0.1)">
       <use xlink:href="#DejaVuSans-30"/>
       <use xlink:href="#DejaVuSans-2e" x="63.623047"/>
       <use xlink:href="#DejaVuSans-32" x="95.410156"/>
      </g>
     </g>
    </g>
    <g id="ytick_4">
     <g id="line2d_12">
      <path d="M 43.78125 137.165199 
L 378.58125 137.165199 
" clip-path="url(#pbffa5debd2)" style="fill: none; stroke-dasharray: 2.96,1.28; stroke-dashoffset: 0; stroke: #808080; stroke-width: 0.8"/>
     </g>
     <g id="line2d_13">
      <g>
       <use xlink:href="#mb3abfadd6b" x="43.78125" y="137.165199" style="stroke: #000000; stroke-width: 0.8"/>
      </g>
     </g>
     <g id="text_9">
      <!-- 0.3 -->
      <g transform="translate(20.878125 140.964417)scale(0.1 -0.1)">
       <defs>
        <path id="DejaVuSans-33" d="M 2597 2516 
Q 3050 2419 3304 2112 
Q 3559 1806 3559 1356 
Q 3559 666 3084 287 
Q 2609 -91 1734 -91 
Q 1441 -91 1130 -33 
Q 819 25 488 141 
L 488 750 
Q 750 597 1062 519 
Q 1375 441 1716 441 
Q 2309 441 2620 675 
Q 2931 909 2931 1356 
Q 2931 1769 2642 2001 
Q 2353 2234 1838 2234 
L 1294 2234 
L 1294 2753 
L 1863 2753 
Q 2328 2753 2575 2939 
Q 2822 3125 2822 3475 
Q 2822 3834 2567 4026 
Q 2313 4219 1838 4219 
Q 1578 4219 1281 4162 
Q 984 4106 628 3988 
L 628 4550 
Q 988 4650 1302 4700 
Q 1616 4750 1894 4750 
Q 2613 4750 3031 4423 
Q 3450 4097 3450 3541 
Q 3450 3153 3228 2886 
Q 3006 2619 2597 2516 
z
" transform="scale(0.015625)"/>
       </defs>
       <use xlink:href="#DejaVuSans-30"/>
       <use xlink:href="#DejaVuSans-2e" x="63.623047"/>
       <use xlink:href="#DejaVuSans-33" x="95.410156"/>
      </g>
     </g>
    </g>
    <g id="ytick_5">
     <g id="line2d_14">
      <path d="M 43.78125 102.967557 
L 378.58125 102.967557 
" clip-path="url(#pbffa5debd2)" style="fill: none; stroke-dasharray: 2.96,1.28; stroke-dashoffset: 0; stroke: #808080; stroke-width: 0.8"/>
     </g>
     <g id="line2d_15">
      <g>
       <use xlink:href="#mb3abfadd6b" x="43.78125" y="102.967557" style="stroke: #000000; stroke-width: 0.8"/>
      </g>
     </g>
     <g id="text_10">
      <!-- 0.4 -->
      <g transform="translate(20.878125 106.766775)scale(0.1 -0.1)">
       <defs>
        <path id="DejaVuSans-34" d="M 2419 4116 
L 825 1625 
L 2419 1625 
L 2419 4116 
z
M 2253 4666 
L 3047 4666 
L 3047 1625 
L 3713 1625 
L 3713 1100 
L 3047 1100 
L 3047 0 
L 2419 0 
L 2419 1100 
L 313 1100 
L 313 1709 
L 2253 4666 
z
" transform="scale(0.015625)"/>
       </defs>
       <use xlink:href="#DejaVuSans-30"/>
       <use xlink:href="#DejaVuSans-2e" x="63.623047"/>
       <use xlink:href="#DejaVuSans-34" x="95.410156"/>
      </g>
     </g>
    </g>
    <g id="ytick_6">
     <g id="line2d_16">
      <path d="M 43.78125 68.769915 
L 378.58125 68.769915 
" clip-path="url(#pbffa5debd2)" style="fill: none; stroke-dasharray: 2.96,1.28; stroke-dashoffset: 0; stroke: #808080; stroke-width: 0.8"/>
     </g>
     <g id="line2d_17">
      <g>
       <use xlink:href="#mb3abfadd6b" x="43.78125" y="68.769915" style="stroke: #000000; stroke-width: 0.8"/>
      </g>
     </g>
     <g id="text_11">
      <!-- 0.5 -->
      <g transform="translate(20.878125 72.569133)scale(0.1 -0.1)">
       <use xlink:href="#DejaVuSans-30"/>
       <use xlink:href="#DejaVuSans-2e" x="63.623047"/>
       <use xlink:href="#DejaVuSans-35" x="95.410156"/>
      </g>
     </g>
    </g>
    <g id="ytick_7">
     <g id="line2d_18">
      <path d="M 43.78125 34.572272 
L 378.58125 34.572272 
" clip-path="url(#pbffa5debd2)" style="fill: none; stroke-dasharray: 2.96,1.28; stroke-dashoffset: 0; stroke: #808080; stroke-width: 0.8"/>
     </g>
     <g id="line2d_19">
      <g>
       <use xlink:href="#mb3abfadd6b" x="43.78125" y="34.572272" style="stroke: #000000; stroke-width: 0.8"/>
      </g>
     </g>
     <g id="text_12">
      <!-- 0.6 -->
      <g transform="translate(20.878125 38.371491)scale(0.1 -0.1)">
       <defs>
        <path id="DejaVuSans-36" d="M 2113 2584 
Q 1688 2584 1439 2293 
Q 1191 2003 1191 1497 
Q 1191 994 1439 701 
Q 1688 409 2113 409 
Q 2538 409 2786 701 
Q 3034 994 3034 1497 
Q 3034 2003 2786 2293 
Q 2538 2584 2113 2584 
z
M 3366 4563 
L 3366 3988 
Q 3128 4100 2886 4159 
Q 2644 4219 2406 4219 
Q 1781 4219 1451 3797 
Q 1122 3375 1075 2522 
Q 1259 2794 1537 2939 
Q 1816 3084 2150 3084 
Q 2853 3084 3261 2657 
Q 3669 2231 3669 1497 
Q 3669 778 3244 343 
Q 2819 -91 2113 -91 
Q 1303 -91 875 529 
Q 447 1150 447 2328 
Q 447 3434 972 4092 
Q 1497 4750 2381 4750 
Q 2619 4750 2861 4703 
Q 3103 4656 3366 4563 
z
" transform="scale(0.015625)"/>
       </defs>
       <use xlink:href="#DejaVuSans-30"/>
       <use xlink:href="#DejaVuSans-2e" x="63.623047"/>
       <use xlink:href="#DejaVuSans-36" x="95.410156"/>
      </g>
     </g>
    </g>
    <g id="ytick_8">
     <g id="line2d_20">
      <defs>
       <path id="me150fa6256" d="M 0 0 
L -2 0 
" style="stroke: #000000; stroke-width: 0.6"/>
      </defs>
      <g>
       <use xlink:href="#me150fa6256" x="43.78125" y="222.659304" style="stroke: #000000; stroke-width: 0.6"/>
      </g>
     </g>
    </g>
    <g id="ytick_9">
     <g id="line2d_21">
      <g>
       <use xlink:href="#me150fa6256" x="43.78125" y="188.461662" style="stroke: #000000; stroke-width: 0.6"/>
      </g>
     </g>
    </g>
    <g id="ytick_10">
     <g id="line2d_22">
      <g>
       <use xlink:href="#me150fa6256" x="43.78125" y="154.26402" style="stroke: #000000; stroke-width: 0.6"/>
      </g>
     </g>
    </g>
    <g id="ytick_11">
     <g id="line2d_23">
      <g>
       <use xlink:href="#me150fa6256" x="43.78125" y="120.066378" style="stroke: #000000; stroke-width: 0.6"/>
      </g>
     </g>
    </g>
    <g id="ytick_12">
     <g id="line2d_24">
      <g>
       <use xlink:href="#me150fa6256" x="43.78125" y="85.868736" style="stroke: #000000; stroke-width: 0.6"/>
      </g>
     </g>
    </g>
    <g id="ytick_13">
     <g id="line2d_25">
      <g>
       <use xlink:href="#me150fa6256" x="43.78125" y="51.671094" style="stroke: #000000; stroke-width: 0.6"/>
      </g>
     </g>
    </g>
    <g id="text_13">
     <!-- Accuracy -->
     <g transform="translate(14.798438 153.86625)rotate(-90)scale(0.1 -0.1)">
      <defs>
       <path id="DejaVuSans-41" d="M 2188 4044 
L 1331 1722 
L 3047 1722 
L 2188 4044 
z
M 1831 4666 
L 2547 4666 
L 4325 0 
L 3669 0 
L 3244 1197 
L 1141 1197 
L 716 0 
L 50 0 
L 1831 4666 
z
" transform="scale(0.015625)"/>
       <path id="DejaVuSans-63" d="M 3122 3366 
L 3122 2828 
Q 2878 2963 2633 3030 
Q 2388 3097 2138 3097 
Q 1578 3097 1268 2742 
Q 959 2388 959 1747 
Q 959 1106 1268 751 
Q 1578 397 2138 397 
Q 2388 397 2633 464 
Q 2878 531 3122 666 
L 3122 134 
Q 2881 22 2623 -34 
Q 2366 -91 2075 -91 
Q 1284 -91 818 406 
Q 353 903 353 1747 
Q 353 2603 823 3093 
Q 1294 3584 2113 3584 
Q 2378 3584 2631 3529 
Q 2884 3475 3122 3366 
z
" transform="scale(0.015625)"/>
       <path id="DejaVuSans-75" d="M 544 1381 
L 544 3500 
L 1119 3500 
L 1119 1403 
Q 1119 906 1312 657 
Q 1506 409 1894 409 
Q 2359 409 2629 706 
Q 2900 1003 2900 1516 
L 2900 3500 
L 3475 3500 
L 3475 0 
L 2900 0 
L 2900 538 
Q 2691 219 2414 64 
Q 2138 -91 1772 -91 
Q 1169 -91 856 284 
Q 544 659 544 1381 
z
M 1991 3584 
L 1991 3584 
z
" transform="scale(0.015625)"/>
       <path id="DejaVuSans-72" d="M 2631 2963 
Q 2534 3019 2420 3045 
Q 2306 3072 2169 3072 
Q 1681 3072 1420 2755 
Q 1159 2438 1159 1844 
L 1159 0 
L 581 0 
L 581 3500 
L 1159 3500 
L 1159 2956 
Q 1341 3275 1631 3429 
Q 1922 3584 2338 3584 
Q 2397 3584 2469 3576 
Q 2541 3569 2628 3553 
L 2631 2963 
z
" transform="scale(0.015625)"/>
       <path id="DejaVuSans-61" d="M 2194 1759 
Q 1497 1759 1228 1600 
Q 959 1441 959 1056 
Q 959 750 1161 570 
Q 1363 391 1709 391 
Q 2188 391 2477 730 
Q 2766 1069 2766 1631 
L 2766 1759 
L 2194 1759 
z
M 3341 1997 
L 3341 0 
L 2766 0 
L 2766 531 
Q 2569 213 2275 61 
Q 1981 -91 1556 -91 
Q 1019 -91 701 211 
Q 384 513 384 1019 
Q 384 1609 779 1909 
Q 1175 2209 1959 2209 
L 2766 2209 
L 2766 2266 
Q 2766 2663 2505 2880 
Q 2244 3097 1772 3097 
Q 1472 3097 1187 3025 
Q 903 2953 641 2809 
L 641 3341 
Q 956 3463 1253 3523 
Q 1550 3584 1831 3584 
Q 2591 3584 2966 3190 
Q 3341 2797 3341 1997 
z
" transform="scale(0.015625)"/>
       <path id="DejaVuSans-79" d="M 2059 -325 
Q 1816 -950 1584 -1140 
Q 1353 -1331 966 -1331 
L 506 -1331 
L 506 -850 
L 844 -850 
Q 1081 -850 1212 -737 
Q 1344 -625 1503 -206 
L 1606 56 
L 191 3500 
L 800 3500 
L 1894 763 
L 2988 3500 
L 3597 3500 
L 2059 -325 
z
" transform="scale(0.015625)"/>
      </defs>
      <use xlink:href="#DejaVuSans-41"/>
      <use xlink:href="#DejaVuSans-63" x="66.658203"/>
      <use xlink:href="#DejaVuSans-63" x="121.638672"/>
      <use xlink:href="#DejaVuSans-75" x="176.619141"/>
      <use xlink:href="#DejaVuSans-72" x="239.998047"/>
      <use xlink:href="#DejaVuSans-61" x="281.111328"/>
      <use xlink:href="#DejaVuSans-63" x="342.390625"/>
      <use xlink:href="#DejaVuSans-79" x="397.371094"/>
     </g>
    </g>
   </g>
   <g id="patch_3">
    <path d="M 58.999432 239.758125 
L 68.796545 239.758125 
L 68.796545 91.568344 
L 58.999432 91.568344 
z
" clip-path="url(#pbffa5debd2)" style="fill: #1f77b4"/>
   </g>
   <g id="patch_4">
    <path d="M 124.313517 239.758125 
L 134.11063 239.758125 
L 134.11063 125.38601 
L 124.313517 125.38601 
z
" clip-path="url(#pbffa5debd2)" style="fill: #1f77b4"/>
   </g>
   <g id="patch_5">
    <path d="M 189.627602 239.758125 
L 199.424715 239.758125 
L 199.424715 69.529863 
L 189.627602 69.529863 
z
" clip-path="url(#pbffa5debd2)" style="fill: #1f77b4"/>
   </g>
   <g id="patch_6">
    <path d="M 254.941687 239.758125 
L 264.7388 239.758125 
L 264.7388 61.360425 
L 254.941687 61.360425 
z
" clip-path="url(#pbffa5debd2)" style="fill: #1f77b4"/>
   </g>
   <g id="patch_7">
    <path d="M 320.255772 239.758125 
L 330.052885 239.758125 
L 330.052885 53.380974 
L 320.255772 53.380974 
z
" clip-path="url(#pbffa5debd2)" style="fill: #1f77b4"/>
   </g>
   <g id="patch_8">
    <path d="M 70.102826 239.758125 
L 79.899939 239.758125 
L 79.899939 155.783914 
L 70.102826 155.783914 
z
" clip-path="url(#pbffa5debd2)" style="fill: #ff7f0e"/>
   </g>
   <g id="patch_9">
    <path d="M 135.416911 239.758125 
L 145.214024 239.758125 
L 145.214024 164.713297 
L 135.416911 164.713297 
z
" clip-path="url(#pbffa5debd2)" style="fill: #ff7f0e"/>
   </g>
   <g id="patch_10">
    <path d="M 200.730996 239.758125 
L 210.528109 239.758125 
L 210.528109 115.886665 
L 200.730996 115.886665 
z
" clip-path="url(#pbffa5debd2)" style="fill: #ff7f0e"/>
   </g>
   <g id="patch_11">
    <path d="M 266.045081 239.758125 
L 275.842194 239.758125 
L 275.842194 71.239747 
L 266.045081 71.239747 
z
" clip-path="url(#pbffa5debd2)" style="fill: #ff7f0e"/>
   </g>
   <g id="patch_12">
    <path d="M 331.359167 239.758125 
L 341.156279 239.758125 
L 341.156279 147.044517 
L 331.359167 147.044517 
z
" clip-path="url(#pbffa5debd2)" style="fill: #ff7f0e"/>
   </g>
   <g id="patch_13">
    <path d="M 81.206221 239.758125 
L 91.003333 239.758125 
L 91.003333 90.428422 
L 81.206221 90.428422 
z
" clip-path="url(#pbffa5debd2)" style="fill: #2ca02c"/>
   </g>
   <g id="patch_14">
    <path d="M 146.520306 239.758125 
L 156.317419 239.758125 
L 156.317419 132.035552 
L 146.520306 132.035552 
z
" clip-path="url(#pbffa5debd2)" style="fill: #2ca02c"/>
   </g>
   <g id="patch_15">
    <path d="M 211.834391 239.758125 
L 221.631504 239.758125 
L 221.631504 81.499036 
L 211.834391 81.499036 
z
" clip-path="url(#pbffa5debd2)" style="fill: #2ca02c"/>
   </g>
   <g id="patch_16">
    <path d="M 277.148476 239.758125 
L 286.945589 239.758125 
L 286.945589 59.650543 
L 277.148476 59.650543 
z
" clip-path="url(#pbffa5debd2)" style="fill: #2ca02c"/>
   </g>
   <g id="patch_17">
    <path d="M 342.462561 239.758125 
L 352.259674 239.758125 
L 352.259674 89.2885 
L 342.462561 89.2885 
z
" clip-path="url(#pbffa5debd2)" style="fill: #2ca02c"/>
   </g>
   <g id="patch_18">
    <path d="M 92.309615 239.758125 
L 102.106728 239.758125 
L 102.106728 167.563102 
L 92.309615 167.563102 
z
" clip-path="url(#pbffa5debd2)" style="fill: #d62728"/>
   </g>
   <g id="patch_19">
    <path d="M 157.6237 239.758125 
L 167.420813 239.758125 
L 167.420813 157.303808 
L 157.6237 157.303808 
z
" clip-path="url(#pbffa5debd2)" style="fill: #d62728"/>
   </g>
   <g id="patch_20">
    <path d="M 222.937785 239.758125 
L 232.734898 239.758125 
L 232.734898 181.432145 
L 222.937785 181.432145 
z
" clip-path="url(#pbffa5debd2)" style="fill: #d62728"/>
   </g>
   <g id="patch_21">
    <path d="M 288.25187 239.758125 
L 298.048983 239.758125 
L 298.048983 99.547793 
L 288.25187 99.547793 
z
" clip-path="url(#pbffa5debd2)" style="fill: #d62728"/>
   </g>
   <g id="patch_22">
    <path d="M 353.565955 239.758125 
L 363.363068 239.758125 
L 363.363068 112.846875 
L 353.565955 112.846875 
z
" clip-path="url(#pbffa5debd2)" style="fill: #d62728"/>
   </g>
   <g id="LineCollection_1">
    <path d="M 63.897988 125.765981 
L 63.897988 57.370691 
" clip-path="url(#pbffa5debd2)" style="fill: none; stroke: #000000; stroke-width: 1.5"/>
    <path d="M 129.212073 140.964932 
L 129.212073 102.967555 
" clip-path="url(#pbffa5debd2)" style="fill: none; stroke: #000000; stroke-width: 1.5"/>
    <path d="M 194.526158 93.468215 
L 194.526158 42.17174 
" clip-path="url(#pbffa5debd2)" style="fill: none; stroke: #000000; stroke-width: 1.5"/>
    <path d="M 259.840243 93.468215 
L 259.840243 38.372012 
" clip-path="url(#pbffa5debd2)" style="fill: none; stroke: #000000; stroke-width: 1.5"/>
    <path d="M 325.154328 85.86874 
L 325.154328 36.472138 
" clip-path="url(#pbffa5debd2)" style="fill: none; stroke: #000000; stroke-width: 1.5"/>
   </g>
   <g id="line2d_26">
    <defs>
     <path id="m3f072d2ae4" d="M 3 0 
L -3 -0 
" style="stroke: #000000"/>
    </defs>
    <g clip-path="url(#pbffa5debd2)">
     <use xlink:href="#m3f072d2ae4" x="63.897988" y="125.765981" style="stroke: #000000"/>
     <use xlink:href="#m3f072d2ae4" x="129.212073" y="140.964932" style="stroke: #000000"/>
     <use xlink:href="#m3f072d2ae4" x="194.526158" y="93.468215" style="stroke: #000000"/>
     <use xlink:href="#m3f072d2ae4" x="259.840243" y="93.468215" style="stroke: #000000"/>
     <use xlink:href="#m3f072d2ae4" x="325.154328" y="85.86874" style="stroke: #000000"/>
    </g>
   </g>
   <g id="line2d_27">
    <g clip-path="url(#pbffa5debd2)">
     <use xlink:href="#m3f072d2ae4" x="63.897988" y="57.370691" style="stroke: #000000"/>
     <use xlink:href="#m3f072d2ae4" x="129.212073" y="102.967555" style="stroke: #000000"/>
     <use xlink:href="#m3f072d2ae4" x="194.526158" y="42.17174" style="stroke: #000000"/>
     <use xlink:href="#m3f072d2ae4" x="259.840243" y="38.372012" style="stroke: #000000"/>
     <use xlink:href="#m3f072d2ae4" x="325.154328" y="36.472138" style="stroke: #000000"/>
    </g>
   </g>
   <g id="LineCollection_2">
    <path d="M 75.001383 180.862184 
L 75.001383 135.265331 
" clip-path="url(#pbffa5debd2)" style="fill: none; stroke: #000000; stroke-width: 1.5"/>
    <path d="M 140.315468 192.261398 
L 140.315468 144.76467 
" clip-path="url(#pbffa5debd2)" style="fill: none; stroke: #000000; stroke-width: 1.5"/>
    <path d="M 205.629553 127.665855 
L 205.629553 106.767292 
" clip-path="url(#pbffa5debd2)" style="fill: none; stroke: #000000; stroke-width: 1.5"/>
    <path d="M 270.943638 97.267953 
L 270.943638 55.470837 
" clip-path="url(#pbffa5debd2)" style="fill: none; stroke: #000000; stroke-width: 1.5"/>
    <path d="M 336.257723 180.862184 
L 336.257723 89.668477 
" clip-path="url(#pbffa5debd2)" style="fill: none; stroke: #000000; stroke-width: 1.5"/>
   </g>
   <g id="line2d_28">
    <g clip-path="url(#pbffa5debd2)">
     <use xlink:href="#m3f072d2ae4" x="75.001383" y="180.862184" style="stroke: #000000"/>
     <use xlink:href="#m3f072d2ae4" x="140.315468" y="192.261398" style="stroke: #000000"/>
     <use xlink:href="#m3f072d2ae4" x="205.629553" y="127.665855" style="stroke: #000000"/>
     <use xlink:href="#m3f072d2ae4" x="270.943638" y="97.267953" style="stroke: #000000"/>
     <use xlink:href="#m3f072d2ae4" x="336.257723" y="180.862184" style="stroke: #000000"/>
    </g>
   </g>
   <g id="line2d_29">
    <g clip-path="url(#pbffa5debd2)">
     <use xlink:href="#m3f072d2ae4" x="75.001383" y="135.265331" style="stroke: #000000"/>
     <use xlink:href="#m3f072d2ae4" x="140.315468" y="144.76467" style="stroke: #000000"/>
     <use xlink:href="#m3f072d2ae4" x="205.629553" y="106.767292" style="stroke: #000000"/>
     <use xlink:href="#m3f072d2ae4" x="270.943638" y="55.470837" style="stroke: #000000"/>
     <use xlink:href="#m3f072d2ae4" x="336.257723" y="89.668477" style="stroke: #000000"/>
    </g>
   </g>
   <g id="LineCollection_3">
    <path d="M 86.104777 116.266642 
L 86.104777 72.569652 
" clip-path="url(#pbffa5debd2)" style="fill: none; stroke: #000000; stroke-width: 1.5"/>
    <path d="M 151.418862 140.964932 
L 151.418862 116.266642 
" clip-path="url(#pbffa5debd2)" style="fill: none; stroke: #000000; stroke-width: 1.5"/>
    <path d="M 216.732947 102.967555 
L 216.732947 57.370691 
" clip-path="url(#pbffa5debd2)" style="fill: none; stroke: #000000; stroke-width: 1.5"/>
    <path d="M 282.047032 80.169128 
L 282.047032 32.672411 
" clip-path="url(#pbffa5debd2)" style="fill: none; stroke: #000000; stroke-width: 1.5"/>
    <path d="M 347.361117 110.56703 
L 347.361117 53.570963 
" clip-path="url(#pbffa5debd2)" style="fill: none; stroke: #000000; stroke-width: 1.5"/>
   </g>
   <g id="line2d_30">
    <g clip-path="url(#pbffa5debd2)">
     <use xlink:href="#m3f072d2ae4" x="86.104777" y="116.266642" style="stroke: #000000"/>
     <use xlink:href="#m3f072d2ae4" x="151.418862" y="140.964932" style="stroke: #000000"/>
     <use xlink:href="#m3f072d2ae4" x="216.732947" y="102.967555" style="stroke: #000000"/>
     <use xlink:href="#m3f072d2ae4" x="282.047032" y="80.169128" style="stroke: #000000"/>
     <use xlink:href="#m3f072d2ae4" x="347.361117" y="110.56703" style="stroke: #000000"/>
    </g>
   </g>
   <g id="line2d_31">
    <g clip-path="url(#pbffa5debd2)">
     <use xlink:href="#m3f072d2ae4" x="86.104777" y="72.569652" style="stroke: #000000"/>
     <use xlink:href="#m3f072d2ae4" x="151.418862" y="116.266642" style="stroke: #000000"/>
     <use xlink:href="#m3f072d2ae4" x="216.732947" y="57.370691" style="stroke: #000000"/>
     <use xlink:href="#m3f072d2ae4" x="282.047032" y="32.672411" style="stroke: #000000"/>
     <use xlink:href="#m3f072d2ae4" x="347.361117" y="53.570963" style="stroke: #000000"/>
    </g>
   </g>
   <g id="LineCollection_4">
    <path d="M 97.208172 209.36022 
L 97.208172 123.866118 
" clip-path="url(#pbffa5debd2)" style="fill: none; stroke: #000000; stroke-width: 1.5"/>
    <path d="M 162.522257 201.760745 
L 162.522257 114.366768 
" clip-path="url(#pbffa5debd2)" style="fill: none; stroke: #000000; stroke-width: 1.5"/>
    <path d="M 227.836342 194.161267 
L 227.836342 158.063758 
" clip-path="url(#pbffa5debd2)" style="fill: none; stroke: #000000; stroke-width: 1.5"/>
    <path d="M 293.150427 120.06638 
L 293.150427 61.170439 
" clip-path="url(#pbffa5debd2)" style="fill: none; stroke: #000000; stroke-width: 1.5"/>
    <path d="M 358.464512 140.964932 
L 358.464512 95.368079 
" clip-path="url(#pbffa5debd2)" style="fill: none; stroke: #000000; stroke-width: 1.5"/>
   </g>
   <g id="line2d_32">
    <g clip-path="url(#pbffa5debd2)">
     <use xlink:href="#m3f072d2ae4" x="97.208172" y="209.36022" style="stroke: #000000"/>
     <use xlink:href="#m3f072d2ae4" x="162.522257" y="201.760745" style="stroke: #000000"/>
     <use xlink:href="#m3f072d2ae4" x="227.836342" y="194.161267" style="stroke: #000000"/>
     <use xlink:href="#m3f072d2ae4" x="293.150427" y="120.06638" style="stroke: #000000"/>
     <use xlink:href="#m3f072d2ae4" x="358.464512" y="140.964932" style="stroke: #000000"/>
    </g>
   </g>
   <g id="line2d_33">
    <g clip-path="url(#pbffa5debd2)">
     <use xlink:href="#m3f072d2ae4" x="97.208172" y="123.866118" style="stroke: #000000"/>
     <use xlink:href="#m3f072d2ae4" x="162.522257" y="114.366768" style="stroke: #000000"/>
     <use xlink:href="#m3f072d2ae4" x="227.836342" y="158.063758" style="stroke: #000000"/>
     <use xlink:href="#m3f072d2ae4" x="293.150427" y="61.170439" style="stroke: #000000"/>
     <use xlink:href="#m3f072d2ae4" x="358.464512" y="95.368079" style="stroke: #000000"/>
    </g>
   </g>
   <g id="patch_23">
    <path d="M 43.78125 239.758125 
L 43.78125 22.318125 
" style="fill: none; stroke: #000000; stroke-width: 0.8; stroke-linejoin: miter; stroke-linecap: square"/>
   </g>
   <g id="patch_24">
    <path d="M 378.58125 239.758125 
L 378.58125 22.318125 
" style="fill: none; stroke: #000000; stroke-width: 0.8; stroke-linejoin: miter; stroke-linecap: square"/>
   </g>
   <g id="patch_25">
    <path d="M 43.78125 239.758125 
L 378.58125 239.758125 
" style="fill: none; stroke: #000000; stroke-width: 0.8; stroke-linejoin: miter; stroke-linecap: square"/>
   </g>
   <g id="patch_26">
    <path d="M 43.78125 22.318125 
L 378.58125 22.318125 
" style="fill: none; stroke: #000000; stroke-width: 0.8; stroke-linejoin: miter; stroke-linecap: square"/>
   </g>
   <g id="text_14">
    <!-- Dataset: "Libras" Exp. Class: "Multiple S.R." -->
    <g transform="translate(80.73 16.318125)scale(0.12 -0.12)">
     <defs>
      <path id="DejaVuSans-44" d="M 1259 4147 
L 1259 519 
L 2022 519 
Q 2988 519 3436 956 
Q 3884 1394 3884 2338 
Q 3884 3275 3436 3711 
Q 2988 4147 2022 4147 
L 1259 4147 
z
M 628 4666 
L 1925 4666 
Q 3281 4666 3915 4102 
Q 4550 3538 4550 2338 
Q 4550 1131 3912 565 
Q 3275 0 1925 0 
L 628 0 
L 628 4666 
z
" transform="scale(0.015625)"/>
      <path id="DejaVuSans-65" d="M 3597 1894 
L 3597 1613 
L 953 1613 
Q 991 1019 1311 708 
Q 1631 397 2203 397 
Q 2534 397 2845 478 
Q 3156 559 3463 722 
L 3463 178 
Q 3153 47 2828 -22 
Q 2503 -91 2169 -91 
Q 1331 -91 842 396 
Q 353 884 353 1716 
Q 353 2575 817 3079 
Q 1281 3584 2069 3584 
Q 2775 3584 3186 3129 
Q 3597 2675 3597 1894 
z
M 3022 2063 
Q 3016 2534 2758 2815 
Q 2500 3097 2075 3097 
Q 1594 3097 1305 2825 
Q 1016 2553 972 2059 
L 3022 2063 
z
" transform="scale(0.015625)"/>
      <path id="DejaVuSans-3a" d="M 750 794 
L 1409 794 
L 1409 0 
L 750 0 
L 750 794 
z
M 750 3309 
L 1409 3309 
L 1409 2516 
L 750 2516 
L 750 3309 
z
" transform="scale(0.015625)"/>
      <path id="DejaVuSans-22" d="M 1147 4666 
L 1147 2931 
L 616 2931 
L 616 4666 
L 1147 4666 
z
M 2328 4666 
L 2328 2931 
L 1797 2931 
L 1797 4666 
L 2328 4666 
z
" transform="scale(0.015625)"/>
      <path id="DejaVuSans-4c" d="M 628 4666 
L 1259 4666 
L 1259 531 
L 3531 531 
L 3531 0 
L 628 0 
L 628 4666 
z
" transform="scale(0.015625)"/>
      <path id="DejaVuSans-62" d="M 3116 1747 
Q 3116 2381 2855 2742 
Q 2594 3103 2138 3103 
Q 1681 3103 1420 2742 
Q 1159 2381 1159 1747 
Q 1159 1113 1420 752 
Q 1681 391 2138 391 
Q 2594 391 2855 752 
Q 3116 1113 3116 1747 
z
M 1159 2969 
Q 1341 3281 1617 3432 
Q 1894 3584 2278 3584 
Q 2916 3584 3314 3078 
Q 3713 2572 3713 1747 
Q 3713 922 3314 415 
Q 2916 -91 2278 -91 
Q 1894 -91 1617 61 
Q 1341 213 1159 525 
L 1159 0 
L 581 0 
L 581 4863 
L 1159 4863 
L 1159 2969 
z
" transform="scale(0.015625)"/>
      <path id="DejaVuSans-45" d="M 628 4666 
L 3578 4666 
L 3578 4134 
L 1259 4134 
L 1259 2753 
L 3481 2753 
L 3481 2222 
L 1259 2222 
L 1259 531 
L 3634 531 
L 3634 0 
L 628 0 
L 628 4666 
z
" transform="scale(0.015625)"/>
      <path id="DejaVuSans-78" d="M 3513 3500 
L 2247 1797 
L 3578 0 
L 2900 0 
L 1881 1375 
L 863 0 
L 184 0 
L 1544 1831 
L 300 3500 
L 978 3500 
L 1906 2253 
L 2834 3500 
L 3513 3500 
z
" transform="scale(0.015625)"/>
      <path id="DejaVuSans-70" d="M 1159 525 
L 1159 -1331 
L 581 -1331 
L 581 3500 
L 1159 3500 
L 1159 2969 
Q 1341 3281 1617 3432 
Q 1894 3584 2278 3584 
Q 2916 3584 3314 3078 
Q 3713 2572 3713 1747 
Q 3713 922 3314 415 
Q 2916 -91 2278 -91 
Q 1894 -91 1617 61 
Q 1341 213 1159 525 
z
M 3116 1747 
Q 3116 2381 2855 2742 
Q 2594 3103 2138 3103 
Q 1681 3103 1420 2742 
Q 1159 2381 1159 1747 
Q 1159 1113 1420 752 
Q 1681 391 2138 391 
Q 2594 391 2855 752 
Q 3116 1113 3116 1747 
z
" transform="scale(0.015625)"/>
      <path id="DejaVuSans-43" d="M 4122 4306 
L 4122 3641 
Q 3803 3938 3442 4084 
Q 3081 4231 2675 4231 
Q 1875 4231 1450 3742 
Q 1025 3253 1025 2328 
Q 1025 1406 1450 917 
Q 1875 428 2675 428 
Q 3081 428 3442 575 
Q 3803 722 4122 1019 
L 4122 359 
Q 3791 134 3420 21 
Q 3050 -91 2638 -91 
Q 1578 -91 968 557 
Q 359 1206 359 2328 
Q 359 3453 968 4101 
Q 1578 4750 2638 4750 
Q 3056 4750 3426 4639 
Q 3797 4528 4122 4306 
z
" transform="scale(0.015625)"/>
      <path id="DejaVuSans-6c" d="M 603 4863 
L 1178 4863 
L 1178 0 
L 603 0 
L 603 4863 
z
" transform="scale(0.015625)"/>
      <path id="DejaVuSans-4d" d="M 628 4666 
L 1569 4666 
L 2759 1491 
L 3956 4666 
L 4897 4666 
L 4897 0 
L 4281 0 
L 4281 4097 
L 3078 897 
L 2444 897 
L 1241 4097 
L 1241 0 
L 628 0 
L 628 4666 
z
" transform="scale(0.015625)"/>
      <path id="DejaVuSans-53" d="M 3425 4513 
L 3425 3897 
Q 3066 4069 2747 4153 
Q 2428 4238 2131 4238 
Q 1616 4238 1336 4038 
Q 1056 3838 1056 3469 
Q 1056 3159 1242 3001 
Q 1428 2844 1947 2747 
L 2328 2669 
Q 3034 2534 3370 2195 
Q 3706 1856 3706 1288 
Q 3706 609 3251 259 
Q 2797 -91 1919 -91 
Q 1588 -91 1214 -16 
Q 841 59 441 206 
L 441 856 
Q 825 641 1194 531 
Q 1563 422 1919 422 
Q 2459 422 2753 634 
Q 3047 847 3047 1241 
Q 3047 1584 2836 1778 
Q 2625 1972 2144 2069 
L 1759 2144 
Q 1053 2284 737 2584 
Q 422 2884 422 3419 
Q 422 4038 858 4394 
Q 1294 4750 2059 4750 
Q 2388 4750 2728 4690 
Q 3069 4631 3425 4513 
z
" transform="scale(0.015625)"/>
      <path id="DejaVuSans-52" d="M 2841 2188 
Q 3044 2119 3236 1894 
Q 3428 1669 3622 1275 
L 4263 0 
L 3584 0 
L 2988 1197 
Q 2756 1666 2539 1819 
Q 2322 1972 1947 1972 
L 1259 1972 
L 1259 0 
L 628 0 
L 628 4666 
L 2053 4666 
Q 2853 4666 3247 4331 
Q 3641 3997 3641 3322 
Q 3641 2881 3436 2590 
Q 3231 2300 2841 2188 
z
M 1259 4147 
L 1259 2491 
L 2053 2491 
Q 2509 2491 2742 2702 
Q 2975 2913 2975 3322 
Q 2975 3731 2742 3939 
Q 2509 4147 2053 4147 
L 1259 4147 
z
" transform="scale(0.015625)"/>
     </defs>
     <use xlink:href="#DejaVuSans-44"/>
     <use xlink:href="#DejaVuSans-61" x="77.001953"/>
     <use xlink:href="#DejaVuSans-74" x="138.28125"/>
     <use xlink:href="#DejaVuSans-61" x="177.490234"/>
     <use xlink:href="#DejaVuSans-73" x="238.769531"/>
     <use xlink:href="#DejaVuSans-65" x="290.869141"/>
     <use xlink:href="#DejaVuSans-74" x="352.392578"/>
     <use xlink:href="#DejaVuSans-3a" x="391.601562"/>
     <use xlink:href="#DejaVuSans-20" x="425.292969"/>
     <use xlink:href="#DejaVuSans-22" x="457.080078"/>
     <use xlink:href="#DejaVuSans-4c" x="503.076172"/>
     <use xlink:href="#DejaVuSans-69" x="558.789062"/>
     <use xlink:href="#DejaVuSans-62" x="586.572266"/>
     <use xlink:href="#DejaVuSans-72" x="650.048828"/>
     <use xlink:href="#DejaVuSans-61" x="691.162109"/>
     <use xlink:href="#DejaVuSans-73" x="752.441406"/>
     <use xlink:href="#DejaVuSans-22" x="804.541016"/>
     <use xlink:href="#DejaVuSans-20" x="850.537109"/>
     <use xlink:href="#DejaVuSans-45" x="882.324219"/>
     <use xlink:href="#DejaVuSans-78" x="945.507812"/>
     <use xlink:href="#DejaVuSans-70" x="1004.6875"/>
     <use xlink:href="#DejaVuSans-2e" x="1068.164062"/>
     <use xlink:href="#DejaVuSans-20" x="1099.951172"/>
     <use xlink:href="#DejaVuSans-43" x="1131.738281"/>
     <use xlink:href="#DejaVuSans-6c" x="1201.5625"/>
     <use xlink:href="#DejaVuSans-61" x="1229.345703"/>
     <use xlink:href="#DejaVuSans-73" x="1290.625"/>
     <use xlink:href="#DejaVuSans-73" x="1342.724609"/>
     <use xlink:href="#DejaVuSans-3a" x="1394.824219"/>
     <use xlink:href="#DejaVuSans-20" x="1428.515625"/>
     <use xlink:href="#DejaVuSans-22" x="1460.302734"/>
     <use xlink:href="#DejaVuSans-4d" x="1506.298828"/>
     <use xlink:href="#DejaVuSans-75" x="1592.578125"/>
     <use xlink:href="#DejaVuSans-6c" x="1655.957031"/>
     <use xlink:href="#DejaVuSans-74" x="1683.740234"/>
     <use xlink:href="#DejaVuSans-69" x="1722.949219"/>
     <use xlink:href="#DejaVuSans-70" x="1750.732422"/>
     <use xlink:href="#DejaVuSans-6c" x="1814.208984"/>
     <use xlink:href="#DejaVuSans-65" x="1841.992188"/>
     <use xlink:href="#DejaVuSans-20" x="1903.515625"/>
     <use xlink:href="#DejaVuSans-53" x="1935.302734"/>
     <use xlink:href="#DejaVuSans-2e" x="1998.779297"/>
     <use xlink:href="#DejaVuSans-52" x="2030.566406"/>
     <use xlink:href="#DejaVuSans-2e" x="2096.423828"/>
     <use xlink:href="#DejaVuSans-22" x="2128.210938"/>
    </g>
   </g>
   <g id="legend_1">
    <g id="patch_27">
     <path d="M 313.070312 234.758125 
L 371.58125 234.758125 
Q 373.58125 234.758125 373.58125 232.758125 
L 373.58125 175.045625 
Q 373.58125 173.045625 371.58125 173.045625 
L 313.070312 173.045625 
Q 311.070312 173.045625 311.070312 175.045625 
L 311.070312 232.758125 
Q 311.070312 234.758125 313.070312 234.758125 
z
" style="fill: #ffffff; opacity: 0.8; stroke: #cccccc; stroke-linejoin: miter"/>
    </g>
    <g id="patch_28">
     <path d="M 315.070312 184.644063 
L 335.070312 184.644063 
L 335.070312 177.644063 
L 315.070312 177.644063 
z
" style="fill: #1f77b4"/>
    </g>
    <g id="text_15">
     <!-- ESN1 -->
     <g transform="translate(343.070312 184.644063)scale(0.1 -0.1)">
      <defs>
       <path id="DejaVuSans-4e" d="M 628 4666 
L 1478 4666 
L 3547 763 
L 3547 4666 
L 4159 4666 
L 4159 0 
L 3309 0 
L 1241 3903 
L 1241 0 
L 628 0 
L 628 4666 
z
" transform="scale(0.015625)"/>
      </defs>
      <use xlink:href="#DejaVuSans-45"/>
      <use xlink:href="#DejaVuSans-53" x="63.183594"/>
      <use xlink:href="#DejaVuSans-4e" x="126.660156"/>
      <use xlink:href="#DejaVuSans-31" x="201.464844"/>
     </g>
    </g>
    <g id="patch_29">
     <path d="M 315.070312 199.322188 
L 335.070312 199.322188 
L 335.070312 192.322188 
L 315.070312 192.322188 
z
" style="fill: #ff7f0e"/>
    </g>
    <g id="text_16">
     <!-- ESN2 -->
     <g transform="translate(343.070312 199.322188)scale(0.1 -0.1)">
      <use xlink:href="#DejaVuSans-45"/>
      <use xlink:href="#DejaVuSans-53" x="63.183594"/>
      <use xlink:href="#DejaVuSans-4e" x="126.660156"/>
      <use xlink:href="#DejaVuSans-32" x="201.464844"/>
     </g>
    </g>
    <g id="patch_30">
     <path d="M 315.070312 214.000313 
L 335.070312 214.000313 
L 335.070312 207.000313 
L 315.070312 207.000313 
z
" style="fill: #2ca02c"/>
    </g>
    <g id="text_17">
     <!-- ESN3 -->
     <g transform="translate(343.070312 214.000313)scale(0.1 -0.1)">
      <use xlink:href="#DejaVuSans-45"/>
      <use xlink:href="#DejaVuSans-53" x="63.183594"/>
      <use xlink:href="#DejaVuSans-4e" x="126.660156"/>
      <use xlink:href="#DejaVuSans-33" x="201.464844"/>
     </g>
    </g>
    <g id="patch_31">
     <path d="M 315.070312 228.678438 
L 335.070312 228.678438 
L 335.070312 221.678438 
L 315.070312 221.678438 
z
" style="fill: #d62728"/>
    </g>
    <g id="text_18">
     <!-- ESN4 -->
     <g transform="translate(343.070312 228.678438)scale(0.1 -0.1)">
      <use xlink:href="#DejaVuSans-45"/>
      <use xlink:href="#DejaVuSans-53" x="63.183594"/>
      <use xlink:href="#DejaVuSans-4e" x="126.660156"/>
      <use xlink:href="#DejaVuSans-34" x="201.464844"/>
     </g>
    </g>
   </g>
  </g>
 </g>
 <defs>
  <clipPath id="pbffa5debd2">
   <rect x="43.78125" y="22.318125" width="334.8" height="217.44"/>
  </clipPath>
 </defs>
</svg>
