<?xml version="1.0" encoding="utf-8" standalone="no"?>
<!DOCTYPE svg PUBLIC "-//W3C//DTD SVG 1.1//EN"
  "http://www.w3.org/Graphics/SVG/1.1/DTD/svg11.dtd">
<svg xmlns:xlink="http://www.w3.org/1999/xlink" width="392.14375pt" height="263.63625pt" viewBox="0 0 392.14375 263.63625" xmlns="http://www.w3.org/2000/svg" version="1.1">
 <metadata>
  <rdf:RDF xmlns:dc="http://purl.org/dc/elements/1.1/" xmlns:cc="http://creativecommons.org/ns#" xmlns:rdf="http://www.w3.org/1999/02/22-rdf-syntax-ns#">
   <cc:Work>
    <dc:type rdf:resource="http://purl.org/dc/dcmitype/StillImage"/>
    <dc:date>2022-02-13T11:01:24.416299</dc:date>
    <dc:format>image/svg+xml</dc:format>
    <dc:creator>
     <cc:Agent>
      <dc:title>Matplotlib v3.5.1, https://matplotlib.org/</dc:title>
     </cc:Agent>
    </dc:creator>
   </cc:Work>
  </rdf:RDF>
 </metadata>
 <defs>
  <style type="text/css">*{stroke-linejoin: round; stroke-linecap: butt}</style>
 </defs>
 <g id="figure_1">
  <g id="patch_1">
   <path d="M 0 263.63625 
L 392.14375 263.63625 
L 392.14375 0 
L 0 0 
L 0 263.63625 
z
" style="fill: none"/>
  </g>
  <g id="axes_1">
   <g id="patch_2">
    <path d="M 50.14375 239.758125 
L 384.94375 239.758125 
L 384.94375 22.318125 
L 50.14375 22.318125 
z
" style="fill: #ffffff"/>
   </g>
   <g id="matplotlib.axis_1">
    <g id="xtick_1">
     <g id="line2d_1">
      <defs>
       <path id="m0572521856" d="M 0 0 
L 0 3.5 
" style="stroke: #000000; stroke-width: 0.8"/>
      </defs>
      <g>
       <use xlink:href="#m0572521856" x="86.91558" y="239.758125" style="stroke: #000000; stroke-width: 0.8"/>
      </g>
     </g>
     <g id="text_1">
      <!-- Units 50 -->
      <g transform="translate(66.181986 254.356563)scale(0.1 -0.1)">
       <defs>
        <path id="DejaVuSans-55" d="M 556 4666 
L 1191 4666 
L 1191 1831 
Q 1191 1081 1462 751 
Q 1734 422 2344 422 
Q 2950 422 3222 751 
Q 3494 1081 3494 1831 
L 3494 4666 
L 4128 4666 
L 4128 1753 
Q 4128 841 3676 375 
Q 3225 -91 2344 -91 
Q 1459 -91 1007 375 
Q 556 841 556 1753 
L 556 4666 
z
" transform="scale(0.015625)"/>
        <path id="DejaVuSans-6e" d="M 3513 2113 
L 3513 0 
L 2938 0 
L 2938 2094 
Q 2938 2591 2744 2837 
Q 2550 3084 2163 3084 
Q 1697 3084 1428 2787 
Q 1159 2491 1159 1978 
L 1159 0 
L 581 0 
L 581 3500 
L 1159 3500 
L 1159 2956 
Q 1366 3272 1645 3428 
Q 1925 3584 2291 3584 
Q 2894 3584 3203 3211 
Q 3513 2838 3513 2113 
z
" transform="scale(0.015625)"/>
        <path id="DejaVuSans-69" d="M 603 3500 
L 1178 3500 
L 1178 0 
L 603 0 
L 603 3500 
z
M 603 4863 
L 1178 4863 
L 1178 4134 
L 603 4134 
L 603 4863 
z
" transform="scale(0.015625)"/>
        <path id="DejaVuSans-74" d="M 1172 4494 
L 1172 3500 
L 2356 3500 
L 2356 3053 
L 1172 3053 
L 1172 1153 
Q 1172 725 1289 603 
Q 1406 481 1766 481 
L 2356 481 
L 2356 0 
L 1766 0 
Q 1100 0 847 248 
Q 594 497 594 1153 
L 594 3053 
L 172 3053 
L 172 3500 
L 594 3500 
L 594 4494 
L 1172 4494 
z
" transform="scale(0.015625)"/>
        <path id="DejaVuSans-73" d="M 2834 3397 
L 2834 2853 
Q 2591 2978 2328 3040 
Q 2066 3103 1784 3103 
Q 1356 3103 1142 2972 
Q 928 2841 928 2578 
Q 928 2378 1081 2264 
Q 1234 2150 1697 2047 
L 1894 2003 
Q 2506 1872 2764 1633 
Q 3022 1394 3022 966 
Q 3022 478 2636 193 
Q 2250 -91 1575 -91 
Q 1294 -91 989 -36 
Q 684 19 347 128 
L 347 722 
Q 666 556 975 473 
Q 1284 391 1588 391 
Q 1994 391 2212 530 
Q 2431 669 2431 922 
Q 2431 1156 2273 1281 
Q 2116 1406 1581 1522 
L 1381 1569 
Q 847 1681 609 1914 
Q 372 2147 372 2553 
Q 372 3047 722 3315 
Q 1072 3584 1716 3584 
Q 2034 3584 2315 3537 
Q 2597 3491 2834 3397 
z
" transform="scale(0.015625)"/>
        <path id="DejaVuSans-20" transform="scale(0.015625)"/>
        <path id="DejaVuSans-35" d="M 691 4666 
L 3169 4666 
L 3169 4134 
L 1269 4134 
L 1269 2991 
Q 1406 3038 1543 3061 
Q 1681 3084 1819 3084 
Q 2600 3084 3056 2656 
Q 3513 2228 3513 1497 
Q 3513 744 3044 326 
Q 2575 -91 1722 -91 
Q 1428 -91 1123 -41 
Q 819 9 494 109 
L 494 744 
Q 775 591 1075 516 
Q 1375 441 1709 441 
Q 2250 441 2565 725 
Q 2881 1009 2881 1497 
Q 2881 1984 2565 2268 
Q 2250 2553 1709 2553 
Q 1456 2553 1204 2497 
Q 953 2441 691 2322 
L 691 4666 
z
" transform="scale(0.015625)"/>
        <path id="DejaVuSans-30" d="M 2034 4250 
Q 1547 4250 1301 3770 
Q 1056 3291 1056 2328 
Q 1056 1369 1301 889 
Q 1547 409 2034 409 
Q 2525 409 2770 889 
Q 3016 1369 3016 2328 
Q 3016 3291 2770 3770 
Q 2525 4250 2034 4250 
z
M 2034 4750 
Q 2819 4750 3233 4129 
Q 3647 3509 3647 2328 
Q 3647 1150 3233 529 
Q 2819 -91 2034 -91 
Q 1250 -91 836 529 
Q 422 1150 422 2328 
Q 422 3509 836 4129 
Q 1250 4750 2034 4750 
z
" transform="scale(0.015625)"/>
       </defs>
       <use xlink:href="#DejaVuSans-55"/>
       <use xlink:href="#DejaVuSans-6e" x="73.193359"/>
       <use xlink:href="#DejaVuSans-69" x="136.572266"/>
       <use xlink:href="#DejaVuSans-74" x="164.355469"/>
       <use xlink:href="#DejaVuSans-73" x="203.564453"/>
       <use xlink:href="#DejaVuSans-20" x="255.664062"/>
       <use xlink:href="#DejaVuSans-35" x="287.451172"/>
       <use xlink:href="#DejaVuSans-30" x="351.074219"/>
      </g>
     </g>
    </g>
    <g id="xtick_2">
     <g id="line2d_2">
      <g>
       <use xlink:href="#m0572521856" x="152.229665" y="239.758125" style="stroke: #000000; stroke-width: 0.8"/>
      </g>
     </g>
     <g id="text_2">
      <!-- Units 75 -->
      <g transform="translate(131.496071 254.356563)scale(0.1 -0.1)">
       <defs>
        <path id="DejaVuSans-37" d="M 525 4666 
L 3525 4666 
L 3525 4397 
L 1831 0 
L 1172 0 
L 2766 4134 
L 525 4134 
L 525 4666 
z
" transform="scale(0.015625)"/>
       </defs>
       <use xlink:href="#DejaVuSans-55"/>
       <use xlink:href="#DejaVuSans-6e" x="73.193359"/>
       <use xlink:href="#DejaVuSans-69" x="136.572266"/>
       <use xlink:href="#DejaVuSans-74" x="164.355469"/>
       <use xlink:href="#DejaVuSans-73" x="203.564453"/>
       <use xlink:href="#DejaVuSans-20" x="255.664062"/>
       <use xlink:href="#DejaVuSans-37" x="287.451172"/>
       <use xlink:href="#DejaVuSans-35" x="351.074219"/>
      </g>
     </g>
    </g>
    <g id="xtick_3">
     <g id="line2d_3">
      <g>
       <use xlink:href="#m0572521856" x="217.54375" y="239.758125" style="stroke: #000000; stroke-width: 0.8"/>
      </g>
     </g>
     <g id="text_3">
      <!-- Units 100 -->
      <g transform="translate(193.628906 254.356563)scale(0.1 -0.1)">
       <defs>
        <path id="DejaVuSans-31" d="M 794 531 
L 1825 531 
L 1825 4091 
L 703 3866 
L 703 4441 
L 1819 4666 
L 2450 4666 
L 2450 531 
L 3481 531 
L 3481 0 
L 794 0 
L 794 531 
z
" transform="scale(0.015625)"/>
       </defs>
       <use xlink:href="#DejaVuSans-55"/>
       <use xlink:href="#DejaVuSans-6e" x="73.193359"/>
       <use xlink:href="#DejaVuSans-69" x="136.572266"/>
       <use xlink:href="#DejaVuSans-74" x="164.355469"/>
       <use xlink:href="#DejaVuSans-73" x="203.564453"/>
       <use xlink:href="#DejaVuSans-20" x="255.664062"/>
       <use xlink:href="#DejaVuSans-31" x="287.451172"/>
       <use xlink:href="#DejaVuSans-30" x="351.074219"/>
       <use xlink:href="#DejaVuSans-30" x="414.697266"/>
      </g>
     </g>
    </g>
    <g id="xtick_4">
     <g id="line2d_4">
      <g>
       <use xlink:href="#m0572521856" x="282.857835" y="239.758125" style="stroke: #000000; stroke-width: 0.8"/>
      </g>
     </g>
     <g id="text_4">
      <!-- Units 150 -->
      <g transform="translate(258.942991 254.356563)scale(0.1 -0.1)">
       <use xlink:href="#DejaVuSans-55"/>
       <use xlink:href="#DejaVuSans-6e" x="73.193359"/>
       <use xlink:href="#DejaVuSans-69" x="136.572266"/>
       <use xlink:href="#DejaVuSans-74" x="164.355469"/>
       <use xlink:href="#DejaVuSans-73" x="203.564453"/>
       <use xlink:href="#DejaVuSans-20" x="255.664062"/>
       <use xlink:href="#DejaVuSans-31" x="287.451172"/>
       <use xlink:href="#DejaVuSans-35" x="351.074219"/>
       <use xlink:href="#DejaVuSans-30" x="414.697266"/>
      </g>
     </g>
    </g>
    <g id="xtick_5">
     <g id="line2d_5">
      <g>
       <use xlink:href="#m0572521856" x="348.17192" y="239.758125" style="stroke: #000000; stroke-width: 0.8"/>
      </g>
     </g>
     <g id="text_5">
      <!-- Units 250 -->
      <g transform="translate(324.257076 254.356563)scale(0.1 -0.1)">
       <defs>
        <path id="DejaVuSans-32" d="M 1228 531 
L 3431 531 
L 3431 0 
L 469 0 
L 469 531 
Q 828 903 1448 1529 
Q 2069 2156 2228 2338 
Q 2531 2678 2651 2914 
Q 2772 3150 2772 3378 
Q 2772 3750 2511 3984 
Q 2250 4219 1831 4219 
Q 1534 4219 1204 4116 
Q 875 4013 500 3803 
L 500 4441 
Q 881 4594 1212 4672 
Q 1544 4750 1819 4750 
Q 2544 4750 2975 4387 
Q 3406 4025 3406 3419 
Q 3406 3131 3298 2873 
Q 3191 2616 2906 2266 
Q 2828 2175 2409 1742 
Q 1991 1309 1228 531 
z
" transform="scale(0.015625)"/>
       </defs>
       <use xlink:href="#DejaVuSans-55"/>
       <use xlink:href="#DejaVuSans-6e" x="73.193359"/>
       <use xlink:href="#DejaVuSans-69" x="136.572266"/>
       <use xlink:href="#DejaVuSans-74" x="164.355469"/>
       <use xlink:href="#DejaVuSans-73" x="203.564453"/>
       <use xlink:href="#DejaVuSans-20" x="255.664062"/>
       <use xlink:href="#DejaVuSans-32" x="287.451172"/>
       <use xlink:href="#DejaVuSans-35" x="351.074219"/>
       <use xlink:href="#DejaVuSans-30" x="414.697266"/>
      </g>
     </g>
    </g>
   </g>
   <g id="matplotlib.axis_2">
    <g id="ytick_1">
     <g id="line2d_6">
      <path d="M 50.14375 239.758125 
L 384.94375 239.758125 
" clip-path="url(#pa6166ba8d6)" style="fill: none; stroke-dasharray: 2.96,1.28; stroke-dashoffset: 0; stroke: #808080; stroke-width: 0.8"/>
     </g>
     <g id="line2d_7">
      <defs>
       <path id="m0133a0b53d" d="M 0 0 
L -3.5 0 
" style="stroke: #000000; stroke-width: 0.8"/>
      </defs>
      <g>
       <use xlink:href="#m0133a0b53d" x="50.14375" y="239.758125" style="stroke: #000000; stroke-width: 0.8"/>
      </g>
     </g>
     <g id="text_6">
      <!-- 0.00 -->
      <g transform="translate(20.878125 243.557344)scale(0.1 -0.1)">
       <defs>
        <path id="DejaVuSans-2e" d="M 684 794 
L 1344 794 
L 1344 0 
L 684 0 
L 684 794 
z
" transform="scale(0.015625)"/>
       </defs>
       <use xlink:href="#DejaVuSans-30"/>
       <use xlink:href="#DejaVuSans-2e" x="63.623047"/>
       <use xlink:href="#DejaVuSans-30" x="95.410156"/>
       <use xlink:href="#DejaVuSans-30" x="159.033203"/>
      </g>
     </g>
    </g>
    <g id="ytick_2">
     <g id="line2d_8">
      <path d="M 50.14375 196.270125 
L 384.94375 196.270125 
" clip-path="url(#pa6166ba8d6)" style="fill: none; stroke-dasharray: 2.96,1.28; stroke-dashoffset: 0; stroke: #808080; stroke-width: 0.8"/>
     </g>
     <g id="line2d_9">
      <g>
       <use xlink:href="#m0133a0b53d" x="50.14375" y="196.270125" style="stroke: #000000; stroke-width: 0.8"/>
      </g>
     </g>
     <g id="text_7">
      <!-- 0.14 -->
      <g transform="translate(20.878125 200.069344)scale(0.1 -0.1)">
       <defs>
        <path id="DejaVuSans-34" d="M 2419 4116 
L 825 1625 
L 2419 1625 
L 2419 4116 
z
M 2253 4666 
L 3047 4666 
L 3047 1625 
L 3713 1625 
L 3713 1100 
L 3047 1100 
L 3047 0 
L 2419 0 
L 2419 1100 
L 313 1100 
L 313 1709 
L 2253 4666 
z
" transform="scale(0.015625)"/>
       </defs>
       <use xlink:href="#DejaVuSans-30"/>
       <use xlink:href="#DejaVuSans-2e" x="63.623047"/>
       <use xlink:href="#DejaVuSans-31" x="95.410156"/>
       <use xlink:href="#DejaVuSans-34" x="159.033203"/>
      </g>
     </g>
    </g>
    <g id="ytick_3">
     <g id="line2d_10">
      <path d="M 50.14375 152.782125 
L 384.94375 152.782125 
" clip-path="url(#pa6166ba8d6)" style="fill: none; stroke-dasharray: 2.96,1.28; stroke-dashoffset: 0; stroke: #808080; stroke-width: 0.8"/>
     </g>
     <g id="line2d_11">
      <g>
       <use xlink:href="#m0133a0b53d" x="50.14375" y="152.782125" style="stroke: #000000; stroke-width: 0.8"/>
      </g>
     </g>
     <g id="text_8">
      <!-- 0.28 -->
      <g transform="translate(20.878125 156.581344)scale(0.1 -0.1)">
       <defs>
        <path id="DejaVuSans-38" d="M 2034 2216 
Q 1584 2216 1326 1975 
Q 1069 1734 1069 1313 
Q 1069 891 1326 650 
Q 1584 409 2034 409 
Q 2484 409 2743 651 
Q 3003 894 3003 1313 
Q 3003 1734 2745 1975 
Q 2488 2216 2034 2216 
z
M 1403 2484 
Q 997 2584 770 2862 
Q 544 3141 544 3541 
Q 544 4100 942 4425 
Q 1341 4750 2034 4750 
Q 2731 4750 3128 4425 
Q 3525 4100 3525 3541 
Q 3525 3141 3298 2862 
Q 3072 2584 2669 2484 
Q 3125 2378 3379 2068 
Q 3634 1759 3634 1313 
Q 3634 634 3220 271 
Q 2806 -91 2034 -91 
Q 1263 -91 848 271 
Q 434 634 434 1313 
Q 434 1759 690 2068 
Q 947 2378 1403 2484 
z
M 1172 3481 
Q 1172 3119 1398 2916 
Q 1625 2713 2034 2713 
Q 2441 2713 2670 2916 
Q 2900 3119 2900 3481 
Q 2900 3844 2670 4047 
Q 2441 4250 2034 4250 
Q 1625 4250 1398 4047 
Q 1172 3844 1172 3481 
z
" transform="scale(0.015625)"/>
       </defs>
       <use xlink:href="#DejaVuSans-30"/>
       <use xlink:href="#DejaVuSans-2e" x="63.623047"/>
       <use xlink:href="#DejaVuSans-32" x="95.410156"/>
       <use xlink:href="#DejaVuSans-38" x="159.033203"/>
      </g>
     </g>
    </g>
    <g id="ytick_4">
     <g id="line2d_12">
      <path d="M 50.14375 109.294125 
L 384.94375 109.294125 
" clip-path="url(#pa6166ba8d6)" style="fill: none; stroke-dasharray: 2.96,1.28; stroke-dashoffset: 0; stroke: #808080; stroke-width: 0.8"/>
     </g>
     <g id="line2d_13">
      <g>
       <use xlink:href="#m0133a0b53d" x="50.14375" y="109.294125" style="stroke: #000000; stroke-width: 0.8"/>
      </g>
     </g>
     <g id="text_9">
      <!-- 0.42 -->
      <g transform="translate(20.878125 113.093344)scale(0.1 -0.1)">
       <use xlink:href="#DejaVuSans-30"/>
       <use xlink:href="#DejaVuSans-2e" x="63.623047"/>
       <use xlink:href="#DejaVuSans-34" x="95.410156"/>
       <use xlink:href="#DejaVuSans-32" x="159.033203"/>
      </g>
     </g>
    </g>
    <g id="ytick_5">
     <g id="line2d_14">
      <path d="M 50.14375 65.806125 
L 384.94375 65.806125 
" clip-path="url(#pa6166ba8d6)" style="fill: none; stroke-dasharray: 2.96,1.28; stroke-dashoffset: 0; stroke: #808080; stroke-width: 0.8"/>
     </g>
     <g id="line2d_15">
      <g>
       <use xlink:href="#m0133a0b53d" x="50.14375" y="65.806125" style="stroke: #000000; stroke-width: 0.8"/>
      </g>
     </g>
     <g id="text_10">
      <!-- 0.56 -->
      <g transform="translate(20.878125 69.605344)scale(0.1 -0.1)">
       <defs>
        <path id="DejaVuSans-36" d="M 2113 2584 
Q 1688 2584 1439 2293 
Q 1191 2003 1191 1497 
Q 1191 994 1439 701 
Q 1688 409 2113 409 
Q 2538 409 2786 701 
Q 3034 994 3034 1497 
Q 3034 2003 2786 2293 
Q 2538 2584 2113 2584 
z
M 3366 4563 
L 3366 3988 
Q 3128 4100 2886 4159 
Q 2644 4219 2406 4219 
Q 1781 4219 1451 3797 
Q 1122 3375 1075 2522 
Q 1259 2794 1537 2939 
Q 1816 3084 2150 3084 
Q 2853 3084 3261 2657 
Q 3669 2231 3669 1497 
Q 3669 778 3244 343 
Q 2819 -91 2113 -91 
Q 1303 -91 875 529 
Q 447 1150 447 2328 
Q 447 3434 972 4092 
Q 1497 4750 2381 4750 
Q 2619 4750 2861 4703 
Q 3103 4656 3366 4563 
z
" transform="scale(0.015625)"/>
       </defs>
       <use xlink:href="#DejaVuSans-30"/>
       <use xlink:href="#DejaVuSans-2e" x="63.623047"/>
       <use xlink:href="#DejaVuSans-35" x="95.410156"/>
       <use xlink:href="#DejaVuSans-36" x="159.033203"/>
      </g>
     </g>
    </g>
    <g id="ytick_6">
     <g id="line2d_16">
      <path d="M 50.14375 22.318125 
L 384.94375 22.318125 
" clip-path="url(#pa6166ba8d6)" style="fill: none; stroke-dasharray: 2.96,1.28; stroke-dashoffset: 0; stroke: #808080; stroke-width: 0.8"/>
     </g>
     <g id="line2d_17">
      <g>
       <use xlink:href="#m0133a0b53d" x="50.14375" y="22.318125" style="stroke: #000000; stroke-width: 0.8"/>
      </g>
     </g>
     <g id="text_11">
      <!-- 0.70 -->
      <g transform="translate(20.878125 26.117344)scale(0.1 -0.1)">
       <use xlink:href="#DejaVuSans-30"/>
       <use xlink:href="#DejaVuSans-2e" x="63.623047"/>
       <use xlink:href="#DejaVuSans-37" x="95.410156"/>
       <use xlink:href="#DejaVuSans-30" x="159.033203"/>
      </g>
     </g>
    </g>
    <g id="ytick_7">
     <g id="line2d_18">
      <defs>
       <path id="m85ab9a0182" d="M 0 0 
L -2 0 
" style="stroke: #000000; stroke-width: 0.6"/>
      </defs>
      <g>
       <use xlink:href="#m85ab9a0182" x="50.14375" y="218.014125" style="stroke: #000000; stroke-width: 0.6"/>
      </g>
     </g>
    </g>
    <g id="ytick_8">
     <g id="line2d_19">
      <g>
       <use xlink:href="#m85ab9a0182" x="50.14375" y="174.526125" style="stroke: #000000; stroke-width: 0.6"/>
      </g>
     </g>
    </g>
    <g id="ytick_9">
     <g id="line2d_20">
      <g>
       <use xlink:href="#m85ab9a0182" x="50.14375" y="131.038125" style="stroke: #000000; stroke-width: 0.6"/>
      </g>
     </g>
    </g>
    <g id="ytick_10">
     <g id="line2d_21">
      <g>
       <use xlink:href="#m85ab9a0182" x="50.14375" y="87.550125" style="stroke: #000000; stroke-width: 0.6"/>
      </g>
     </g>
    </g>
    <g id="ytick_11">
     <g id="line2d_22">
      <g>
       <use xlink:href="#m85ab9a0182" x="50.14375" y="44.062125" style="stroke: #000000; stroke-width: 0.6"/>
      </g>
     </g>
    </g>
    <g id="text_12">
     <!-- Accuracy -->
     <g transform="translate(14.798438 153.86625)rotate(-90)scale(0.1 -0.1)">
      <defs>
       <path id="DejaVuSans-41" d="M 2188 4044 
L 1331 1722 
L 3047 1722 
L 2188 4044 
z
M 1831 4666 
L 2547 4666 
L 4325 0 
L 3669 0 
L 3244 1197 
L 1141 1197 
L 716 0 
L 50 0 
L 1831 4666 
z
" transform="scale(0.015625)"/>
       <path id="DejaVuSans-63" d="M 3122 3366 
L 3122 2828 
Q 2878 2963 2633 3030 
Q 2388 3097 2138 3097 
Q 1578 3097 1268 2742 
Q 959 2388 959 1747 
Q 959 1106 1268 751 
Q 1578 397 2138 397 
Q 2388 397 2633 464 
Q 2878 531 3122 666 
L 3122 134 
Q 2881 22 2623 -34 
Q 2366 -91 2075 -91 
Q 1284 -91 818 406 
Q 353 903 353 1747 
Q 353 2603 823 3093 
Q 1294 3584 2113 3584 
Q 2378 3584 2631 3529 
Q 2884 3475 3122 3366 
z
" transform="scale(0.015625)"/>
       <path id="DejaVuSans-75" d="M 544 1381 
L 544 3500 
L 1119 3500 
L 1119 1403 
Q 1119 906 1312 657 
Q 1506 409 1894 409 
Q 2359 409 2629 706 
Q 2900 1003 2900 1516 
L 2900 3500 
L 3475 3500 
L 3475 0 
L 2900 0 
L 2900 538 
Q 2691 219 2414 64 
Q 2138 -91 1772 -91 
Q 1169 -91 856 284 
Q 544 659 544 1381 
z
M 1991 3584 
L 1991 3584 
z
" transform="scale(0.015625)"/>
       <path id="DejaVuSans-72" d="M 2631 2963 
Q 2534 3019 2420 3045 
Q 2306 3072 2169 3072 
Q 1681 3072 1420 2755 
Q 1159 2438 1159 1844 
L 1159 0 
L 581 0 
L 581 3500 
L 1159 3500 
L 1159 2956 
Q 1341 3275 1631 3429 
Q 1922 3584 2338 3584 
Q 2397 3584 2469 3576 
Q 2541 3569 2628 3553 
L 2631 2963 
z
" transform="scale(0.015625)"/>
       <path id="DejaVuSans-61" d="M 2194 1759 
Q 1497 1759 1228 1600 
Q 959 1441 959 1056 
Q 959 750 1161 570 
Q 1363 391 1709 391 
Q 2188 391 2477 730 
Q 2766 1069 2766 1631 
L 2766 1759 
L 2194 1759 
z
M 3341 1997 
L 3341 0 
L 2766 0 
L 2766 531 
Q 2569 213 2275 61 
Q 1981 -91 1556 -91 
Q 1019 -91 701 211 
Q 384 513 384 1019 
Q 384 1609 779 1909 
Q 1175 2209 1959 2209 
L 2766 2209 
L 2766 2266 
Q 2766 2663 2505 2880 
Q 2244 3097 1772 3097 
Q 1472 3097 1187 3025 
Q 903 2953 641 2809 
L 641 3341 
Q 956 3463 1253 3523 
Q 1550 3584 1831 3584 
Q 2591 3584 2966 3190 
Q 3341 2797 3341 1997 
z
" transform="scale(0.015625)"/>
       <path id="DejaVuSans-79" d="M 2059 -325 
Q 1816 -950 1584 -1140 
Q 1353 -1331 966 -1331 
L 506 -1331 
L 506 -850 
L 844 -850 
Q 1081 -850 1212 -737 
Q 1344 -625 1503 -206 
L 1606 56 
L 191 3500 
L 800 3500 
L 1894 763 
L 2988 3500 
L 3597 3500 
L 2059 -325 
z
" transform="scale(0.015625)"/>
      </defs>
      <use xlink:href="#DejaVuSans-41"/>
      <use xlink:href="#DejaVuSans-63" x="66.658203"/>
      <use xlink:href="#DejaVuSans-63" x="121.638672"/>
      <use xlink:href="#DejaVuSans-75" x="176.619141"/>
      <use xlink:href="#DejaVuSans-72" x="239.998047"/>
      <use xlink:href="#DejaVuSans-61" x="281.111328"/>
      <use xlink:href="#DejaVuSans-63" x="342.390625"/>
      <use xlink:href="#DejaVuSans-79" x="397.371094"/>
     </g>
    </g>
   </g>
   <g id="patch_3">
    <path d="M 65.361932 239.758125 
L 75.159045 239.758125 
L 75.159045 95.31584 
L 65.361932 95.31584 
z
" clip-path="url(#pa6166ba8d6)" style="fill: #1f77b4"/>
   </g>
   <g id="patch_4">
    <path d="M 130.676017 239.758125 
L 140.47313 239.758125 
L 140.47313 91.519268 
L 130.676017 91.519268 
z
" clip-path="url(#pa6166ba8d6)" style="fill: #1f77b4"/>
   </g>
   <g id="patch_5">
    <path d="M 195.990102 239.758125 
L 205.787215 239.758125 
L 205.787215 78.058695 
L 195.990102 78.058695 
z
" clip-path="url(#pa6166ba8d6)" style="fill: #1f77b4"/>
   </g>
   <g id="patch_6">
    <path d="M 261.304187 239.758125 
L 271.1013 239.758125 
L 271.1013 80.992412 
L 261.304187 80.992412 
z
" clip-path="url(#pa6166ba8d6)" style="fill: #1f77b4"/>
   </g>
   <g id="patch_7">
    <path d="M 326.618272 239.758125 
L 336.415385 239.758125 
L 336.415385 63.735269 
L 326.618272 63.735269 
z
" clip-path="url(#pa6166ba8d6)" style="fill: #1f77b4"/>
   </g>
   <g id="patch_8">
    <path d="M 76.465326 239.758125 
L 86.262439 239.758125 
L 86.262439 112.918125 
L 76.465326 112.918125 
z
" clip-path="url(#pa6166ba8d6)" style="fill: #ff7f0e"/>
   </g>
   <g id="patch_9">
    <path d="M 141.779411 239.758125 
L 151.576524 239.758125 
L 151.576524 114.988983 
L 141.779411 114.988983 
z
" clip-path="url(#pa6166ba8d6)" style="fill: #ff7f0e"/>
   </g>
   <g id="patch_10">
    <path d="M 207.093496 239.758125 
L 216.890609 239.758125 
L 216.890609 121.891839 
L 207.093496 121.891839 
z
" clip-path="url(#pa6166ba8d6)" style="fill: #ff7f0e"/>
   </g>
   <g id="patch_11">
    <path d="M 272.407581 239.758125 
L 282.204694 239.758125 
L 282.204694 109.121555 
L 272.407581 109.121555 
z
" clip-path="url(#pa6166ba8d6)" style="fill: #ff7f0e"/>
   </g>
   <g id="patch_12">
    <path d="M 337.721667 239.758125 
L 347.518779 239.758125 
L 347.518779 69.257553 
L 337.721667 69.257553 
z
" clip-path="url(#pa6166ba8d6)" style="fill: #ff7f0e"/>
   </g>
   <g id="patch_13">
    <path d="M 87.568721 239.758125 
L 97.365833 239.758125 
L 97.365833 104.116983 
L 87.568721 104.116983 
z
" clip-path="url(#pa6166ba8d6)" style="fill: #2ca02c"/>
   </g>
   <g id="patch_14">
    <path d="M 152.882806 239.758125 
L 162.679919 239.758125 
L 162.679919 141.910125 
L 152.882806 141.910125 
z
" clip-path="url(#pa6166ba8d6)" style="fill: #2ca02c"/>
   </g>
   <g id="patch_15">
    <path d="M 218.196891 239.758125 
L 227.994004 239.758125 
L 227.994004 96.006124 
L 218.196891 96.006124 
z
" clip-path="url(#pa6166ba8d6)" style="fill: #2ca02c"/>
   </g>
   <g id="patch_16">
    <path d="M 283.510976 239.758125 
L 293.308089 239.758125 
L 293.308089 76.16041 
L 283.510976 76.16041 
z
" clip-path="url(#pa6166ba8d6)" style="fill: #2ca02c"/>
   </g>
   <g id="patch_17">
    <path d="M 348.825061 239.758125 
L 358.622174 239.758125 
L 358.622174 103.081553 
L 348.825061 103.081553 
z
" clip-path="url(#pa6166ba8d6)" style="fill: #2ca02c"/>
   </g>
   <g id="patch_18">
    <path d="M 98.672115 239.758125 
L 108.469228 239.758125 
L 108.469228 174.180982 
L 98.672115 174.180982 
z
" clip-path="url(#pa6166ba8d6)" style="fill: #d62728"/>
   </g>
   <g id="patch_19">
    <path d="M 163.9862 239.758125 
L 173.783313 239.758125 
L 173.783313 164.862123 
L 163.9862 164.862123 
z
" clip-path="url(#pa6166ba8d6)" style="fill: #d62728"/>
   </g>
   <g id="patch_20">
    <path d="M 229.300285 239.758125 
L 239.097398 239.758125 
L 239.097398 186.778695 
L 229.300285 186.778695 
z
" clip-path="url(#pa6166ba8d6)" style="fill: #d62728"/>
   </g>
   <g id="patch_21">
    <path d="M 294.61437 239.758125 
L 304.411483 239.758125 
L 304.411483 112.400411 
L 294.61437 112.400411 
z
" clip-path="url(#pa6166ba8d6)" style="fill: #d62728"/>
   </g>
   <g id="patch_22">
    <path d="M 359.928455 239.758125 
L 369.725568 239.758125 
L 369.725568 124.48041 
L 359.928455 124.48041 
z
" clip-path="url(#pa6166ba8d6)" style="fill: #d62728"/>
   </g>
   <g id="LineCollection_1">
    <path d="M 70.260488 113.780985 
L 70.260488 82.71812 
" clip-path="url(#pa6166ba8d6)" style="fill: none; stroke: #000000; stroke-width: 1.5"/>
    <path d="M 135.574573 110.329557 
L 135.574573 75.815264 
" clip-path="url(#pa6166ba8d6)" style="fill: none; stroke: #000000; stroke-width: 1.5"/>
    <path d="M 200.888658 96.523843 
L 200.888658 62.00955 
" clip-path="url(#pa6166ba8d6)" style="fill: none; stroke: #000000; stroke-width: 1.5"/>
    <path d="M 266.202743 101.700981 
L 266.202743 48.203837 
" clip-path="url(#pa6166ba8d6)" style="fill: none; stroke: #000000; stroke-width: 1.5"/>
    <path d="M 331.516828 75.815264 
L 331.516828 51.655274 
" clip-path="url(#pa6166ba8d6)" style="fill: none; stroke: #000000; stroke-width: 1.5"/>
   </g>
   <g id="line2d_23">
    <defs>
     <path id="m9b4bd42f5e" d="M 3 0 
L -3 -0 
" style="stroke: #000000"/>
    </defs>
    <g clip-path="url(#pa6166ba8d6)">
     <use xlink:href="#m9b4bd42f5e" x="70.260488" y="113.780985" style="stroke: #000000"/>
     <use xlink:href="#m9b4bd42f5e" x="135.574573" y="110.329557" style="stroke: #000000"/>
     <use xlink:href="#m9b4bd42f5e" x="200.888658" y="96.523843" style="stroke: #000000"/>
     <use xlink:href="#m9b4bd42f5e" x="266.202743" y="101.700981" style="stroke: #000000"/>
     <use xlink:href="#m9b4bd42f5e" x="331.516828" y="75.815264" style="stroke: #000000"/>
    </g>
   </g>
   <g id="line2d_24">
    <g clip-path="url(#pa6166ba8d6)">
     <use xlink:href="#m9b4bd42f5e" x="70.260488" y="82.71812" style="stroke: #000000"/>
     <use xlink:href="#m9b4bd42f5e" x="135.574573" y="75.815264" style="stroke: #000000"/>
     <use xlink:href="#m9b4bd42f5e" x="200.888658" y="62.00955" style="stroke: #000000"/>
     <use xlink:href="#m9b4bd42f5e" x="266.202743" y="48.203837" style="stroke: #000000"/>
     <use xlink:href="#m9b4bd42f5e" x="331.516828" y="51.655274" style="stroke: #000000"/>
    </g>
   </g>
   <g id="LineCollection_2">
    <path d="M 81.363883 150.020978 
L 81.363883 86.169558 
" clip-path="url(#pa6166ba8d6)" style="fill: none; stroke: #000000; stroke-width: 1.5"/>
    <path d="M 146.677968 148.295269 
L 146.677968 68.912407 
" clip-path="url(#pa6166ba8d6)" style="fill: none; stroke: #000000; stroke-width: 1.5"/>
    <path d="M 211.992053 134.489555 
L 211.992053 103.4267 
" clip-path="url(#pa6166ba8d6)" style="fill: none; stroke: #000000; stroke-width: 1.5"/>
    <path d="M 277.306138 131.038127 
L 277.306138 89.620986 
" clip-path="url(#pa6166ba8d6)" style="fill: none; stroke: #000000; stroke-width: 1.5"/>
    <path d="M 342.620223 98.249553 
L 342.620223 44.752418 
" clip-path="url(#pa6166ba8d6)" style="fill: none; stroke: #000000; stroke-width: 1.5"/>
   </g>
   <g id="line2d_25">
    <g clip-path="url(#pa6166ba8d6)">
     <use xlink:href="#m9b4bd42f5e" x="81.363883" y="150.020978" style="stroke: #000000"/>
     <use xlink:href="#m9b4bd42f5e" x="146.677968" y="148.295269" style="stroke: #000000"/>
     <use xlink:href="#m9b4bd42f5e" x="211.992053" y="134.489555" style="stroke: #000000"/>
     <use xlink:href="#m9b4bd42f5e" x="277.306138" y="131.038127" style="stroke: #000000"/>
     <use xlink:href="#m9b4bd42f5e" x="342.620223" y="98.249553" style="stroke: #000000"/>
    </g>
   </g>
   <g id="line2d_26">
    <g clip-path="url(#pa6166ba8d6)">
     <use xlink:href="#m9b4bd42f5e" x="81.363883" y="86.169558" style="stroke: #000000"/>
     <use xlink:href="#m9b4bd42f5e" x="146.677968" y="68.912407" style="stroke: #000000"/>
     <use xlink:href="#m9b4bd42f5e" x="211.992053" y="103.4267" style="stroke: #000000"/>
     <use xlink:href="#m9b4bd42f5e" x="277.306138" y="89.620986" style="stroke: #000000"/>
     <use xlink:href="#m9b4bd42f5e" x="342.620223" y="44.752418" style="stroke: #000000"/>
    </g>
   </g>
   <g id="LineCollection_3">
    <path d="M 92.467277 127.586698 
L 92.467277 87.895268 
" clip-path="url(#pa6166ba8d6)" style="fill: none; stroke: #000000; stroke-width: 1.5"/>
    <path d="M 157.781362 150.020978 
L 157.781362 127.586698 
" clip-path="url(#pa6166ba8d6)" style="fill: none; stroke: #000000; stroke-width: 1.5"/>
    <path d="M 223.095447 115.506695 
L 223.095447 74.089545 
" clip-path="url(#pa6166ba8d6)" style="fill: none; stroke: #000000; stroke-width: 1.5"/>
    <path d="M 288.409532 94.798124 
L 288.409532 51.655274 
" clip-path="url(#pa6166ba8d6)" style="fill: none; stroke: #000000; stroke-width: 1.5"/>
    <path d="M 353.723617 122.409551 
L 353.723617 70.638126 
" clip-path="url(#pa6166ba8d6)" style="fill: none; stroke: #000000; stroke-width: 1.5"/>
   </g>
   <g id="line2d_27">
    <g clip-path="url(#pa6166ba8d6)">
     <use xlink:href="#m9b4bd42f5e" x="92.467277" y="127.586698" style="stroke: #000000"/>
     <use xlink:href="#m9b4bd42f5e" x="157.781362" y="150.020978" style="stroke: #000000"/>
     <use xlink:href="#m9b4bd42f5e" x="223.095447" y="115.506695" style="stroke: #000000"/>
     <use xlink:href="#m9b4bd42f5e" x="288.409532" y="94.798124" style="stroke: #000000"/>
     <use xlink:href="#m9b4bd42f5e" x="353.723617" y="122.409551" style="stroke: #000000"/>
    </g>
   </g>
   <g id="line2d_28">
    <g clip-path="url(#pa6166ba8d6)">
     <use xlink:href="#m9b4bd42f5e" x="92.467277" y="87.895268" style="stroke: #000000"/>
     <use xlink:href="#m9b4bd42f5e" x="157.781362" y="127.586698" style="stroke: #000000"/>
     <use xlink:href="#m9b4bd42f5e" x="223.095447" y="74.089545" style="stroke: #000000"/>
     <use xlink:href="#m9b4bd42f5e" x="288.409532" y="51.655274" style="stroke: #000000"/>
     <use xlink:href="#m9b4bd42f5e" x="353.723617" y="70.638126" style="stroke: #000000"/>
    </g>
   </g>
   <g id="LineCollection_4">
    <path d="M 103.570672 212.146696 
L 103.570672 134.489555 
" clip-path="url(#pa6166ba8d6)" style="fill: none; stroke: #000000; stroke-width: 1.5"/>
    <path d="M 168.884757 205.243839 
L 168.884757 125.86098 
" clip-path="url(#pa6166ba8d6)" style="fill: none; stroke: #000000; stroke-width: 1.5"/>
    <path d="M 234.198842 198.34098 
L 234.198842 165.552411 
" clip-path="url(#pa6166ba8d6)" style="fill: none; stroke: #000000; stroke-width: 1.5"/>
    <path d="M 299.512927 131.038127 
L 299.512927 77.540983 
" clip-path="url(#pa6166ba8d6)" style="fill: none; stroke: #000000; stroke-width: 1.5"/>
    <path d="M 364.827012 150.020978 
L 364.827012 108.603838 
" clip-path="url(#pa6166ba8d6)" style="fill: none; stroke: #000000; stroke-width: 1.5"/>
   </g>
   <g id="line2d_29">
    <g clip-path="url(#pa6166ba8d6)">
     <use xlink:href="#m9b4bd42f5e" x="103.570672" y="212.146696" style="stroke: #000000"/>
     <use xlink:href="#m9b4bd42f5e" x="168.884757" y="205.243839" style="stroke: #000000"/>
     <use xlink:href="#m9b4bd42f5e" x="234.198842" y="198.34098" style="stroke: #000000"/>
     <use xlink:href="#m9b4bd42f5e" x="299.512927" y="131.038127" style="stroke: #000000"/>
     <use xlink:href="#m9b4bd42f5e" x="364.827012" y="150.020978" style="stroke: #000000"/>
    </g>
   </g>
   <g id="line2d_30">
    <g clip-path="url(#pa6166ba8d6)">
     <use xlink:href="#m9b4bd42f5e" x="103.570672" y="134.489555" style="stroke: #000000"/>
     <use xlink:href="#m9b4bd42f5e" x="168.884757" y="125.86098" style="stroke: #000000"/>
     <use xlink:href="#m9b4bd42f5e" x="234.198842" y="165.552411" style="stroke: #000000"/>
     <use xlink:href="#m9b4bd42f5e" x="299.512927" y="77.540983" style="stroke: #000000"/>
     <use xlink:href="#m9b4bd42f5e" x="364.827012" y="108.603838" style="stroke: #000000"/>
    </g>
   </g>
   <g id="patch_23">
    <path d="M 50.14375 239.758125 
L 50.14375 22.318125 
" style="fill: none; stroke: #000000; stroke-width: 0.8; stroke-linejoin: miter; stroke-linecap: square"/>
   </g>
   <g id="patch_24">
    <path d="M 384.94375 239.758125 
L 384.94375 22.318125 
" style="fill: none; stroke: #000000; stroke-width: 0.8; stroke-linejoin: miter; stroke-linecap: square"/>
   </g>
   <g id="patch_25">
    <path d="M 50.14375 239.758125 
L 384.94375 239.758125 
" style="fill: none; stroke: #000000; stroke-width: 0.8; stroke-linejoin: miter; stroke-linecap: square"/>
   </g>
   <g id="patch_26">
    <path d="M 50.14375 22.318125 
L 384.94375 22.318125 
" style="fill: none; stroke: #000000; stroke-width: 0.8; stroke-linejoin: miter; stroke-linecap: square"/>
   </g>
   <g id="text_13">
    <!-- Dataset: "Libras" Exp. Class: "Multiple S.R." -->
    <g transform="translate(87.0925 16.318125)scale(0.12 -0.12)">
     <defs>
      <path id="DejaVuSans-44" d="M 1259 4147 
L 1259 519 
L 2022 519 
Q 2988 519 3436 956 
Q 3884 1394 3884 2338 
Q 3884 3275 3436 3711 
Q 2988 4147 2022 4147 
L 1259 4147 
z
M 628 4666 
L 1925 4666 
Q 3281 4666 3915 4102 
Q 4550 3538 4550 2338 
Q 4550 1131 3912 565 
Q 3275 0 1925 0 
L 628 0 
L 628 4666 
z
" transform="scale(0.015625)"/>
      <path id="DejaVuSans-65" d="M 3597 1894 
L 3597 1613 
L 953 1613 
Q 991 1019 1311 708 
Q 1631 397 2203 397 
Q 2534 397 2845 478 
Q 3156 559 3463 722 
L 3463 178 
Q 3153 47 2828 -22 
Q 2503 -91 2169 -91 
Q 1331 -91 842 396 
Q 353 884 353 1716 
Q 353 2575 817 3079 
Q 1281 3584 2069 3584 
Q 2775 3584 3186 3129 
Q 3597 2675 3597 1894 
z
M 3022 2063 
Q 3016 2534 2758 2815 
Q 2500 3097 2075 3097 
Q 1594 3097 1305 2825 
Q 1016 2553 972 2059 
L 3022 2063 
z
" transform="scale(0.015625)"/>
      <path id="DejaVuSans-3a" d="M 750 794 
L 1409 794 
L 1409 0 
L 750 0 
L 750 794 
z
M 750 3309 
L 1409 3309 
L 1409 2516 
L 750 2516 
L 750 3309 
z
" transform="scale(0.015625)"/>
      <path id="DejaVuSans-22" d="M 1147 4666 
L 1147 2931 
L 616 2931 
L 616 4666 
L 1147 4666 
z
M 2328 4666 
L 2328 2931 
L 1797 2931 
L 1797 4666 
L 2328 4666 
z
" transform="scale(0.015625)"/>
      <path id="DejaVuSans-4c" d="M 628 4666 
L 1259 4666 
L 1259 531 
L 3531 531 
L 3531 0 
L 628 0 
L 628 4666 
z
" transform="scale(0.015625)"/>
      <path id="DejaVuSans-62" d="M 3116 1747 
Q 3116 2381 2855 2742 
Q 2594 3103 2138 3103 
Q 1681 3103 1420 2742 
Q 1159 2381 1159 1747 
Q 1159 1113 1420 752 
Q 1681 391 2138 391 
Q 2594 391 2855 752 
Q 3116 1113 3116 1747 
z
M 1159 2969 
Q 1341 3281 1617 3432 
Q 1894 3584 2278 3584 
Q 2916 3584 3314 3078 
Q 3713 2572 3713 1747 
Q 3713 922 3314 415 
Q 2916 -91 2278 -91 
Q 1894 -91 1617 61 
Q 1341 213 1159 525 
L 1159 0 
L 581 0 
L 581 4863 
L 1159 4863 
L 1159 2969 
z
" transform="scale(0.015625)"/>
      <path id="DejaVuSans-45" d="M 628 4666 
L 3578 4666 
L 3578 4134 
L 1259 4134 
L 1259 2753 
L 3481 2753 
L 3481 2222 
L 1259 2222 
L 1259 531 
L 3634 531 
L 3634 0 
L 628 0 
L 628 4666 
z
" transform="scale(0.015625)"/>
      <path id="DejaVuSans-78" d="M 3513 3500 
L 2247 1797 
L 3578 0 
L 2900 0 
L 1881 1375 
L 863 0 
L 184 0 
L 1544 1831 
L 300 3500 
L 978 3500 
L 1906 2253 
L 2834 3500 
L 3513 3500 
z
" transform="scale(0.015625)"/>
      <path id="DejaVuSans-70" d="M 1159 525 
L 1159 -1331 
L 581 -1331 
L 581 3500 
L 1159 3500 
L 1159 2969 
Q 1341 3281 1617 3432 
Q 1894 3584 2278 3584 
Q 2916 3584 3314 3078 
Q 3713 2572 3713 1747 
Q 3713 922 3314 415 
Q 2916 -91 2278 -91 
Q 1894 -91 1617 61 
Q 1341 213 1159 525 
z
M 3116 1747 
Q 3116 2381 2855 2742 
Q 2594 3103 2138 3103 
Q 1681 3103 1420 2742 
Q 1159 2381 1159 1747 
Q 1159 1113 1420 752 
Q 1681 391 2138 391 
Q 2594 391 2855 752 
Q 3116 1113 3116 1747 
z
" transform="scale(0.015625)"/>
      <path id="DejaVuSans-43" d="M 4122 4306 
L 4122 3641 
Q 3803 3938 3442 4084 
Q 3081 4231 2675 4231 
Q 1875 4231 1450 3742 
Q 1025 3253 1025 2328 
Q 1025 1406 1450 917 
Q 1875 428 2675 428 
Q 3081 428 3442 575 
Q 3803 722 4122 1019 
L 4122 359 
Q 3791 134 3420 21 
Q 3050 -91 2638 -91 
Q 1578 -91 968 557 
Q 359 1206 359 2328 
Q 359 3453 968 4101 
Q 1578 4750 2638 4750 
Q 3056 4750 3426 4639 
Q 3797 4528 4122 4306 
z
" transform="scale(0.015625)"/>
      <path id="DejaVuSans-6c" d="M 603 4863 
L 1178 4863 
L 1178 0 
L 603 0 
L 603 4863 
z
" transform="scale(0.015625)"/>
      <path id="DejaVuSans-4d" d="M 628 4666 
L 1569 4666 
L 2759 1491 
L 3956 4666 
L 4897 4666 
L 4897 0 
L 4281 0 
L 4281 4097 
L 3078 897 
L 2444 897 
L 1241 4097 
L 1241 0 
L 628 0 
L 628 4666 
z
" transform="scale(0.015625)"/>
      <path id="DejaVuSans-53" d="M 3425 4513 
L 3425 3897 
Q 3066 4069 2747 4153 
Q 2428 4238 2131 4238 
Q 1616 4238 1336 4038 
Q 1056 3838 1056 3469 
Q 1056 3159 1242 3001 
Q 1428 2844 1947 2747 
L 2328 2669 
Q 3034 2534 3370 2195 
Q 3706 1856 3706 1288 
Q 3706 609 3251 259 
Q 2797 -91 1919 -91 
Q 1588 -91 1214 -16 
Q 841 59 441 206 
L 441 856 
Q 825 641 1194 531 
Q 1563 422 1919 422 
Q 2459 422 2753 634 
Q 3047 847 3047 1241 
Q 3047 1584 2836 1778 
Q 2625 1972 2144 2069 
L 1759 2144 
Q 1053 2284 737 2584 
Q 422 2884 422 3419 
Q 422 4038 858 4394 
Q 1294 4750 2059 4750 
Q 2388 4750 2728 4690 
Q 3069 4631 3425 4513 
z
" transform="scale(0.015625)"/>
      <path id="DejaVuSans-52" d="M 2841 2188 
Q 3044 2119 3236 1894 
Q 3428 1669 3622 1275 
L 4263 0 
L 3584 0 
L 2988 1197 
Q 2756 1666 2539 1819 
Q 2322 1972 1947 1972 
L 1259 1972 
L 1259 0 
L 628 0 
L 628 4666 
L 2053 4666 
Q 2853 4666 3247 4331 
Q 3641 3997 3641 3322 
Q 3641 2881 3436 2590 
Q 3231 2300 2841 2188 
z
M 1259 4147 
L 1259 2491 
L 2053 2491 
Q 2509 2491 2742 2702 
Q 2975 2913 2975 3322 
Q 2975 3731 2742 3939 
Q 2509 4147 2053 4147 
L 1259 4147 
z
" transform="scale(0.015625)"/>
     </defs>
     <use xlink:href="#DejaVuSans-44"/>
     <use xlink:href="#DejaVuSans-61" x="77.001953"/>
     <use xlink:href="#DejaVuSans-74" x="138.28125"/>
     <use xlink:href="#DejaVuSans-61" x="177.490234"/>
     <use xlink:href="#DejaVuSans-73" x="238.769531"/>
     <use xlink:href="#DejaVuSans-65" x="290.869141"/>
     <use xlink:href="#DejaVuSans-74" x="352.392578"/>
     <use xlink:href="#DejaVuSans-3a" x="391.601562"/>
     <use xlink:href="#DejaVuSans-20" x="425.292969"/>
     <use xlink:href="#DejaVuSans-22" x="457.080078"/>
     <use xlink:href="#DejaVuSans-4c" x="503.076172"/>
     <use xlink:href="#DejaVuSans-69" x="558.789062"/>
     <use xlink:href="#DejaVuSans-62" x="586.572266"/>
     <use xlink:href="#DejaVuSans-72" x="650.048828"/>
     <use xlink:href="#DejaVuSans-61" x="691.162109"/>
     <use xlink:href="#DejaVuSans-73" x="752.441406"/>
     <use xlink:href="#DejaVuSans-22" x="804.541016"/>
     <use xlink:href="#DejaVuSans-20" x="850.537109"/>
     <use xlink:href="#DejaVuSans-45" x="882.324219"/>
     <use xlink:href="#DejaVuSans-78" x="945.507812"/>
     <use xlink:href="#DejaVuSans-70" x="1004.6875"/>
     <use xlink:href="#DejaVuSans-2e" x="1068.164062"/>
     <use xlink:href="#DejaVuSans-20" x="1099.951172"/>
     <use xlink:href="#DejaVuSans-43" x="1131.738281"/>
     <use xlink:href="#DejaVuSans-6c" x="1201.5625"/>
     <use xlink:href="#DejaVuSans-61" x="1229.345703"/>
     <use xlink:href="#DejaVuSans-73" x="1290.625"/>
     <use xlink:href="#DejaVuSans-73" x="1342.724609"/>
     <use xlink:href="#DejaVuSans-3a" x="1394.824219"/>
     <use xlink:href="#DejaVuSans-20" x="1428.515625"/>
     <use xlink:href="#DejaVuSans-22" x="1460.302734"/>
     <use xlink:href="#DejaVuSans-4d" x="1506.298828"/>
     <use xlink:href="#DejaVuSans-75" x="1592.578125"/>
     <use xlink:href="#DejaVuSans-6c" x="1655.957031"/>
     <use xlink:href="#DejaVuSans-74" x="1683.740234"/>
     <use xlink:href="#DejaVuSans-69" x="1722.949219"/>
     <use xlink:href="#DejaVuSans-70" x="1750.732422"/>
     <use xlink:href="#DejaVuSans-6c" x="1814.208984"/>
     <use xlink:href="#DejaVuSans-65" x="1841.992188"/>
     <use xlink:href="#DejaVuSans-20" x="1903.515625"/>
     <use xlink:href="#DejaVuSans-53" x="1935.302734"/>
     <use xlink:href="#DejaVuSans-2e" x="1998.779297"/>
     <use xlink:href="#DejaVuSans-52" x="2030.566406"/>
     <use xlink:href="#DejaVuSans-2e" x="2096.423828"/>
     <use xlink:href="#DejaVuSans-22" x="2128.210938"/>
    </g>
   </g>
   <g id="legend_1">
    <g id="patch_27">
     <path d="M 319.432813 234.758125 
L 377.94375 234.758125 
Q 379.94375 234.758125 379.94375 232.758125 
L 379.94375 175.045625 
Q 379.94375 173.045625 377.94375 173.045625 
L 319.432813 173.045625 
Q 317.432813 173.045625 317.432813 175.045625 
L 317.432813 232.758125 
Q 317.432813 234.758125 319.432813 234.758125 
z
" style="fill: #ffffff; opacity: 0.8; stroke: #cccccc; stroke-linejoin: miter"/>
    </g>
    <g id="patch_28">
     <path d="M 321.432813 184.644063 
L 341.432813 184.644063 
L 341.432813 177.644063 
L 321.432813 177.644063 
z
" style="fill: #1f77b4"/>
    </g>
    <g id="text_14">
     <!-- ESN1 -->
     <g transform="translate(349.432813 184.644063)scale(0.1 -0.1)">
      <defs>
       <path id="DejaVuSans-4e" d="M 628 4666 
L 1478 4666 
L 3547 763 
L 3547 4666 
L 4159 4666 
L 4159 0 
L 3309 0 
L 1241 3903 
L 1241 0 
L 628 0 
L 628 4666 
z
" transform="scale(0.015625)"/>
      </defs>
      <use xlink:href="#DejaVuSans-45"/>
      <use xlink:href="#DejaVuSans-53" x="63.183594"/>
      <use xlink:href="#DejaVuSans-4e" x="126.660156"/>
      <use xlink:href="#DejaVuSans-31" x="201.464844"/>
     </g>
    </g>
    <g id="patch_29">
     <path d="M 321.432813 199.322188 
L 341.432813 199.322188 
L 341.432813 192.322188 
L 321.432813 192.322188 
z
" style="fill: #ff7f0e"/>
    </g>
    <g id="text_15">
     <!-- ESN2 -->
     <g transform="translate(349.432813 199.322188)scale(0.1 -0.1)">
      <use xlink:href="#DejaVuSans-45"/>
      <use xlink:href="#DejaVuSans-53" x="63.183594"/>
      <use xlink:href="#DejaVuSans-4e" x="126.660156"/>
      <use xlink:href="#DejaVuSans-32" x="201.464844"/>
     </g>
    </g>
    <g id="patch_30">
     <path d="M 321.432813 214.000313 
L 341.432813 214.000313 
L 341.432813 207.000313 
L 321.432813 207.000313 
z
" style="fill: #2ca02c"/>
    </g>
    <g id="text_16">
     <!-- ESN3 -->
     <g transform="translate(349.432813 214.000313)scale(0.1 -0.1)">
      <defs>
       <path id="DejaVuSans-33" d="M 2597 2516 
Q 3050 2419 3304 2112 
Q 3559 1806 3559 1356 
Q 3559 666 3084 287 
Q 2609 -91 1734 -91 
Q 1441 -91 1130 -33 
Q 819 25 488 141 
L 488 750 
Q 750 597 1062 519 
Q 1375 441 1716 441 
Q 2309 441 2620 675 
Q 2931 909 2931 1356 
Q 2931 1769 2642 2001 
Q 2353 2234 1838 2234 
L 1294 2234 
L 1294 2753 
L 1863 2753 
Q 2328 2753 2575 2939 
Q 2822 3125 2822 3475 
Q 2822 3834 2567 4026 
Q 2313 4219 1838 4219 
Q 1578 4219 1281 4162 
Q 984 4106 628 3988 
L 628 4550 
Q 988 4650 1302 4700 
Q 1616 4750 1894 4750 
Q 2613 4750 3031 4423 
Q 3450 4097 3450 3541 
Q 3450 3153 3228 2886 
Q 3006 2619 2597 2516 
z
" transform="scale(0.015625)"/>
      </defs>
      <use xlink:href="#DejaVuSans-45"/>
      <use xlink:href="#DejaVuSans-53" x="63.183594"/>
      <use xlink:href="#DejaVuSans-4e" x="126.660156"/>
      <use xlink:href="#DejaVuSans-33" x="201.464844"/>
     </g>
    </g>
    <g id="patch_31">
     <path d="M 321.432813 228.678438 
L 341.432813 228.678438 
L 341.432813 221.678438 
L 321.432813 221.678438 
z
" style="fill: #d62728"/>
    </g>
    <g id="text_17">
     <!-- ESN4 -->
     <g transform="translate(349.432813 228.678438)scale(0.1 -0.1)">
      <use xlink:href="#DejaVuSans-45"/>
      <use xlink:href="#DejaVuSans-53" x="63.183594"/>
      <use xlink:href="#DejaVuSans-4e" x="126.660156"/>
      <use xlink:href="#DejaVuSans-34" x="201.464844"/>
     </g>
    </g>
   </g>
  </g>
 </g>
 <defs>
  <clipPath id="pa6166ba8d6">
   <rect x="50.14375" y="22.318125" width="334.8" height="217.44"/>
  </clipPath>
 </defs>
</svg>
