<?xml version="1.0" encoding="utf-8" standalone="no"?>
<!DOCTYPE svg PUBLIC "-//W3C//DTD SVG 1.1//EN"
  "http://www.w3.org/Graphics/SVG/1.1/DTD/svg11.dtd">
<svg xmlns:xlink="http://www.w3.org/1999/xlink" width="392.14375pt" height="299.46925pt" viewBox="0 0 392.14375 299.46925" xmlns="http://www.w3.org/2000/svg" version="1.1">
 <metadata>
  <rdf:RDF xmlns:dc="http://purl.org/dc/elements/1.1/" xmlns:cc="http://creativecommons.org/ns#" xmlns:rdf="http://www.w3.org/1999/02/22-rdf-syntax-ns#">
   <cc:Work>
    <dc:type rdf:resource="http://purl.org/dc/dcmitype/StillImage"/>
    <dc:date>2022-02-13T11:00:54.569439</dc:date>
    <dc:format>image/svg+xml</dc:format>
    <dc:creator>
     <cc:Agent>
      <dc:title>Matplotlib v3.5.1, https://matplotlib.org/</dc:title>
     </cc:Agent>
    </dc:creator>
   </cc:Work>
  </rdf:RDF>
 </metadata>
 <defs>
  <style type="text/css">*{stroke-linejoin: round; stroke-linecap: butt}</style>
 </defs>
 <g id="figure_1">
  <g id="patch_1">
   <path d="M 0 299.46925 
L 392.14375 299.46925 
L 392.14375 0 
L 0 0 
L 0 299.46925 
z
" style="fill: none"/>
  </g>
  <g id="axes_1">
   <g id="patch_2">
    <path d="M 50.14375 253.1955 
L 384.94375 253.1955 
L 384.94375 35.7555 
L 50.14375 35.7555 
z
" style="fill: #ffffff"/>
   </g>
   <g id="matplotlib.axis_1">
    <g id="xtick_1">
     <g id="line2d_1">
      <defs>
       <path id="ma38588916d" d="M 0 0 
L 0 3.5 
" style="stroke: #000000; stroke-width: 0.8"/>
      </defs>
      <g>
       <use xlink:href="#ma38588916d" x="83.107515" y="253.1955" style="stroke: #000000; stroke-width: 0.8"/>
      </g>
     </g>
     <g id="text_1">
      <!-- Articulary -->
      <g transform="translate(58.896577 267.793937)scale(0.1 -0.1)">
       <defs>
        <path id="DejaVuSans-41" d="M 2188 4044 
L 1331 1722 
L 3047 1722 
L 2188 4044 
z
M 1831 4666 
L 2547 4666 
L 4325 0 
L 3669 0 
L 3244 1197 
L 1141 1197 
L 716 0 
L 50 0 
L 1831 4666 
z
" transform="scale(0.015625)"/>
        <path id="DejaVuSans-72" d="M 2631 2963 
Q 2534 3019 2420 3045 
Q 2306 3072 2169 3072 
Q 1681 3072 1420 2755 
Q 1159 2438 1159 1844 
L 1159 0 
L 581 0 
L 581 3500 
L 1159 3500 
L 1159 2956 
Q 1341 3275 1631 3429 
Q 1922 3584 2338 3584 
Q 2397 3584 2469 3576 
Q 2541 3569 2628 3553 
L 2631 2963 
z
" transform="scale(0.015625)"/>
        <path id="DejaVuSans-74" d="M 1172 4494 
L 1172 3500 
L 2356 3500 
L 2356 3053 
L 1172 3053 
L 1172 1153 
Q 1172 725 1289 603 
Q 1406 481 1766 481 
L 2356 481 
L 2356 0 
L 1766 0 
Q 1100 0 847 248 
Q 594 497 594 1153 
L 594 3053 
L 172 3053 
L 172 3500 
L 594 3500 
L 594 4494 
L 1172 4494 
z
" transform="scale(0.015625)"/>
        <path id="DejaVuSans-69" d="M 603 3500 
L 1178 3500 
L 1178 0 
L 603 0 
L 603 3500 
z
M 603 4863 
L 1178 4863 
L 1178 4134 
L 603 4134 
L 603 4863 
z
" transform="scale(0.015625)"/>
        <path id="DejaVuSans-63" d="M 3122 3366 
L 3122 2828 
Q 2878 2963 2633 3030 
Q 2388 3097 2138 3097 
Q 1578 3097 1268 2742 
Q 959 2388 959 1747 
Q 959 1106 1268 751 
Q 1578 397 2138 397 
Q 2388 397 2633 464 
Q 2878 531 3122 666 
L 3122 134 
Q 2881 22 2623 -34 
Q 2366 -91 2075 -91 
Q 1284 -91 818 406 
Q 353 903 353 1747 
Q 353 2603 823 3093 
Q 1294 3584 2113 3584 
Q 2378 3584 2631 3529 
Q 2884 3475 3122 3366 
z
" transform="scale(0.015625)"/>
        <path id="DejaVuSans-75" d="M 544 1381 
L 544 3500 
L 1119 3500 
L 1119 1403 
Q 1119 906 1312 657 
Q 1506 409 1894 409 
Q 2359 409 2629 706 
Q 2900 1003 2900 1516 
L 2900 3500 
L 3475 3500 
L 3475 0 
L 2900 0 
L 2900 538 
Q 2691 219 2414 64 
Q 2138 -91 1772 -91 
Q 1169 -91 856 284 
Q 544 659 544 1381 
z
M 1991 3584 
L 1991 3584 
z
" transform="scale(0.015625)"/>
        <path id="DejaVuSans-6c" d="M 603 4863 
L 1178 4863 
L 1178 0 
L 603 0 
L 603 4863 
z
" transform="scale(0.015625)"/>
        <path id="DejaVuSans-61" d="M 2194 1759 
Q 1497 1759 1228 1600 
Q 959 1441 959 1056 
Q 959 750 1161 570 
Q 1363 391 1709 391 
Q 2188 391 2477 730 
Q 2766 1069 2766 1631 
L 2766 1759 
L 2194 1759 
z
M 3341 1997 
L 3341 0 
L 2766 0 
L 2766 531 
Q 2569 213 2275 61 
Q 1981 -91 1556 -91 
Q 1019 -91 701 211 
Q 384 513 384 1019 
Q 384 1609 779 1909 
Q 1175 2209 1959 2209 
L 2766 2209 
L 2766 2266 
Q 2766 2663 2505 2880 
Q 2244 3097 1772 3097 
Q 1472 3097 1187 3025 
Q 903 2953 641 2809 
L 641 3341 
Q 956 3463 1253 3523 
Q 1550 3584 1831 3584 
Q 2591 3584 2966 3190 
Q 3341 2797 3341 1997 
z
" transform="scale(0.015625)"/>
        <path id="DejaVuSans-79" d="M 2059 -325 
Q 1816 -950 1584 -1140 
Q 1353 -1331 966 -1331 
L 506 -1331 
L 506 -850 
L 844 -850 
Q 1081 -850 1212 -737 
Q 1344 -625 1503 -206 
L 1606 56 
L 191 3500 
L 800 3500 
L 1894 763 
L 2988 3500 
L 3597 3500 
L 2059 -325 
z
" transform="scale(0.015625)"/>
       </defs>
       <use xlink:href="#DejaVuSans-41"/>
       <use xlink:href="#DejaVuSans-72" x="68.408203"/>
       <use xlink:href="#DejaVuSans-74" x="109.521484"/>
       <use xlink:href="#DejaVuSans-69" x="148.730469"/>
       <use xlink:href="#DejaVuSans-63" x="176.513672"/>
       <use xlink:href="#DejaVuSans-75" x="231.494141"/>
       <use xlink:href="#DejaVuSans-6c" x="294.873047"/>
       <use xlink:href="#DejaVuSans-61" x="322.65625"/>
       <use xlink:href="#DejaVuSans-72" x="383.935547"/>
       <use xlink:href="#DejaVuSans-79" x="425.048828"/>
      </g>
      <!-- Word -->
      <g transform="translate(70.255952 278.99175)scale(0.1 -0.1)">
       <defs>
        <path id="DejaVuSans-57" d="M 213 4666 
L 850 4666 
L 1831 722 
L 2809 4666 
L 3519 4666 
L 4500 722 
L 5478 4666 
L 6119 4666 
L 4947 0 
L 4153 0 
L 3169 4050 
L 2175 0 
L 1381 0 
L 213 4666 
z
" transform="scale(0.015625)"/>
        <path id="DejaVuSans-6f" d="M 1959 3097 
Q 1497 3097 1228 2736 
Q 959 2375 959 1747 
Q 959 1119 1226 758 
Q 1494 397 1959 397 
Q 2419 397 2687 759 
Q 2956 1122 2956 1747 
Q 2956 2369 2687 2733 
Q 2419 3097 1959 3097 
z
M 1959 3584 
Q 2709 3584 3137 3096 
Q 3566 2609 3566 1747 
Q 3566 888 3137 398 
Q 2709 -91 1959 -91 
Q 1206 -91 779 398 
Q 353 888 353 1747 
Q 353 2609 779 3096 
Q 1206 3584 1959 3584 
z
" transform="scale(0.015625)"/>
        <path id="DejaVuSans-64" d="M 2906 2969 
L 2906 4863 
L 3481 4863 
L 3481 0 
L 2906 0 
L 2906 525 
Q 2725 213 2448 61 
Q 2172 -91 1784 -91 
Q 1150 -91 751 415 
Q 353 922 353 1747 
Q 353 2572 751 3078 
Q 1150 3584 1784 3584 
Q 2172 3584 2448 3432 
Q 2725 3281 2906 2969 
z
M 947 1747 
Q 947 1113 1208 752 
Q 1469 391 1925 391 
Q 2381 391 2643 752 
Q 2906 1113 2906 1747 
Q 2906 2381 2643 2742 
Q 2381 3103 1925 3103 
Q 1469 3103 1208 2742 
Q 947 2381 947 1747 
z
" transform="scale(0.015625)"/>
       </defs>
       <use xlink:href="#DejaVuSans-57"/>
       <use xlink:href="#DejaVuSans-6f" x="93.001953"/>
       <use xlink:href="#DejaVuSans-72" x="154.183594"/>
       <use xlink:href="#DejaVuSans-64" x="193.546875"/>
      </g>
      <!-- Recognition -->
      <g transform="translate(53.663765 290.189562)scale(0.1 -0.1)">
       <defs>
        <path id="DejaVuSans-52" d="M 2841 2188 
Q 3044 2119 3236 1894 
Q 3428 1669 3622 1275 
L 4263 0 
L 3584 0 
L 2988 1197 
Q 2756 1666 2539 1819 
Q 2322 1972 1947 1972 
L 1259 1972 
L 1259 0 
L 628 0 
L 628 4666 
L 2053 4666 
Q 2853 4666 3247 4331 
Q 3641 3997 3641 3322 
Q 3641 2881 3436 2590 
Q 3231 2300 2841 2188 
z
M 1259 4147 
L 1259 2491 
L 2053 2491 
Q 2509 2491 2742 2702 
Q 2975 2913 2975 3322 
Q 2975 3731 2742 3939 
Q 2509 4147 2053 4147 
L 1259 4147 
z
" transform="scale(0.015625)"/>
        <path id="DejaVuSans-65" d="M 3597 1894 
L 3597 1613 
L 953 1613 
Q 991 1019 1311 708 
Q 1631 397 2203 397 
Q 2534 397 2845 478 
Q 3156 559 3463 722 
L 3463 178 
Q 3153 47 2828 -22 
Q 2503 -91 2169 -91 
Q 1331 -91 842 396 
Q 353 884 353 1716 
Q 353 2575 817 3079 
Q 1281 3584 2069 3584 
Q 2775 3584 3186 3129 
Q 3597 2675 3597 1894 
z
M 3022 2063 
Q 3016 2534 2758 2815 
Q 2500 3097 2075 3097 
Q 1594 3097 1305 2825 
Q 1016 2553 972 2059 
L 3022 2063 
z
" transform="scale(0.015625)"/>
        <path id="DejaVuSans-67" d="M 2906 1791 
Q 2906 2416 2648 2759 
Q 2391 3103 1925 3103 
Q 1463 3103 1205 2759 
Q 947 2416 947 1791 
Q 947 1169 1205 825 
Q 1463 481 1925 481 
Q 2391 481 2648 825 
Q 2906 1169 2906 1791 
z
M 3481 434 
Q 3481 -459 3084 -895 
Q 2688 -1331 1869 -1331 
Q 1566 -1331 1297 -1286 
Q 1028 -1241 775 -1147 
L 775 -588 
Q 1028 -725 1275 -790 
Q 1522 -856 1778 -856 
Q 2344 -856 2625 -561 
Q 2906 -266 2906 331 
L 2906 616 
Q 2728 306 2450 153 
Q 2172 0 1784 0 
Q 1141 0 747 490 
Q 353 981 353 1791 
Q 353 2603 747 3093 
Q 1141 3584 1784 3584 
Q 2172 3584 2450 3431 
Q 2728 3278 2906 2969 
L 2906 3500 
L 3481 3500 
L 3481 434 
z
" transform="scale(0.015625)"/>
        <path id="DejaVuSans-6e" d="M 3513 2113 
L 3513 0 
L 2938 0 
L 2938 2094 
Q 2938 2591 2744 2837 
Q 2550 3084 2163 3084 
Q 1697 3084 1428 2787 
Q 1159 2491 1159 1978 
L 1159 0 
L 581 0 
L 581 3500 
L 1159 3500 
L 1159 2956 
Q 1366 3272 1645 3428 
Q 1925 3584 2291 3584 
Q 2894 3584 3203 3211 
Q 3513 2838 3513 2113 
z
" transform="scale(0.015625)"/>
       </defs>
       <use xlink:href="#DejaVuSans-52"/>
       <use xlink:href="#DejaVuSans-65" x="64.982422"/>
       <use xlink:href="#DejaVuSans-63" x="126.505859"/>
       <use xlink:href="#DejaVuSans-6f" x="181.486328"/>
       <use xlink:href="#DejaVuSans-67" x="242.667969"/>
       <use xlink:href="#DejaVuSans-6e" x="306.144531"/>
       <use xlink:href="#DejaVuSans-69" x="369.523438"/>
       <use xlink:href="#DejaVuSans-74" x="397.306641"/>
       <use xlink:href="#DejaVuSans-69" x="436.515625"/>
       <use xlink:href="#DejaVuSans-6f" x="464.298828"/>
       <use xlink:href="#DejaVuSans-6e" x="525.480469"/>
      </g>
     </g>
    </g>
    <g id="xtick_2">
     <g id="line2d_2">
      <g>
       <use xlink:href="#ma38588916d" x="136.882009" y="253.1955" style="stroke: #000000; stroke-width: 0.8"/>
      </g>
     </g>
     <g id="text_2">
      <!-- Character -->
      <g transform="translate(112.196853 267.793937)scale(0.1 -0.1)">
       <defs>
        <path id="DejaVuSans-43" d="M 4122 4306 
L 4122 3641 
Q 3803 3938 3442 4084 
Q 3081 4231 2675 4231 
Q 1875 4231 1450 3742 
Q 1025 3253 1025 2328 
Q 1025 1406 1450 917 
Q 1875 428 2675 428 
Q 3081 428 3442 575 
Q 3803 722 4122 1019 
L 4122 359 
Q 3791 134 3420 21 
Q 3050 -91 2638 -91 
Q 1578 -91 968 557 
Q 359 1206 359 2328 
Q 359 3453 968 4101 
Q 1578 4750 2638 4750 
Q 3056 4750 3426 4639 
Q 3797 4528 4122 4306 
z
" transform="scale(0.015625)"/>
        <path id="DejaVuSans-68" d="M 3513 2113 
L 3513 0 
L 2938 0 
L 2938 2094 
Q 2938 2591 2744 2837 
Q 2550 3084 2163 3084 
Q 1697 3084 1428 2787 
Q 1159 2491 1159 1978 
L 1159 0 
L 581 0 
L 581 4863 
L 1159 4863 
L 1159 2956 
Q 1366 3272 1645 3428 
Q 1925 3584 2291 3584 
Q 2894 3584 3203 3211 
Q 3513 2838 3513 2113 
z
" transform="scale(0.015625)"/>
       </defs>
       <use xlink:href="#DejaVuSans-43"/>
       <use xlink:href="#DejaVuSans-68" x="69.824219"/>
       <use xlink:href="#DejaVuSans-61" x="133.203125"/>
       <use xlink:href="#DejaVuSans-72" x="194.482422"/>
       <use xlink:href="#DejaVuSans-61" x="235.595703"/>
       <use xlink:href="#DejaVuSans-63" x="296.875"/>
       <use xlink:href="#DejaVuSans-74" x="351.855469"/>
       <use xlink:href="#DejaVuSans-65" x="391.064453"/>
       <use xlink:href="#DejaVuSans-72" x="452.587891"/>
      </g>
      <!-- Trajectories -->
      <g transform="translate(108.085915 278.99175)scale(0.1 -0.1)">
       <defs>
        <path id="DejaVuSans-54" d="M -19 4666 
L 3928 4666 
L 3928 4134 
L 2272 4134 
L 2272 0 
L 1638 0 
L 1638 4134 
L -19 4134 
L -19 4666 
z
" transform="scale(0.015625)"/>
        <path id="DejaVuSans-6a" d="M 603 3500 
L 1178 3500 
L 1178 -63 
Q 1178 -731 923 -1031 
Q 669 -1331 103 -1331 
L -116 -1331 
L -116 -844 
L 38 -844 
Q 366 -844 484 -692 
Q 603 -541 603 -63 
L 603 3500 
z
M 603 4863 
L 1178 4863 
L 1178 4134 
L 603 4134 
L 603 4863 
z
" transform="scale(0.015625)"/>
        <path id="DejaVuSans-73" d="M 2834 3397 
L 2834 2853 
Q 2591 2978 2328 3040 
Q 2066 3103 1784 3103 
Q 1356 3103 1142 2972 
Q 928 2841 928 2578 
Q 928 2378 1081 2264 
Q 1234 2150 1697 2047 
L 1894 2003 
Q 2506 1872 2764 1633 
Q 3022 1394 3022 966 
Q 3022 478 2636 193 
Q 2250 -91 1575 -91 
Q 1294 -91 989 -36 
Q 684 19 347 128 
L 347 722 
Q 666 556 975 473 
Q 1284 391 1588 391 
Q 1994 391 2212 530 
Q 2431 669 2431 922 
Q 2431 1156 2273 1281 
Q 2116 1406 1581 1522 
L 1381 1569 
Q 847 1681 609 1914 
Q 372 2147 372 2553 
Q 372 3047 722 3315 
Q 1072 3584 1716 3584 
Q 2034 3584 2315 3537 
Q 2597 3491 2834 3397 
z
" transform="scale(0.015625)"/>
       </defs>
       <use xlink:href="#DejaVuSans-54"/>
       <use xlink:href="#DejaVuSans-72" x="46.333984"/>
       <use xlink:href="#DejaVuSans-61" x="87.447266"/>
       <use xlink:href="#DejaVuSans-6a" x="148.726562"/>
       <use xlink:href="#DejaVuSans-65" x="176.509766"/>
       <use xlink:href="#DejaVuSans-63" x="238.033203"/>
       <use xlink:href="#DejaVuSans-74" x="293.013672"/>
       <use xlink:href="#DejaVuSans-6f" x="332.222656"/>
       <use xlink:href="#DejaVuSans-72" x="393.404297"/>
       <use xlink:href="#DejaVuSans-69" x="434.517578"/>
       <use xlink:href="#DejaVuSans-65" x="462.300781"/>
       <use xlink:href="#DejaVuSans-73" x="523.824219"/>
      </g>
     </g>
    </g>
    <g id="xtick_3">
     <g id="line2d_3">
      <g>
       <use xlink:href="#ma38588916d" x="190.656503" y="253.1955" style="stroke: #000000; stroke-width: 0.8"/>
      </g>
     </g>
     <g id="text_3">
      <!-- Epilepsy -->
      <g transform="translate(169.72994 267.793937)scale(0.1 -0.1)">
       <defs>
        <path id="DejaVuSans-45" d="M 628 4666 
L 3578 4666 
L 3578 4134 
L 1259 4134 
L 1259 2753 
L 3481 2753 
L 3481 2222 
L 1259 2222 
L 1259 531 
L 3634 531 
L 3634 0 
L 628 0 
L 628 4666 
z
" transform="scale(0.015625)"/>
        <path id="DejaVuSans-70" d="M 1159 525 
L 1159 -1331 
L 581 -1331 
L 581 3500 
L 1159 3500 
L 1159 2969 
Q 1341 3281 1617 3432 
Q 1894 3584 2278 3584 
Q 2916 3584 3314 3078 
Q 3713 2572 3713 1747 
Q 3713 922 3314 415 
Q 2916 -91 2278 -91 
Q 1894 -91 1617 61 
Q 1341 213 1159 525 
z
M 3116 1747 
Q 3116 2381 2855 2742 
Q 2594 3103 2138 3103 
Q 1681 3103 1420 2742 
Q 1159 2381 1159 1747 
Q 1159 1113 1420 752 
Q 1681 391 2138 391 
Q 2594 391 2855 752 
Q 3116 1113 3116 1747 
z
" transform="scale(0.015625)"/>
       </defs>
       <use xlink:href="#DejaVuSans-45"/>
       <use xlink:href="#DejaVuSans-70" x="63.183594"/>
       <use xlink:href="#DejaVuSans-69" x="126.660156"/>
       <use xlink:href="#DejaVuSans-6c" x="154.443359"/>
       <use xlink:href="#DejaVuSans-65" x="182.226562"/>
       <use xlink:href="#DejaVuSans-70" x="243.75"/>
       <use xlink:href="#DejaVuSans-73" x="307.226562"/>
       <use xlink:href="#DejaVuSans-79" x="359.326172"/>
      </g>
     </g>
    </g>
    <g id="xtick_4">
     <g id="line2d_4">
      <g>
       <use xlink:href="#ma38588916d" x="244.430997" y="253.1955" style="stroke: #000000; stroke-width: 0.8"/>
      </g>
     </g>
     <g id="text_4">
      <!-- Japanese -->
      <g transform="translate(221.727091 267.793937)scale(0.1 -0.1)">
       <defs>
        <path id="DejaVuSans-4a" d="M 628 4666 
L 1259 4666 
L 1259 325 
Q 1259 -519 939 -900 
Q 619 -1281 -91 -1281 
L -331 -1281 
L -331 -750 
L -134 -750 
Q 284 -750 456 -515 
Q 628 -281 628 325 
L 628 4666 
z
" transform="scale(0.015625)"/>
       </defs>
       <use xlink:href="#DejaVuSans-4a"/>
       <use xlink:href="#DejaVuSans-61" x="29.492188"/>
       <use xlink:href="#DejaVuSans-70" x="90.771484"/>
       <use xlink:href="#DejaVuSans-61" x="154.248047"/>
       <use xlink:href="#DejaVuSans-6e" x="215.527344"/>
       <use xlink:href="#DejaVuSans-65" x="278.90625"/>
       <use xlink:href="#DejaVuSans-73" x="340.429688"/>
       <use xlink:href="#DejaVuSans-65" x="392.529297"/>
      </g>
      <!-- Vowels -->
      <g transform="translate(227.179435 278.99175)scale(0.1 -0.1)">
       <defs>
        <path id="DejaVuSans-56" d="M 1831 0 
L 50 4666 
L 709 4666 
L 2188 738 
L 3669 4666 
L 4325 4666 
L 2547 0 
L 1831 0 
z
" transform="scale(0.015625)"/>
        <path id="DejaVuSans-77" d="M 269 3500 
L 844 3500 
L 1563 769 
L 2278 3500 
L 2956 3500 
L 3675 769 
L 4391 3500 
L 4966 3500 
L 4050 0 
L 3372 0 
L 2619 2869 
L 1863 0 
L 1184 0 
L 269 3500 
z
" transform="scale(0.015625)"/>
       </defs>
       <use xlink:href="#DejaVuSans-56"/>
       <use xlink:href="#DejaVuSans-6f" x="60.658203"/>
       <use xlink:href="#DejaVuSans-77" x="121.839844"/>
       <use xlink:href="#DejaVuSans-65" x="203.626953"/>
       <use xlink:href="#DejaVuSans-6c" x="265.150391"/>
       <use xlink:href="#DejaVuSans-73" x="292.933594"/>
      </g>
     </g>
    </g>
    <g id="xtick_5">
     <g id="line2d_5">
      <g>
       <use xlink:href="#ma38588916d" x="298.205491" y="253.1955" style="stroke: #000000; stroke-width: 0.8"/>
      </g>
     </g>
     <g id="text_5">
      <!-- Libras -->
      <g transform="translate(283.132054 267.793937)scale(0.1 -0.1)">
       <defs>
        <path id="DejaVuSans-4c" d="M 628 4666 
L 1259 4666 
L 1259 531 
L 3531 531 
L 3531 0 
L 628 0 
L 628 4666 
z
" transform="scale(0.015625)"/>
        <path id="DejaVuSans-62" d="M 3116 1747 
Q 3116 2381 2855 2742 
Q 2594 3103 2138 3103 
Q 1681 3103 1420 2742 
Q 1159 2381 1159 1747 
Q 1159 1113 1420 752 
Q 1681 391 2138 391 
Q 2594 391 2855 752 
Q 3116 1113 3116 1747 
z
M 1159 2969 
Q 1341 3281 1617 3432 
Q 1894 3584 2278 3584 
Q 2916 3584 3314 3078 
Q 3713 2572 3713 1747 
Q 3713 922 3314 415 
Q 2916 -91 2278 -91 
Q 1894 -91 1617 61 
Q 1341 213 1159 525 
L 1159 0 
L 581 0 
L 581 4863 
L 1159 4863 
L 1159 2969 
z
" transform="scale(0.015625)"/>
       </defs>
       <use xlink:href="#DejaVuSans-4c"/>
       <use xlink:href="#DejaVuSans-69" x="55.712891"/>
       <use xlink:href="#DejaVuSans-62" x="83.496094"/>
       <use xlink:href="#DejaVuSans-72" x="146.972656"/>
       <use xlink:href="#DejaVuSans-61" x="188.085938"/>
       <use xlink:href="#DejaVuSans-73" x="249.365234"/>
      </g>
     </g>
    </g>
    <g id="xtick_6">
     <g id="line2d_6">
      <g>
       <use xlink:href="#ma38588916d" x="351.979985" y="253.1955" style="stroke: #000000; stroke-width: 0.8"/>
      </g>
     </g>
     <g id="text_6">
      <!-- Spoken -->
      <g transform="translate(333.612798 267.793937)scale(0.1 -0.1)">
       <defs>
        <path id="DejaVuSans-53" d="M 3425 4513 
L 3425 3897 
Q 3066 4069 2747 4153 
Q 2428 4238 2131 4238 
Q 1616 4238 1336 4038 
Q 1056 3838 1056 3469 
Q 1056 3159 1242 3001 
Q 1428 2844 1947 2747 
L 2328 2669 
Q 3034 2534 3370 2195 
Q 3706 1856 3706 1288 
Q 3706 609 3251 259 
Q 2797 -91 1919 -91 
Q 1588 -91 1214 -16 
Q 841 59 441 206 
L 441 856 
Q 825 641 1194 531 
Q 1563 422 1919 422 
Q 2459 422 2753 634 
Q 3047 847 3047 1241 
Q 3047 1584 2836 1778 
Q 2625 1972 2144 2069 
L 1759 2144 
Q 1053 2284 737 2584 
Q 422 2884 422 3419 
Q 422 4038 858 4394 
Q 1294 4750 2059 4750 
Q 2388 4750 2728 4690 
Q 3069 4631 3425 4513 
z
" transform="scale(0.015625)"/>
        <path id="DejaVuSans-6b" d="M 581 4863 
L 1159 4863 
L 1159 1991 
L 2875 3500 
L 3609 3500 
L 1753 1863 
L 3688 0 
L 2938 0 
L 1159 1709 
L 1159 0 
L 581 0 
L 581 4863 
z
" transform="scale(0.015625)"/>
       </defs>
       <use xlink:href="#DejaVuSans-53"/>
       <use xlink:href="#DejaVuSans-70" x="63.476562"/>
       <use xlink:href="#DejaVuSans-6f" x="126.953125"/>
       <use xlink:href="#DejaVuSans-6b" x="188.134766"/>
       <use xlink:href="#DejaVuSans-65" x="242.419922"/>
       <use xlink:href="#DejaVuSans-6e" x="303.943359"/>
      </g>
      <!-- Arabic -->
      <g transform="translate(336.127641 278.99175)scale(0.1 -0.1)">
       <use xlink:href="#DejaVuSans-41"/>
       <use xlink:href="#DejaVuSans-72" x="68.408203"/>
       <use xlink:href="#DejaVuSans-61" x="109.521484"/>
       <use xlink:href="#DejaVuSans-62" x="170.800781"/>
       <use xlink:href="#DejaVuSans-69" x="234.277344"/>
       <use xlink:href="#DejaVuSans-63" x="262.060547"/>
      </g>
      <!-- Digits -->
      <g transform="translate(337.612798 290.189562)scale(0.1 -0.1)">
       <defs>
        <path id="DejaVuSans-44" d="M 1259 4147 
L 1259 519 
L 2022 519 
Q 2988 519 3436 956 
Q 3884 1394 3884 2338 
Q 3884 3275 3436 3711 
Q 2988 4147 2022 4147 
L 1259 4147 
z
M 628 4666 
L 1925 4666 
Q 3281 4666 3915 4102 
Q 4550 3538 4550 2338 
Q 4550 1131 3912 565 
Q 3275 0 1925 0 
L 628 0 
L 628 4666 
z
" transform="scale(0.015625)"/>
       </defs>
       <use xlink:href="#DejaVuSans-44"/>
       <use xlink:href="#DejaVuSans-69" x="77.001953"/>
       <use xlink:href="#DejaVuSans-67" x="104.785156"/>
       <use xlink:href="#DejaVuSans-69" x="168.261719"/>
       <use xlink:href="#DejaVuSans-74" x="196.044922"/>
       <use xlink:href="#DejaVuSans-73" x="235.253906"/>
      </g>
     </g>
    </g>
   </g>
   <g id="matplotlib.axis_2">
    <g id="ytick_1">
     <g id="line2d_7">
      <path d="M 50.14375 233.8675 
L 384.94375 233.8675 
" clip-path="url(#pa7ef31e4c6)" style="fill: none; stroke-dasharray: 2.96,1.28; stroke-dashoffset: 0; stroke: #808080; stroke-width: 0.8"/>
     </g>
     <g id="line2d_8">
      <defs>
       <path id="mf3f6c5c4ee" d="M 0 0 
L -3.5 0 
" style="stroke: #000000; stroke-width: 0.8"/>
      </defs>
      <g>
       <use xlink:href="#mf3f6c5c4ee" x="50.14375" y="233.8675" style="stroke: #000000; stroke-width: 0.8"/>
      </g>
     </g>
     <g id="text_7">
      <!-- 0.18 -->
      <g transform="translate(20.878125 237.666719)scale(0.1 -0.1)">
       <defs>
        <path id="DejaVuSans-30" d="M 2034 4250 
Q 1547 4250 1301 3770 
Q 1056 3291 1056 2328 
Q 1056 1369 1301 889 
Q 1547 409 2034 409 
Q 2525 409 2770 889 
Q 3016 1369 3016 2328 
Q 3016 3291 2770 3770 
Q 2525 4250 2034 4250 
z
M 2034 4750 
Q 2819 4750 3233 4129 
Q 3647 3509 3647 2328 
Q 3647 1150 3233 529 
Q 2819 -91 2034 -91 
Q 1250 -91 836 529 
Q 422 1150 422 2328 
Q 422 3509 836 4129 
Q 1250 4750 2034 4750 
z
" transform="scale(0.015625)"/>
        <path id="DejaVuSans-2e" d="M 684 794 
L 1344 794 
L 1344 0 
L 684 0 
L 684 794 
z
" transform="scale(0.015625)"/>
        <path id="DejaVuSans-31" d="M 794 531 
L 1825 531 
L 1825 4091 
L 703 3866 
L 703 4441 
L 1819 4666 
L 2450 4666 
L 2450 531 
L 3481 531 
L 3481 0 
L 794 0 
L 794 531 
z
" transform="scale(0.015625)"/>
        <path id="DejaVuSans-38" d="M 2034 2216 
Q 1584 2216 1326 1975 
Q 1069 1734 1069 1313 
Q 1069 891 1326 650 
Q 1584 409 2034 409 
Q 2484 409 2743 651 
Q 3003 894 3003 1313 
Q 3003 1734 2745 1975 
Q 2488 2216 2034 2216 
z
M 1403 2484 
Q 997 2584 770 2862 
Q 544 3141 544 3541 
Q 544 4100 942 4425 
Q 1341 4750 2034 4750 
Q 2731 4750 3128 4425 
Q 3525 4100 3525 3541 
Q 3525 3141 3298 2862 
Q 3072 2584 2669 2484 
Q 3125 2378 3379 2068 
Q 3634 1759 3634 1313 
Q 3634 634 3220 271 
Q 2806 -91 2034 -91 
Q 1263 -91 848 271 
Q 434 634 434 1313 
Q 434 1759 690 2068 
Q 947 2378 1403 2484 
z
M 1172 3481 
Q 1172 3119 1398 2916 
Q 1625 2713 2034 2713 
Q 2441 2713 2670 2916 
Q 2900 3119 2900 3481 
Q 2900 3844 2670 4047 
Q 2441 4250 2034 4250 
Q 1625 4250 1398 4047 
Q 1172 3844 1172 3481 
z
" transform="scale(0.015625)"/>
       </defs>
       <use xlink:href="#DejaVuSans-30"/>
       <use xlink:href="#DejaVuSans-2e" x="63.623047"/>
       <use xlink:href="#DejaVuSans-31" x="95.410156"/>
       <use xlink:href="#DejaVuSans-38" x="159.033203"/>
      </g>
     </g>
    </g>
    <g id="ytick_2">
     <g id="line2d_9">
      <path d="M 50.14375 190.3795 
L 384.94375 190.3795 
" clip-path="url(#pa7ef31e4c6)" style="fill: none; stroke-dasharray: 2.96,1.28; stroke-dashoffset: 0; stroke: #808080; stroke-width: 0.8"/>
     </g>
     <g id="line2d_10">
      <g>
       <use xlink:href="#mf3f6c5c4ee" x="50.14375" y="190.3795" style="stroke: #000000; stroke-width: 0.8"/>
      </g>
     </g>
     <g id="text_8">
      <!-- 0.36 -->
      <g transform="translate(20.878125 194.178719)scale(0.1 -0.1)">
       <defs>
        <path id="DejaVuSans-33" d="M 2597 2516 
Q 3050 2419 3304 2112 
Q 3559 1806 3559 1356 
Q 3559 666 3084 287 
Q 2609 -91 1734 -91 
Q 1441 -91 1130 -33 
Q 819 25 488 141 
L 488 750 
Q 750 597 1062 519 
Q 1375 441 1716 441 
Q 2309 441 2620 675 
Q 2931 909 2931 1356 
Q 2931 1769 2642 2001 
Q 2353 2234 1838 2234 
L 1294 2234 
L 1294 2753 
L 1863 2753 
Q 2328 2753 2575 2939 
Q 2822 3125 2822 3475 
Q 2822 3834 2567 4026 
Q 2313 4219 1838 4219 
Q 1578 4219 1281 4162 
Q 984 4106 628 3988 
L 628 4550 
Q 988 4650 1302 4700 
Q 1616 4750 1894 4750 
Q 2613 4750 3031 4423 
Q 3450 4097 3450 3541 
Q 3450 3153 3228 2886 
Q 3006 2619 2597 2516 
z
" transform="scale(0.015625)"/>
        <path id="DejaVuSans-36" d="M 2113 2584 
Q 1688 2584 1439 2293 
Q 1191 2003 1191 1497 
Q 1191 994 1439 701 
Q 1688 409 2113 409 
Q 2538 409 2786 701 
Q 3034 994 3034 1497 
Q 3034 2003 2786 2293 
Q 2538 2584 2113 2584 
z
M 3366 4563 
L 3366 3988 
Q 3128 4100 2886 4159 
Q 2644 4219 2406 4219 
Q 1781 4219 1451 3797 
Q 1122 3375 1075 2522 
Q 1259 2794 1537 2939 
Q 1816 3084 2150 3084 
Q 2853 3084 3261 2657 
Q 3669 2231 3669 1497 
Q 3669 778 3244 343 
Q 2819 -91 2113 -91 
Q 1303 -91 875 529 
Q 447 1150 447 2328 
Q 447 3434 972 4092 
Q 1497 4750 2381 4750 
Q 2619 4750 2861 4703 
Q 3103 4656 3366 4563 
z
" transform="scale(0.015625)"/>
       </defs>
       <use xlink:href="#DejaVuSans-30"/>
       <use xlink:href="#DejaVuSans-2e" x="63.623047"/>
       <use xlink:href="#DejaVuSans-33" x="95.410156"/>
       <use xlink:href="#DejaVuSans-36" x="159.033203"/>
      </g>
     </g>
    </g>
    <g id="ytick_3">
     <g id="line2d_11">
      <path d="M 50.14375 146.8915 
L 384.94375 146.8915 
" clip-path="url(#pa7ef31e4c6)" style="fill: none; stroke-dasharray: 2.96,1.28; stroke-dashoffset: 0; stroke: #808080; stroke-width: 0.8"/>
     </g>
     <g id="line2d_12">
      <g>
       <use xlink:href="#mf3f6c5c4ee" x="50.14375" y="146.8915" style="stroke: #000000; stroke-width: 0.8"/>
      </g>
     </g>
     <g id="text_9">
      <!-- 0.54 -->
      <g transform="translate(20.878125 150.690719)scale(0.1 -0.1)">
       <defs>
        <path id="DejaVuSans-35" d="M 691 4666 
L 3169 4666 
L 3169 4134 
L 1269 4134 
L 1269 2991 
Q 1406 3038 1543 3061 
Q 1681 3084 1819 3084 
Q 2600 3084 3056 2656 
Q 3513 2228 3513 1497 
Q 3513 744 3044 326 
Q 2575 -91 1722 -91 
Q 1428 -91 1123 -41 
Q 819 9 494 109 
L 494 744 
Q 775 591 1075 516 
Q 1375 441 1709 441 
Q 2250 441 2565 725 
Q 2881 1009 2881 1497 
Q 2881 1984 2565 2268 
Q 2250 2553 1709 2553 
Q 1456 2553 1204 2497 
Q 953 2441 691 2322 
L 691 4666 
z
" transform="scale(0.015625)"/>
        <path id="DejaVuSans-34" d="M 2419 4116 
L 825 1625 
L 2419 1625 
L 2419 4116 
z
M 2253 4666 
L 3047 4666 
L 3047 1625 
L 3713 1625 
L 3713 1100 
L 3047 1100 
L 3047 0 
L 2419 0 
L 2419 1100 
L 313 1100 
L 313 1709 
L 2253 4666 
z
" transform="scale(0.015625)"/>
       </defs>
       <use xlink:href="#DejaVuSans-30"/>
       <use xlink:href="#DejaVuSans-2e" x="63.623047"/>
       <use xlink:href="#DejaVuSans-35" x="95.410156"/>
       <use xlink:href="#DejaVuSans-34" x="159.033203"/>
      </g>
     </g>
    </g>
    <g id="ytick_4">
     <g id="line2d_13">
      <path d="M 50.14375 103.4035 
L 384.94375 103.4035 
" clip-path="url(#pa7ef31e4c6)" style="fill: none; stroke-dasharray: 2.96,1.28; stroke-dashoffset: 0; stroke: #808080; stroke-width: 0.8"/>
     </g>
     <g id="line2d_14">
      <g>
       <use xlink:href="#mf3f6c5c4ee" x="50.14375" y="103.4035" style="stroke: #000000; stroke-width: 0.8"/>
      </g>
     </g>
     <g id="text_10">
      <!-- 0.72 -->
      <g transform="translate(20.878125 107.202719)scale(0.1 -0.1)">
       <defs>
        <path id="DejaVuSans-37" d="M 525 4666 
L 3525 4666 
L 3525 4397 
L 1831 0 
L 1172 0 
L 2766 4134 
L 525 4134 
L 525 4666 
z
" transform="scale(0.015625)"/>
        <path id="DejaVuSans-32" d="M 1228 531 
L 3431 531 
L 3431 0 
L 469 0 
L 469 531 
Q 828 903 1448 1529 
Q 2069 2156 2228 2338 
Q 2531 2678 2651 2914 
Q 2772 3150 2772 3378 
Q 2772 3750 2511 3984 
Q 2250 4219 1831 4219 
Q 1534 4219 1204 4116 
Q 875 4013 500 3803 
L 500 4441 
Q 881 4594 1212 4672 
Q 1544 4750 1819 4750 
Q 2544 4750 2975 4387 
Q 3406 4025 3406 3419 
Q 3406 3131 3298 2873 
Q 3191 2616 2906 2266 
Q 2828 2175 2409 1742 
Q 1991 1309 1228 531 
z
" transform="scale(0.015625)"/>
       </defs>
       <use xlink:href="#DejaVuSans-30"/>
       <use xlink:href="#DejaVuSans-2e" x="63.623047"/>
       <use xlink:href="#DejaVuSans-37" x="95.410156"/>
       <use xlink:href="#DejaVuSans-32" x="159.033203"/>
      </g>
     </g>
    </g>
    <g id="ytick_5">
     <g id="line2d_15">
      <path d="M 50.14375 59.9155 
L 384.94375 59.9155 
" clip-path="url(#pa7ef31e4c6)" style="fill: none; stroke-dasharray: 2.96,1.28; stroke-dashoffset: 0; stroke: #808080; stroke-width: 0.8"/>
     </g>
     <g id="line2d_16">
      <g>
       <use xlink:href="#mf3f6c5c4ee" x="50.14375" y="59.9155" style="stroke: #000000; stroke-width: 0.8"/>
      </g>
     </g>
     <g id="text_11">
      <!-- 0.90 -->
      <g transform="translate(20.878125 63.714719)scale(0.1 -0.1)">
       <defs>
        <path id="DejaVuSans-39" d="M 703 97 
L 703 672 
Q 941 559 1184 500 
Q 1428 441 1663 441 
Q 2288 441 2617 861 
Q 2947 1281 2994 2138 
Q 2813 1869 2534 1725 
Q 2256 1581 1919 1581 
Q 1219 1581 811 2004 
Q 403 2428 403 3163 
Q 403 3881 828 4315 
Q 1253 4750 1959 4750 
Q 2769 4750 3195 4129 
Q 3622 3509 3622 2328 
Q 3622 1225 3098 567 
Q 2575 -91 1691 -91 
Q 1453 -91 1209 -44 
Q 966 3 703 97 
z
M 1959 2075 
Q 2384 2075 2632 2365 
Q 2881 2656 2881 3163 
Q 2881 3666 2632 3958 
Q 2384 4250 1959 4250 
Q 1534 4250 1286 3958 
Q 1038 3666 1038 3163 
Q 1038 2656 1286 2365 
Q 1534 2075 1959 2075 
z
" transform="scale(0.015625)"/>
       </defs>
       <use xlink:href="#DejaVuSans-30"/>
       <use xlink:href="#DejaVuSans-2e" x="63.623047"/>
       <use xlink:href="#DejaVuSans-39" x="95.410156"/>
       <use xlink:href="#DejaVuSans-30" x="159.033203"/>
      </g>
     </g>
    </g>
    <g id="ytick_6">
     <g id="line2d_17">
      <defs>
       <path id="m0e9436eccc" d="M 0 0 
L -2 0 
" style="stroke: #000000; stroke-width: 0.6"/>
      </defs>
      <g>
       <use xlink:href="#m0e9436eccc" x="50.14375" y="212.1235" style="stroke: #000000; stroke-width: 0.6"/>
      </g>
     </g>
    </g>
    <g id="ytick_7">
     <g id="line2d_18">
      <g>
       <use xlink:href="#m0e9436eccc" x="50.14375" y="168.6355" style="stroke: #000000; stroke-width: 0.6"/>
      </g>
     </g>
    </g>
    <g id="ytick_8">
     <g id="line2d_19">
      <g>
       <use xlink:href="#m0e9436eccc" x="50.14375" y="125.1475" style="stroke: #000000; stroke-width: 0.6"/>
      </g>
     </g>
    </g>
    <g id="ytick_9">
     <g id="line2d_20">
      <g>
       <use xlink:href="#m0e9436eccc" x="50.14375" y="81.6595" style="stroke: #000000; stroke-width: 0.6"/>
      </g>
     </g>
    </g>
    <g id="ytick_10">
     <g id="line2d_21">
      <g>
       <use xlink:href="#m0e9436eccc" x="50.14375" y="38.1715" style="stroke: #000000; stroke-width: 0.6"/>
      </g>
     </g>
    </g>
    <g id="text_12">
     <!-- Accuracy -->
     <g transform="translate(14.798438 167.303625)rotate(-90)scale(0.1 -0.1)">
      <use xlink:href="#DejaVuSans-41"/>
      <use xlink:href="#DejaVuSans-63" x="66.658203"/>
      <use xlink:href="#DejaVuSans-63" x="121.638672"/>
      <use xlink:href="#DejaVuSans-75" x="176.619141"/>
      <use xlink:href="#DejaVuSans-72" x="239.998047"/>
      <use xlink:href="#DejaVuSans-61" x="281.111328"/>
      <use xlink:href="#DejaVuSans-63" x="342.390625"/>
      <use xlink:href="#DejaVuSans-79" x="397.371094"/>
     </g>
    </g>
   </g>
   <g id="patch_3">
    <path d="M 65.361932 277.3555 
L 73.428106 277.3555 
L 73.428106 53.311766 
L 65.361932 53.311766 
z
" clip-path="url(#pa7ef31e4c6)" style="fill: #1f77b4"/>
   </g>
   <g id="patch_4">
    <path d="M 119.136426 277.3555 
L 127.2026 277.3555 
L 127.2026 44.638842 
L 119.136426 44.638842 
z
" clip-path="url(#pa7ef31e4c6)" style="fill: #1f77b4"/>
   </g>
   <g id="patch_5">
    <path d="M 172.91092 277.3555 
L 180.977094 277.3555 
L 180.977094 66.568253 
L 172.91092 66.568253 
z
" clip-path="url(#pa7ef31e4c6)" style="fill: #1f77b4"/>
   </g>
   <g id="patch_6">
    <path d="M 226.685414 277.3555 
L 234.751588 277.3555 
L 234.751588 46.856041 
L 226.685414 46.856041 
z
" clip-path="url(#pa7ef31e4c6)" style="fill: #1f77b4"/>
   </g>
   <g id="patch_7">
    <path d="M 280.459908 277.3555 
L 288.526082 277.3555 
L 288.526082 162.058611 
L 280.459908 162.058611 
z
" clip-path="url(#pa7ef31e4c6)" style="fill: #1f77b4"/>
   </g>
   <g id="patch_8">
    <path d="M 334.234402 277.3555 
L 342.300576 277.3555 
L 342.300576 54.279265 
L 334.234402 54.279265 
z
" clip-path="url(#pa7ef31e4c6)" style="fill: #1f77b4"/>
   </g>
   <g id="patch_9">
    <path d="M 74.503596 277.3555 
L 82.56977 277.3555 
L 82.56977 70.223767 
L 74.503596 70.223767 
z
" clip-path="url(#pa7ef31e4c6)" style="fill: #ff7f0e"/>
   </g>
   <g id="patch_10">
    <path d="M 128.27809 277.3555 
L 136.344264 277.3555 
L 136.344264 54.632605 
L 128.27809 54.632605 
z
" clip-path="url(#pa7ef31e4c6)" style="fill: #ff7f0e"/>
   </g>
   <g id="patch_11">
    <path d="M 182.052584 277.3555 
L 190.118758 277.3555 
L 190.118758 84.425648 
L 182.052584 84.425648 
z
" clip-path="url(#pa7ef31e4c6)" style="fill: #ff7f0e"/>
   </g>
   <g id="patch_12">
    <path d="M 235.827078 277.3555 
L 243.893252 277.3555 
L 243.893252 44.113556 
L 235.827078 44.113556 
z
" clip-path="url(#pa7ef31e4c6)" style="fill: #ff7f0e"/>
   </g>
   <g id="patch_13">
    <path d="M 289.601572 277.3555 
L 297.667746 277.3555 
L 297.667746 180.312834 
L 289.601572 180.312834 
z
" clip-path="url(#pa7ef31e4c6)" style="fill: #ff7f0e"/>
   </g>
   <g id="patch_14">
    <path d="M 343.376066 277.3555 
L 351.44224 277.3555 
L 351.44224 58.212544 
L 343.376066 58.212544 
z
" clip-path="url(#pa7ef31e4c6)" style="fill: #ff7f0e"/>
   </g>
   <g id="patch_15">
    <path d="M 83.64526 277.3555 
L 91.711434 277.3555 
L 91.711434 80.290433 
L 83.64526 80.290433 
z
" clip-path="url(#pa7ef31e4c6)" style="fill: #2ca02c"/>
   </g>
   <g id="patch_16">
    <path d="M 137.419754 277.3555 
L 145.485928 277.3555 
L 145.485928 52.89968 
L 137.419754 52.89968 
z
" clip-path="url(#pa7ef31e4c6)" style="fill: #2ca02c"/>
   </g>
   <g id="patch_17">
    <path d="M 191.194248 277.3555 
L 199.260422 277.3555 
L 199.260422 76.372313 
L 191.194248 76.372313 
z
" clip-path="url(#pa7ef31e4c6)" style="fill: #2ca02c"/>
   </g>
   <g id="patch_18">
    <path d="M 244.968742 277.3555 
L 253.034916 277.3555 
L 253.034916 44.048258 
L 244.968742 44.048258 
z
" clip-path="url(#pa7ef31e4c6)" style="fill: #2ca02c"/>
   </g>
   <g id="patch_19">
    <path d="M 298.743236 277.3555 
L 306.80941 277.3555 
L 306.80941 201.2515 
L 298.743236 201.2515 
z
" clip-path="url(#pa7ef31e4c6)" style="fill: #2ca02c"/>
   </g>
   <g id="patch_20">
    <path d="M 352.51773 277.3555 
L 360.583904 277.3555 
L 360.583904 69.474026 
L 352.51773 69.474026 
z
" clip-path="url(#pa7ef31e4c6)" style="fill: #2ca02c"/>
   </g>
   <g id="patch_21">
    <path d="M 92.786924 277.3555 
L 100.853098 277.3555 
L 100.853098 64.747501 
L 92.786924 64.747501 
z
" clip-path="url(#pa7ef31e4c6)" style="fill: #d62728"/>
   </g>
   <g id="patch_22">
    <path d="M 146.561418 277.3555 
L 154.627592 277.3555 
L 154.627592 46.0521 
L 146.561418 46.0521 
z
" clip-path="url(#pa7ef31e4c6)" style="fill: #d62728"/>
   </g>
   <g id="patch_23">
    <path d="M 200.335912 277.3555 
L 208.402086 277.3555 
L 208.402086 138.523039 
L 200.335912 138.523039 
z
" clip-path="url(#pa7ef31e4c6)" style="fill: #d62728"/>
   </g>
   <g id="patch_24">
    <path d="M 254.110406 277.3555 
L 262.17658 277.3555 
L 262.17658 49.337336 
L 254.110406 49.337336 
z
" clip-path="url(#pa7ef31e4c6)" style="fill: #d62728"/>
   </g>
   <g id="patch_25">
    <path d="M 307.8849 277.3555 
L 315.951074 277.3555 
L 315.951074 219.103054 
L 307.8849 219.103054 
z
" clip-path="url(#pa7ef31e4c6)" style="fill: #d62728"/>
   </g>
   <g id="patch_26">
    <path d="M 361.659394 277.3555 
L 369.725568 277.3555 
L 369.725568 56.718338 
L 361.659394 56.718338 
z
" clip-path="url(#pa7ef31e4c6)" style="fill: #d62728"/>
   </g>
   <g id="LineCollection_1">
    <path d="M 69.395019 59.110173 
L 69.395019 48.640835 
" clip-path="url(#pa7ef31e4c6)" style="fill: none; stroke: #000000; stroke-width: 1.5"/>
    <path d="M 123.169513 48.878616 
L 123.169513 41.812328 
" clip-path="url(#pa7ef31e4c6)" style="fill: none; stroke: #000000; stroke-width: 1.5"/>
    <path d="M 176.944007 70.769999 
L 176.944007 56.764191 
" clip-path="url(#pa7ef31e4c6)" style="fill: none; stroke: #000000; stroke-width: 1.5"/>
    <path d="M 230.718501 52.079829 
L 230.718501 44.244152 
" clip-path="url(#pa7ef31e4c6)" style="fill: none; stroke: #000000; stroke-width: 1.5"/>
    <path d="M 284.492995 176.688836 
L 284.492995 149.844386 
" clip-path="url(#pa7ef31e4c6)" style="fill: none; stroke: #000000; stroke-width: 1.5"/>
    <path d="M 338.267489 57.399526 
L 338.267489 51.356766 
" clip-path="url(#pa7ef31e4c6)" style="fill: none; stroke: #000000; stroke-width: 1.5"/>
   </g>
   <g id="line2d_22">
    <defs>
     <path id="m2d3b1a4b44" d="M 3 0 
L -3 -0 
" style="stroke: #000000"/>
    </defs>
    <g clip-path="url(#pa7ef31e4c6)">
     <use xlink:href="#m2d3b1a4b44" x="69.395019" y="59.110173" style="stroke: #000000"/>
     <use xlink:href="#m2d3b1a4b44" x="123.169513" y="48.878616" style="stroke: #000000"/>
     <use xlink:href="#m2d3b1a4b44" x="176.944007" y="70.769999" style="stroke: #000000"/>
     <use xlink:href="#m2d3b1a4b44" x="230.718501" y="52.079829" style="stroke: #000000"/>
     <use xlink:href="#m2d3b1a4b44" x="284.492995" y="176.688836" style="stroke: #000000"/>
     <use xlink:href="#m2d3b1a4b44" x="338.267489" y="57.399526" style="stroke: #000000"/>
    </g>
   </g>
   <g id="line2d_23">
    <g clip-path="url(#pa7ef31e4c6)">
     <use xlink:href="#m2d3b1a4b44" x="69.395019" y="48.640835" style="stroke: #000000"/>
     <use xlink:href="#m2d3b1a4b44" x="123.169513" y="41.812328" style="stroke: #000000"/>
     <use xlink:href="#m2d3b1a4b44" x="176.944007" y="56.764191" style="stroke: #000000"/>
     <use xlink:href="#m2d3b1a4b44" x="230.718501" y="44.244152" style="stroke: #000000"/>
     <use xlink:href="#m2d3b1a4b44" x="284.492995" y="149.844386" style="stroke: #000000"/>
     <use xlink:href="#m2d3b1a4b44" x="338.267489" y="51.356766" style="stroke: #000000"/>
    </g>
   </g>
   <g id="LineCollection_2">
    <path d="M 78.536683 81.659499 
L 78.536683 56.694161 
" clip-path="url(#pa7ef31e4c6)" style="fill: none; stroke: #000000; stroke-width: 1.5"/>
    <path d="M 132.311177 66.544365 
L 132.311177 48.037398 
" clip-path="url(#pa7ef31e4c6)" style="fill: none; stroke: #000000; stroke-width: 1.5"/>
    <path d="M 186.085671 102.283035 
L 186.085671 74.271447 
" clip-path="url(#pa7ef31e4c6)" style="fill: none; stroke: #000000; stroke-width: 1.5"/>
    <path d="M 239.860165 45.550089 
L 239.860165 42.938201 
" clip-path="url(#pa7ef31e4c6)" style="fill: none; stroke: #000000; stroke-width: 1.5"/>
    <path d="M 293.634659 206.217723 
L 293.634659 144.475497 
" clip-path="url(#pa7ef31e4c6)" style="fill: none; stroke: #000000; stroke-width: 1.5"/>
    <path d="M 347.409153 64.101481 
L 347.409153 52.235714 
" clip-path="url(#pa7ef31e4c6)" style="fill: none; stroke: #000000; stroke-width: 1.5"/>
   </g>
   <g id="line2d_24">
    <g clip-path="url(#pa7ef31e4c6)">
     <use xlink:href="#m2d3b1a4b44" x="78.536683" y="81.659499" style="stroke: #000000"/>
     <use xlink:href="#m2d3b1a4b44" x="132.311177" y="66.544365" style="stroke: #000000"/>
     <use xlink:href="#m2d3b1a4b44" x="186.085671" y="102.283035" style="stroke: #000000"/>
     <use xlink:href="#m2d3b1a4b44" x="239.860165" y="45.550089" style="stroke: #000000"/>
     <use xlink:href="#m2d3b1a4b44" x="293.634659" y="206.217723" style="stroke: #000000"/>
     <use xlink:href="#m2d3b1a4b44" x="347.409153" y="64.101481" style="stroke: #000000"/>
    </g>
   </g>
   <g id="line2d_25">
    <g clip-path="url(#pa7ef31e4c6)">
     <use xlink:href="#m2d3b1a4b44" x="78.536683" y="56.694161" style="stroke: #000000"/>
     <use xlink:href="#m2d3b1a4b44" x="132.311177" y="48.037398" style="stroke: #000000"/>
     <use xlink:href="#m2d3b1a4b44" x="186.085671" y="74.271447" style="stroke: #000000"/>
     <use xlink:href="#m2d3b1a4b44" x="239.860165" y="42.938201" style="stroke: #000000"/>
     <use xlink:href="#m2d3b1a4b44" x="293.634659" y="144.475497" style="stroke: #000000"/>
     <use xlink:href="#m2d3b1a4b44" x="347.409153" y="52.235714" style="stroke: #000000"/>
    </g>
   </g>
   <g id="LineCollection_3">
    <path d="M 87.678347 100.987495 
L 87.678347 66.358166 
" clip-path="url(#pa7ef31e4c6)" style="fill: none; stroke: #000000; stroke-width: 1.5"/>
    <path d="M 141.452841 59.309821 
L 141.452841 47.532661 
" clip-path="url(#pa7ef31e4c6)" style="fill: none; stroke: #000000; stroke-width: 1.5"/>
    <path d="M 195.227335 86.526517 
L 195.227335 62.016363 
" clip-path="url(#pa7ef31e4c6)" style="fill: none; stroke: #000000; stroke-width: 1.5"/>
    <path d="M 249.001829 45.550089 
L 249.001829 42.938201 
" clip-path="url(#pa7ef31e4c6)" style="fill: none; stroke: #000000; stroke-width: 1.5"/>
    <path d="M 302.776323 207.559941 
L 302.776323 190.111057 
" clip-path="url(#pa7ef31e4c6)" style="fill: none; stroke: #000000; stroke-width: 1.5"/>
    <path d="M 356.550817 79.263274 
L 356.550817 61.684375 
" clip-path="url(#pa7ef31e4c6)" style="fill: none; stroke: #000000; stroke-width: 1.5"/>
   </g>
   <g id="line2d_26">
    <g clip-path="url(#pa7ef31e4c6)">
     <use xlink:href="#m2d3b1a4b44" x="87.678347" y="100.987495" style="stroke: #000000"/>
     <use xlink:href="#m2d3b1a4b44" x="141.452841" y="59.309821" style="stroke: #000000"/>
     <use xlink:href="#m2d3b1a4b44" x="195.227335" y="86.526517" style="stroke: #000000"/>
     <use xlink:href="#m2d3b1a4b44" x="249.001829" y="45.550089" style="stroke: #000000"/>
     <use xlink:href="#m2d3b1a4b44" x="302.776323" y="207.559941" style="stroke: #000000"/>
     <use xlink:href="#m2d3b1a4b44" x="356.550817" y="79.263274" style="stroke: #000000"/>
    </g>
   </g>
   <g id="line2d_27">
    <g clip-path="url(#pa7ef31e4c6)">
     <use xlink:href="#m2d3b1a4b44" x="87.678347" y="66.358166" style="stroke: #000000"/>
     <use xlink:href="#m2d3b1a4b44" x="141.452841" y="47.532661" style="stroke: #000000"/>
     <use xlink:href="#m2d3b1a4b44" x="195.227335" y="62.016363" style="stroke: #000000"/>
     <use xlink:href="#m2d3b1a4b44" x="249.001829" y="42.938201" style="stroke: #000000"/>
     <use xlink:href="#m2d3b1a4b44" x="302.776323" y="190.111057" style="stroke: #000000"/>
     <use xlink:href="#m2d3b1a4b44" x="356.550817" y="61.684375" style="stroke: #000000"/>
    </g>
   </g>
   <g id="LineCollection_4">
    <path d="M 96.820011 79.243502 
L 96.820011 57.499494 
" clip-path="url(#pa7ef31e4c6)" style="fill: none; stroke: #000000; stroke-width: 1.5"/>
    <path d="M 150.594505 50.897564 
L 150.594505 41.980569 
" clip-path="url(#pa7ef31e4c6)" style="fill: none; stroke: #000000; stroke-width: 1.5"/>
    <path d="M 204.368999 163.558397 
L 204.368999 125.04245 
" clip-path="url(#pa7ef31e4c6)" style="fill: none; stroke: #000000; stroke-width: 1.5"/>
    <path d="M 258.143493 57.303604 
L 258.143493 46.203064 
" clip-path="url(#pa7ef31e4c6)" style="fill: none; stroke: #000000; stroke-width: 1.5"/>
    <path d="M 311.917987 250.511055 
L 311.917987 188.768831 
" clip-path="url(#pa7ef31e4c6)" style="fill: none; stroke: #000000; stroke-width: 1.5"/>
    <path d="M 365.692481 61.354776 
L 365.692481 51.686379 
" clip-path="url(#pa7ef31e4c6)" style="fill: none; stroke: #000000; stroke-width: 1.5"/>
   </g>
   <g id="line2d_28">
    <g clip-path="url(#pa7ef31e4c6)">
     <use xlink:href="#m2d3b1a4b44" x="96.820011" y="79.243502" style="stroke: #000000"/>
     <use xlink:href="#m2d3b1a4b44" x="150.594505" y="50.897564" style="stroke: #000000"/>
     <use xlink:href="#m2d3b1a4b44" x="204.368999" y="163.558397" style="stroke: #000000"/>
     <use xlink:href="#m2d3b1a4b44" x="258.143493" y="57.303604" style="stroke: #000000"/>
     <use xlink:href="#m2d3b1a4b44" x="311.917987" y="250.511055" style="stroke: #000000"/>
     <use xlink:href="#m2d3b1a4b44" x="365.692481" y="61.354776" style="stroke: #000000"/>
    </g>
   </g>
   <g id="line2d_29">
    <g clip-path="url(#pa7ef31e4c6)">
     <use xlink:href="#m2d3b1a4b44" x="96.820011" y="57.499494" style="stroke: #000000"/>
     <use xlink:href="#m2d3b1a4b44" x="150.594505" y="41.980569" style="stroke: #000000"/>
     <use xlink:href="#m2d3b1a4b44" x="204.368999" y="125.04245" style="stroke: #000000"/>
     <use xlink:href="#m2d3b1a4b44" x="258.143493" y="46.203064" style="stroke: #000000"/>
     <use xlink:href="#m2d3b1a4b44" x="311.917987" y="188.768831" style="stroke: #000000"/>
     <use xlink:href="#m2d3b1a4b44" x="365.692481" y="51.686379" style="stroke: #000000"/>
    </g>
   </g>
   <g id="patch_27">
    <path d="M 50.14375 253.1955 
L 50.14375 35.7555 
" style="fill: none; stroke: #000000; stroke-width: 0.8; stroke-linejoin: miter; stroke-linecap: square"/>
   </g>
   <g id="patch_28">
    <path d="M 384.94375 253.1955 
L 384.94375 35.7555 
" style="fill: none; stroke: #000000; stroke-width: 0.8; stroke-linejoin: miter; stroke-linecap: square"/>
   </g>
   <g id="patch_29">
    <path d="M 50.14375 253.1955 
L 384.94375 253.1955 
" style="fill: none; stroke: #000000; stroke-width: 0.8; stroke-linejoin: miter; stroke-linecap: square"/>
   </g>
   <g id="patch_30">
    <path d="M 50.14375 35.7555 
L 384.94375 35.7555 
" style="fill: none; stroke: #000000; stroke-width: 0.8; stroke-linejoin: miter; stroke-linecap: square"/>
   </g>
   <g id="text_13">
    <!-- Exp. Class: "Multiple S.R." -->
    <g transform="translate(140.03125 16.318125)scale(0.12 -0.12)">
     <defs>
      <path id="DejaVuSans-78" d="M 3513 3500 
L 2247 1797 
L 3578 0 
L 2900 0 
L 1881 1375 
L 863 0 
L 184 0 
L 1544 1831 
L 300 3500 
L 978 3500 
L 1906 2253 
L 2834 3500 
L 3513 3500 
z
" transform="scale(0.015625)"/>
      <path id="DejaVuSans-20" transform="scale(0.015625)"/>
      <path id="DejaVuSans-3a" d="M 750 794 
L 1409 794 
L 1409 0 
L 750 0 
L 750 794 
z
M 750 3309 
L 1409 3309 
L 1409 2516 
L 750 2516 
L 750 3309 
z
" transform="scale(0.015625)"/>
      <path id="DejaVuSans-22" d="M 1147 4666 
L 1147 2931 
L 616 2931 
L 616 4666 
L 1147 4666 
z
M 2328 4666 
L 2328 2931 
L 1797 2931 
L 1797 4666 
L 2328 4666 
z
" transform="scale(0.015625)"/>
      <path id="DejaVuSans-4d" d="M 628 4666 
L 1569 4666 
L 2759 1491 
L 3956 4666 
L 4897 4666 
L 4897 0 
L 4281 0 
L 4281 4097 
L 3078 897 
L 2444 897 
L 1241 4097 
L 1241 0 
L 628 0 
L 628 4666 
z
" transform="scale(0.015625)"/>
     </defs>
     <use xlink:href="#DejaVuSans-45"/>
     <use xlink:href="#DejaVuSans-78" x="63.183594"/>
     <use xlink:href="#DejaVuSans-70" x="122.363281"/>
     <use xlink:href="#DejaVuSans-2e" x="185.839844"/>
     <use xlink:href="#DejaVuSans-20" x="217.626953"/>
     <use xlink:href="#DejaVuSans-43" x="249.414062"/>
     <use xlink:href="#DejaVuSans-6c" x="319.238281"/>
     <use xlink:href="#DejaVuSans-61" x="347.021484"/>
     <use xlink:href="#DejaVuSans-73" x="408.300781"/>
     <use xlink:href="#DejaVuSans-73" x="460.400391"/>
     <use xlink:href="#DejaVuSans-3a" x="512.5"/>
     <use xlink:href="#DejaVuSans-20" x="546.191406"/>
     <use xlink:href="#DejaVuSans-22" x="577.978516"/>
     <use xlink:href="#DejaVuSans-4d" x="623.974609"/>
     <use xlink:href="#DejaVuSans-75" x="710.253906"/>
     <use xlink:href="#DejaVuSans-6c" x="773.632812"/>
     <use xlink:href="#DejaVuSans-74" x="801.416016"/>
     <use xlink:href="#DejaVuSans-69" x="840.625"/>
     <use xlink:href="#DejaVuSans-70" x="868.408203"/>
     <use xlink:href="#DejaVuSans-6c" x="931.884766"/>
     <use xlink:href="#DejaVuSans-65" x="959.667969"/>
     <use xlink:href="#DejaVuSans-20" x="1021.191406"/>
     <use xlink:href="#DejaVuSans-53" x="1052.978516"/>
     <use xlink:href="#DejaVuSans-2e" x="1116.455078"/>
     <use xlink:href="#DejaVuSans-52" x="1148.242188"/>
     <use xlink:href="#DejaVuSans-2e" x="1214.099609"/>
     <use xlink:href="#DejaVuSans-22" x="1245.886719"/>
    </g>
    <!-- Experiment: "Units 75" -->
    <g transform="translate(148.5475 29.7555)scale(0.12 -0.12)">
     <defs>
      <path id="DejaVuSans-6d" d="M 3328 2828 
Q 3544 3216 3844 3400 
Q 4144 3584 4550 3584 
Q 5097 3584 5394 3201 
Q 5691 2819 5691 2113 
L 5691 0 
L 5113 0 
L 5113 2094 
Q 5113 2597 4934 2840 
Q 4756 3084 4391 3084 
Q 3944 3084 3684 2787 
Q 3425 2491 3425 1978 
L 3425 0 
L 2847 0 
L 2847 2094 
Q 2847 2600 2669 2842 
Q 2491 3084 2119 3084 
Q 1678 3084 1418 2786 
Q 1159 2488 1159 1978 
L 1159 0 
L 581 0 
L 581 3500 
L 1159 3500 
L 1159 2956 
Q 1356 3278 1631 3431 
Q 1906 3584 2284 3584 
Q 2666 3584 2933 3390 
Q 3200 3197 3328 2828 
z
" transform="scale(0.015625)"/>
      <path id="DejaVuSans-55" d="M 556 4666 
L 1191 4666 
L 1191 1831 
Q 1191 1081 1462 751 
Q 1734 422 2344 422 
Q 2950 422 3222 751 
Q 3494 1081 3494 1831 
L 3494 4666 
L 4128 4666 
L 4128 1753 
Q 4128 841 3676 375 
Q 3225 -91 2344 -91 
Q 1459 -91 1007 375 
Q 556 841 556 1753 
L 556 4666 
z
" transform="scale(0.015625)"/>
     </defs>
     <use xlink:href="#DejaVuSans-45"/>
     <use xlink:href="#DejaVuSans-78" x="63.183594"/>
     <use xlink:href="#DejaVuSans-70" x="122.363281"/>
     <use xlink:href="#DejaVuSans-65" x="185.839844"/>
     <use xlink:href="#DejaVuSans-72" x="247.363281"/>
     <use xlink:href="#DejaVuSans-69" x="288.476562"/>
     <use xlink:href="#DejaVuSans-6d" x="316.259766"/>
     <use xlink:href="#DejaVuSans-65" x="413.671875"/>
     <use xlink:href="#DejaVuSans-6e" x="475.195312"/>
     <use xlink:href="#DejaVuSans-74" x="538.574219"/>
     <use xlink:href="#DejaVuSans-3a" x="577.783203"/>
     <use xlink:href="#DejaVuSans-20" x="611.474609"/>
     <use xlink:href="#DejaVuSans-22" x="643.261719"/>
     <use xlink:href="#DejaVuSans-55" x="689.257812"/>
     <use xlink:href="#DejaVuSans-6e" x="762.451172"/>
     <use xlink:href="#DejaVuSans-69" x="825.830078"/>
     <use xlink:href="#DejaVuSans-74" x="853.613281"/>
     <use xlink:href="#DejaVuSans-73" x="892.822266"/>
     <use xlink:href="#DejaVuSans-20" x="944.921875"/>
     <use xlink:href="#DejaVuSans-37" x="976.708984"/>
     <use xlink:href="#DejaVuSans-35" x="1040.332031"/>
     <use xlink:href="#DejaVuSans-22" x="1103.955078"/>
    </g>
   </g>
   <g id="legend_1">
    <g id="patch_31">
     <path d="M 319.432813 248.1955 
L 377.94375 248.1955 
Q 379.94375 248.1955 379.94375 246.1955 
L 379.94375 188.483 
Q 379.94375 186.483 377.94375 186.483 
L 319.432813 186.483 
Q 317.432813 186.483 317.432813 188.483 
L 317.432813 246.1955 
Q 317.432813 248.1955 319.432813 248.1955 
z
" style="fill: #ffffff; opacity: 0.8; stroke: #cccccc; stroke-linejoin: miter"/>
    </g>
    <g id="patch_32">
     <path d="M 321.432813 198.081437 
L 341.432813 198.081437 
L 341.432813 191.081437 
L 321.432813 191.081437 
z
" style="fill: #1f77b4"/>
    </g>
    <g id="text_14">
     <!-- ESN1 -->
     <g transform="translate(349.432813 198.081437)scale(0.1 -0.1)">
      <defs>
       <path id="DejaVuSans-4e" d="M 628 4666 
L 1478 4666 
L 3547 763 
L 3547 4666 
L 4159 4666 
L 4159 0 
L 3309 0 
L 1241 3903 
L 1241 0 
L 628 0 
L 628 4666 
z
" transform="scale(0.015625)"/>
      </defs>
      <use xlink:href="#DejaVuSans-45"/>
      <use xlink:href="#DejaVuSans-53" x="63.183594"/>
      <use xlink:href="#DejaVuSans-4e" x="126.660156"/>
      <use xlink:href="#DejaVuSans-31" x="201.464844"/>
     </g>
    </g>
    <g id="patch_33">
     <path d="M 321.432813 212.759562 
L 341.432813 212.759562 
L 341.432813 205.759562 
L 321.432813 205.759562 
z
" style="fill: #ff7f0e"/>
    </g>
    <g id="text_15">
     <!-- ESN2 -->
     <g transform="translate(349.432813 212.759562)scale(0.1 -0.1)">
      <use xlink:href="#DejaVuSans-45"/>
      <use xlink:href="#DejaVuSans-53" x="63.183594"/>
      <use xlink:href="#DejaVuSans-4e" x="126.660156"/>
      <use xlink:href="#DejaVuSans-32" x="201.464844"/>
     </g>
    </g>
    <g id="patch_34">
     <path d="M 321.432813 227.437687 
L 341.432813 227.437687 
L 341.432813 220.437687 
L 321.432813 220.437687 
z
" style="fill: #2ca02c"/>
    </g>
    <g id="text_16">
     <!-- ESN3 -->
     <g transform="translate(349.432813 227.437687)scale(0.1 -0.1)">
      <use xlink:href="#DejaVuSans-45"/>
      <use xlink:href="#DejaVuSans-53" x="63.183594"/>
      <use xlink:href="#DejaVuSans-4e" x="126.660156"/>
      <use xlink:href="#DejaVuSans-33" x="201.464844"/>
     </g>
    </g>
    <g id="patch_35">
     <path d="M 321.432813 242.115812 
L 341.432813 242.115812 
L 341.432813 235.115812 
L 321.432813 235.115812 
z
" style="fill: #d62728"/>
    </g>
    <g id="text_17">
     <!-- ESN4 -->
     <g transform="translate(349.432813 242.115812)scale(0.1 -0.1)">
      <use xlink:href="#DejaVuSans-45"/>
      <use xlink:href="#DejaVuSans-53" x="63.183594"/>
      <use xlink:href="#DejaVuSans-4e" x="126.660156"/>
      <use xlink:href="#DejaVuSans-34" x="201.464844"/>
     </g>
    </g>
   </g>
  </g>
 </g>
 <defs>
  <clipPath id="pa7ef31e4c6">
   <rect x="50.14375" y="35.7555" width="334.8" height="217.44"/>
  </clipPath>
 </defs>
</svg>
