<?xml version="1.0" encoding="utf-8" standalone="no"?>
<!DOCTYPE svg PUBLIC "-//W3C//DTD SVG 1.1//EN"
  "http://www.w3.org/Graphics/SVG/1.1/DTD/svg11.dtd">
<svg xmlns:xlink="http://www.w3.org/1999/xlink" width="432pt" height="288pt" viewBox="0 0 432 288" xmlns="http://www.w3.org/2000/svg" version="1.1">
 <metadata>
  <rdf:RDF xmlns:dc="http://purl.org/dc/elements/1.1/" xmlns:cc="http://creativecommons.org/ns#" xmlns:rdf="http://www.w3.org/1999/02/22-rdf-syntax-ns#">
   <cc:Work>
    <dc:type rdf:resource="http://purl.org/dc/dcmitype/StillImage"/>
    <dc:date>2022-01-05T23:22:55.041339</dc:date>
    <dc:format>image/svg+xml</dc:format>
    <dc:creator>
     <cc:Agent>
      <dc:title>Matplotlib v3.5.1, https://matplotlib.org/</dc:title>
     </cc:Agent>
    </dc:creator>
   </cc:Work>
  </rdf:RDF>
 </metadata>
 <defs>
  <style type="text/css">*{stroke-linejoin: round; stroke-linecap: butt}</style>
 </defs>
 <g id="figure_1">
  <g id="patch_1">
   <path d="M 0 288 
L 432 288 
L 432 0 
L 0 0 
L 0 288 
z
" style="fill: none"/>
  </g>
  <g id="axes_1">
   <g id="patch_2">
    <path d="M 54 252 
L 388.8 252 
L 388.8 34.56 
L 54 34.56 
z
" style="fill: #ffffff"/>
   </g>
   <g id="patch_3">
    <path d="M 69.218182 252 
L 77.284356 252 
L 77.284356 150.522566 
L 69.218182 150.522566 
z
" clip-path="url(#p82522b9f4a)" style="fill: #1f77b4"/>
   </g>
   <g id="patch_4">
    <path d="M 122.992676 252 
L 131.05885 252 
L 131.05885 135.008928 
L 122.992676 135.008928 
z
" clip-path="url(#p82522b9f4a)" style="fill: #1f77b4"/>
   </g>
   <g id="patch_5">
    <path d="M 176.76717 252 
L 184.833344 252 
L 184.833344 149.427485 
L 176.76717 149.427485 
z
" clip-path="url(#p82522b9f4a)" style="fill: #1f77b4"/>
   </g>
   <g id="patch_6">
    <path d="M 230.541664 252 
L 238.607838 252 
L 238.607838 116.210055 
L 230.541664 116.210055 
z
" clip-path="url(#p82522b9f4a)" style="fill: #1f77b4"/>
   </g>
   <g id="patch_7">
    <path d="M 284.316158 252 
L 292.382332 252 
L 292.382332 139.754276 
L 284.316158 139.754276 
z
" clip-path="url(#p82522b9f4a)" style="fill: #1f77b4"/>
   </g>
   <g id="patch_8">
    <path d="M 338.090652 252 
L 346.156826 252 
L 346.156826 80.254917 
L 338.090652 80.254917 
z
" clip-path="url(#p82522b9f4a)" style="fill: #1f77b4"/>
   </g>
   <g id="patch_9">
    <path d="M 78.359846 252 
L 86.42602 252 
L 86.42602 179.177164 
L 78.359846 179.177164 
z
" clip-path="url(#p82522b9f4a)" style="fill: #ff7f0e"/>
   </g>
   <g id="patch_10">
    <path d="M 132.13434 252 
L 140.200514 252 
L 140.200514 121.867967 
L 132.13434 121.867967 
z
" clip-path="url(#p82522b9f4a)" style="fill: #ff7f0e"/>
   </g>
   <g id="patch_11">
    <path d="M 185.908834 252 
L 193.975008 252 
L 193.975008 116.210054 
L 185.908834 116.210054 
z
" clip-path="url(#p82522b9f4a)" style="fill: #ff7f0e"/>
   </g>
   <g id="patch_12">
    <path d="M 239.683328 252 
L 247.749502 252 
L 247.749502 97.228662 
L 239.683328 97.228662 
z
" clip-path="url(#p82522b9f4a)" style="fill: #ff7f0e"/>
   </g>
   <g id="patch_13">
    <path d="M 293.457822 252 
L 301.523996 252 
L 301.523996 71.494275 
L 293.457822 71.494275 
z
" clip-path="url(#p82522b9f4a)" style="fill: #ff7f0e"/>
   </g>
   <g id="patch_14">
    <path d="M 347.232316 252 
L 355.29849 252 
L 355.29849 71.129249 
L 347.232316 71.129249 
z
" clip-path="url(#p82522b9f4a)" style="fill: #ff7f0e"/>
   </g>
   <g id="patch_15">
    <path d="M 87.50151 252 
L 95.567684 252 
L 95.567684 125.153208 
L 87.50151 125.153208 
z
" clip-path="url(#p82522b9f4a)" style="fill: #2ca02c"/>
   </g>
   <g id="patch_16">
    <path d="M 141.276004 252 
L 149.342178 252 
L 149.342178 135.373955 
L 141.276004 135.373955 
z
" clip-path="url(#p82522b9f4a)" style="fill: #2ca02c"/>
   </g>
   <g id="patch_17">
    <path d="M 195.050498 252 
L 203.116672 252 
L 203.116672 129.168502 
L 195.050498 129.168502 
z
" clip-path="url(#p82522b9f4a)" style="fill: #2ca02c"/>
   </g>
   <g id="patch_18">
    <path d="M 248.824992 252 
L 256.891166 252 
L 256.891166 110.369624 
L 248.824992 110.369624 
z
" clip-path="url(#p82522b9f4a)" style="fill: #2ca02c"/>
   </g>
   <g id="patch_19">
    <path d="M 302.599486 252 
L 310.66566 252 
L 310.66566 78.247271 
L 302.599486 78.247271 
z
" clip-path="url(#p82522b9f4a)" style="fill: #2ca02c"/>
   </g>
   <g id="patch_20">
    <path d="M 356.37398 252 
L 364.440154 252 
L 364.440154 63.281171 
L 356.37398 63.281171 
z
" clip-path="url(#p82522b9f4a)" style="fill: #2ca02c"/>
   </g>
   <g id="patch_21">
    <path d="M 96.643174 252 
L 104.709348 252 
L 104.709348 131.358662 
L 96.643174 131.358662 
z
" clip-path="url(#p82522b9f4a)" style="fill: #d62728"/>
   </g>
   <g id="patch_22">
    <path d="M 150.417668 252 
L 158.483842 252 
L 158.483842 136.104009 
L 150.417668 136.104009 
z
" clip-path="url(#p82522b9f4a)" style="fill: #d62728"/>
   </g>
   <g id="patch_23">
    <path d="M 204.192162 252 
L 212.258336 252 
L 212.258336 107.266897 
L 204.192162 107.266897 
z
" clip-path="url(#p82522b9f4a)" style="fill: #d62728"/>
   </g>
   <g id="patch_24">
    <path d="M 257.966656 252 
L 266.03283 252 
L 266.03283 109.639572 
L 257.966656 109.639572 
z
" clip-path="url(#p82522b9f4a)" style="fill: #d62728"/>
   </g>
   <g id="patch_25">
    <path d="M 311.74115 252 
L 319.807324 252 
L 319.807324 98.688769 
L 311.74115 98.688769 
z
" clip-path="url(#p82522b9f4a)" style="fill: #d62728"/>
   </g>
   <g id="patch_26">
    <path d="M 365.515644 252 
L 373.581818 252 
L 373.581818 72.406841 
L 365.515644 72.406841 
z
" clip-path="url(#p82522b9f4a)" style="fill: #d62728"/>
   </g>
   <g id="matplotlib.axis_1">
    <g id="xtick_1">
     <g id="line2d_1">
      <defs>
       <path id="me617314c95" d="M 0 0 
L 0 3.5 
" style="stroke: #000000; stroke-width: 0.8"/>
      </defs>
      <g>
       <use xlink:href="#me617314c95" x="77.822101" y="252" style="stroke: #000000; stroke-width: 0.8"/>
      </g>
     </g>
     <g id="text_1">
      <!-- Units 75 -->
      <g transform="translate(65.112409 293.694636)rotate(-45)scale(0.1 -0.1)">
       <defs>
        <path id="DejaVuSans-55" d="M 556 4666 
L 1191 4666 
L 1191 1831 
Q 1191 1081 1462 751 
Q 1734 422 2344 422 
Q 2950 422 3222 751 
Q 3494 1081 3494 1831 
L 3494 4666 
L 4128 4666 
L 4128 1753 
Q 4128 841 3676 375 
Q 3225 -91 2344 -91 
Q 1459 -91 1007 375 
Q 556 841 556 1753 
L 556 4666 
z
" transform="scale(0.015625)"/>
        <path id="DejaVuSans-6e" d="M 3513 2113 
L 3513 0 
L 2938 0 
L 2938 2094 
Q 2938 2591 2744 2837 
Q 2550 3084 2163 3084 
Q 1697 3084 1428 2787 
Q 1159 2491 1159 1978 
L 1159 0 
L 581 0 
L 581 3500 
L 1159 3500 
L 1159 2956 
Q 1366 3272 1645 3428 
Q 1925 3584 2291 3584 
Q 2894 3584 3203 3211 
Q 3513 2838 3513 2113 
z
" transform="scale(0.015625)"/>
        <path id="DejaVuSans-69" d="M 603 3500 
L 1178 3500 
L 1178 0 
L 603 0 
L 603 3500 
z
M 603 4863 
L 1178 4863 
L 1178 4134 
L 603 4134 
L 603 4863 
z
" transform="scale(0.015625)"/>
        <path id="DejaVuSans-74" d="M 1172 4494 
L 1172 3500 
L 2356 3500 
L 2356 3053 
L 1172 3053 
L 1172 1153 
Q 1172 725 1289 603 
Q 1406 481 1766 481 
L 2356 481 
L 2356 0 
L 1766 0 
Q 1100 0 847 248 
Q 594 497 594 1153 
L 594 3053 
L 172 3053 
L 172 3500 
L 594 3500 
L 594 4494 
L 1172 4494 
z
" transform="scale(0.015625)"/>
        <path id="DejaVuSans-73" d="M 2834 3397 
L 2834 2853 
Q 2591 2978 2328 3040 
Q 2066 3103 1784 3103 
Q 1356 3103 1142 2972 
Q 928 2841 928 2578 
Q 928 2378 1081 2264 
Q 1234 2150 1697 2047 
L 1894 2003 
Q 2506 1872 2764 1633 
Q 3022 1394 3022 966 
Q 3022 478 2636 193 
Q 2250 -91 1575 -91 
Q 1294 -91 989 -36 
Q 684 19 347 128 
L 347 722 
Q 666 556 975 473 
Q 1284 391 1588 391 
Q 1994 391 2212 530 
Q 2431 669 2431 922 
Q 2431 1156 2273 1281 
Q 2116 1406 1581 1522 
L 1381 1569 
Q 847 1681 609 1914 
Q 372 2147 372 2553 
Q 372 3047 722 3315 
Q 1072 3584 1716 3584 
Q 2034 3584 2315 3537 
Q 2597 3491 2834 3397 
z
" transform="scale(0.015625)"/>
        <path id="DejaVuSans-20" transform="scale(0.015625)"/>
        <path id="DejaVuSans-37" d="M 525 4666 
L 3525 4666 
L 3525 4397 
L 1831 0 
L 1172 0 
L 2766 4134 
L 525 4134 
L 525 4666 
z
" transform="scale(0.015625)"/>
        <path id="DejaVuSans-35" d="M 691 4666 
L 3169 4666 
L 3169 4134 
L 1269 4134 
L 1269 2991 
Q 1406 3038 1543 3061 
Q 1681 3084 1819 3084 
Q 2600 3084 3056 2656 
Q 3513 2228 3513 1497 
Q 3513 744 3044 326 
Q 2575 -91 1722 -91 
Q 1428 -91 1123 -41 
Q 819 9 494 109 
L 494 744 
Q 775 591 1075 516 
Q 1375 441 1709 441 
Q 2250 441 2565 725 
Q 2881 1009 2881 1497 
Q 2881 1984 2565 2268 
Q 2250 2553 1709 2553 
Q 1456 2553 1204 2497 
Q 953 2441 691 2322 
L 691 4666 
z
" transform="scale(0.015625)"/>
       </defs>
       <use xlink:href="#DejaVuSans-55"/>
       <use xlink:href="#DejaVuSans-6e" x="73.193359"/>
       <use xlink:href="#DejaVuSans-69" x="136.572266"/>
       <use xlink:href="#DejaVuSans-74" x="164.355469"/>
       <use xlink:href="#DejaVuSans-73" x="203.564453"/>
       <use xlink:href="#DejaVuSans-20" x="255.664062"/>
       <use xlink:href="#DejaVuSans-37" x="287.451172"/>
       <use xlink:href="#DejaVuSans-35" x="351.074219"/>
      </g>
     </g>
    </g>
    <g id="xtick_2">
     <g id="line2d_2">
      <g>
       <use xlink:href="#me617314c95" x="131.596595" y="252" style="stroke: #000000; stroke-width: 0.8"/>
      </g>
     </g>
     <g id="text_2">
      <!-- Units 50 -->
      <g transform="translate(118.886903 293.694636)rotate(-45)scale(0.1 -0.1)">
       <defs>
        <path id="DejaVuSans-30" d="M 2034 4250 
Q 1547 4250 1301 3770 
Q 1056 3291 1056 2328 
Q 1056 1369 1301 889 
Q 1547 409 2034 409 
Q 2525 409 2770 889 
Q 3016 1369 3016 2328 
Q 3016 3291 2770 3770 
Q 2525 4250 2034 4250 
z
M 2034 4750 
Q 2819 4750 3233 4129 
Q 3647 3509 3647 2328 
Q 3647 1150 3233 529 
Q 2819 -91 2034 -91 
Q 1250 -91 836 529 
Q 422 1150 422 2328 
Q 422 3509 836 4129 
Q 1250 4750 2034 4750 
z
" transform="scale(0.015625)"/>
       </defs>
       <use xlink:href="#DejaVuSans-55"/>
       <use xlink:href="#DejaVuSans-6e" x="73.193359"/>
       <use xlink:href="#DejaVuSans-69" x="136.572266"/>
       <use xlink:href="#DejaVuSans-74" x="164.355469"/>
       <use xlink:href="#DejaVuSans-73" x="203.564453"/>
       <use xlink:href="#DejaVuSans-20" x="255.664062"/>
       <use xlink:href="#DejaVuSans-35" x="287.451172"/>
       <use xlink:href="#DejaVuSans-30" x="351.074219"/>
      </g>
     </g>
    </g>
    <g id="xtick_3">
     <g id="line2d_3">
      <g>
       <use xlink:href="#me617314c95" x="185.371089" y="252" style="stroke: #000000; stroke-width: 0.8"/>
      </g>
     </g>
     <g id="text_3">
      <!-- Units 168 -->
      <g transform="translate(170.411914 298.193603)rotate(-45)scale(0.1 -0.1)">
       <defs>
        <path id="DejaVuSans-31" d="M 794 531 
L 1825 531 
L 1825 4091 
L 703 3866 
L 703 4441 
L 1819 4666 
L 2450 4666 
L 2450 531 
L 3481 531 
L 3481 0 
L 794 0 
L 794 531 
z
" transform="scale(0.015625)"/>
        <path id="DejaVuSans-36" d="M 2113 2584 
Q 1688 2584 1439 2293 
Q 1191 2003 1191 1497 
Q 1191 994 1439 701 
Q 1688 409 2113 409 
Q 2538 409 2786 701 
Q 3034 994 3034 1497 
Q 3034 2003 2786 2293 
Q 2538 2584 2113 2584 
z
M 3366 4563 
L 3366 3988 
Q 3128 4100 2886 4159 
Q 2644 4219 2406 4219 
Q 1781 4219 1451 3797 
Q 1122 3375 1075 2522 
Q 1259 2794 1537 2939 
Q 1816 3084 2150 3084 
Q 2853 3084 3261 2657 
Q 3669 2231 3669 1497 
Q 3669 778 3244 343 
Q 2819 -91 2113 -91 
Q 1303 -91 875 529 
Q 447 1150 447 2328 
Q 447 3434 972 4092 
Q 1497 4750 2381 4750 
Q 2619 4750 2861 4703 
Q 3103 4656 3366 4563 
z
" transform="scale(0.015625)"/>
        <path id="DejaVuSans-38" d="M 2034 2216 
Q 1584 2216 1326 1975 
Q 1069 1734 1069 1313 
Q 1069 891 1326 650 
Q 1584 409 2034 409 
Q 2484 409 2743 651 
Q 3003 894 3003 1313 
Q 3003 1734 2745 1975 
Q 2488 2216 2034 2216 
z
M 1403 2484 
Q 997 2584 770 2862 
Q 544 3141 544 3541 
Q 544 4100 942 4425 
Q 1341 4750 2034 4750 
Q 2731 4750 3128 4425 
Q 3525 4100 3525 3541 
Q 3525 3141 3298 2862 
Q 3072 2584 2669 2484 
Q 3125 2378 3379 2068 
Q 3634 1759 3634 1313 
Q 3634 634 3220 271 
Q 2806 -91 2034 -91 
Q 1263 -91 848 271 
Q 434 634 434 1313 
Q 434 1759 690 2068 
Q 947 2378 1403 2484 
z
M 1172 3481 
Q 1172 3119 1398 2916 
Q 1625 2713 2034 2713 
Q 2441 2713 2670 2916 
Q 2900 3119 2900 3481 
Q 2900 3844 2670 4047 
Q 2441 4250 2034 4250 
Q 1625 4250 1398 4047 
Q 1172 3844 1172 3481 
z
" transform="scale(0.015625)"/>
       </defs>
       <use xlink:href="#DejaVuSans-55"/>
       <use xlink:href="#DejaVuSans-6e" x="73.193359"/>
       <use xlink:href="#DejaVuSans-69" x="136.572266"/>
       <use xlink:href="#DejaVuSans-74" x="164.355469"/>
       <use xlink:href="#DejaVuSans-73" x="203.564453"/>
       <use xlink:href="#DejaVuSans-20" x="255.664062"/>
       <use xlink:href="#DejaVuSans-31" x="287.451172"/>
       <use xlink:href="#DejaVuSans-36" x="351.074219"/>
       <use xlink:href="#DejaVuSans-38" x="414.697266"/>
      </g>
     </g>
    </g>
    <g id="xtick_4">
     <g id="line2d_4">
      <g>
       <use xlink:href="#me617314c95" x="239.145583" y="252" style="stroke: #000000; stroke-width: 0.8"/>
      </g>
     </g>
     <g id="text_4">
      <!-- Units 112 -->
      <g transform="translate(224.186408 298.193603)rotate(-45)scale(0.1 -0.1)">
       <defs>
        <path id="DejaVuSans-32" d="M 1228 531 
L 3431 531 
L 3431 0 
L 469 0 
L 469 531 
Q 828 903 1448 1529 
Q 2069 2156 2228 2338 
Q 2531 2678 2651 2914 
Q 2772 3150 2772 3378 
Q 2772 3750 2511 3984 
Q 2250 4219 1831 4219 
Q 1534 4219 1204 4116 
Q 875 4013 500 3803 
L 500 4441 
Q 881 4594 1212 4672 
Q 1544 4750 1819 4750 
Q 2544 4750 2975 4387 
Q 3406 4025 3406 3419 
Q 3406 3131 3298 2873 
Q 3191 2616 2906 2266 
Q 2828 2175 2409 1742 
Q 1991 1309 1228 531 
z
" transform="scale(0.015625)"/>
       </defs>
       <use xlink:href="#DejaVuSans-55"/>
       <use xlink:href="#DejaVuSans-6e" x="73.193359"/>
       <use xlink:href="#DejaVuSans-69" x="136.572266"/>
       <use xlink:href="#DejaVuSans-74" x="164.355469"/>
       <use xlink:href="#DejaVuSans-73" x="203.564453"/>
       <use xlink:href="#DejaVuSans-20" x="255.664062"/>
       <use xlink:href="#DejaVuSans-31" x="287.451172"/>
       <use xlink:href="#DejaVuSans-31" x="351.074219"/>
       <use xlink:href="#DejaVuSans-32" x="414.697266"/>
      </g>
     </g>
    </g>
    <g id="xtick_5">
     <g id="line2d_5">
      <g>
       <use xlink:href="#me617314c95" x="292.920077" y="252" style="stroke: #000000; stroke-width: 0.8"/>
      </g>
     </g>
     <g id="text_5">
      <!-- Units 379 -->
      <g transform="translate(277.960902 298.193603)rotate(-45)scale(0.1 -0.1)">
       <defs>
        <path id="DejaVuSans-33" d="M 2597 2516 
Q 3050 2419 3304 2112 
Q 3559 1806 3559 1356 
Q 3559 666 3084 287 
Q 2609 -91 1734 -91 
Q 1441 -91 1130 -33 
Q 819 25 488 141 
L 488 750 
Q 750 597 1062 519 
Q 1375 441 1716 441 
Q 2309 441 2620 675 
Q 2931 909 2931 1356 
Q 2931 1769 2642 2001 
Q 2353 2234 1838 2234 
L 1294 2234 
L 1294 2753 
L 1863 2753 
Q 2328 2753 2575 2939 
Q 2822 3125 2822 3475 
Q 2822 3834 2567 4026 
Q 2313 4219 1838 4219 
Q 1578 4219 1281 4162 
Q 984 4106 628 3988 
L 628 4550 
Q 988 4650 1302 4700 
Q 1616 4750 1894 4750 
Q 2613 4750 3031 4423 
Q 3450 4097 3450 3541 
Q 3450 3153 3228 2886 
Q 3006 2619 2597 2516 
z
" transform="scale(0.015625)"/>
        <path id="DejaVuSans-39" d="M 703 97 
L 703 672 
Q 941 559 1184 500 
Q 1428 441 1663 441 
Q 2288 441 2617 861 
Q 2947 1281 2994 2138 
Q 2813 1869 2534 1725 
Q 2256 1581 1919 1581 
Q 1219 1581 811 2004 
Q 403 2428 403 3163 
Q 403 3881 828 4315 
Q 1253 4750 1959 4750 
Q 2769 4750 3195 4129 
Q 3622 3509 3622 2328 
Q 3622 1225 3098 567 
Q 2575 -91 1691 -91 
Q 1453 -91 1209 -44 
Q 966 3 703 97 
z
M 1959 2075 
Q 2384 2075 2632 2365 
Q 2881 2656 2881 3163 
Q 2881 3666 2632 3958 
Q 2384 4250 1959 4250 
Q 1534 4250 1286 3958 
Q 1038 3666 1038 3163 
Q 1038 2656 1286 2365 
Q 1534 2075 1959 2075 
z
" transform="scale(0.015625)"/>
       </defs>
       <use xlink:href="#DejaVuSans-55"/>
       <use xlink:href="#DejaVuSans-6e" x="73.193359"/>
       <use xlink:href="#DejaVuSans-69" x="136.572266"/>
       <use xlink:href="#DejaVuSans-74" x="164.355469"/>
       <use xlink:href="#DejaVuSans-73" x="203.564453"/>
       <use xlink:href="#DejaVuSans-20" x="255.664062"/>
       <use xlink:href="#DejaVuSans-33" x="287.451172"/>
       <use xlink:href="#DejaVuSans-37" x="351.074219"/>
       <use xlink:href="#DejaVuSans-39" x="414.697266"/>
      </g>
     </g>
    </g>
    <g id="xtick_6">
     <g id="line2d_6">
      <g>
       <use xlink:href="#me617314c95" x="346.694571" y="252" style="stroke: #000000; stroke-width: 0.8"/>
      </g>
     </g>
     <g id="text_6">
      <!-- Units 253 -->
      <g transform="translate(331.735396 298.193603)rotate(-45)scale(0.1 -0.1)">
       <use xlink:href="#DejaVuSans-55"/>
       <use xlink:href="#DejaVuSans-6e" x="73.193359"/>
       <use xlink:href="#DejaVuSans-69" x="136.572266"/>
       <use xlink:href="#DejaVuSans-74" x="164.355469"/>
       <use xlink:href="#DejaVuSans-73" x="203.564453"/>
       <use xlink:href="#DejaVuSans-20" x="255.664062"/>
       <use xlink:href="#DejaVuSans-32" x="287.451172"/>
       <use xlink:href="#DejaVuSans-35" x="351.074219"/>
       <use xlink:href="#DejaVuSans-33" x="414.697266"/>
      </g>
     </g>
    </g>
   </g>
   <g id="matplotlib.axis_2">
    <g id="ytick_1">
     <g id="line2d_7">
      <defs>
       <path id="m51edc6f852" d="M 0 0 
L -3.5 0 
" style="stroke: #000000; stroke-width: 0.8"/>
      </defs>
      <g>
       <use xlink:href="#m51edc6f852" x="54" y="252" style="stroke: #000000; stroke-width: 0.8"/>
      </g>
     </g>
     <g id="text_7">
      <!-- 0.0 -->
      <g transform="translate(31.096875 255.799219)scale(0.1 -0.1)">
       <defs>
        <path id="DejaVuSans-2e" d="M 684 794 
L 1344 794 
L 1344 0 
L 684 0 
L 684 794 
z
" transform="scale(0.015625)"/>
       </defs>
       <use xlink:href="#DejaVuSans-30"/>
       <use xlink:href="#DejaVuSans-2e" x="63.623047"/>
       <use xlink:href="#DejaVuSans-30" x="95.410156"/>
      </g>
     </g>
    </g>
    <g id="ytick_2">
     <g id="line2d_8">
      <g>
       <use xlink:href="#m51edc6f852" x="54" y="219.147593" style="stroke: #000000; stroke-width: 0.8"/>
      </g>
     </g>
     <g id="text_8">
      <!-- 0.1 -->
      <g transform="translate(31.096875 222.946812)scale(0.1 -0.1)">
       <use xlink:href="#DejaVuSans-30"/>
       <use xlink:href="#DejaVuSans-2e" x="63.623047"/>
       <use xlink:href="#DejaVuSans-31" x="95.410156"/>
      </g>
     </g>
    </g>
    <g id="ytick_3">
     <g id="line2d_9">
      <g>
       <use xlink:href="#m51edc6f852" x="54" y="186.295187" style="stroke: #000000; stroke-width: 0.8"/>
      </g>
     </g>
     <g id="text_9">
      <!-- 0.2 -->
      <g transform="translate(31.096875 190.094405)scale(0.1 -0.1)">
       <use xlink:href="#DejaVuSans-30"/>
       <use xlink:href="#DejaVuSans-2e" x="63.623047"/>
       <use xlink:href="#DejaVuSans-32" x="95.410156"/>
      </g>
     </g>
    </g>
    <g id="ytick_4">
     <g id="line2d_10">
      <g>
       <use xlink:href="#m51edc6f852" x="54" y="153.44278" style="stroke: #000000; stroke-width: 0.8"/>
      </g>
     </g>
     <g id="text_10">
      <!-- 0.3 -->
      <g transform="translate(31.096875 157.241999)scale(0.1 -0.1)">
       <use xlink:href="#DejaVuSans-30"/>
       <use xlink:href="#DejaVuSans-2e" x="63.623047"/>
       <use xlink:href="#DejaVuSans-33" x="95.410156"/>
      </g>
     </g>
    </g>
    <g id="ytick_5">
     <g id="line2d_11">
      <g>
       <use xlink:href="#m51edc6f852" x="54" y="120.590373" style="stroke: #000000; stroke-width: 0.8"/>
      </g>
     </g>
     <g id="text_11">
      <!-- 0.4 -->
      <g transform="translate(31.096875 124.389592)scale(0.1 -0.1)">
       <defs>
        <path id="DejaVuSans-34" d="M 2419 4116 
L 825 1625 
L 2419 1625 
L 2419 4116 
z
M 2253 4666 
L 3047 4666 
L 3047 1625 
L 3713 1625 
L 3713 1100 
L 3047 1100 
L 3047 0 
L 2419 0 
L 2419 1100 
L 313 1100 
L 313 1709 
L 2253 4666 
z
" transform="scale(0.015625)"/>
       </defs>
       <use xlink:href="#DejaVuSans-30"/>
       <use xlink:href="#DejaVuSans-2e" x="63.623047"/>
       <use xlink:href="#DejaVuSans-34" x="95.410156"/>
      </g>
     </g>
    </g>
    <g id="ytick_6">
     <g id="line2d_12">
      <g>
       <use xlink:href="#m51edc6f852" x="54" y="87.737966" style="stroke: #000000; stroke-width: 0.8"/>
      </g>
     </g>
     <g id="text_12">
      <!-- 0.5 -->
      <g transform="translate(31.096875 91.537185)scale(0.1 -0.1)">
       <use xlink:href="#DejaVuSans-30"/>
       <use xlink:href="#DejaVuSans-2e" x="63.623047"/>
       <use xlink:href="#DejaVuSans-35" x="95.410156"/>
      </g>
     </g>
    </g>
    <g id="ytick_7">
     <g id="line2d_13">
      <g>
       <use xlink:href="#m51edc6f852" x="54" y="54.88556" style="stroke: #000000; stroke-width: 0.8"/>
      </g>
     </g>
     <g id="text_13">
      <!-- 0.6 -->
      <g transform="translate(31.096875 58.684779)scale(0.1 -0.1)">
       <use xlink:href="#DejaVuSans-30"/>
       <use xlink:href="#DejaVuSans-2e" x="63.623047"/>
       <use xlink:href="#DejaVuSans-36" x="95.410156"/>
      </g>
     </g>
    </g>
    <g id="ytick_8">
     <g id="line2d_14">
      <defs>
       <path id="m4d701b230e" d="M 0 0 
L -2 0 
" style="stroke: #000000; stroke-width: 0.6"/>
      </defs>
      <g>
       <use xlink:href="#m4d701b230e" x="54" y="235.573797" style="stroke: #000000; stroke-width: 0.6"/>
      </g>
     </g>
    </g>
    <g id="ytick_9">
     <g id="line2d_15">
      <g>
       <use xlink:href="#m4d701b230e" x="54" y="202.72139" style="stroke: #000000; stroke-width: 0.6"/>
      </g>
     </g>
    </g>
    <g id="ytick_10">
     <g id="line2d_16">
      <g>
       <use xlink:href="#m4d701b230e" x="54" y="169.868983" style="stroke: #000000; stroke-width: 0.6"/>
      </g>
     </g>
    </g>
    <g id="ytick_11">
     <g id="line2d_17">
      <g>
       <use xlink:href="#m4d701b230e" x="54" y="137.016577" style="stroke: #000000; stroke-width: 0.6"/>
      </g>
     </g>
    </g>
    <g id="ytick_12">
     <g id="line2d_18">
      <g>
       <use xlink:href="#m4d701b230e" x="54" y="104.16417" style="stroke: #000000; stroke-width: 0.6"/>
      </g>
     </g>
    </g>
    <g id="ytick_13">
     <g id="line2d_19">
      <g>
       <use xlink:href="#m4d701b230e" x="54" y="71.311763" style="stroke: #000000; stroke-width: 0.6"/>
      </g>
     </g>
    </g>
    <g id="ytick_14">
     <g id="line2d_20">
      <g>
       <use xlink:href="#m4d701b230e" x="54" y="38.459356" style="stroke: #000000; stroke-width: 0.6"/>
      </g>
     </g>
    </g>
    <g id="text_14">
     <!-- Accuracy -->
     <g transform="translate(25.017187 166.108125)rotate(-90)scale(0.1 -0.1)">
      <defs>
       <path id="DejaVuSans-41" d="M 2188 4044 
L 1331 1722 
L 3047 1722 
L 2188 4044 
z
M 1831 4666 
L 2547 4666 
L 4325 0 
L 3669 0 
L 3244 1197 
L 1141 1197 
L 716 0 
L 50 0 
L 1831 4666 
z
" transform="scale(0.015625)"/>
       <path id="DejaVuSans-63" d="M 3122 3366 
L 3122 2828 
Q 2878 2963 2633 3030 
Q 2388 3097 2138 3097 
Q 1578 3097 1268 2742 
Q 959 2388 959 1747 
Q 959 1106 1268 751 
Q 1578 397 2138 397 
Q 2388 397 2633 464 
Q 2878 531 3122 666 
L 3122 134 
Q 2881 22 2623 -34 
Q 2366 -91 2075 -91 
Q 1284 -91 818 406 
Q 353 903 353 1747 
Q 353 2603 823 3093 
Q 1294 3584 2113 3584 
Q 2378 3584 2631 3529 
Q 2884 3475 3122 3366 
z
" transform="scale(0.015625)"/>
       <path id="DejaVuSans-75" d="M 544 1381 
L 544 3500 
L 1119 3500 
L 1119 1403 
Q 1119 906 1312 657 
Q 1506 409 1894 409 
Q 2359 409 2629 706 
Q 2900 1003 2900 1516 
L 2900 3500 
L 3475 3500 
L 3475 0 
L 2900 0 
L 2900 538 
Q 2691 219 2414 64 
Q 2138 -91 1772 -91 
Q 1169 -91 856 284 
Q 544 659 544 1381 
z
M 1991 3584 
L 1991 3584 
z
" transform="scale(0.015625)"/>
       <path id="DejaVuSans-72" d="M 2631 2963 
Q 2534 3019 2420 3045 
Q 2306 3072 2169 3072 
Q 1681 3072 1420 2755 
Q 1159 2438 1159 1844 
L 1159 0 
L 581 0 
L 581 3500 
L 1159 3500 
L 1159 2956 
Q 1341 3275 1631 3429 
Q 1922 3584 2338 3584 
Q 2397 3584 2469 3576 
Q 2541 3569 2628 3553 
L 2631 2963 
z
" transform="scale(0.015625)"/>
       <path id="DejaVuSans-61" d="M 2194 1759 
Q 1497 1759 1228 1600 
Q 959 1441 959 1056 
Q 959 750 1161 570 
Q 1363 391 1709 391 
Q 2188 391 2477 730 
Q 2766 1069 2766 1631 
L 2766 1759 
L 2194 1759 
z
M 3341 1997 
L 3341 0 
L 2766 0 
L 2766 531 
Q 2569 213 2275 61 
Q 1981 -91 1556 -91 
Q 1019 -91 701 211 
Q 384 513 384 1019 
Q 384 1609 779 1909 
Q 1175 2209 1959 2209 
L 2766 2209 
L 2766 2266 
Q 2766 2663 2505 2880 
Q 2244 3097 1772 3097 
Q 1472 3097 1187 3025 
Q 903 2953 641 2809 
L 641 3341 
Q 956 3463 1253 3523 
Q 1550 3584 1831 3584 
Q 2591 3584 2966 3190 
Q 3341 2797 3341 1997 
z
" transform="scale(0.015625)"/>
       <path id="DejaVuSans-79" d="M 2059 -325 
Q 1816 -950 1584 -1140 
Q 1353 -1331 966 -1331 
L 506 -1331 
L 506 -850 
L 844 -850 
Q 1081 -850 1212 -737 
Q 1344 -625 1503 -206 
L 1606 56 
L 191 3500 
L 800 3500 
L 1894 763 
L 2988 3500 
L 3597 3500 
L 2059 -325 
z
" transform="scale(0.015625)"/>
      </defs>
      <use xlink:href="#DejaVuSans-41"/>
      <use xlink:href="#DejaVuSans-63" x="66.658203"/>
      <use xlink:href="#DejaVuSans-63" x="121.638672"/>
      <use xlink:href="#DejaVuSans-75" x="176.619141"/>
      <use xlink:href="#DejaVuSans-72" x="239.998047"/>
      <use xlink:href="#DejaVuSans-61" x="281.111328"/>
      <use xlink:href="#DejaVuSans-63" x="342.390625"/>
      <use xlink:href="#DejaVuSans-79" x="397.371094"/>
     </g>
    </g>
   </g>
   <g id="LineCollection_1">
    <path d="M 73.251269 179.417377 
L 73.251269 121.627756 
" clip-path="url(#p82522b9f4a)" style="fill: none; stroke: #000000; stroke-width: 1.5"/>
    <path d="M 127.025763 152.693898 
L 127.025763 117.323958 
" clip-path="url(#p82522b9f4a)" style="fill: none; stroke: #000000; stroke-width: 1.5"/>
    <path d="M 180.800257 182.206804 
L 180.800257 116.648165 
" clip-path="url(#p82522b9f4a)" style="fill: none; stroke: #000000; stroke-width: 1.5"/>
    <path d="M 234.574751 128.015721 
L 234.574751 104.404388 
" clip-path="url(#p82522b9f4a)" style="fill: none; stroke: #000000; stroke-width: 1.5"/>
    <path d="M 288.349245 167.724115 
L 288.349245 111.784437 
" clip-path="url(#p82522b9f4a)" style="fill: none; stroke: #000000; stroke-width: 1.5"/>
    <path d="M 342.123739 92.672538 
L 342.123739 67.837297 
" clip-path="url(#p82522b9f4a)" style="fill: none; stroke: #000000; stroke-width: 1.5"/>
   </g>
   <g id="line2d_21">
    <defs>
     <path id="m0e379feb5d" d="M 3 0 
L -3 -0 
" style="stroke: #000000"/>
    </defs>
    <g clip-path="url(#p82522b9f4a)">
     <use xlink:href="#m0e379feb5d" x="73.251269" y="179.417377" style="stroke: #000000"/>
     <use xlink:href="#m0e379feb5d" x="127.025763" y="152.693898" style="stroke: #000000"/>
     <use xlink:href="#m0e379feb5d" x="180.800257" y="182.206804" style="stroke: #000000"/>
     <use xlink:href="#m0e379feb5d" x="234.574751" y="128.015721" style="stroke: #000000"/>
     <use xlink:href="#m0e379feb5d" x="288.349245" y="167.724115" style="stroke: #000000"/>
     <use xlink:href="#m0e379feb5d" x="342.123739" y="92.672538" style="stroke: #000000"/>
    </g>
   </g>
   <g id="line2d_22">
    <g clip-path="url(#p82522b9f4a)">
     <use xlink:href="#m0e379feb5d" x="73.251269" y="121.627756" style="stroke: #000000"/>
     <use xlink:href="#m0e379feb5d" x="127.025763" y="117.323958" style="stroke: #000000"/>
     <use xlink:href="#m0e379feb5d" x="180.800257" y="116.648165" style="stroke: #000000"/>
     <use xlink:href="#m0e379feb5d" x="234.574751" y="104.404388" style="stroke: #000000"/>
     <use xlink:href="#m0e379feb5d" x="288.349245" y="111.784437" style="stroke: #000000"/>
     <use xlink:href="#m0e379feb5d" x="342.123739" y="67.837297" style="stroke: #000000"/>
    </g>
   </g>
   <g id="LineCollection_2">
    <path d="M 82.392933 212.517216 
L 82.392933 145.837113 
" clip-path="url(#p82522b9f4a)" style="fill: none; stroke: #000000; stroke-width: 1.5"/>
    <path d="M 136.167427 136.147233 
L 136.167427 107.588701 
" clip-path="url(#p82522b9f4a)" style="fill: none; stroke: #000000; stroke-width: 1.5"/>
    <path d="M 189.941921 134.718743 
L 189.941921 97.701364 
" clip-path="url(#p82522b9f4a)" style="fill: none; stroke: #000000; stroke-width: 1.5"/>
    <path d="M 243.716415 115.784089 
L 243.716415 78.673235 
" clip-path="url(#p82522b9f4a)" style="fill: none; stroke: #000000; stroke-width: 1.5"/>
    <path d="M 297.490909 98.074264 
L 297.490909 44.914286 
" clip-path="url(#p82522b9f4a)" style="fill: none; stroke: #000000; stroke-width: 1.5"/>
    <path d="M 351.265403 91.91415 
L 351.265403 50.344348 
" clip-path="url(#p82522b9f4a)" style="fill: none; stroke: #000000; stroke-width: 1.5"/>
   </g>
   <g id="line2d_23">
    <g clip-path="url(#p82522b9f4a)">
     <use xlink:href="#m0e379feb5d" x="82.392933" y="212.517216" style="stroke: #000000"/>
     <use xlink:href="#m0e379feb5d" x="136.167427" y="136.147233" style="stroke: #000000"/>
     <use xlink:href="#m0e379feb5d" x="189.941921" y="134.718743" style="stroke: #000000"/>
     <use xlink:href="#m0e379feb5d" x="243.716415" y="115.784089" style="stroke: #000000"/>
     <use xlink:href="#m0e379feb5d" x="297.490909" y="98.074264" style="stroke: #000000"/>
     <use xlink:href="#m0e379feb5d" x="351.265403" y="91.91415" style="stroke: #000000"/>
    </g>
   </g>
   <g id="line2d_24">
    <g clip-path="url(#p82522b9f4a)">
     <use xlink:href="#m0e379feb5d" x="82.392933" y="145.837113" style="stroke: #000000"/>
     <use xlink:href="#m0e379feb5d" x="136.167427" y="107.588701" style="stroke: #000000"/>
     <use xlink:href="#m0e379feb5d" x="189.941921" y="97.701364" style="stroke: #000000"/>
     <use xlink:href="#m0e379feb5d" x="243.716415" y="78.673235" style="stroke: #000000"/>
     <use xlink:href="#m0e379feb5d" x="297.490909" y="44.914286" style="stroke: #000000"/>
     <use xlink:href="#m0e379feb5d" x="351.265403" y="50.344348" style="stroke: #000000"/>
    </g>
   </g>
   <g id="LineCollection_3">
    <path d="M 91.534597 152.630412 
L 91.534597 97.676004 
" clip-path="url(#p82522b9f4a)" style="fill: none; stroke: #000000; stroke-width: 1.5"/>
    <path d="M 145.309091 165.402256 
L 145.309091 105.345654 
" clip-path="url(#p82522b9f4a)" style="fill: none; stroke: #000000; stroke-width: 1.5"/>
    <path d="M 199.083585 151.040427 
L 199.083585 107.296576 
" clip-path="url(#p82522b9f4a)" style="fill: none; stroke: #000000; stroke-width: 1.5"/>
    <path d="M 252.858079 128.422771 
L 252.858079 92.316477 
" clip-path="url(#p82522b9f4a)" style="fill: none; stroke: #000000; stroke-width: 1.5"/>
    <path d="M 306.632573 98.698545 
L 306.632573 57.795996 
" clip-path="url(#p82522b9f4a)" style="fill: none; stroke: #000000; stroke-width: 1.5"/>
    <path d="M 360.407067 71.652947 
L 360.407067 54.909396 
" clip-path="url(#p82522b9f4a)" style="fill: none; stroke: #000000; stroke-width: 1.5"/>
   </g>
   <g id="line2d_25">
    <g clip-path="url(#p82522b9f4a)">
     <use xlink:href="#m0e379feb5d" x="91.534597" y="152.630412" style="stroke: #000000"/>
     <use xlink:href="#m0e379feb5d" x="145.309091" y="165.402256" style="stroke: #000000"/>
     <use xlink:href="#m0e379feb5d" x="199.083585" y="151.040427" style="stroke: #000000"/>
     <use xlink:href="#m0e379feb5d" x="252.858079" y="128.422771" style="stroke: #000000"/>
     <use xlink:href="#m0e379feb5d" x="306.632573" y="98.698545" style="stroke: #000000"/>
     <use xlink:href="#m0e379feb5d" x="360.407067" y="71.652947" style="stroke: #000000"/>
    </g>
   </g>
   <g id="line2d_26">
    <g clip-path="url(#p82522b9f4a)">
     <use xlink:href="#m0e379feb5d" x="91.534597" y="97.676004" style="stroke: #000000"/>
     <use xlink:href="#m0e379feb5d" x="145.309091" y="105.345654" style="stroke: #000000"/>
     <use xlink:href="#m0e379feb5d" x="199.083585" y="107.296576" style="stroke: #000000"/>
     <use xlink:href="#m0e379feb5d" x="252.858079" y="92.316477" style="stroke: #000000"/>
     <use xlink:href="#m0e379feb5d" x="306.632573" y="57.795996" style="stroke: #000000"/>
     <use xlink:href="#m0e379feb5d" x="360.407067" y="54.909396" style="stroke: #000000"/>
    </g>
   </g>
   <g id="LineCollection_4">
    <path d="M 100.676261 147.279226 
L 100.676261 115.438098 
" clip-path="url(#p82522b9f4a)" style="fill: none; stroke: #000000; stroke-width: 1.5"/>
    <path d="M 154.450755 160.320583 
L 154.450755 111.887434 
" clip-path="url(#p82522b9f4a)" style="fill: none; stroke: #000000; stroke-width: 1.5"/>
    <path d="M 208.225249 126.771933 
L 208.225249 87.761862 
" clip-path="url(#p82522b9f4a)" style="fill: none; stroke: #000000; stroke-width: 1.5"/>
    <path d="M 261.999743 126.106283 
L 261.999743 93.17286 
" clip-path="url(#p82522b9f4a)" style="fill: none; stroke: #000000; stroke-width: 1.5"/>
    <path d="M 315.774237 116.440483 
L 315.774237 80.937055 
" clip-path="url(#p82522b9f4a)" style="fill: none; stroke: #000000; stroke-width: 1.5"/>
    <path d="M 369.548731 86.828866 
L 369.548731 57.984817 
" clip-path="url(#p82522b9f4a)" style="fill: none; stroke: #000000; stroke-width: 1.5"/>
   </g>
   <g id="line2d_27">
    <g clip-path="url(#p82522b9f4a)">
     <use xlink:href="#m0e379feb5d" x="100.676261" y="147.279226" style="stroke: #000000"/>
     <use xlink:href="#m0e379feb5d" x="154.450755" y="160.320583" style="stroke: #000000"/>
     <use xlink:href="#m0e379feb5d" x="208.225249" y="126.771933" style="stroke: #000000"/>
     <use xlink:href="#m0e379feb5d" x="261.999743" y="126.106283" style="stroke: #000000"/>
     <use xlink:href="#m0e379feb5d" x="315.774237" y="116.440483" style="stroke: #000000"/>
     <use xlink:href="#m0e379feb5d" x="369.548731" y="86.828866" style="stroke: #000000"/>
    </g>
   </g>
   <g id="line2d_28">
    <g clip-path="url(#p82522b9f4a)">
     <use xlink:href="#m0e379feb5d" x="100.676261" y="115.438098" style="stroke: #000000"/>
     <use xlink:href="#m0e379feb5d" x="154.450755" y="111.887434" style="stroke: #000000"/>
     <use xlink:href="#m0e379feb5d" x="208.225249" y="87.761862" style="stroke: #000000"/>
     <use xlink:href="#m0e379feb5d" x="261.999743" y="93.17286" style="stroke: #000000"/>
     <use xlink:href="#m0e379feb5d" x="315.774237" y="80.937055" style="stroke: #000000"/>
     <use xlink:href="#m0e379feb5d" x="369.548731" y="57.984817" style="stroke: #000000"/>
    </g>
   </g>
   <g id="patch_27">
    <path d="M 54 252 
L 54 34.56 
" style="fill: none; stroke: #000000; stroke-width: 0.8; stroke-linejoin: miter; stroke-linecap: square"/>
   </g>
   <g id="patch_28">
    <path d="M 388.8 252 
L 388.8 34.56 
" style="fill: none; stroke: #000000; stroke-width: 0.8; stroke-linejoin: miter; stroke-linecap: square"/>
   </g>
   <g id="patch_29">
    <path d="M 54 252 
L 388.8 252 
" style="fill: none; stroke: #000000; stroke-width: 0.8; stroke-linejoin: miter; stroke-linecap: square"/>
   </g>
   <g id="patch_30">
    <path d="M 54 34.56 
L 388.8 34.56 
" style="fill: none; stroke: #000000; stroke-width: 0.8; stroke-linejoin: miter; stroke-linecap: square"/>
   </g>
   <g id="text_15">
    <!-- Libras dataset -->
    <g transform="translate(178.720313 28.56)scale(0.12 -0.12)">
     <defs>
      <path id="DejaVuSans-4c" d="M 628 4666 
L 1259 4666 
L 1259 531 
L 3531 531 
L 3531 0 
L 628 0 
L 628 4666 
z
" transform="scale(0.015625)"/>
      <path id="DejaVuSans-62" d="M 3116 1747 
Q 3116 2381 2855 2742 
Q 2594 3103 2138 3103 
Q 1681 3103 1420 2742 
Q 1159 2381 1159 1747 
Q 1159 1113 1420 752 
Q 1681 391 2138 391 
Q 2594 391 2855 752 
Q 3116 1113 3116 1747 
z
M 1159 2969 
Q 1341 3281 1617 3432 
Q 1894 3584 2278 3584 
Q 2916 3584 3314 3078 
Q 3713 2572 3713 1747 
Q 3713 922 3314 415 
Q 2916 -91 2278 -91 
Q 1894 -91 1617 61 
Q 1341 213 1159 525 
L 1159 0 
L 581 0 
L 581 4863 
L 1159 4863 
L 1159 2969 
z
" transform="scale(0.015625)"/>
      <path id="DejaVuSans-64" d="M 2906 2969 
L 2906 4863 
L 3481 4863 
L 3481 0 
L 2906 0 
L 2906 525 
Q 2725 213 2448 61 
Q 2172 -91 1784 -91 
Q 1150 -91 751 415 
Q 353 922 353 1747 
Q 353 2572 751 3078 
Q 1150 3584 1784 3584 
Q 2172 3584 2448 3432 
Q 2725 3281 2906 2969 
z
M 947 1747 
Q 947 1113 1208 752 
Q 1469 391 1925 391 
Q 2381 391 2643 752 
Q 2906 1113 2906 1747 
Q 2906 2381 2643 2742 
Q 2381 3103 1925 3103 
Q 1469 3103 1208 2742 
Q 947 2381 947 1747 
z
" transform="scale(0.015625)"/>
      <path id="DejaVuSans-65" d="M 3597 1894 
L 3597 1613 
L 953 1613 
Q 991 1019 1311 708 
Q 1631 397 2203 397 
Q 2534 397 2845 478 
Q 3156 559 3463 722 
L 3463 178 
Q 3153 47 2828 -22 
Q 2503 -91 2169 -91 
Q 1331 -91 842 396 
Q 353 884 353 1716 
Q 353 2575 817 3079 
Q 1281 3584 2069 3584 
Q 2775 3584 3186 3129 
Q 3597 2675 3597 1894 
z
M 3022 2063 
Q 3016 2534 2758 2815 
Q 2500 3097 2075 3097 
Q 1594 3097 1305 2825 
Q 1016 2553 972 2059 
L 3022 2063 
z
" transform="scale(0.015625)"/>
     </defs>
     <use xlink:href="#DejaVuSans-4c"/>
     <use xlink:href="#DejaVuSans-69" x="55.712891"/>
     <use xlink:href="#DejaVuSans-62" x="83.496094"/>
     <use xlink:href="#DejaVuSans-72" x="146.972656"/>
     <use xlink:href="#DejaVuSans-61" x="188.085938"/>
     <use xlink:href="#DejaVuSans-73" x="249.365234"/>
     <use xlink:href="#DejaVuSans-20" x="301.464844"/>
     <use xlink:href="#DejaVuSans-64" x="333.251953"/>
     <use xlink:href="#DejaVuSans-61" x="396.728516"/>
     <use xlink:href="#DejaVuSans-74" x="458.007812"/>
     <use xlink:href="#DejaVuSans-61" x="497.216797"/>
     <use xlink:href="#DejaVuSans-73" x="558.496094"/>
     <use xlink:href="#DejaVuSans-65" x="610.595703"/>
     <use xlink:href="#DejaVuSans-74" x="672.119141"/>
    </g>
   </g>
   <g id="legend_1">
    <g id="patch_31">
     <path d="M 323.289062 247 
L 381.8 247 
Q 383.8 247 383.8 245 
L 383.8 187.2875 
Q 383.8 185.2875 381.8 185.2875 
L 323.289062 185.2875 
Q 321.289062 185.2875 321.289062 187.2875 
L 321.289062 245 
Q 321.289062 247 323.289062 247 
z
" style="fill: #ffffff; opacity: 0.8; stroke: #cccccc; stroke-linejoin: miter"/>
    </g>
    <g id="patch_32">
     <path d="M 325.289062 196.885938 
L 345.289062 196.885938 
L 345.289062 189.885938 
L 325.289062 189.885938 
z
" style="fill: #1f77b4"/>
    </g>
    <g id="text_16">
     <!-- ESN1 -->
     <g transform="translate(353.289062 196.885938)scale(0.1 -0.1)">
      <defs>
       <path id="DejaVuSans-45" d="M 628 4666 
L 3578 4666 
L 3578 4134 
L 1259 4134 
L 1259 2753 
L 3481 2753 
L 3481 2222 
L 1259 2222 
L 1259 531 
L 3634 531 
L 3634 0 
L 628 0 
L 628 4666 
z
" transform="scale(0.015625)"/>
       <path id="DejaVuSans-53" d="M 3425 4513 
L 3425 3897 
Q 3066 4069 2747 4153 
Q 2428 4238 2131 4238 
Q 1616 4238 1336 4038 
Q 1056 3838 1056 3469 
Q 1056 3159 1242 3001 
Q 1428 2844 1947 2747 
L 2328 2669 
Q 3034 2534 3370 2195 
Q 3706 1856 3706 1288 
Q 3706 609 3251 259 
Q 2797 -91 1919 -91 
Q 1588 -91 1214 -16 
Q 841 59 441 206 
L 441 856 
Q 825 641 1194 531 
Q 1563 422 1919 422 
Q 2459 422 2753 634 
Q 3047 847 3047 1241 
Q 3047 1584 2836 1778 
Q 2625 1972 2144 2069 
L 1759 2144 
Q 1053 2284 737 2584 
Q 422 2884 422 3419 
Q 422 4038 858 4394 
Q 1294 4750 2059 4750 
Q 2388 4750 2728 4690 
Q 3069 4631 3425 4513 
z
" transform="scale(0.015625)"/>
       <path id="DejaVuSans-4e" d="M 628 4666 
L 1478 4666 
L 3547 763 
L 3547 4666 
L 4159 4666 
L 4159 0 
L 3309 0 
L 1241 3903 
L 1241 0 
L 628 0 
L 628 4666 
z
" transform="scale(0.015625)"/>
      </defs>
      <use xlink:href="#DejaVuSans-45"/>
      <use xlink:href="#DejaVuSans-53" x="63.183594"/>
      <use xlink:href="#DejaVuSans-4e" x="126.660156"/>
      <use xlink:href="#DejaVuSans-31" x="201.464844"/>
     </g>
    </g>
    <g id="patch_33">
     <path d="M 325.289062 211.564063 
L 345.289062 211.564063 
L 345.289062 204.564063 
L 325.289062 204.564063 
z
" style="fill: #ff7f0e"/>
    </g>
    <g id="text_17">
     <!-- ESN2 -->
     <g transform="translate(353.289062 211.564063)scale(0.1 -0.1)">
      <use xlink:href="#DejaVuSans-45"/>
      <use xlink:href="#DejaVuSans-53" x="63.183594"/>
      <use xlink:href="#DejaVuSans-4e" x="126.660156"/>
      <use xlink:href="#DejaVuSans-32" x="201.464844"/>
     </g>
    </g>
    <g id="patch_34">
     <path d="M 325.289062 226.242188 
L 345.289062 226.242188 
L 345.289062 219.242188 
L 325.289062 219.242188 
z
" style="fill: #2ca02c"/>
    </g>
    <g id="text_18">
     <!-- ESN3 -->
     <g transform="translate(353.289062 226.242188)scale(0.1 -0.1)">
      <use xlink:href="#DejaVuSans-45"/>
      <use xlink:href="#DejaVuSans-53" x="63.183594"/>
      <use xlink:href="#DejaVuSans-4e" x="126.660156"/>
      <use xlink:href="#DejaVuSans-33" x="201.464844"/>
     </g>
    </g>
    <g id="patch_35">
     <path d="M 325.289062 240.920312 
L 345.289062 240.920312 
L 345.289062 233.920312 
L 325.289062 233.920312 
z
" style="fill: #d62728"/>
    </g>
    <g id="text_19">
     <!-- ESN4 -->
     <g transform="translate(353.289062 240.920312)scale(0.1 -0.1)">
      <use xlink:href="#DejaVuSans-45"/>
      <use xlink:href="#DejaVuSans-53" x="63.183594"/>
      <use xlink:href="#DejaVuSans-4e" x="126.660156"/>
      <use xlink:href="#DejaVuSans-34" x="201.464844"/>
     </g>
    </g>
   </g>
  </g>
 </g>
 <defs>
  <clipPath id="p82522b9f4a">
   <rect x="54" y="34.56" width="334.8" height="217.44"/>
  </clipPath>
 </defs>
</svg>
